<?xml version="1.0" encoding="UTF-8" standalone="no"?>
<!-- Created with Inkscape (http://www.inkscape.org/) -->
<svg
   xmlns:dc="http://purl.org/dc/elements/1.1/"
   xmlns:cc="http://creativecommons.org/ns#"
   xmlns:rdf="http://www.w3.org/1999/02/22-rdf-syntax-ns#"
   xmlns:svg="http://www.w3.org/2000/svg"
   xmlns="http://www.w3.org/2000/svg"
   xmlns:xlink="http://www.w3.org/1999/xlink"
   xmlns:sodipodi="http://sodipodi.sourceforge.net/DTD/sodipodi-0.dtd"
   xmlns:inkscape="http://www.inkscape.org/namespaces/inkscape"
   width="493.9151"
   height="212.5"
   id="svg2406"
   sodipodi:version="0.32"
   inkscape:version="0.46"
   version="1.0"
   sodipodi:docname="blogs.svg"
   inkscape:output_extension="org.inkscape.output.svg.inkscape"
   inkscape:export-filename="C:\Users\joeb\Pictures\personal\svg\hum - white.png"
   inkscape:export-xdpi="89.668961"
   inkscape:export-ydpi="89.668961"
   style="display:inline">
  <defs
     id="defs2408">
    <inkscape:perspective
       sodipodi:type="inkscape:persp3d"
       inkscape:vp_x="0 : 526.18109 : 1"
       inkscape:vp_y="0 : 1000 : 0"
       inkscape:vp_z="744.09448 : 526.18109 : 1"
       inkscape:persp3d-origin="372.04724 : 350.78739 : 1"
       id="perspective2414" />
    <inkscape:perspective
       id="perspective3546"
       inkscape:persp3d-origin="372.04724 : 350.78739 : 1"
       inkscape:vp_z="744.09448 : 526.18109 : 1"
       inkscape:vp_y="0 : 1000 : 0"
       inkscape:vp_x="0 : 526.18109 : 1"
       sodipodi:type="inkscape:persp3d" />
    <inkscape:perspective
       sodipodi:type="inkscape:persp3d"
       inkscape:vp_x="0 : 526.18109 : 1"
       inkscape:vp_y="0 : 1000 : 0"
       inkscape:vp_z="744.09448 : 526.18109 : 1"
       inkscape:persp3d-origin="372.04724 : 350.78739 : 1"
       id="perspective2604" />
    <inkscape:perspective
       id="perspective2602"
       inkscape:persp3d-origin="372.04724 : 350.78739 : 1"
       inkscape:vp_z="744.09448 : 526.18109 : 1"
       inkscape:vp_y="0 : 1000 : 0"
       inkscape:vp_x="0 : 526.18109 : 1"
       sodipodi:type="inkscape:persp3d" />
  </defs>
  <sodipodi:namedview
     id="base"
     pagecolor="#000000"
     bordercolor="#666666"
     borderopacity="1.0"
     gridtolerance="10000"
     guidetolerance="10"
     objecttolerance="10"
     inkscape:pageopacity="0"
     inkscape:pageshadow="2"
     inkscape:zoom="0.5873681"
     inkscape:cx="221.60555"
     inkscape:cy="-20.712269"
     inkscape:document-units="px"
     inkscape:current-layer="layer1"
     showgrid="false"
     inkscape:window-width="1680"
     inkscape:window-height="1000"
     inkscape:window-x="1280"
     inkscape:window-y="14"
     showguides="true"
     inkscape:guide-bbox="true"
     showborder="false" />
  <metadata
     id="metadata2411">
    <rdf:RDF>
      <cc:Work
         rdf:about="">
        <dc:format>image/svg+xml</dc:format>
        <dc:type
           rdf:resource="http://purl.org/dc/dcmitype/StillImage" />
      </cc:Work>
    </rdf:RDF>
  </metadata>
  <g
     inkscape:groupmode="layer"
     id="layer6"
     inkscape:label="Name"
     transform="translate(1405.2678,-411.83117)">
    <flowRoot
       xml:space="preserve"
       id="flowRoot3228"
       style="font-size:32px;font-style:normal;font-variant:normal;font-weight:900;font-stretch:normal;text-align:start;line-height:125%;writing-mode:lr-tb;text-anchor:start;fill:#ffffff;fill-opacity:1;stroke:#d40000;stroke-width:4.09575605;stroke-linecap:butt;stroke-linejoin:miter;stroke-miterlimit:4;stroke-dasharray:none;stroke-opacity:1;display:inline;font-family:Blackoak Std;-inkscape-font-specification:Blackoak Std Heavy"
       transform="matrix(0.6723965,0,0,0.7515912,-653.22455,-440.98461)"
       inkscape:export-filename="F:\Pictures\SVG\path3240.png"
       inkscape:export-xdpi="89.668961"
       inkscape:export-ydpi="89.668961"><flowRegion
         id="flowRegion3230"><rect
           id="rect3232"
           width="746.349"
           height="49.758869"
           x="-803.58466"
           y="1266.9891"
           style="fill:#ffffff;stroke:#d40000;stroke-width:4.09575605;stroke-linecap:butt;stroke-linejoin:miter;stroke-miterlimit:4;stroke-dasharray:none" /></flowRegion><flowPara
         id="flowPara3234"
         style="font-size:62.50372314px;font-style:normal;font-variant:normal;font-weight:normal;font-stretch:normal;text-align:start;line-height:100%;writing-mode:lr-tb;text-anchor:start;stroke:#d40000;stroke-width:4.09575605;stroke-linecap:butt;stroke-linejoin:miter;stroke-miterlimit:4;stroke-dasharray:none;font-family:Wide Latin;-inkscape-font-specification:Wide Latin">BLOGS</flowPara></flowRoot>    <flowRoot
       xml:space="preserve"
       id="flowRoot3855"
       style="font-size:32px;font-style:normal;font-variant:normal;font-weight:900;font-stretch:normal;text-align:start;line-height:125%;writing-mode:lr-tb;text-anchor:start;fill:#000000;fill-opacity:1;stroke:none;stroke-width:1px;stroke-linecap:butt;stroke-linejoin:miter;stroke-opacity:1;font-family:Blackoak Std;-inkscape-font-specification:Blackoak Std Heavy"><flowRegion
         id="flowRegion3857"><rect
           id="rect3859"
           width="384.76721"
           height="71.505409"
           x="1065.7711"
           y="297.92178" /></flowRegion><flowPara
         id="flowPara3861" /></flowRoot>    <text
       xml:space="preserve"
       style="font-size:32px;font-style:normal;font-variant:normal;font-weight:900;font-stretch:normal;text-align:start;line-height:125%;writing-mode:lr-tb;text-anchor:start;fill:#000000;fill-opacity:1;stroke:none;stroke-width:1px;stroke-linecap:butt;stroke-linejoin:miter;stroke-opacity:1;font-family:Blackoak Std;-inkscape-font-specification:Blackoak Std Heavy"
       x="204.05363"
       y="-87.822685"
       id="text2458"
       sodipodi:linespacing="125%"
       transform="translate(-1194.7267,508.17913)"><tspan
         sodipodi:role="line"
         id="tspan2460"
         x="204.05363"
         y="-87.822685" /></text>
  </g>
  <g
     inkscape:groupmode="layer"
     id="layer1"
     inkscape:label="hum"
     transform="translate(210.54111,95.797454)">
    <g
       style="display:inline"
       id="g2606"
       transform="matrix(0.125,0,0,0.125,-97.355513,-21.011536)"
       inkscape:export-filename="F:\Pictures\SVG\path3240.png"
       inkscape:export-xdpi="89.668961"
       inkscape:export-ydpi="89.668961">
      <g
         transform="translate(-202.19908,-440.64953)"
         style="display:none"
         inkscape:label="photo"
         id="layer2">
        <image
           transform="matrix(0,-1,1,0,0,0)"
           xlink:href="scan0001.jpg"
           sodipodi:absref="C:\Users\joeb\Pictures\personal\svg\scan0001.jpg"
           width="1700"
           height="2338"
           id="image3548"
           x="-1542.3622"
           y="-703.28571" />
      </g>
      <g
         style="display:inline"
         transform="translate(-202.19908,-440.64953)"
         inkscape:label="base"
         id="layer3">
        <path
           inkscape:export-ydpi="90.044502"
           inkscape:export-xdpi="90.044502"
           inkscape:export-filename="F:\Pictures\SVG\path2433.png"
           id="path3555"
           d="M 668.33724,631.65437 C 786.57154,627.35495 883.30867,511.27037 883.30867,511.27037 C 826.34122,471.50065 772.59838,477.94979 772.59838,477.94979"
           style="fill:none;fill-rule:evenodd;stroke:none;stroke-width:8;stroke-linecap:butt;stroke-linejoin:miter;marker-start:none;stroke-miterlimit:4;stroke-dasharray:none;stroke-opacity:1" />
        <path
           inkscape:export-ydpi="90.044502"
           inkscape:export-xdpi="90.044502"
           inkscape:export-filename="F:\Pictures\SVG\path2433.png"
           sodipodi:nodetypes="ccc"
           id="path4842"
           d="M 473.7881,639.17837 C 563.00124,500.5218 809.37302,454.47202 809.37302,454.47202 C 808.06261,474.95166 809.42735,480.49503 809.42735,480.49503"
           style="fill:none;fill-rule:evenodd;stroke:none;stroke-width:8;stroke-linecap:butt;stroke-linejoin:miter;stroke-miterlimit:4;stroke-dasharray:none;stroke-opacity:1" />
        <path
           inkscape:export-ydpi="90.044502"
           inkscape:export-xdpi="90.044502"
           inkscape:export-filename="F:\Pictures\SVG\path2433.png"
           sodipodi:nodetypes="cc"
           id="path4848"
           d="M 474.23332,638.73315 C 282.90876,864.45314 471.63838,951.9618 471.63838,951.9618"
           style="fill:none;fill-rule:evenodd;stroke:none;stroke-width:8;stroke-linecap:butt;stroke-linejoin:miter;stroke-miterlimit:4;stroke-dasharray:none;stroke-opacity:1" />
        <path
           inkscape:export-ydpi="90.044502"
           inkscape:export-xdpi="90.044502"
           inkscape:export-filename="F:\Pictures\SVG\path2433.png"
           sodipodi:nodetypes="cc"
           id="path4850"
           d="M 563.69279,937.39249 C 522.91467,969.59392 471.63838,951.9618 471.63838,951.9618"
           style="fill:none;fill-rule:evenodd;stroke:none;stroke-width:8;stroke-linecap:butt;stroke-linejoin:miter;stroke-miterlimit:4;stroke-dasharray:none;stroke-opacity:1" />
        <path
           inkscape:export-ydpi="90.044502"
           inkscape:export-xdpi="90.044502"
           inkscape:export-filename="F:\Pictures\SVG\path2433.png"
           sodipodi:nodetypes="ccc"
           id="path4852"
           d="M 477.25401,878.69516 C 436.40943,823.87746 546.87838,799.33209 546.87838,799.33209 C 586.85421,787.25824 590.94753,757.41265 590.94753,757.41265"
           style="fill:none;fill-rule:evenodd;stroke:none;stroke-width:8;stroke-linecap:butt;stroke-linejoin:miter;stroke-miterlimit:4;stroke-dasharray:none;stroke-opacity:1" />
        <path
           inkscape:export-ydpi="90.044502"
           inkscape:export-xdpi="90.044502"
           inkscape:export-filename="F:\Pictures\SVG\path2433.png"
           sodipodi:nodetypes="cc"
           id="path4858"
           d="M 538.09557,888.77349 C 582.46126,881.33176 563.99476,856.69318 563.99476,856.69318"
           style="fill:none;fill-rule:evenodd;stroke:none;stroke-width:8;stroke-linecap:butt;stroke-linejoin:miter;stroke-miterlimit:4;stroke-dasharray:none;stroke-opacity:1" />
        <path
           inkscape:export-ydpi="90.044502"
           inkscape:export-xdpi="90.044502"
           inkscape:export-filename="F:\Pictures\SVG\path2433.png"
           sodipodi:nodetypes="cc"
           id="path4872"
           d="M 594.17211,768.16122 C 589.87268,798.25722 595.08151,822.60012 595.08151,822.60012"
           style="fill:none;fill-rule:evenodd;stroke:none;stroke-width:8;stroke-linecap:butt;stroke-linejoin:miter;stroke-miterlimit:4;stroke-dasharray:none;stroke-opacity:1" />
        <path
           inkscape:export-ydpi="90.044502"
           inkscape:export-xdpi="90.044502"
           inkscape:export-filename="F:\Pictures\SVG\path2433.png"
           sodipodi:nodetypes="ccc"
           id="path4874"
           d="M 624.26811,894.99437 C 668.33724,970.23437 718.85553,927.24009 718.85553,927.24009 C 790.87094,864.89837 772.14548,813.13615 772.14548,813.13615"
           style="fill:none;fill-rule:evenodd;stroke:none;stroke-width:8;stroke-linecap:butt;stroke-linejoin:miter;stroke-miterlimit:4;stroke-dasharray:none;stroke-opacity:1" />
        <path
           inkscape:export-ydpi="90.044502"
           inkscape:export-xdpi="90.044502"
           inkscape:export-filename="F:\Pictures\SVG\path2433.png"
           sodipodi:nodetypes="ccc"
           id="path4876"
           d="M 566.05067,936.40052 C 648.81467,1063.2336 751.10122,956.26124 751.10122,956.26124 C 818.81722,878.87153 794.09554,792.88295 794.09554,792.88295"
           style="fill:none;fill-rule:evenodd;stroke:none;stroke-width:8;stroke-linecap:butt;stroke-linejoin:miter;stroke-miterlimit:4;stroke-dasharray:none;stroke-opacity:1" />
        <path
           inkscape:export-ydpi="90.044502"
           inkscape:export-xdpi="90.044502"
           inkscape:export-filename="F:\Pictures\SVG\path2433.png"
           sodipodi:nodetypes="ccccccc"
           id="path4878"
           d="M 782.27211,767.43059 C 745.21365,729.06782 723.72256,768.89794 723.72256,768.89794 C 699.16388,813.98154 747.87667,818.67952 747.87667,818.67952 C 803.82359,816.31245 800.54467,763.8618 800.54467,763.8618 C 798.16546,710.85565 773.67322,707.96922 773.67322,707.96922 C 802.69438,774.61037 763.99954,793.9578 763.99954,793.9578 C 734.52552,801.09537 750.594,778.68032 750.594,778.68032"
           style="fill:none;fill-rule:evenodd;stroke:none;stroke-width:8;stroke-linecap:butt;stroke-linejoin:miter;stroke-miterlimit:4;stroke-dasharray:none;stroke-opacity:1" />
        <path
           inkscape:export-ydpi="90.044502"
           inkscape:export-xdpi="90.044502"
           inkscape:export-filename="F:\Pictures\SVG\path2433.png"
           sodipodi:nodetypes="ccc"
           id="path4880"
           d="M 728.24546,812.06129 C 733.84926,774.27828 754.6579,778.16702 754.6579,778.16702 C 764.91875,777.27311 767.63612,791.76561 767.63612,791.76561"
           style="fill:none;fill-rule:evenodd;stroke:none;stroke-width:8;stroke-linecap:butt;stroke-linejoin:miter;stroke-miterlimit:4;stroke-dasharray:none;stroke-opacity:1" />
        <path
           inkscape:export-ydpi="90.044502"
           inkscape:export-xdpi="90.044502"
           inkscape:export-filename="F:\Pictures\SVG\path2433.png"
           sodipodi:nodetypes="cccccc"
           id="path4884"
           d="M 600.62124,735.91552 C 599.54638,774.61037 616.74411,781.05952 616.74411,781.05952 C 656.10948,801.34372 657.64452,754.47038 657.64452,754.47038 C 659.96634,734.78935 641.47188,741.8468 641.47188,741.8468 C 632.24196,746.41641 638.84802,753.60798 638.84802,753.60798 C 643.20437,759.61036 657.74379,756.49842 657.74379,756.49842"
           style="fill:none;fill-rule:evenodd;stroke:none;stroke-width:8;stroke-linecap:butt;stroke-linejoin:miter;stroke-miterlimit:4;stroke-dasharray:none;stroke-opacity:1" />
        <path
           inkscape:export-ydpi="90.044502"
           inkscape:export-xdpi="90.044502"
           inkscape:export-filename="F:\Pictures\SVG\path2433.png"
           sodipodi:nodetypes="ccccc"
           id="path4886"
           d="M 593.34765,812.87086 C 662.32247,834.30153 673.71153,773.53552 673.71153,773.53552 C 679.11402,708.8272 641.78606,724.18407 641.78606,724.18407 C 605.57008,744.76775 638.27377,763.19003 638.27377,763.19003 C 643.94395,767.0395 656.04544,764.93988 656.04544,764.93988"
           style="fill:none;fill-rule:evenodd;stroke:none;stroke-width:8;stroke-linecap:butt;stroke-linejoin:miter;stroke-miterlimit:4;stroke-dasharray:none;stroke-opacity:1" />
        <path
           inkscape:export-ydpi="90.044502"
           inkscape:export-xdpi="90.044502"
           inkscape:export-filename="F:\Pictures\SVG\path2433.png"
           sodipodi:nodetypes="cc"
           id="path4888"
           d="M 640.78496,742.47484 C 642.41834,756.78614 657.98419,754.16286 657.98419,754.16286"
           style="fill:none;fill-rule:evenodd;stroke:none;stroke-width:8;stroke-linecap:butt;stroke-linejoin:miter;stroke-miterlimit:4;stroke-dasharray:none;stroke-opacity:1" />
        <path
           inkscape:export-ydpi="90.044502"
           inkscape:export-xdpi="90.044502"
           inkscape:export-filename="F:\Pictures\SVG\path2433.png"
           sodipodi:nodetypes="ccc"
           id="path4899"
           d="M 439.89955,674.48416 C 314.14126,767.99672 337.28226,864.73385 337.28226,864.73385 C 347.93679,958.08822 446.91803,935.8958 446.91803,935.8958"
           style="fill:none;fill-rule:evenodd;stroke:none;stroke-width:8;stroke-linecap:butt;stroke-linejoin:miter;stroke-miterlimit:4;stroke-dasharray:none;stroke-opacity:1" />
        <path
           inkscape:export-ydpi="90.044502"
           inkscape:export-xdpi="90.044502"
           inkscape:export-filename="F:\Pictures\SVG\path2433.png"
           sodipodi:nodetypes="ccccccc"
           id="path4902"
           d="M 441.41609,936.78756 C 480.11095,974.40756 447.99153,987.43213 447.99153,987.43213 C 412.52124,1001.4052 423.26981,968.08468 423.26981,968.08468 C 431.86868,954.11157 446.91668,959.4858 446.91668,959.4858 C 417.89553,949.81212 408.34812,977.69524 408.34812,977.69524 C 396.7766,1009.1811 445.84181,1007.8544 445.84181,1007.8544 C 498.63612,1000.4573 478.65653,954.55419 478.65653,954.55419"
           style="fill:none;fill-rule:evenodd;stroke:none;stroke-width:8;stroke-linecap:butt;stroke-linejoin:miter;stroke-miterlimit:4;stroke-dasharray:none;stroke-opacity:1" />
        <path
           inkscape:export-ydpi="90.044502"
           inkscape:export-xdpi="90.044502"
           inkscape:export-filename="F:\Pictures\SVG\path2433.png"
           sodipodi:nodetypes="ccccc"
           id="path4904"
           d="M 418.97038,690.77152 C 300.73611,653.15152 343.79559,564.31839 343.79559,564.31839 C 386.84196,478.19941 452.29096,546.93626 452.29096,546.93626 C 481.80333,581.65451 435.09324,615.53152 435.09324,615.53152 C 410.37153,637.02865 386.65946,617.4316 386.65946,617.4316"
           style="fill:none;fill-rule:evenodd;stroke:none;stroke-width:8;stroke-linecap:butt;stroke-linejoin:miter;stroke-miterlimit:4;stroke-dasharray:none;stroke-opacity:1" />
        <path
           inkscape:export-ydpi="90.044502"
           inkscape:export-xdpi="90.044502"
           inkscape:export-filename="F:\Pictures\SVG\path2433.png"
           sodipodi:nodetypes="cccc"
           id="path4906"
           d="M 486.30637,621.98065 C 409.99151,662.82522 385.64981,616.60637 385.64981,616.60637 C 368.95134,567.93418 424.34468,563.93837 424.34468,563.93837 C 444.45214,570.19191 435.09324,587.58522 435.09324,587.58522"
           style="fill:none;fill-rule:evenodd;stroke:none;stroke-width:8;stroke-linecap:butt;stroke-linejoin:miter;stroke-miterlimit:4;stroke-dasharray:none;stroke-opacity:1" />
        <path
           inkscape:export-ydpi="90.044502"
           inkscape:export-xdpi="90.044502"
           inkscape:export-filename="F:\Pictures\SVG\path2433.png"
           sodipodi:nodetypes="cc"
           id="path4908"
           d="M 424.09506,564.25319 C 404.81283,589.80014 389.69963,579.61601 389.69963,579.61601"
           style="fill:none;fill-rule:evenodd;stroke:none;stroke-width:8;stroke-linecap:butt;stroke-linejoin:miter;stroke-miterlimit:4;stroke-dasharray:none;stroke-opacity:1" />
        <path
           inkscape:export-ydpi="90.044502"
           inkscape:export-xdpi="90.044502"
           inkscape:export-filename="F:\Pictures\SVG\path2433.png"
           sodipodi:nodetypes="cc"
           id="path4910"
           d="M 354.59818,546.85986 C 319.12789,485.59302 345.12005,459.99205 345.12005,459.99205"
           style="fill:none;fill-rule:evenodd;stroke:none;stroke-width:8;stroke-linecap:butt;stroke-linejoin:miter;stroke-miterlimit:4;stroke-dasharray:none;stroke-opacity:1" />
        <path
           inkscape:export-ydpi="90.044502"
           inkscape:export-xdpi="90.044502"
           inkscape:export-filename="F:\Pictures\SVG\path2433.png"
           sodipodi:nodetypes="cc"
           id="path4912"
           d="M 336.6516,589.47414 C 291.5076,517.4587 344.80524,459.67722 344.80524,459.67722"
           style="fill:none;fill-rule:evenodd;stroke:none;stroke-width:8;stroke-linecap:butt;stroke-linejoin:miter;stroke-miterlimit:4;stroke-dasharray:none;stroke-opacity:1" />
        <path
           inkscape:export-ydpi="90.044502"
           inkscape:export-xdpi="90.044502"
           inkscape:export-filename="F:\Pictures\SVG\path2433.png"
           sodipodi:nodetypes="cc"
           id="path4914"
           d="M 529.45726,953.83076 C 562.77783,973.1782 578.72192,954.31403 578.72192,954.31403"
           style="fill:none;fill-rule:evenodd;stroke:none;stroke-width:8;stroke-linecap:butt;stroke-linejoin:miter;stroke-miterlimit:4;stroke-dasharray:none;stroke-opacity:1" />
        <path
           inkscape:export-ydpi="90.044502"
           inkscape:export-xdpi="90.044502"
           inkscape:export-filename="F:\Pictures\SVG\path2433.png"
           sodipodi:nodetypes="ccc"
           id="path4916"
           d="M 492.446,956.42008 C 535.4403,1014.4624 587.43914,966.4452 587.43914,966.4452 C 545.51972,975.04409 529.39989,954.22631 529.39989,954.22631"
           style="fill:none;fill-rule:evenodd;stroke:none;stroke-width:8;stroke-linecap:butt;stroke-linejoin:miter;stroke-miterlimit:4;stroke-dasharray:none;stroke-opacity:1" />
        <path
           inkscape:export-ydpi="90.044502"
           inkscape:export-xdpi="90.044502"
           inkscape:export-filename="F:\Pictures\SVG\path2433.png"
           sodipodi:nodetypes="ccc"
           id="path4918"
           d="M 372.0878,926.54445 C 330.98795,1027.5172 273.23185,1002.4169 273.23185,1002.4169 C 187.93925,975.10353 225.49611,894.93086 225.49611,894.93086"
           style="fill:none;fill-rule:evenodd;stroke:none;stroke-width:8;stroke-linecap:butt;stroke-linejoin:miter;stroke-miterlimit:4;stroke-dasharray:none;stroke-opacity:1" />
        <path
           inkscape:export-ydpi="90.044502"
           inkscape:export-xdpi="90.044502"
           inkscape:export-filename="F:\Pictures\SVG\path2433.png"
           sodipodi:nodetypes="cccccccccccc"
           id="path4920"
           d="M 338.35611,883.70837 C 347.49238,964.86012 279.23896,951.9618 279.23896,951.9618 C 184.99884,926.76645 243.76868,847.70064 243.76868,847.70064 C 272.78981,810.08065 245.91838,817.60465 245.91838,817.60465 C 236.95069,822.53373 249.13177,828.91766 249.13177,828.91766 C 221.18548,826.76795 240.37088,808.31096 240.37088,808.31096 C 264.34837,792.37252 272.78981,822.97894 272.78981,822.97894 C 279.673,838.40038 270.21726,852.17333 270.21726,852.17333 C 232.91932,908.85279 284.5003,920.05143 284.5003,920.05143 C 317.13127,922.20469 300.01893,894.98368 300.01893,894.98368 C 284.92028,876.1888 274.21793,894.49248 274.21793,894.49248 C 266.46864,907.80025 277.73598,917.63679 277.73598,917.63679"
           style="fill:none;fill-rule:evenodd;stroke:none;stroke-width:8;stroke-linecap:butt;stroke-linejoin:miter;stroke-miterlimit:4;stroke-dasharray:none;stroke-opacity:1" />
        <path
           inkscape:export-ydpi="90.044502"
           inkscape:export-xdpi="90.044502"
           inkscape:export-filename="F:\Pictures\SVG\path2433.png"
           sodipodi:nodetypes="cc"
           id="path4924"
           d="M 317.55527,856.48962 C 314.70958,838.34335 337.15562,821.52385 337.15562,821.52385"
           style="fill:none;fill-rule:evenodd;stroke:none;stroke-width:8;stroke-linecap:butt;stroke-linejoin:miter;stroke-miterlimit:4;stroke-dasharray:none;stroke-opacity:1" />
        <path
           inkscape:export-ydpi="90.044502"
           inkscape:export-xdpi="90.044502"
           inkscape:export-filename="F:\Pictures\SVG\path2433.png"
           sodipodi:nodetypes="ccccc"
           id="path4926"
           d="M 326.15449,832.46947 C 272.72667,832.47451 259.89153,786.4338 259.89153,786.4338 C 248.77413,747.22851 279.23896,725.16695 279.23896,725.16695 C 257.5574,789.34355 293.2773,800.53734 293.2773,800.53734 C 309.24738,807.39815 312.74395,802.62186 312.74395,802.62186"
           style="fill:none;fill-rule:evenodd;stroke:none;stroke-width:8;stroke-linecap:butt;stroke-linejoin:miter;stroke-miterlimit:4;stroke-dasharray:none;stroke-opacity:1" />
        <path
           inkscape:export-ydpi="90.044502"
           inkscape:export-xdpi="90.044502"
           inkscape:export-filename="F:\Pictures\SVG\path2433.png"
           sodipodi:nodetypes="cccc"
           id="path4928"
           d="M 391.02411,718.7178 C 324.38296,652.07665 292.13724,727.31665 292.13724,727.31665 C 273.86468,767.08637 297.51153,788.58352 297.51153,788.58352 C 320.00715,813.16364 339.49616,812.80599 339.49616,812.80599"
           style="fill:none;fill-rule:evenodd;stroke:none;stroke-width:8;stroke-linecap:butt;stroke-linejoin:miter;stroke-miterlimit:4;stroke-dasharray:none;stroke-opacity:1" />
        <path
           inkscape:export-ydpi="90.044502"
           inkscape:export-xdpi="90.044502"
           inkscape:export-filename="F:\Pictures\SVG\path2433.png"
           sodipodi:nodetypes="cccc"
           id="path4930"
           d="M 365.67275,749.57384 C 354.84779,718.84819 332.98181,735.91552 332.98181,735.91552 C 316.79376,751.76638 332.28697,768.35683 332.28697,768.35683 C 348.30181,782.49202 352.32924,774.61037 352.32924,774.61037"
           style="fill:none;fill-rule:evenodd;stroke:none;stroke-width:8;stroke-linecap:butt;stroke-linejoin:miter;stroke-miterlimit:4;stroke-dasharray:none;stroke-opacity:1" />
        <path
           inkscape:export-ydpi="90.044502"
           inkscape:export-xdpi="90.044502"
           inkscape:export-filename="F:\Pictures\SVG\path2433.png"
           sodipodi:nodetypes="ccc"
           id="path4932"
           d="M 741.62313,471.18584 C 657.78427,455.06298 639.31611,473.65037 639.31611,473.65037 C 618.22135,506.13452 616.5485,520.75967 616.5485,520.75967"
           style="fill:none;fill-rule:evenodd;stroke:none;stroke-width:8;stroke-linecap:butt;stroke-linejoin:miter;stroke-miterlimit:4;stroke-dasharray:none;stroke-opacity:1" />
        <path
           inkscape:export-ydpi="90.044502"
           inkscape:export-xdpi="90.044502"
           inkscape:export-filename="F:\Pictures\SVG\path2433.png"
           sodipodi:nodetypes="cccccccccccccccc"
           id="path4934"
           d="M 564.30255,856.75243 C 541.28068,843.45861 529.68068,858.28014 529.68068,858.28014 C 514.00464,878.91975 543.65381,892.84464 543.65381,892.84464 C 602.71055,913.10388 638.92968,833.21424 638.92968,833.21424 C 658.88694,799.27774 693.96474,812.11563 693.96474,812.11563 C 742.67758,828.67926 701.54307,873.38246 701.54307,873.38246 C 680.45662,896.35308 663.1381,875.48391 663.1381,875.48391 C 655.20948,860.33333 679.02541,847.13304 679.02541,847.13304 C 664.50284,877.86312 687.79942,862.23532 687.79942,862.23532 C 715.35322,838.25031 686.04825,827.21799 686.04825,827.21799 C 658.41884,818.14041 629.64238,886.39553 629.64238,886.39553 C 600.3222,935.67505 571.16572,935.86112 571.16572,935.86112 C 498.89988,949.72349 481.31211,899.2938 481.31211,899.2938 C 462.97308,844.13032 513.71963,818.26728 513.71963,818.26728 C 563.112,790.32101 596.32181,825.12865 596.32181,825.12865 C 621.04353,856.29953 604.12963,878.98627 604.12963,878.98627"
           style="fill:none;fill-rule:evenodd;stroke:none;stroke-width:8;stroke-linecap:butt;stroke-linejoin:miter;stroke-miterlimit:4;stroke-dasharray:none;stroke-opacity:1" />
        <path
           inkscape:export-ydpi="90.044502"
           inkscape:export-xdpi="90.044502"
           inkscape:export-filename="F:\Pictures\SVG\path2433.png"
           sodipodi:nodetypes="cc"
           id="path4936"
           d="M 338.57745,884.18264 C 330.85978,843.49548 272.15733,848.71236 272.15733,848.71236"
           style="fill:none;fill-rule:evenodd;stroke:none;stroke-width:8;stroke-linecap:butt;stroke-linejoin:miter;stroke-miterlimit:4;stroke-dasharray:none;stroke-opacity:1" />
        <path
           inkscape:export-ydpi="90.044502"
           inkscape:export-xdpi="90.044502"
           inkscape:export-filename="F:\Pictures\SVG\path2433.png"
           sodipodi:nodetypes="cc"
           id="path4938"
           d="M 602.24461,756.31564 C 675.33489,642.38079 708.33521,625.41134 708.33521,625.41134"
           style="fill:none;fill-rule:evenodd;stroke:none;stroke-width:8;stroke-linecap:butt;stroke-linejoin:miter;stroke-miterlimit:4;stroke-dasharray:none;stroke-opacity:1" />
        <path
           inkscape:export-ydpi="90.044502"
           inkscape:export-xdpi="90.044502"
           inkscape:export-filename="F:\Pictures\SVG\path2433.png"
           sodipodi:nodetypes="ccc"
           id="path3190"
           d="M 673.41071,748.67134 C 681.22307,744.4821 684.60032,741.74199 684.60032,741.74199 C 682.67553,754.08327 674.41028,758.15929 674.41028,758.15929"
           style="fill:none;fill-rule:evenodd;stroke:none;stroke-width:8;stroke-linecap:butt;stroke-linejoin:miter;stroke-miterlimit:4;stroke-dasharray:none;stroke-opacity:1" />
        <path
           inkscape:export-ydpi="90.044502"
           inkscape:export-xdpi="90.044502"
           inkscape:export-filename="F:\Pictures\SVG\path2433.png"
           id="path3193"
           d="M 546.76389,887.2267 C 539.07807,860.96685 541.64,851.3596 541.64,851.3596"
           style="fill:none;fill-rule:evenodd;stroke:none;stroke-width:8;stroke-linecap:butt;stroke-linejoin:miter;stroke-miterlimit:4;stroke-dasharray:none;stroke-opacity:1" />
        <path
           inkscape:export-ydpi="90.044502"
           inkscape:export-xdpi="90.044502"
           inkscape:export-filename="F:\Pictures\SVG\path2433.png"
           id="path3195"
           d="M 611.8417,872.83306 C 608.67146,868.30414 609.12435,866.03968 609.12435,866.03968"
           style="fill:none;fill-rule:evenodd;stroke:none;stroke-width:8;stroke-linecap:butt;stroke-linejoin:miter;stroke-miterlimit:4;stroke-dasharray:none;stroke-opacity:1" />
      </g>
      <g
         style="display:inline"
         transform="translate(-540.3758,-446.98077)"
         inkscape:label="fill"
         id="g2728">
        <path
           inkscape:export-ydpi="90.044502"
           inkscape:export-xdpi="90.044502"
           inkscape:export-filename="F:\Pictures\SVG\path2433.png"
           id="path2423"
           d="M 828.69236,961.01165 C 817.71039,959.58503 810.21904,957.34408 803.78338,953.56034 C 780.90958,940.11217 759.14365,918.68855 746.43237,897.11125 C 728.57924,866.80541 723.65795,829.62447 732.34746,790.69613 C 741.47567,749.80262 765.33602,705.42388 804.17957,657.09337 C 808.98419,651.1152 814.90138,643.37076 817.32871,639.88352 C 838.28098,609.78267 867.91007,582.18869 906.58956,556.75358 C 924.76217,544.80351 938.97035,536.79101 962.64695,525.14062 C 1005.5978,504.00611 1050.2764,487.25036 1100.8797,473.2995 C 1111.5677,470.35292 1146.0926,461.91983 1146.2229,462.22392 C 1146.2526,462.29345 1146.1065,467.39106 1145.8979,473.55195 L 1145.5188,484.75353 L 1140.862,484.18019 C 1138.3009,483.86482 1130.3969,483.35342 1123.2978,483.04372 C 1112.1862,482.55899 1110.3904,482.66939 1110.3904,483.83733 C 1110.3904,484.96533 1112.8714,485.28193 1125.1094,485.71558 C 1147.2603,486.50047 1165.5472,490.71466 1187.5255,500.0992 C 1198.1257,504.62532 1218.2373,515.96796 1218.8333,517.75635 C 1219.2704,519.06728 1203.9021,535.10506 1189.6463,548.21505 C 1132.6703,600.61137 1070.6079,631.77013 1014.1512,636.32321 C 1008.6917,636.76348 1006.2256,637.3197 1006.2256,638.11062 C 1006.2256,639.45629 1012.0648,639.16772 1027.3893,637.06482 C 1032.8021,636.32205 1037.3973,635.88083 1037.6008,636.08432 C 1037.8044,636.28785 1035.2848,638.8125 1032.002,641.69472 C 1014.3857,657.161 983.71768,695.78606 954.48522,739.32403 C 939.87086,761.09014 940.13954,760.92136 940.11588,748.35085 C 940.10602,743.12294 939.8264,741.78392 938.74482,741.78392 C 937.12881,741.78392 937.07427,743.50667 938.31673,755.30351 C 940.03048,771.57519 945.43264,783.29345 953.25952,787.71654 C 962.44196,792.90569 973.95048,794.81658 980.21338,792.19206 C 987.86303,788.98648 993.22486,780.87592 995.73797,768.70927 C 999.08132,752.52278 996.31271,746.21338 985.82493,746.11913 C 976.51466,746.0355 971.17487,752.21194 974.84282,758.82189 C 977.06775,762.83135 980.76241,764.41603 987.90081,764.42249 L 994.48494,764.42846 L 993.87531,766.91936 C 993.07603,770.18526 992.08994,770.74633 987.20415,770.71531 C 975.97172,770.64396 964.55959,760.74453 964.55959,751.07231 C 964.55959,746.08748 966.12115,743.07652 971.05694,738.54394 C 976.647,733.41063 980.68506,731.16683 985.6536,730.43315 C 995.91563,728.91779 1004.337,734.74129 1008.0593,745.927 C 1010.4241,753.03322 1011.5085,765.45916 1010.6858,776.0243 C 1009.2333,794.67725 994.38901,813.68331 976.44454,819.86582 C 968.44193,822.62296 951.45319,822.79244 940.38753,820.22547 L 932.97252,818.50534 L 932.33467,812.54943 C 931.61523,805.83163 932.3586,778.40802 933.32596,775.97718 C 933.76103,774.88406 933.52741,774.39206 932.57337,774.39206 C 931.54175,774.39206 931.00281,775.94739 930.45474,780.50608 C 929.51308,788.33679 929.72286,812.86887 930.7992,820.81336 C 931.25483,824.17607 931.51711,826.92739 931.38205,826.92739 C 931.24693,826.92739 929.31789,825.70003 927.09519,824.19995 C 915.91061,816.65151 903.98545,813.01404 890.28551,812.97201 C 877.50276,812.93277 869.27255,814.98748 856.09822,821.50688 C 843.71221,827.63617 834.74642,834.74331 827.94762,843.82189 C 820.3637,853.94862 817.39473,861.19721 814.46208,876.74536 L 813.69326,880.82138 L 811.01051,875.38668 C 808.63846,870.58133 808.32785,869.00798 808.32832,861.79996 C 808.32886,854.58835 808.6275,853.07885 810.91686,848.71474 C 819.24198,832.84531 841.1599,819.95983 879.61214,808.32907 C 898.33672,802.66539 906.04012,798.5769 915.30146,789.38741 C 920.52891,784.20052 923.57306,780.25815 925.83136,775.75073 C 929.72205,767.9851 930.86614,763.52268 928.96644,763.52268 C 928.21855,763.52268 927.40688,764.73333 927.08895,766.32281 C 926.78098,767.86289 925.47521,771.22558 924.18727,773.7955 C 916.42626,789.28151 902.94281,799.04239 880.19365,805.64316 C 832.83051,819.38576 807.36348,837.69746 805.39304,859.42726 C 804.80491,865.91348 806.70542,872.86783 811.12872,880.41501 C 813.15477,883.87199 814.62984,887.83228 815.09676,891.06854 C 817.07444,904.7767 821.32981,914.15112 829.74207,923.33157 C 843.05008,937.85497 859.25805,944.51657 883.30918,945.34804 L 896.71284,945.81145 L 893.37839,948.0773 C 887.65422,951.96698 876.81997,956.5263 867.74866,958.86302 C 858.03787,961.36446 839.3304,962.39359 828.69236,961.01165 L 828.69236,961.01165 z M 892.54996,787.61318 C 900.99818,785.28169 906.04049,782.36259 912.10714,776.29118 C 919.4138,768.97858 921.98785,763.05687 921.98785,753.55909 C 921.98785,744.01383 919.42214,738.1492 911.9883,730.70206 C 903.26635,721.96454 893.96415,718.25511 880.7748,718.25511 C 867.44006,718.25511 858.38859,721.85913 849.59227,730.67109 C 842.12519,738.15138 839.56175,744.00085 839.56175,753.55909 C 839.56175,763.10434 842.12745,768.96898 849.56129,776.41611 C 858.31893,785.18936 866.97206,788.67102 880.3219,788.79282 C 884.55643,788.83148 890.05907,788.30063 892.54996,787.61319 L 892.54996,787.61318 z M 837.75018,778.89083 C 837.75018,778.37611 836.78751,776.0324 835.611,773.68262 C 831.44694,765.36628 830.10193,759.86388 830.13853,751.29463 C 830.18047,741.4986 832.26802,735.33812 838.0835,727.84897 C 845.72015,718.01442 855.92197,711.1735 866.4611,708.82003 C 874.41377,707.04414 887.29316,706.95074 893.57493,708.62339 C 905.24684,711.73122 916.58686,720.71695 923.23946,732.12914 C 925.17331,735.44656 927.10941,738.1608 927.54193,738.1608 C 928.67922,738.1608 928.54743,737.61361 926.38841,733.36937 C 919.96116,720.73475 908.09135,710.82149 894.4453,706.69166 C 885.12834,703.87199 864.90713,705.54033 856.3187,709.83728 C 850.47106,712.76297 840.54606,721.05082 836.59376,726.30851 C 826.20391,740.12999 825.14541,755.80163 833.39183,773.71273 C 835.93336,779.23311 837.75018,781.39152 837.75018,778.89086 L 837.75018,778.89083 z"
           style="opacity:1;fill:#ffffff;fill-opacity:1;fill-rule:nonzero;stroke:#ffffff;stroke-width:3.62312579;stroke-linecap:butt;stroke-linejoin:miter;stroke-miterlimit:4;stroke-dasharray:none;stroke-opacity:0" />
        <path
           inkscape:export-ydpi="90.044502"
           inkscape:export-xdpi="90.044502"
           inkscape:export-filename="F:\Pictures\SVG\path2433.png"
           id="path2425"
           d="M 751.24805,942.82976 C 731.20075,941.44805 712.72301,934.15733 700.61832,922.85289 C 687.23965,910.35869 680.76724,896.71143 676.81803,872.66935 C 675.02675,861.76433 674.84531,841.98264 676.44421,831.90919 C 684.74398,779.61854 715.6955,732.01996 769.13723,689.36204 C 774.49266,685.08727 778.87438,681.27496 778.87438,680.89025 C 778.87438,679.04558 775.83459,680.85259 767.09923,687.88993 C 761.86834,692.10404 757.26498,695.56029 756.8696,695.5705 C 754.99916,695.61883 737.55716,688.51128 729.0564,684.23677 C 705.15049,672.21586 688.7522,655.69373 680.76898,635.58469 C 672.42706,614.57206 674.61036,586.09298 686.1443,565.46836 C 694.38613,550.73062 705.53838,538.89919 716.22872,533.55182 C 723.85621,529.73647 729.79126,528.62678 739.80612,529.14352 C 754.31503,529.89213 767.58844,535.74616 782.32179,547.89433 C 793.80927,557.36621 798.73246,566.3379 798.75293,577.83748 C 798.77377,589.58571 792.78003,601.20071 780.28441,613.62641 C 771.84009,622.02359 764.93821,626.84418 758.20834,629.04538 C 749.26366,631.97107 733.8315,629.38327 727.00282,623.8126 C 725.03056,622.20366 724.19254,620.32008 723.07055,614.97452 C 721.29698,606.52407 721.9375,598.9353 724.94361,592.78288 L 727.15653,588.25397 L 735.12621,588.24311 C 745.04552,588.22959 748.49403,586.59994 757.12666,577.84661 L 763.20898,571.67917 L 766.08465,573.0719 C 772.50946,576.1835 775.52906,582.99606 773.49413,589.78819 C 772.33501,593.65686 772.78064,595.16293 774.55834,593.38522 C 775.15696,592.78657 775.7969,589.55291 775.98033,586.19934 C 776.26709,580.95502 776.01366,579.65839 774.16858,576.93171 C 771.33611,572.74577 764.00652,568.74448 760.33214,569.37823 C 741.3889,572.64556 727.47691,581.00487 722.48804,592.11753 C 719.5644,598.62977 719.20631,611.13547 721.70759,619.3704 C 723.31365,624.65806 724.47913,626.5561 728.83394,630.97614 C 738.7219,641.01225 751.89232,645.97819 768.45789,645.91651 C 782.30132,645.865 795.85852,642.65943 811.79111,635.6705 C 815.19904,634.17563 818.16464,633.12985 818.38131,633.34657 C 818.91119,633.87653 809.90075,646.38248 802.76473,655.02123 C 751.08266,717.5869 722.88975,783.21671 725.80546,834.17364 C 728.06611,873.68343 743.25072,905.73632 772.73644,933.23928 L 781.8918,941.77896 L 774.72192,942.34145 C 770.7785,942.65091 765.92171,943.02779 763.929,943.17902 C 761.93628,943.33033 756.22985,943.17316 751.24805,942.82976 z"
           style="opacity:1;fill:#ffffff;fill-opacity:1;fill-rule:nonzero;stroke:#ffffff;stroke-width:3.62312579;stroke-linecap:butt;stroke-linejoin:miter;stroke-miterlimit:4;stroke-dasharray:none;stroke-opacity:0" />
        <path
           inkscape:export-ydpi="90.044502"
           inkscape:export-xdpi="90.044502"
           inkscape:export-filename="F:\Pictures\SVG\path2433.png"
           id="path2428"
           d="M 671.39327,587.12992 C 657.11285,560.87787 654.26812,531.10487 663.43101,503.79698 C 666.05455,495.97814 672.56808,482.13542 674.05646,481.21556 C 674.6716,480.83542 674.79232,481.20817 674.39198,482.25142 C 674.04805,483.14778 673.52452,487.39257 673.22865,491.68427 C 672.23044,506.16385 676.75861,524.19306 686.07432,542.83023 L 690.98727,552.65914 L 686.04521,560.94586 C 680.92354,569.53377 678.393,575.75734 675.76692,586.22414 L 674.23091,592.34635 L 671.39327,587.12992 z"
           style="opacity:1;fill:#ffffff;fill-opacity:1;fill-rule:nonzero;stroke:#ffffff;stroke-width:3.62312579;stroke-linecap:butt;stroke-linejoin:miter;stroke-miterlimit:4;stroke-dasharray:none;stroke-opacity:0" />
        <path
           inkscape:export-ydpi="90.044502"
           inkscape:export-xdpi="90.044502"
           inkscape:export-filename="F:\Pictures\SVG\path2433.png"
           id="path2430"
           d="M 956.90019,523.2542 C 961.33645,508.46604 976.34597,481.45901 981.65385,478.71418 C 991.43475,473.65625 1012.9701,471.16278 1033.9421,472.65997 C 1047.4923,473.62727 1073.1778,476.91831 1074.0596,477.80008 C 1074.6913,478.4317 1074.5256,478.49411 1058.7609,483.56188 C 1031.3967,492.3584 994.8603,506.87842 968.80417,519.31168 C 957.62746,524.64485 956.35673,525.06574 956.90019,523.2542 z"
           style="opacity:1;fill:#ffffff;fill-opacity:1;fill-rule:nonzero;stroke:#ffffff;stroke-width:3.62312579;stroke-linecap:butt;stroke-linejoin:miter;stroke-miterlimit:4;stroke-dasharray:none;stroke-opacity:0" />
        <path
           inkscape:export-ydpi="90.044502"
           inkscape:export-xdpi="90.044502"
           inkscape:export-filename="F:\Pictures\SVG\path2433.png"
           id="path2432"
           d="M 670.14103,816.57143 C 660.26396,813.84473 648.7772,806.29833 638.83312,796.00322 C 631.80041,788.72228 628.50798,783.10511 626.31693,774.64954 C 619.35046,747.7651 638.5064,710.74957 664.39946,701.06174 C 670.98885,698.59632 682.24333,698.37729 689.77845,700.56781 C 700.31083,703.62965 712.20173,710.90054 722.48097,720.56433 L 727.22782,725.02697 L 720.82603,732.72612 C 717.30502,736.96064 712.34279,743.38037 709.79887,746.99217 C 707.25493,750.60397 704.937,753.55909 704.64787,753.55909 C 704.35877,753.55909 703.15187,751.51529 701.96592,749.01734 C 697.47276,739.55347 689.49052,735.15877 680.28503,737.08067 C 666.64333,739.92879 659.72883,752.88648 664.45271,766.75032 C 667.10974,774.54822 679.10286,784.35565 685.98155,784.35565 L 688.21552,784.35565 L 685.62899,790.46968 C 683.5601,795.36004 680.18342,805.53158 676.9088,816.73734 C 676.5137,818.0894 675.55454,818.06589 670.14101,816.57141 L 670.14103,816.57143 z"
           style="opacity:1;fill:#ffffff;fill-opacity:1;fill-rule:nonzero;stroke:#ffffff;stroke-width:3.62312579;stroke-linecap:butt;stroke-linejoin:miter;stroke-miterlimit:4;stroke-dasharray:none;stroke-opacity:0" />
        <path
           inkscape:export-ydpi="90.044502"
           inkscape:export-xdpi="90.044502"
           inkscape:export-filename="F:\Pictures\SVG\path2433.png"
           id="path2434"
           d="M 653.42364,836.76814 C 635.66652,834.52918 619.79013,825.41882 609.53256,811.58212 C 592.52317,788.63772 592.71962,762.43719 610.06472,740.60845 C 612.35978,737.72008 614.34555,735.4783 614.47753,735.62664 C 614.60949,735.77496 613.70164,739.76857 612.46006,744.50127 C 610.56277,751.73345 610.18341,755.34593 610.08223,767.1458 C 609.9696,780.27354 610.11541,781.58147 612.32651,787.28305 C 616.72934,798.63632 623.67061,805.4108 634.96056,809.37324 C 640.30546,811.24916 642.72145,811.62514 646.99144,811.24559 C 651.45963,810.84842 652.86847,811.10096 655.59638,812.78799 C 660.36678,815.73817 667.56319,818.62508 671.85941,819.31208 C 675.28532,819.85991 675.61529,820.14897 675.61529,822.60231 C 675.61529,824.69011 674.26458,826.69106 669.57912,831.54436 C 665.63012,835.63481 662.88961,837.75713 661.65353,837.68218 C 660.61435,837.61921 656.91091,837.20783 653.42364,836.76814 L 653.42364,836.76814 z"
           style="opacity:1;fill:#ffffff;fill-opacity:1;fill-rule:nonzero;stroke:#ffffff;stroke-width:3.62312579;stroke-linecap:butt;stroke-linejoin:miter;stroke-miterlimit:4;stroke-dasharray:none;stroke-opacity:0" />
        <path
           inkscape:export-ydpi="90.044502"
           inkscape:export-xdpi="90.044502"
           inkscape:export-filename="F:\Pictures\SVG\path2433.png"
           id="path2436"
           d="M 621.26841,957.31737 C 611.8726,956.35799 597.60398,950.77397 587.66585,944.16715 C 566.55378,930.13187 560.18695,908.627 569.17954,881.72715 C 571.98833,873.32506 577.6429,862.77198 586.22602,849.91328 C 596.22377,834.9353 598.27644,829.32044 595.24083,825.25457 C 593.6605,823.13792 592.82181,822.85137 588.20738,822.85137 C 583.52156,822.85137 582.76783,823.11976 581.07108,825.39235 C 579.24297,827.84089 579.23087,828.03251 580.73821,830.65888 C 582.29113,833.36477 582.2878,833.38005 580.27312,832.77893 C 576.74895,831.72744 574.21501,829.69541 573.65738,827.47364 C 573.02764,824.96463 575.66876,819.29261 578.84734,816.32769 C 583.6879,811.81248 592.50244,810.19065 597.67215,812.86402 C 601.63665,814.91416 606.39366,821.0481 609.17905,827.70161 C 611.26919,832.69444 611.69742,835.03354 611.69043,841.41989 C 611.68122,849.83488 612.2064,848.40438 602.0469,867.68756 C 595.5957,879.93223 593.73089,886.92526 594.27449,896.83448 C 594.96395,909.40249 600.69161,917.51848 613.3392,923.8488 C 619.42789,926.89625 621.45158,927.46833 626.12865,927.46408 C 633.61784,927.45723 637.60984,926.21067 640.7942,922.88433 C 643.12487,920.44984 643.45334,919.45249 643.40664,914.95303 C 643.31837,906.44579 637.90654,897.01682 631.05053,893.42505 C 627.91588,891.78283 621.87247,891.78106 618.73254,893.42145 C 611.06697,897.42613 606.588,908.50549 609.5186,916.21353 C 611.0054,920.12401 609.7551,919.95103 605.35619,915.63748 C 594.37081,904.86533 593.35384,890.58655 602.25449,872.08895 C 603.60666,869.27881 606.22567,864.48948 608.07449,861.44598 L 611.436,855.91239 L 616.9153,855.91239 C 625.03343,855.91239 640.5958,858.44192 647.17909,860.83154 C 665.50675,867.48411 674.25477,878.19246 675.61717,895.64223 C 676.89698,912.03454 674.58851,925.67089 668.74916,936.21179 C 660.28642,951.48845 642.33422,959.46833 621.26841,957.3173 L 621.26841,957.31737 z"
           style="opacity:1;fill:#ffffff;fill-opacity:1;fill-rule:nonzero;stroke:#ffffff;stroke-width:3.62312579;stroke-linecap:butt;stroke-linejoin:miter;stroke-miterlimit:4;stroke-dasharray:none;stroke-opacity:0" />
        <path
           inkscape:export-ydpi="90.044502"
           inkscape:export-xdpi="90.044502"
           inkscape:export-filename="F:\Pictures\SVG\path2433.png"
           id="path2438"
           d="M 617.19239,1009.2682 C 612.79233,1008.2557 599.47583,1003.0753 594.09497,1000.2829 C 585.74026,995.94718 576.25148,988.46766 571.1606,982.20496 C 565.66754,975.44757 560.26838,964.28617 558.39833,955.82243 C 555.6241,943.26615 557.09729,922.99829 561.7413,909.83167 L 563.01032,906.2338 L 563.51698,911.64322 C 565.37691,931.50105 581.46417,947.52654 609.04036,956.99174 C 622.62165,961.65338 639.66645,960.79639 652.43267,954.81007 C 670.09456,946.52811 679.06215,927.64763 678.16809,900.62646 L 677.8044,889.63496 L 680.57913,897.00332 C 685.59757,910.33013 693.98163,921.78045 703.9829,928.96648 C 706.5643,930.82121 708.83409,932.45385 709.02692,932.59447 C 709.98911,933.29627 692.91003,965.25489 687.62574,972.6406 C 674.00215,991.68201 657.68644,1004.3637 641.51775,1008.4788 C 636.31597,1009.8027 621.59158,1010.2806 617.19239,1009.2682 L 617.19239,1009.2682 z"
           style="opacity:1;fill:#ffffff;fill-opacity:1;fill-rule:nonzero;stroke:#ffffff;stroke-width:3.62312579;stroke-linecap:butt;stroke-linejoin:miter;stroke-miterlimit:4;stroke-dasharray:none;stroke-opacity:0" />
        <path
           inkscape:export-ydpi="90.044502"
           inkscape:export-xdpi="90.044502"
           inkscape:export-filename="F:\Pictures\SVG\path2433.png"
           id="path2440"
           d="M 767.38663,1011.2512 C 751.80202,1007.8635 745.388,1001.4564 746.52756,990.41497 C 747.6165,979.86401 757.44342,967.9132 766.64633,965.94762 L 769.36368,965.36722 L 766.61644,967.21564 C 761.32178,970.77803 759.68087,974.08265 759.20045,982.15049 C 758.80345,988.81903 758.96594,989.81361 760.91971,992.67217 C 764.04475,997.24421 766.55575,998.27637 773.4397,997.81889 C 781.83123,997.26105 789.39367,994.17264 794.00365,989.42057 C 803.14334,979.99915 801.19266,966.88323 788.27132,950.87855 C 782.17405,943.32627 782.41453,941.84464 788.93418,946.79513 C 795.23181,951.57701 807.95794,958.89997 812.07545,960.11111 C 815.65935,961.16522 815.91577,961.48228 817.45733,966.76165 C 819.73057,974.54688 819.54669,985.33213 817.02916,991.87199 C 811.00824,1007.5123 789.25401,1016.0047 767.38653,1011.2512 L 767.38663,1011.2512 z"
           style="opacity:1;fill:#ffffff;fill-opacity:1;fill-rule:nonzero;stroke:#ffffff;stroke-width:3.62312579;stroke-linecap:butt;stroke-linejoin:miter;stroke-miterlimit:4;stroke-dasharray:none;stroke-opacity:0" />
        <path
           inkscape:export-ydpi="90.044502"
           inkscape:export-xdpi="90.044502"
           inkscape:export-filename="F:\Pictures\SVG\path2433.png"
           id="path2442"
           d="M 867.28608,988.58946 C 856.87929,985.73203 844.11954,977.1942 836.72855,968.14275 L 833.44255,964.11847 L 843.52191,964.07452 C 849.06565,964.05045 856.54677,963.51354 860.14681,962.88152 L 866.69224,961.73238 L 870.56328,964.87162 C 879.95072,972.4844 890.97743,975.66811 907.90577,975.65335 C 919.60529,975.64313 919.63219,975.64794 917.41647,977.36289 C 913.3294,980.52627 898.9571,987.08861 892.94497,988.53631 C 885.83378,990.24869 873.42284,990.27446 867.286,988.58946 L 867.28608,988.58946 z"
           style="opacity:1;fill:#ffffff;fill-opacity:1;fill-rule:nonzero;stroke:#ffffff;stroke-width:3.62312579;stroke-linecap:butt;stroke-linejoin:miter;stroke-miterlimit:4;stroke-dasharray:none;stroke-opacity:0" />
        <path
           inkscape:export-ydpi="90.044502"
           inkscape:export-xdpi="90.044502"
           inkscape:export-filename="F:\Pictures\SVG\path2433.png"
           id="path2444"
           d="M 893.45575,972.39584 C 887.88292,971.27747 879.10898,968.23447 879.71376,967.62976 C 879.89963,967.44385 882.66,967.96075 885.84799,968.77846 C 895.67907,971.30005 907.09572,969.48894 914.28871,964.26676 L 917.00605,962.29397 L 921.3366,966.95893 L 925.66723,971.62381 L 918.80875,972.64391 C 910.2646,973.91472 900.55054,973.81969 893.45575,972.39584 z"
           style="opacity:1;fill:#ffffff;fill-opacity:1;fill-rule:nonzero;stroke:#ffffff;stroke-width:3.62312579;stroke-linecap:butt;stroke-linejoin:miter;stroke-miterlimit:4;stroke-dasharray:none;stroke-opacity:0" />
        <path
           inkscape:export-ydpi="90.044502"
           inkscape:export-xdpi="90.044502"
           inkscape:export-filename="F:\Pictures\SVG\path2433.png"
           id="path2446"
           d="M 876.08403,942.8011 C 854.60668,940.74418 836.49159,930.41903 825.65148,914.05579 C 819.56453,904.86744 817.4326,896.86736 817.39826,883.08584 C 817.36674,870.41275 818.30033,865.95204 822.96501,856.48733 C 834.88728,832.29714 862.73807,815.2238 890.36703,815.16795 C 900.27211,815.14797 909.88689,817.57167 919.27232,822.45452 C 931.54457,828.83922 938.12661,836.11797 943.43622,849.17615 C 945.72103,854.79541 945.98546,856.51254 945.93817,865.4231 C 945.85854,880.38815 943.41121,884.74969 930.87103,892.27415 C 920.53253,898.47754 913.22423,900.5358 901.15489,900.64324 C 890.9787,900.73384 881.27416,898.94606 879.90344,896.72832 C 879.62264,896.27387 881.74182,895.24887 884.61268,894.4505 C 895.61611,891.39053 903.66173,886.13983 905.74566,880.65879 C 907.19028,876.85879 906.71937,869.43005 904.78353,865.48261 C 903.33763,862.5343 902.0104,861.38339 898.12767,859.71069 C 884.18706,853.70529 869.86594,857.20129 864.52815,867.91271 C 860.22543,876.54711 861.81045,883.58167 869.88214,891.67434 C 876.57832,898.38788 881.71409,900.97294 891.82126,902.71716 C 901.0662,904.31255 910.24476,903.4187 920.21252,899.95228 C 940.3685,892.94273 960.26173,872.92494 976.83698,842.97341 C 985.03363,828.16222 996.34055,819.81269 1010.8778,817.83638 C 1024.9571,815.9223 1040.0934,820.84774 1048.9757,830.23362 C 1057.5089,839.2506 1056.0105,853.93023 1044.8439,870.71262 C 1036.3785,883.43529 1028.6775,888.91619 1019.3285,888.87225 C 1009.979,888.82827 1000.7667,882.34368 1000.8141,875.83958 C 1000.8432,871.84262 1004.3943,865.54359 1009.1249,861.0974 C 1011.6562,858.71828 1013.8789,856.92335 1014.0643,857.10874 C 1014.2497,857.29413 1013.7846,858.92191 1013.0307,860.72602 C 1011.5043,864.37929 1011.2457,870.15893 1012.5189,872.17126 C 1013.0011,872.9336 1014.6437,873.44805 1016.4332,873.39733 C 1025.6151,873.13704 1038.7485,859.32339 1038.8137,849.85733 C 1038.8773,840.65984 1029.2711,832.03477 1018.9065,831.98299 C 1011.7021,831.94701 1006.2598,834.91216 997.55172,843.61761 C 988.78728,852.37956 980.35092,864.94856 971.25312,882.79895 C 967.58081,890.00435 962.54323,898.82492 960.05858,902.40018 C 947.88505,919.91687 932.65948,933.42069 919.55466,938.32386 C 910.36722,941.76128 888.61732,944.00139 876.08403,942.8011 L 876.08403,942.8011 z"
           style="opacity:1;fill:#ffffff;fill-opacity:1;fill-rule:nonzero;stroke:#ffffff;stroke-width:3.62312579;stroke-linecap:butt;stroke-linejoin:miter;stroke-miterlimit:4;stroke-dasharray:none;stroke-opacity:0" />
        <path
           inkscape:export-ydpi="90.044502"
           inkscape:export-xdpi="90.044502"
           inkscape:export-filename="F:\Pictures\SVG\path2433.png"
           id="path2448"
           d="M 885.31367,890.10565 C 882.76444,882.62887 879.67871,862.51812 880.68033,859.90805 C 882.11083,856.17994 900.13923,861.42161 902.76436,866.32887 C 903.57105,867.83687 904.24179,871.29351 904.27158,874.09583 C 904.34151,880.6946 901.49455,884.5868 893.77657,888.44349 C 887.68175,891.48917 885.90442,891.83821 885.31367,890.10565 z"
           style="opacity:1;fill:#ffffff;fill-opacity:1;fill-rule:nonzero;stroke:#ffffff;stroke-width:3.62312579;stroke-linecap:butt;stroke-linejoin:miter;stroke-miterlimit:4;stroke-dasharray:none;stroke-opacity:0" />
        <path
           inkscape:export-ydpi="90.044502"
           inkscape:export-xdpi="90.044502"
           inkscape:export-filename="F:\Pictures\SVG\path2433.png"
           id="path2450"
           d="M 983.85808,1002.2734 C 963.86339,998.44972 946.27664,988.76608 930.03192,972.63526 C 923.04345,965.69602 914.43762,955.44073 909.45873,948.11921 L 906.56248,943.8604 L 909.97276,943.2748 C 915.22249,942.37328 921.43686,940.47963 924.81552,938.7519 C 935.37748,933.35075 950.66219,919.71723 958.70226,908.52591 C 960.52269,905.99201 962.18035,903.91882 962.38605,903.91882 C 962.59176,903.91882 964.55169,906.67011 966.74169,910.03282 C 978.57563,928.20373 994.39164,941.15002 1009.5265,945.05468 C 1016.4573,946.84283 1029.5247,946.89302 1036.1163,945.15693 C 1046.1607,942.51142 1055.1017,937.06194 1065.5768,927.20067 C 1091.0947,903.17838 1107.7164,876.10191 1112.2378,851.191 C 1113.3564,845.02798 1113.5436,832.09039 1112.6212,824.70677 L 1112.046,820.10246 L 1115.5765,818.11819 C 1120.5378,815.3297 1127.1147,809.35848 1129.5313,805.44822 L 1131.5778,802.13709 L 1132.3021,804.79506 C 1134.1331,811.51319 1135.8939,834.9971 1135.32,845.04303 C 1132.897,887.45931 1119.6851,922.4355 1093.7849,954.99945 C 1077.4758,975.50461 1047.5585,994.19371 1020.2651,1000.9267 C 1010.7089,1003.2843 992.63919,1003.9525 983.85808,1002.2734 z"
           style="opacity:1;fill:#ffffff;fill-opacity:1;fill-rule:nonzero;stroke:#ffffff;stroke-width:3.62312579;stroke-linecap:butt;stroke-linejoin:miter;stroke-miterlimit:4;stroke-dasharray:none;stroke-opacity:0" />
        <path
           inkscape:export-ydpi="90.044502"
           inkscape:export-xdpi="90.044502"
           inkscape:export-filename="F:\Pictures\SVG\path2433.png"
           id="path2452"
           d="M 1082.6423,823.17003 C 1080.5826,822.81728 1076.5066,821.57014 1073.5844,820.39859 L 1068.2716,818.26851 L 1068.5652,814.67235 C 1068.9827,809.55523 1072.0371,800.91566 1075.1631,796.00838 C 1077.4753,792.37881 1083.4728,787.073 1085.2635,787.073 C 1085.5882,787.073 1085.2606,788.75466 1084.5354,790.81001 C 1082.7035,796.00252 1082.8813,798.21691 1085.3135,800.50183 C 1086.9814,802.06888 1088.5082,802.47025 1092.7861,802.46623 C 1101.0574,802.45844 1104.1367,801.21275 1109.5792,795.67258 C 1119.7153,785.35481 1123.5069,775.15427 1123.381,758.54089 C 1123.2886,746.35166 1121.8579,738.60685 1117.2319,725.25342 C 1115.5491,720.39617 1114.5114,716.42204 1114.9258,716.42204 C 1117.1834,716.42204 1126.1956,726.33316 1128.9977,731.89739 C 1133.8732,741.5786 1137.5639,758.97372 1137.5639,772.27107 C 1137.5639,789.31722 1128.6018,806.95338 1115.7484,815.20142 C 1106.8059,820.93987 1091.347,824.66078 1082.6423,823.17002 L 1082.6423,823.17003 z"
           style="opacity:1;fill:#ffffff;fill-opacity:1;fill-rule:nonzero;stroke:#ffffff;stroke-width:3.62312579;stroke-linecap:butt;stroke-linejoin:miter;stroke-miterlimit:4;stroke-dasharray:none;stroke-opacity:0" />
        <path
           inkscape:export-ydpi="90.044502"
           inkscape:export-xdpi="90.044502"
           inkscape:export-filename="F:\Pictures\SVG\path2433.png"
           id="path2454"
           d="M 1062.6494,813.10013 C 1056.6556,806.78341 1055.0675,800.05703 1057.3069,790.46966 C 1060.3271,777.53839 1068.774,765.85626 1078.5889,761.03612 C 1086.3046,757.24696 1093.537,757.55144 1102.636,762.04847 C 1106.4284,763.92274 1111.8277,767.59372 1114.6344,770.2062 L 1119.7375,774.95619 L 1117.288,780.30635 C 1114.8543,785.6225 1108.2087,795.22503 1106.9634,795.22503 C 1106.6052,795.22503 1105.4795,793.49667 1104.4614,791.38422 C 1101.8987,786.06727 1097.7413,783.44469 1091.9143,783.46976 C 1080.1282,783.52049 1071.323,792.82236 1067.0193,809.76907 L 1065.4295,816.02986 L 1062.6494,813.10013 z"
           style="opacity:1;fill:#ffffff;fill-opacity:1;fill-rule:nonzero;stroke:#ffffff;stroke-width:3.62312579;stroke-linecap:butt;stroke-linejoin:miter;stroke-miterlimit:4;stroke-dasharray:none;stroke-opacity:0" />
        <path
           inkscape:export-ydpi="90.044502"
           inkscape:export-xdpi="90.044502"
           inkscape:export-filename="F:\Pictures\SVG\path2433.png"
           id="path2456"
           d="M 945.31173,881.90844 C 945.31173,881.82756 945.60809,881.0149 945.97031,880.10253 C 946.33255,879.19018 946.75626,878.01063 946.91193,877.48132 C 947.0676,876.95201 947.25525,876.5204 947.32898,876.52217 C 947.40265,876.52397 947.73494,877.01875 948.06735,877.62168 L 948.67172,878.71793 L 946.99169,880.38671 C 946.06774,881.30453 945.31173,881.98933 945.31173,881.90844 L 945.31173,881.90844 z"
           style="opacity:1;fill:#ffffff;fill-opacity:1;fill-rule:nonzero;stroke:#ffffff;stroke-width:0.90578145;stroke-linecap:butt;stroke-linejoin:miter;stroke-miterlimit:4;stroke-dasharray:none;stroke-opacity:0" />
        <path
           inkscape:export-ydpi="90.044502"
           inkscape:export-xdpi="90.044502"
           inkscape:export-filename="F:\Pictures\SVG\path2433.png"
           id="path2458"
           d="M 985.16613,762.60216 C 981.58922,762.27127 979.20697,761.22262 977.69344,759.31267 C 975.11896,756.06391 974.99428,753.15744 977.33101,750.86407 L 978.32493,749.88858 L 978.48429,750.83187 C 978.72009,752.22741 979.57324,754.263 980.52043,755.69001 C 982.89012,759.26014 986.78243,761.16316 992.24253,761.42114 C 994.15482,761.51147 994.90327,761.62656 994.90327,761.83023 C 994.90327,762.18281 993.98356,762.35934 990.75435,762.62653 C 987.96671,762.8572 987.92112,762.85699 985.16613,762.60215 L 985.16613,762.60216 z"
           style="opacity:1;fill:#ffffff;fill-opacity:1;fill-rule:nonzero;stroke:#ffffff;stroke-width:0.90578145;stroke-linecap:butt;stroke-linejoin:miter;stroke-miterlimit:4;stroke-dasharray:none;stroke-opacity:0" />
        <path
           inkscape:export-ydpi="90.044502"
           inkscape:export-xdpi="90.044502"
           inkscape:export-filename="F:\Pictures\SVG\path2433.png"
           id="path2460"
           d="M 1013.1546,762.57473 C 1013.0959,762.28656 1012.9917,761.08273 1012.9231,759.89956 C 1012.8544,758.71639 1012.7337,757.22931 1012.6548,756.59496 L 1012.5114,755.4416 L 1014.2937,754.46659 C 1015.2739,753.93035 1017.2733,752.74862 1018.7367,751.84051 C 1020.2001,750.93243 1021.3973,750.27453 1021.3973,750.37852 C 1021.3973,750.48251 1021.1831,751.26616 1020.9213,752.11995 C 1019.8214,755.70706 1017.1188,759.86892 1014.4245,762.12466 C 1013.2968,763.06884 1013.258,763.08262 1013.1546,762.57473 L 1013.1546,762.57473 z"
           style="opacity:1;fill:#ffffff;fill-opacity:1;fill-rule:nonzero;stroke:#ffffff;stroke-width:0.90578145;stroke-linecap:butt;stroke-linejoin:miter;stroke-miterlimit:4;stroke-dasharray:none;stroke-opacity:0" />
        <path
           inkscape:export-ydpi="90.044502"
           inkscape:export-xdpi="90.044502"
           inkscape:export-filename="F:\Pictures\SVG\path2433.png"
           id="path2667"
           d="M 671.60683,875.57388 C 669.29116,872.02872 666.02652,868.6779 662.24515,865.96521 L 656.43903,861.79996 L 656.94698,857.32596 C 657.22637,854.86524 658.4679,850.78922 659.70593,848.26811 C 661.99881,843.59899 671.51501,831.45629 672.8813,831.45629 C 673.29486,831.45629 673.41558,837.876 673.14956,845.72233 C 672.78487,856.47913 673.04009,862.52072 674.18717,870.28285 C 675.02386,875.94477 675.58559,880.67628 675.43543,880.79731 C 675.28525,880.91832 673.56238,878.56779 671.60682,875.57388 L 671.60683,875.57388 z"
           style="opacity:1;fill:#ffffff;fill-opacity:1;fill-rule:nonzero;stroke:#ffffff;stroke-width:3.62312579;stroke-linecap:butt;stroke-linejoin:miter;stroke-miterlimit:4;stroke-dasharray:none;stroke-opacity:0" />
        <path
           inkscape:export-ydpi="90.044502"
           inkscape:export-xdpi="90.044502"
           inkscape:export-filename="F:\Pictures\SVG\path2433.png"
           id="path2464"
           d="M 677.53649,891.24882 C 677.46895,889.04142 676.02057,883.85728 674.78442,881.39843 C 674.56528,880.96253 674.31585,880.35113 674.23014,880.03979 C 674.08836,879.52465 674.13822,879.54505 674.78371,880.26622 L 675.49312,881.05876 L 675.37773,878.6811 L 675.26236,876.30341 L 675.78851,879.13397 C 676.37171,882.27155 677.51175,887.23694 678.05013,888.98436 C 678.455,890.29845 678.49315,891.1162 678.10294,890.1166 C 677.85177,889.47311 677.8309,889.52097 677.70792,891.02238 L 677.57807,892.6075 L 677.53649,891.24882 z"
           style="opacity:1;fill:#ffffff;fill-opacity:1;fill-rule:nonzero;stroke:#ffffff;stroke-width:0.90578145;stroke-linecap:butt;stroke-linejoin:miter;stroke-miterlimit:4;stroke-dasharray:none;stroke-opacity:0" />
        <flowRoot
           style="font-size:32px;font-style:normal;font-variant:normal;font-weight:900;font-stretch:normal;text-align:start;line-height:125%;writing-mode:lr-tb;text-anchor:start;fill:#000000;fill-opacity:1;stroke:none;stroke-width:1px;stroke-linecap:butt;stroke-linejoin:miter;stroke-opacity:1;font-family:Blackoak Std;-inkscape-font-specification:Blackoak Std Heavy"
           id="flowRoot5101"
           xml:space="preserve"><flowRegion
             id="flowRegion5103"><rect
               y="218.5482"
               x="-1632.707"
               height="292.8317"
               width="1469.266"
               id="rect5105" /></flowRegion><flowPara
             id="flowPara5107" /></flowRoot>        <flowRoot
           style="font-size:32px;font-style:normal;font-variant:normal;font-weight:900;font-stretch:normal;text-align:start;line-height:125%;writing-mode:lr-tb;text-anchor:start;fill:#000000;fill-opacity:1;stroke:none;stroke-width:1px;stroke-linecap:butt;stroke-linejoin:miter;stroke-opacity:1;font-family:Blackoak Std;-inkscape-font-specification:Blackoak Std Heavy"
           id="flowRoot5109"
           xml:space="preserve"><flowRegion
             id="flowRegion5111"><rect
               y="283.24356"
               x="-1649.7321"
               height="338.79947"
               width="1333.0652"
               id="rect5113" /></flowRegion><flowPara
             id="flowPara5115" /></flowRoot>      </g>
      <g
         style="display:inline"
         transform="translate(-540.3758,-446.98077)"
         inkscape:label="trace black"
         id="layer5">
        <path
           inkscape:export-ydpi="90.044502"
           inkscape:export-xdpi="90.044502"
           inkscape:export-filename="F:\Pictures\SVG\path2433.png"
           sodipodi:nodetypes="ccccccccccccccccccccccccccccccccccccccccccccccccccccccccccccccccccccccccccccccccccccccccccccccccccccccccccccccc"
           id="path3313"
           d="M 822.40743,627.4531 C 872.3652,561.16297 953.7067,526.25658 953.7067,526.25658 C 962.67347,491.02995 978.04512,476.59629 978.04512,476.59629 C 1021.4882,459.33541 1077.3201,474.22195 1077.3201,474.22195 C 1135.6042,456.92888 1149.1322,458.85033 1149.1322,458.85033 C 1150.9758,476.11122 1149.6626,483.26643 1149.6626,483.26643 C 1207.9468,496.7166 1224.787,518.11787 1224.787,518.11787 C 1146.6423,613.86637 1042.9993,635.85708 1042.9993,635.85708 C 977.18482,709.21529 945.42594,760.89358 945.42594,760.89358 C 944.78546,783.31054 964.78252,788.83235 964.78252,788.83235 C 989.12097,791.39429 987.87214,775.56036 987.87214,775.56036 C 958.26779,769.98359 960.75203,747.22363 960.75203,747.22363 C 974.3898,718.96463 994.963,727.93142 994.963,727.93142 C 1013.537,734.33626 1013.4044,750.27065 1013.4044,750.27065 C 1021.4955,750.35576 1022.9092,742.16212 1022.3162,741.56917 C 1030.6425,754.37886 1014.5526,766.43817 1014.5526,766.43817 C 1015.6138,792.66583 1005.0231,801.3995 1005.0231,801.3995 C 998.61835,811.64725 986.63669,819.67606 986.63669,819.67606 C 970.62457,828.64284 958.83054,825.36271 958.83054,825.36271 C 944.73994,825.36271 935.39796,822.1281 935.39796,822.1281 C 934.11696,831.09489 935.7731,829.20562 935.7731,829.20562 C 954.1823,847.11642 948.90304,872.59843 948.90304,872.59843 C 950.184,874.84014 952.15567,872.95082 952.15567,872.95082 C 976.61728,832.25348 987.97258,823.7615 987.97258,823.7615 C 1020.6601,801.50939 1046.8971,824.08174 1046.8971,824.08174 C 1072.5393,841.66287 1045.9364,874.67999 1045.9364,874.67999 C 1035.7209,891.48797 1020.3947,891.59789 1020.3947,891.59789 C 994.13498,890.95741 998.54066,871.47758 998.54066,871.47758 C 1005.2658,856.10594 1019.0362,850.9821 1019.0362,850.9821 C 1013.2717,867.31445 1014.5526,869.23589 1014.5526,869.23589 C 1023.1671,871.91713 1030.4871,859.60584 1030.4871,859.60584 C 1041.3753,846.15568 1029.9565,839.79636 1029.9565,839.79636 C 1012.1651,830.39946 1005.2884,842.88891 1005.2884,842.88891 C 994.58783,851.44832 982.87154,870.42972 982.87154,870.42972 C 974.94319,887.50303 966.4065,901.84562 966.4065,901.84562 C 974.61349,924.71549 1003.852,939.40107 1003.852,939.40107 C 1019.2237,946.12617 1038.8911,940.41674 1038.8911,940.41674 C 1052.1271,937.70328 1076.4693,911.37518 1076.4693,911.37518 C 1104.8249,877.45619 1108.0956,856.39791 1108.0956,856.39791 C 1112.1716,841.16836 1108.8915,823.78426 1108.8915,823.78426 C 1088.1441,831.54778 1076.8673,825.25282 1076.8673,825.25282 C 1057.0123,819.48847 1054.1849,805.88289 1054.1849,805.88289 C 1048.7181,788.75855 1063.2295,770.28107 1063.2295,770.28107 C 1082.6128,747.36572 1097.8934,756.11271 1097.8934,756.11271 C 1111.156,758.83006 1119.2491,769.86037 1119.2491,769.86037 C 1125.9969,746.10361 1107.4229,710.71604 1107.4229,710.71604 C 1138.3993,717.12088 1141.4464,763.95393 1141.4464,763.95393 C 1142.0868,783.16846 1134.3232,801.66479 1134.3232,801.66479 C 1144.4156,844.96579 1133.0423,884.28727 1133.0423,884.28727 C 1123.4083,927.05211 1095.8942,957.30248 1095.8942,957.30248 C 1072.8424,989.83844 1030.8301,1000.9331 1030.8301,1000.9331 C 1001.8852,1011.6659 976.46665,1003.7603 976.46665,1003.7603 C 946.28616,997.68514 926.99395,976.48476 926.99395,976.48476 C 916.7462,990.57551 885.09719,993.70013 885.09719,993.70013 C 852.75272,992.73941 840.66122,976.51696 840.66122,976.51696 C 834.25639,970.43238 831.88203,966.42464 831.88203,966.42464 C 828.03913,967.7056 820.56368,965.14368 820.56368,965.14368 C 828.88997,983.07722 817.51667,999.30904 817.51667,999.30904 C 803.31612,1016.6343 778.8545,1014.946 778.8545,1014.946 C 749.20464,1016.7576 743.55016,997.46536 743.55016,997.46536 C 741.25353,980.67073 757.71852,966.90971 757.71852,966.90971 C 771.16869,958.26321 787.1808,964.98824 787.1808,964.98824 C 757.68633,964.77795 760.92093,987.77103 760.92093,987.77103 C 765.45927,998.24796 774.69135,994.7708 774.69135,994.7708 C 794.8666,991.5684 793.18768,984.54587 793.18768,984.54587 C 803.75568,975.27211 790.53862,960.23013 790.53862,960.23013 C 785.65729,952.16915 780.42352,947.07743 780.42352,947.07743 C 748.39931,953.80253 712.24415,935.52598 712.24415,935.52598 C 706.96486,953.45951 685.39875,982.702 685.39875,982.702 C 661.83901,1011.217 645.60159,1011.2907 645.60159,1011.2907 C 621.00733,1019.3195 597.56528,1006.8073 597.56528,1006.8073 C 573.18136,993.7323 567.59517,984.83385 567.59517,984.83385 C 552.2008,962.89258 552.76357,934.56528 552.76357,934.56528 C 555.16068,916.33425 562.05059,899.01839 562.05059,899.01839 C 563.01132,878.52291 582.86633,849.7011 582.86633,849.7011 C 593.75456,837.53189 594.39504,826.96392 594.39504,826.96392 C 589.91166,822.1603 585.10802,825.04248 585.10802,825.04248 C 575.82101,827.60441 587.34973,835.29022 587.34973,835.29022 C 574.2198,840.09385 569.7364,826.64368 569.7364,826.64368 C 569.09592,816.71618 580.62464,810.95183 580.62464,810.95183 C 589.91166,805.5077 597.59746,809.03036 597.59746,809.03036 C 617.13223,820.87933 615.53103,841.69508 615.53103,841.69508 C 616.49174,847.13918 614.25006,852.26306 614.25006,852.26306 C 628.66095,849.7011 652.67911,858.02742 652.67911,858.02742 C 652.67911,847.13918 661.32564,839.45337 661.32564,839.45337 C 644.03257,843.29629 617.77271,825.68296 617.77271,825.68296 C 597.59746,806.46843 594.39504,786.61342 594.39504,786.61342 C 589.27118,773.80374 599.19868,750.42607 599.19868,750.42607 C 604.64279,736.65565 619.69417,727.36863 619.69417,727.36863 C 610.72739,759.71308 614.57029,783.09076 614.57029,783.09076 C 622.25611,806.46843 646.91475,809.35061 646.91475,809.35061 C 629.62168,798.14214 622.89659,778.60736 622.89659,778.60736 C 617.45248,762.59527 626.7395,734.09372 626.7395,734.09372 C 632.8241,716.16016 654.28032,702.06951 654.28032,702.06951 C 668.05073,693.7432 682.78187,695.02417 682.78187,695.02417 C 707.76075,695.98491 728.89673,721.92451 728.89673,721.92451 C 732.4194,714.8792 752.2744,697.58611 752.2744,697.58611 C 721.8514,690.32793 693.67009,663.58697 693.67009,663.32021 C 674.45557,645.70689 672.53412,620.08753 672.53412,620.08753 C 669.65194,605.67662 671.89364,597.67057 671.89364,597.67057 C 648.19572,558.2808 655.56128,516.96956 655.56128,516.96956 C 661.32564,480.14171 685.98429,460.92719 685.98429,460.92719 C 669.01146,496.79431 681.18065,520.172 681.18065,520.172 C 688.22598,543.54966 694.31058,548.67353 694.31058,548.67353 C 715.12631,518.57077 750.35295,526.25659 750.35295,526.25659 C 799.67024,541.30796 801.91193,570.45 801.91193,570.45 C 808.63701,598.63131 780.13547,619.44704 780.13547,619.44704 C 771.16869,630.01503 756.43755,634.49842 756.43755,634.49842 C 746.83029,635.1389 730.1777,628.09358 730.1777,628.09358 C 753.55537,649.54981 785.89983,640.90326 785.89983,640.90326 C 807.67629,634.49842 822.40743,627.4531 822.40743,627.4531"
           style="fill:none;fill-rule:evenodd;stroke:#d40000;stroke-width:3.76199985;stroke-linecap:butt;stroke-linejoin:miter;stroke-miterlimit:4;stroke-dasharray:none;stroke-opacity:1" />
      </g>
      <g
         transform="translate(-1006.1032,-663.73327)"
         style="display:inline"
         inkscape:label="square2"
         id="g2680">
        <path
           inkscape:export-ydpi="90.044502"
           inkscape:export-xdpi="90.044502"
           inkscape:export-filename="F:\Pictures\SVG\path2433.png"
           sodipodi:nodetypes="ccccscccsssssscssscccscccccccssssscccccccsscccscccsscccsssscsssssssssssssscccssssssssssssscssssssscc"
           id="path2470"
           d="M 1267.1,1237.0196 C 1280.5375,1230.6852 1290.0586,1219.3049 1294.0826,1204.7677 L 1296.2948,1196.776 L 1301.533,1200.9916 C 1310.7889,1208.4404 1321.7256,1213.3726 1335.9997,1216.5353 C 1348.6279,1219.3333 1366.1034,1216.3531 1383.5188,1208.4317 L 1392.3753,1204.4032 L 1401.4524,1210.6571 C 1418.5332,1222.4253 1432.6328,1227.8348 1451.944,1230.0292 C 1471.3467,1232.2339 1495.0154,1228.0641 1518.4313,1218.3162 C 1540.2154,1209.2475 1561.1402,1191.2212 1576.1817,1168.5659 C 1588.5156,1149.9888 1603.8583,1118.2796 1607.0112,1104.8501 C 1610.2208,1091.1792 1618.1321,1058.208 1612.0085,1030.8617 C 1609.5856,1020.0422 1614.935,1004.6372 1615.5426,994.31406 C 1616.8426,972.22547 1614.8107,965.30217 1606.4413,947.98542 C 1599.9501,934.555 1591.5891,927.06294 1581.9711,922.21568 C 1569.8992,916.13181 1562.3242,916.63474 1562.3242,923.5201 C 1562.3242,925.3747 1565.2583,934.67385 1568.8444,944.18493 C 1572.4304,953.69598 1575.6716,963.37036 1576.047,965.6835 L 1576.7296,969.8892 L 1569.8471,967.25831 C 1564.3996,965.17594 1560.9248,964.74267 1553.1797,965.18008 C 1535.6711,966.16889 1523.8246,974.47661 1515.961,991.28068 C 1512.283,999.14015 1512.1703,999.93939 1512.5816,1015.2273 L 1513.007,1031.043 L 1509.1641,1028.7757 C 1504.0612,1025.7652 1491.3721,1022.5354 1484.6466,1022.5354 L 1479.2416,1022.5354 L 1482.4209,1016.8469 C 1484.1696,1013.7183 1486.5055,1006.657 1487.6118,1001.1551 C 1488.7182,995.65325 1491.3019,987.73834 1493.353,983.56639 C 1498.2879,973.52919 1499.7938,966.49846 1498.2254,960.81782 C 1496.5924,954.90361 1492.8857,951.70507 1487.4463,951.51615 C 1484.1606,951.40206 1481.7994,950.11861 1478.168,946.47328 C 1472.4128,940.69583 1465.4035,936.8711 1458.3563,935.66259 L 1453.2629,934.78915 L 1467.2864,917.27685 C 1474.9993,907.64507 1488.5379,891.21664 1497.3723,880.76925 L 1513.4347,861.77396 L 1529.862,856.0096 C 1584.995,836.6633 1625.4195,811.44534 1668.4503,769.55399 C 1687.1272,751.37171 1699.9962,739.54413 1699.9962,734.94987 C 1699.9962,731.03394 1689.4198,720.61875 1677.1909,713.655 C 1667.9139,708.37226 1648.7247,699.22172 1636.7626,695.90495 L 1623.9586,692.87965 L 1623.1643,684.75408 C 1621.893,673.19828 1624.8735,671.34035 1622.2769,668.99052 C 1618.3604,665.44601 1598.9119,668.44274 1569.3695,675.45049 L 1543.7502,683.33922 L 1523.9729,680.37727 C 1494.3081,674.64128 1468.0289,678.35018 1452.1609,682.08472 C 1440.6567,684.79227 1439.6411,687.57273 1433.5764,693.79258 C 1426.8648,700.676 1420.3166,712.13065 1414.4375,727.27228 L 1410.9561,736.23906 L 1396.7689,743.92486 C 1361.6989,762.9236 1327.848,788.36911 1299.7257,816.87164 C 1290.2145,826.51141 1279.9396,835.88249 1276.8926,837.69623 C 1272.4817,840.32174 1250.2027,848.32379 1247.3035,848.32379 C 1246.9355,848.32379 1250.4139,844.43285 1255.0336,839.67725 C 1273.6547,820.50793 1275.7152,816.11155 1275.8954,795.1636 C 1276.0226,780.38432 1275.8838,779.54517 1272.2911,773.38714 C 1267.3734,764.95802 1254.7226,752.60917 1244.8789,746.62952 C 1226.4943,735.46145 1210.6182,731.73478 1194.5529,734.81625 C 1184.6007,736.72517 1169.1167,742.96397 1164.932,746.75108 C 1161.8279,749.56023 1160.9105,748.39474 1156.9839,736.65367 C 1152.521,723.30908 1152.4819,707.73571 1156.8699,691.03169 C 1160.2306,678.23755 1159.8638,674.16585 1155.1219,671.62804 C 1148.1889,667.91764 1142.279,671.4462 1132.5192,685.12351 C 1118.4646,704.81917 1111.3724,726.35491 1111.2562,749.68922 C 1111.1547,770.05304 1113.7941,784.07334 1121.6254,804.77086 C 1123.6308,810.071 1126.4689,822.01442 1127.9559,831.41124 C 1132.3173,858.97297 1136.7146,869.30211 1150.2425,883.76349 C 1159.5082,893.66857 1172.5588,903.59043 1187.0005,911.70914 C 1192.989,915.07574 1198.1449,918.05926 1198.458,918.3392 C 1198.7711,918.61915 1197.8248,920.05082 1196.3549,921.52068 L 1193.6825,924.19317 L 1186.8188,919.06437 C 1162.1556,900.63506 1136.0534,898.43092 1113.4793,912.87137 C 1109.8709,915.17968 1103.3968,920.91142 1099.0929,925.60851 C 1092.8769,932.39211 1090.5007,934.14867 1087.5398,934.14867 C 1082.9445,934.14867 1079.5762,936.33991 1070.0256,945.54231 C 1053.1933,961.76106 1046.0066,986.64375 1051.8583,1008.4448 C 1052.8984,1012.3197 1053.7562,1015.5884 1053.7646,1015.7087 C 1053.7729,1015.8288 1052.1127,1016.2933 1050.0751,1016.7408 C 1044.1867,1018.034 1035.0096,1024.5061 1030.7751,1030.3519 C 1023.7467,1040.0542 1026.243,1052.0656 1036.7606,1059.1535 C 1039.0666,1060.7076 1040.3425,1062.3786 1039.7178,1063.0268 C 1036.2709,1066.6038 1023.9467,1092.938 1020.6002,1103.8769 C 1008.8835,1142.1771 1007.2595,1158.9263 1013.2978,1179.1936 C 1020.0167,1201.7447 1027.9994,1212.6087 1046.9401,1224.9787 C 1070.5722,1240.4127 1094.7303,1243.7488 1120.0755,1235.0785 C 1133.7756,1230.392 1147.5722,1218.5182 1162.0564,1198.949 C 1167.9649,1190.966 1181.1938,1169.9739 1182.1795,1167.0167 C 1182.495,1166.0702 1187.3078,1166.507 1197.3107,1168.39 C 1205.3785,1169.9087 1215.1497,1171.1799 1219.0247,1171.2148 C 1225.0223,1171.269 1225.7015,1171.5054 1223.5922,1172.8043 C 1216.8914,1176.9307 1209.6922,1185.0066 1205.9648,1192.5778 C 1198.7059,1207.3226 1200.9796,1223.9569 1211.2535,1231.2726 C 1225.4942,1241.4128 1251.9951,1244.14 1267.1,1237.0196 L 1267.1,1237.0196 z"
           style="opacity:1;fill:none;fill-opacity:1;fill-rule:nonzero;stroke:#009dba;stroke-width:7.52399969;stroke-linecap:butt;stroke-linejoin:round;stroke-miterlimit:4;stroke-dasharray:none;stroke-opacity:1" />
      </g>
      <g
         style="display:inline"
         transform="translate(-202.19908,-440.64953)"
         inkscape:label="eye"
         id="layer4">
        <path
           inkscape:export-ydpi="90.044502"
           inkscape:export-xdpi="90.044502"
           inkscape:export-filename="F:\Pictures\SVG\path2433.png"
           transform="matrix(0.6608199,0,0,0.5782414,231.99363,267.54738)"
           d="M 531.42857,829.50507 A 61.42857,60 0 1 1 408.57143,829.50507 A 61.42857,60 0 1 1 531.42857,829.50507 z"
           sodipodi:ry="60"
           sodipodi:rx="61.42857"
           sodipodi:cy="829.50507"
           sodipodi:cx="470"
           id="path2427"
           style="opacity:1;fill:none;fill-opacity:1;fill-rule:nonzero;stroke:none;stroke-width:2;stroke-linecap:butt;stroke-linejoin:miter;stroke-miterlimit:4;stroke-dasharray:none;stroke-opacity:1"
           sodipodi:type="arc" />
        <path
           inkscape:export-ydpi="90.044502"
           inkscape:export-xdpi="90.044502"
           inkscape:export-filename="F:\Pictures\SVG\path2433.png"
           transform="matrix(0.539869,0,0,0.4698851,288.82177,357.28726)"
           d="M 531.42857,829.50507 A 61.42857,60 0 1 1 408.57143,829.50507 A 61.42857,60 0 1 1 531.42857,829.50507 z"
           sodipodi:ry="60"
           sodipodi:rx="61.42857"
           sodipodi:cy="829.50507"
           sodipodi:cx="470"
           id="path2429"
           style="opacity:1;fill:#ffffff;fill-opacity:1;fill-rule:nonzero;stroke:none;stroke-width:2;stroke-linecap:butt;stroke-linejoin:miter;stroke-miterlimit:4;stroke-dasharray:none;stroke-opacity:1"
           sodipodi:type="arc" />
        <path
           inkscape:export-ydpi="90.044502"
           inkscape:export-xdpi="90.044502"
           sodipodi:nodetypes="ccc"
           id="path2433"
           d="M 499.04724,773.32054 C 471.10096,724.95197 520.54439,703.45482 520.54439,703.45482 C 572.13753,686.25712 589.33524,731.40112 589.33524,731.40112"
           style="fill:none;fill-rule:evenodd;stroke:none;stroke-width:7;stroke-linecap:butt;stroke-linejoin:miter;stroke-miterlimit:4;stroke-dasharray:none;stroke-opacity:1" />
      </g>
    </g>
  </g>
  <g
     inkscape:groupmode="layer"
     id="layer8"
     inkscape:label="NAME FILL"
     style="display:inline"
     transform="translate(-551.01037,-411.83117)">
    <path
       style="opacity:1;fill:none;fill-opacity:1;fill-rule:nonzero;stroke:#009dba;stroke-width:2;stroke-linecap:butt;stroke-linejoin:bevel;stroke-miterlimit:4;stroke-dasharray:none;stroke-opacity:1"
       d="M 9.8292456,29.939727 L 13.212136,27.590115 L 13.215091,18.242722 L 13.218032,8.8953319 L 10.031493,6.6556054 L 6.8449551,4.415882 L 10.257216,4.3285633 C 12.133959,4.2805415 21.389206,4.2882191 30.82443,4.345631 C 49.77539,4.4609423 49.248586,4.4100252 52.662283,6.4561927 C 54.660326,7.653825 55.653965,9.0533169 55.653965,10.669858 C 55.653965,12.967261 52.909657,14.603633 47.337892,15.628545 L 44.518295,16.147199 L 44.519306,17.655159 L 44.520314,19.163121 L 47.243338,19.691792 C 54.576246,21.115433 58.174214,23.571062 57.65103,26.79507 C 57.402946,28.323838 56.596681,29.268682 54.721873,30.227686 C 51.21185,32.02315 50.883793,32.04674 27.664307,32.173509 L 6.4463402,32.289353 L 9.8292456,29.939727 z M 40.915634,29.516348 C 42.654692,29.143394 44.24148,27.931622 44.820128,26.53464 C 45.322624,25.321517 45.052307,22.778937 44.316002,21.792735 C 42.686567,19.610276 41.191092,19.317723 31.652081,19.315346 L 24.654666,19.313603 L 24.654666,24.580474 L 24.654666,29.847346 L 32.013481,29.847346 C 36.228197,29.847346 40.031685,29.705929 40.91564,29.516354 L 40.915634,29.516348 z M 42.207243,15.40107 C 44.928181,13.547412 44.869529,9.5905077 42.090369,7.5155651 C 40.938604,6.6556506 38.269011,6.3757751 31.200635,6.373891 L 24.654666,6.3721484 L 24.654666,11.351668 L 24.654666,16.331185 L 32.878732,16.242334 C 41.088526,16.153634 41.104727,16.152174 42.207249,15.40107 L 42.207243,15.40107 z"
       id="path2462"
       transform="translate(761.55148,508.17913)"
       inkscape:export-filename="F:\Pictures\SVG\path3240.png"
       inkscape:export-xdpi="89.668961"
       inkscape:export-ydpi="89.668961" />
    <path
       style="opacity:1;fill:none;fill-opacity:1;fill-rule:nonzero;stroke:#009dba;stroke-width:2;stroke-linecap:butt;stroke-linejoin:bevel;stroke-miterlimit:4;stroke-dasharray:none;stroke-opacity:1"
       d="M 65.911025,32.066668 C 65.911025,31.978866 67.347518,30.913976 69.103231,29.700252 L 72.295437,27.493484 L 72.295437,18.221356 L 72.295437,8.9492575 L 69.103231,6.6886819 C 67.347518,5.4453645 65.911025,4.3621384 65.911025,4.2815118 C 65.911025,4.2008852 71.404581,4.1349172 78.118931,4.1349172 L 90.326829,4.1349172 L 86.851539,6.5822751 L 83.376222,9.029633 L 83.368999,19.138285 L 83.361751,29.246938 L 93.202594,29.246938 L 103.04345,29.246938 L 107.86789,25.203477 C 110.52134,22.979573 112.79657,21.160016 112.924,21.160016 C 113.05144,21.160016 113.15567,23.649936 113.15567,26.693173 L 113.15567,32.22633 L 89.533349,32.22633 C 76.541071,32.22633 65.911025,32.154484 65.911025,32.066677 L 65.911025,32.066668 z"
       id="path3234"
       transform="translate(761.55148,508.17913)"
       inkscape:export-filename="F:\Pictures\SVG\path3240.png"
       inkscape:export-xdpi="89.668961"
       inkscape:export-ydpi="89.668961" />
    <path
       style="opacity:1;fill:none;fill-opacity:1;fill-rule:nonzero;stroke:#009dba;stroke-width:2;stroke-linecap:butt;stroke-linejoin:bevel;stroke-miterlimit:4;stroke-dasharray:none;stroke-opacity:1"
       d="M 139.9702,33.443097 C 131.68622,32.750941 123.0367,28.416504 120.16669,23.519154 C 119.28892,22.021401 119.04815,21.055907 119.05764,19.072028 C 119.08628,13.089834 124.36002,7.8100486 133.37298,4.7403382 C 137.93719,3.1858232 146.61084,2.7909601 151.73484,3.9044271 C 158.39196,5.3510412 164.96935,9.4933754 167.53248,13.853465 C 168.50827,15.513442 168.70006,16.3342 168.70006,18.850484 C 168.70006,21.459683 168.52793,22.139968 167.40973,23.950323 C 163.33971,30.539628 152.03346,34.451046 139.9702,33.443105 L 139.9702,33.443097 z M 149.12119,29.773647 C 150.05757,29.290884 151.42473,28.256639 152.15932,27.475319 C 154.40672,25.085037 155.0103,23.443562 155.20899,19.182346 C 155.43227,14.393309 154.68891,11.829376 152.28565,9.0991082 C 149.92631,6.4187745 147.64882,5.4095437 143.9857,5.4211463 C 139.05102,5.4367711 135.76939,7.5938213 133.64334,12.219247 C 132.75939,14.142185 132.56599,15.212102 132.56526,18.180623 C 132.56373,24.577702 135.36291,28.81207 140.74757,30.558223 C 142.64021,31.171982 147.24592,30.74043 149.12119,29.773635 L 149.12119,29.773647 z"
       id="path3236"
       transform="translate(761.55148,508.17913)"
       inkscape:export-filename="F:\Pictures\SVG\path3240.png"
       inkscape:export-xdpi="89.668961"
       inkscape:export-ydpi="89.668961" />
    <path
       style="opacity:1;fill:none;fill-opacity:1;fill-rule:nonzero;stroke:#009dba;stroke-width:2;stroke-linecap:butt;stroke-linejoin:bevel;stroke-miterlimit:4;stroke-dasharray:none;stroke-opacity:1"
       d="M 195.92608,33.489601 C 191.08666,33.089281 188.35234,32.378564 184.44827,30.506233 C 178.13562,27.4788 175.30869,23.99126 175.30128,19.221853 C 175.29341,14.157597 178.68707,9.9012159 185.29953,6.6818379 C 190.27533,4.2592812 192.97819,3.648757 199.8342,3.3986881 C 206.85049,3.142771 210.64569,3.7811271 215.58173,6.0474146 L 218.62378,7.4441026 L 219.83801,6.6435825 C 220.50581,6.2032794 221.19588,5.8417727 221.37146,5.8402319 C 221.54703,5.8386911 221.69068,7.3513115 221.69068,9.2016163 L 221.69068,12.565818 L 218.26374,10.50616 C 215.23025,8.682985 210.6253,6.8563111 207.09012,6.0738716 C 206.43385,5.9286007 204.09251,5.8048325 201.88721,5.7988056 C 197.22208,5.7860708 194.80243,6.6170744 192.24228,9.1113322 C 189.73172,11.557243 188.74179,14.295356 188.72162,18.849161 C 188.70629,22.325899 188.83275,22.960905 189.99356,25.233573 C 191.02541,27.253588 191.73259,28.026715 193.53738,29.107532 C 198.02771,31.796629 204.78284,31.899371 209.77311,29.354447 C 211.98543,28.226236 212.12112,28.063991 212.24302,26.402218 L 212.37199,24.643828 L 208.41238,22.058656 L 204.45276,19.473509 L 216.71467,19.465508 C 223.45873,19.461107 228.88174,19.610949 228.76584,19.798493 C 228.64994,19.986033 227.20523,21.087348 225.55542,22.245851 L 222.55576,24.352222 L 222.54883,28.497467 L 222.54193,32.642708 L 220.23746,31.512501 L 217.93298,30.382265 L 214.96742,31.318237 C 208.95922,33.214428 202.08125,33.998757 195.92608,33.489601 z"
       id="path3238"
       transform="translate(761.55148,508.17913)"
       inkscape:export-filename="F:\Pictures\SVG\path3240.png"
       inkscape:export-xdpi="89.668961"
       inkscape:export-ydpi="89.668961" />
    <path
       style="opacity:1;fill:none;fill-opacity:1;fill-rule:nonzero;stroke:#009dba;stroke-width:2;stroke-linecap:butt;stroke-linejoin:bevel;stroke-miterlimit:4;stroke-dasharray:none;stroke-opacity:1"
       d="M 258.06565,33.455699 C 256.18399,33.257685 252.73641,32.591714 250.40436,31.975763 C 244.22986,30.344933 244.24978,30.345946 241.57348,31.529535 L 239.1414,32.605117 L 239.1414,28.160166 L 239.1414,23.715211 L 241.20667,25.198956 C 245.56761,28.33197 251.1684,30.233155 258.32328,31.009167 C 262.95113,31.511101 268.35886,31.090075 270.24426,30.081035 C 272.54231,28.851147 272.80168,25.690088 270.70474,24.468856 C 269.31694,23.660611 268.08343,23.467193 258.93712,22.62354 C 250.4542,21.841066 246.62219,21.10308 243.40164,19.631583 C 237.72347,17.037158 235.97844,12.43407 238.9477,7.8826862 C 242.45151,2.5118294 254.33698,0.96383507 265.62871,4.4076592 L 269.34491,5.5410669 L 272.33234,4.4381086 L 275.31974,3.3351504 L 275.31974,7.1400556 C 275.31974,9.2327509 275.2072,10.944957 275.06968,10.944957 C 274.93216,10.944957 273.63932,10.286021 272.1967,9.4806577 C 264.58571,5.231674 252.3339,3.3750147 246.89702,5.6466906 C 243.19027,7.1954595 243.44181,10.707988 247.36589,12.194803 C 248.0268,12.445221 252.43205,13.037946 257.15532,13.511988 C 266.49401,14.449233 269.45114,14.894711 272.65991,15.847602 C 280.09847,18.056638 282.63483,25.205252 277.56369,29.669041 C 275.14689,31.796399 272.04798,32.955613 267.33386,33.495751 C 263.20685,33.968615 262.92827,33.967414 258.06565,33.455699 z"
       id="path3240"
       transform="translate(761.55148,508.17913)"
       inkscape:export-xdpi="89.668961"
       inkscape:export-ydpi="89.668961" />
  </g>
</svg>
