<?xml version="1.0" encoding="UTF-8" standalone="no"?>
<!-- Created with Inkscape (http://www.inkscape.org/) -->
<svg
   xmlns:dc="http://purl.org/dc/elements/1.1/"
   xmlns:cc="http://creativecommons.org/ns#"
   xmlns:rdf="http://www.w3.org/1999/02/22-rdf-syntax-ns#"
   xmlns:svg="http://www.w3.org/2000/svg"
   xmlns="http://www.w3.org/2000/svg"
   xmlns:sodipodi="http://sodipodi.sourceforge.net/DTD/sodipodi-0.dtd"
   xmlns:inkscape="http://www.inkscape.org/namespaces/inkscape"
   width="51.07"
   height="278"
   id="svg2406"
   sodipodi:version="0.32"
   inkscape:version="0.46"
   version="1.0"
   sodipodi:docname="column.svg"
   inkscape:output_extension="org.inkscape.output.svg.inkscape"
   inkscape:export-filename="F:\Pictures\SVG\Banner\banner_column.png"
   inkscape:export-xdpi="81.130402"
   inkscape:export-ydpi="81.130402"
   style="display:inline">
  <defs
     id="defs2408">
    <inkscape:perspective
       sodipodi:type="inkscape:persp3d"
       inkscape:vp_x="0 : 526.18109 : 1"
       inkscape:vp_y="0 : 1000 : 0"
       inkscape:vp_z="744.09448 : 526.18109 : 1"
       inkscape:persp3d-origin="372.04724 : 350.78739 : 1"
       id="perspective2414" />
    <inkscape:perspective
       id="perspective3546"
       inkscape:persp3d-origin="372.04724 : 350.78739 : 1"
       inkscape:vp_z="744.09448 : 526.18109 : 1"
       inkscape:vp_y="0 : 1000 : 0"
       inkscape:vp_x="0 : 526.18109 : 1"
       sodipodi:type="inkscape:persp3d" />
    <inkscape:perspective
       sodipodi:type="inkscape:persp3d"
       inkscape:vp_x="0 : 526.18109 : 1"
       inkscape:vp_y="0 : 1000 : 0"
       inkscape:vp_z="744.09448 : 526.18109 : 1"
       inkscape:persp3d-origin="372.04724 : 350.78739 : 1"
       id="perspective3450" />
    <inkscape:perspective
       id="perspective3448"
       inkscape:persp3d-origin="372.04724 : 350.78739 : 1"
       inkscape:vp_z="744.09448 : 526.18109 : 1"
       inkscape:vp_y="0 : 1000 : 0"
       inkscape:vp_x="0 : 526.18109 : 1"
       sodipodi:type="inkscape:persp3d" />
  </defs>
  <sodipodi:namedview
     id="base"
     pagecolor="#000000"
     bordercolor="#666666"
     borderopacity="1.0"
     gridtolerance="10000"
     guidetolerance="10"
     objecttolerance="10"
     inkscape:pageopacity="0"
     inkscape:pageshadow="2"
     inkscape:zoom="4.6989448"
     inkscape:cx="28.154929"
     inkscape:cy="212.4793"
     inkscape:document-units="px"
     inkscape:current-layer="layer9"
     showgrid="false"
     inkscape:window-width="1680"
     inkscape:window-height="1000"
     inkscape:window-x="1280"
     inkscape:window-y="14"
     showguides="true"
     inkscape:guide-bbox="true"
     showborder="false" />
  <metadata
     id="metadata2411">
    <rdf:RDF>
      <cc:Work
         rdf:about="">
        <dc:format>image/svg+xml</dc:format>
        <dc:type
           rdf:resource="http://purl.org/dc/dcmitype/StillImage" />
      </cc:Work>
    </rdf:RDF>
  </metadata>
  <g
     inkscape:groupmode="layer"
     id="layer9"
     inkscape:label="Column"
     style="display:inline"
     transform="translate(-158.8595,-56.306996)">
    <path
       style="fill:none;fill-rule:evenodd;stroke:#d40000;stroke-width:3.36053324;stroke-linecap:butt;stroke-linejoin:miter;stroke-miterlimit:4;stroke-dasharray:none;stroke-opacity:1;display:inline"
       d="M 169.35317,72.190571 C 167.66377,110.50822 168.82563,165.78861 168.82563,165.78861"
       id="path2528"
       sodipodi:nodetypes="cc"
       inkscape:export-filename="F:\Pictures\SVG\banner\banner_column.png"
       inkscape:export-xdpi="81.130402"
       inkscape:export-ydpi="81.130402" />
    <path
       style="fill:none;fill-rule:evenodd;stroke:#d40000;stroke-width:3.36053324;stroke-linecap:butt;stroke-linejoin:miter;stroke-miterlimit:4;stroke-dasharray:none;stroke-opacity:1;display:inline"
       d="M 182.63208,53.265829 C 182.63208,53.265829 166.22214,53.444121 152.32591,53.139524 C 148.18667,68.064665 149.07362,70.806006 149.07362,70.806006 C 157.35224,71.415203 169.47447,71.719797 169.47447,71.719797 C 169.47447,61.668166 169.17881,59.231408 169.17881,59.231408 C 165.03953,58.926827 158.23924,59.536005 158.23924,59.536005 C 157.94358,64.714115 157.64789,66.846277 157.64789,66.846277 C 163.48336,66.378497 164.77758,66.378497 164.77758,66.378497"
       id="path2530"
       sodipodi:nodetypes="cccccccc"
       inkscape:export-filename="F:\Pictures\SVG\banner\banner_column.png"
       inkscape:export-xdpi="81.130402"
       inkscape:export-ydpi="81.130402" />
    <path
       style="fill:none;fill-rule:evenodd;stroke:#d40000;stroke-width:3.36053324;stroke-linecap:butt;stroke-linejoin:miter;stroke-miterlimit:4;stroke-dasharray:none;stroke-opacity:1;display:inline"
       d="M 182.1144,184.38993 C 182.1144,184.38993 165.70448,184.21163 151.80826,184.51623 C 147.66897,169.59111 148.55596,166.84974 148.55596,166.84974 C 156.83456,166.24053 168.95678,165.93597 168.95678,165.93597 C 168.95678,175.98756 168.6611,178.42433 168.6611,178.42433 C 164.52186,178.72892 157.72156,178.11974 157.72156,178.11974 C 157.42589,172.94164 157.13022,170.80947 157.13022,170.80947 C 162.96566,171.27724 164.25991,171.27724 164.25991,171.27724"
       id="path2537"
       sodipodi:nodetypes="cccccccc"
       inkscape:export-filename="F:\Pictures\SVG\banner\banner_column.png"
       inkscape:export-xdpi="81.130402"
       inkscape:export-ydpi="81.130402" />
    <path
       style="fill:none;fill-rule:evenodd;stroke:#d40000;stroke-width:3.36053324;stroke-linecap:butt;stroke-linejoin:miter;stroke-miterlimit:4;stroke-dasharray:none;stroke-opacity:1;display:inline"
       d="M 188.15721,72.251996 C 189.84654,110.56966 188.68472,165.85001 188.68472,165.85001"
       id="path2541"
       sodipodi:nodetypes="cc"
       inkscape:export-filename="F:\Pictures\SVG\banner\banner_column.png"
       inkscape:export-xdpi="81.130402"
       inkscape:export-ydpi="81.130402" />
    <path
       style="fill:none;fill-rule:evenodd;stroke:#d40000;stroke-width:3.36053324;stroke-linecap:butt;stroke-linejoin:miter;stroke-miterlimit:4;stroke-dasharray:none;stroke-opacity:1;display:inline"
       d="M 174.87828,53.327254 C 174.87828,53.327254 191.28815,53.505547 205.1844,53.20095 C 209.32368,68.12609 208.43666,70.867434 208.43666,70.867434 C 200.15811,71.476626 188.03586,71.781223 188.03586,71.781223 C 188.03586,61.729595 188.3315,59.292838 188.3315,59.292838 C 192.47083,58.988253 199.2711,59.597434 199.2711,59.597434 C 199.56677,64.775543 199.86247,66.907703 199.86247,66.907703 C 194.02698,66.439923 192.73276,66.439923 192.73276,66.439923"
       id="path2543"
       sodipodi:nodetypes="cccccccc"
       inkscape:export-filename="F:\Pictures\SVG\banner\banner_column.png"
       inkscape:export-xdpi="81.130402"
       inkscape:export-ydpi="81.130402" />
    <path
       style="fill:none;fill-rule:evenodd;stroke:#d40000;stroke-width:3.36053324;stroke-linecap:butt;stroke-linejoin:miter;stroke-miterlimit:4;stroke-dasharray:none;stroke-opacity:1;display:inline"
       d="M 175.39597,184.45132 C 175.39597,184.45132 191.80582,184.27304 205.70206,184.57765 C 209.84135,169.65251 208.95437,166.91118 208.95437,166.91118 C 200.6758,166.30198 188.55352,165.99739 188.55352,165.99739 C 188.55352,176.04903 188.84924,178.48578 188.84924,178.48578 C 192.98855,178.79036 199.78879,178.18118 199.78879,178.18118 C 200.08446,173.00305 200.38012,170.87092 200.38012,170.87092 C 194.54469,171.3387 193.25045,171.3387 193.25045,171.3387"
       id="path2545"
       sodipodi:nodetypes="cccccccc"
       inkscape:export-filename="F:\Pictures\SVG\banner\banner_column.png"
       inkscape:export-xdpi="81.130402"
       inkscape:export-ydpi="81.130402" />
    <path
       style="opacity:1;fill:none;fill-opacity:1;fill-rule:nonzero;stroke:none;stroke-width:4;stroke-linecap:butt;stroke-linejoin:miter;stroke-miterlimit:4;stroke-dasharray:none;stroke-opacity:1;display:inline"
       d="M 163.63147,182.44809 C 154.46977,182.3329 153.38524,182.24124 153.15277,181.56234 C 152.47128,179.5721 150.60987,169.17457 150.89239,168.93617 C 151.38053,168.52427 158.29724,167.92603 162.82138,167.9044 L 166.8439,167.88516 L 166.8439,172.04582 L 166.8439,176.20646 L 163.21066,176.20646 L 159.57743,176.20646 L 159.57743,174.40588 L 159.57743,172.60527 L 161.38676,172.8917 C 163.34216,173.20123 165.2868,172.58723 165.2868,171.66032 C 165.2868,170.47409 163.27653,169.559 160.14409,169.31933 C 155.72345,168.98108 155.42516,169.2814 155.42516,174.07028 C 155.42516,179.6303 155.55018,179.71017 164.25415,179.71017 L 171.00698,179.71017 L 170.87183,119.08875 C 170.79749,85.746985 170.54044,58.303128 170.30061,58.102417 C 170.06079,57.901712 166.93936,57.762256 163.36417,57.792524 C 158.471,57.833951 156.75207,57.996374 156.41194,58.449469 C 156.16341,58.780523 155.95651,61.198473 155.95214,63.8227 L 155.94419,68.594013 L 159.78959,68.348618 C 164.11316,68.072697 165.80584,67.500818 165.80584,66.315987 C 165.80584,64.996361 164.57726,64.47124 162.23061,64.787873 L 160.09647,65.075835 L 160.09647,63.268006 L 160.09647,61.460178 L 163.47019,61.460178 L 166.8439,61.460178 L 166.8439,65.688281 L 166.8439,69.916385 L 160.05457,69.626437 C 156.32043,69.466964 152.80484,69.128586 152.24215,68.87448 C 151.06615,68.343419 151.12309,67.588704 152.94188,59.598836 L 154.01362,54.890735 L 178.78241,54.890735 L 203.55117,54.890735 L 204.6839,60.036799 C 205.3069,62.867135 205.86484,66.068574 205.92379,67.151113 L 206.03097,69.119358 L 202.13822,69.402868 C 199.9972,69.558806 196.43533,69.776722 194.22295,69.887133 L 190.20043,70.087881 L 190.20043,65.774036 L 190.20043,61.460178 L 193.54352,61.460178 C 195.38221,61.460178 196.99368,61.607991 197.12456,61.78865 C 197.25543,61.96931 197.44438,62.708373 197.54446,63.431012 C 197.72415,64.728525 197.69085,64.74763 194.87174,64.963882 C 192.25189,65.164849 192.01706,65.271871 192.01706,66.264837 C 192.01706,67.82283 193.93568,68.496728 197.98593,68.361359 L 201.35966,68.248606 L 201.35966,63.868975 C 201.35966,61.460178 201.19181,59.14445 200.98668,58.72291 C 200.65675,58.04494 199.78276,57.956475 193.41465,57.956475 L 186.21562,57.956475 L 186.446,118.72384 C 186.63536,168.68048 186.79996,179.60089 187.37109,180.10782 C 187.95472,180.62585 189.08029,180.64575 194.40953,180.23228 C 197.89856,179.9616 200.9553,179.56961 201.20228,179.36121 C 201.88241,178.7873 202.56117,171.32095 202.04219,170.12203 C 201.60642,169.11533 201.44449,169.08438 197.91904,169.33377 C 194.4689,169.57783 191.75753,170.47287 191.75753,171.36769 C 191.75753,171.58581 192.15047,172.09584 192.63074,172.50108 C 193.29523,173.06182 194.03949,173.17595 195.74495,172.9787 C 197.91613,172.7276 197.9857,172.75677 197.978,173.91554 C 197.96522,175.83944 197.30483,176.26221 193.90645,176.52224 L 190.71948,176.76608 L 190.71948,172.29052 L 190.71948,167.81497 L 196.03956,168.08301 C 198.96561,168.23043 202.54375,168.45305 203.99095,168.57772 C 206.986,168.83571 206.79749,168.15909 205.75045,174.89257 C 205.43206,176.94006 204.93685,179.55141 204.64994,180.69558 L 204.12834,182.77591 L 188.98958,182.67623 C 180.66329,182.62139 169.25213,182.51874 163.63148,182.44808 L 163.63147,182.44809 z"
       id="path2549"
       inkscape:export-filename="F:\Pictures\SVG\banner\banner_column.png"
       inkscape:export-xdpi="81.130402"
       inkscape:export-ydpi="81.130402" />
  </g>
  <g
     inkscape:groupmode="layer"
     id="layer10"
     inkscape:label="Column Fill"
     style="display:inline"
     transform="translate(-158.8595,-56.306996)">
    <path
       style="opacity:1;fill:none;fill-opacity:1;fill-rule:nonzero;stroke:#009dba;stroke-width:1.68026662;stroke-linecap:butt;stroke-linejoin:miter;stroke-miterlimit:4;stroke-dasharray:none;stroke-opacity:1"
       d="M 152.33219,178.84893 C 151.08931,173.60686 150.86994,172.49789 150.64207,170.30471 C 150.47808,168.72663 150.50917,168.43352 150.84899,168.35285 C 151.06896,168.30065 153.75975,168.15304 156.82853,168.02481 C 159.89732,167.89658 163.43,167.73856 164.67892,167.67366 L 166.9497,167.55565 L 166.9497,172.14825 L 166.9497,176.74086 L 166.10626,176.80947 C 165.00147,176.89935 159.75942,176.68925 159.60539,176.54891 C 159.53976,176.48907 159.4346,175.57856 159.37171,174.52552 L 159.25743,172.61091 L 161.80595,172.75184 L 164.35452,172.89278 L 164.35452,171.2627 L 164.35452,169.63262 L 159.78845,169.35264 C 157.27711,169.19865 155.17585,169.11192 155.11896,169.15992 C 155.0621,169.20789 155.12327,170.22506 155.25492,171.42027 C 155.38657,172.61548 155.5761,174.93904 155.67609,176.58374 L 155.85792,179.5741 L 156.79738,179.69782 C 157.31408,179.76588 160.60949,179.88812 164.12046,179.96945 L 170.50411,180.11735 L 170.68461,176.96485 C 170.7839,175.23098 170.72884,163.76111 170.56225,151.47624 C 170.25764,129.01218 170.38302,99.869851 170.84538,85.672314 C 171.3482,70.231888 171.42927,65.290663 171.24125,61.537009 L 171.04689,57.657494 L 168.41439,57.595343 C 165.64014,57.529848 159.25497,57.746718 157.44846,57.967795 L 156.38154,58.098369 L 156.20655,60.991014 C 156.11029,62.581967 155.91353,64.905573 155.76923,66.154579 C 155.62497,67.403587 155.56129,68.471366 155.62772,68.527421 C 155.74481,68.626236 161.53993,68.270834 163.7706,68.028032 L 164.87356,67.907976 L 164.87356,66.35668 L 164.87356,64.805386 L 162.32634,64.923825 L 159.77911,65.042257 L 159.88919,63.149072 C 159.94973,62.107814 160.07415,61.191452 160.16567,61.112709 C 160.25714,61.033967 161.90858,60.935423 163.83549,60.893727 L 167.33897,60.817916 L 167.40886,65.430809 L 167.47878,70.0437 L 165.98151,69.979118 C 165.15804,69.943604 161.79828,69.80899 158.51538,69.679982 C 155.2325,69.550976 152.19207,69.394172 151.75891,69.331532 L 150.9713,69.21764 L 151.16431,67.360515 C 151.38459,65.240324 152.11092,61.622157 153.1151,57.642684 L 153.8058,54.905416 L 178.73859,54.950276 L 203.67134,54.995132 L 204.24278,57.140091 C 205.27288,61.006658 206.15244,65.379562 206.31497,67.442105 L 206.47455,69.467684 L 205.51708,69.467684 C 204.99047,69.467684 202.54961,69.563712 200.09298,69.681079 C 197.63631,69.798445 194.3709,69.951552 192.83651,70.021315 L 190.0467,70.148158 L 190.0467,65.51678 L 190.0467,60.885406 L 193.6587,60.961153 C 195.64527,61.002812 197.32657,61.086169 197.39493,61.146388 C 197.46331,61.206608 197.56045,62.120943 197.61085,63.178243 L 197.70245,65.100611 L 195.17217,64.953536 L 192.64187,64.806462 L 192.64187,66.439107 L 192.64187,68.071751 L 197.19891,68.355176 C 199.70527,68.511061 201.8084,68.594338 201.87253,68.540236 C 201.93665,68.486137 201.87944,67.514814 201.7454,66.381744 C 201.61138,65.248677 201.42089,62.928859 201.3221,61.226596 L 201.14251,58.131576 L 199.94152,57.993832 C 199.28096,57.918069 196.04264,57.793843 192.74521,57.71777 C 188.35348,57.61645 186.70062,57.646766 186.56559,57.831107 C 186.21275,58.312875 186.10007,69.842212 186.38129,76.694074 C 187.05951,93.219925 187.28876,120.03823 186.9897,147.86305 C 186.82849,162.85781 186.76577,176.22579 186.85021,177.56968 L 187.00373,180.0131 L 189.49843,180.10548 C 191.94548,180.19613 199.25315,179.94907 200.8468,179.72183 L 201.6555,179.60652 L 201.83833,176.59994 C 201.93888,174.94633 202.12886,172.61548 202.2605,171.42027 C 202.39216,170.22506 202.45455,169.20893 202.39919,169.1622 C 202.30296,169.081 197.40414,169.4038 194.51263,169.68187 L 193.13942,169.81393 L 193.21504,171.37518 L 193.29067,172.93644 L 194.84777,172.87459 C 195.70418,172.84057 196.82069,172.76117 197.32891,172.69811 L 198.25297,172.58347 L 198.14193,174.62129 C 198.08083,175.74209 198.01535,176.67278 197.99641,176.68948 C 197.97747,176.70617 196.29783,176.79117 194.26386,176.87833 L 190.56574,177.03683 L 190.56574,172.41359 L 190.56574,167.79037 L 192.83651,167.79354 C 195.34882,167.79707 203.37975,168.14609 205.62676,168.3494 L 207.06313,168.47937 L 206.86427,170.39206 C 206.67358,172.226 205.63102,177.31197 204.67599,181.06724 L 204.22322,182.84758 L 178.74498,182.8191 L 153.26674,182.7906 L 152.33219,178.84893 z"
       id="path3308"
       inkscape:export-filename="F:\Pictures\SVG\banner\banner_column.png"
       inkscape:export-xdpi="81.130402"
       inkscape:export-ydpi="81.130402" />
  </g>
</svg>
