<?xml version="1.0" encoding="UTF-8" standalone="no"?>
<!-- Created with Inkscape (http://www.inkscape.org/) -->

<svg
   xmlns:dc="http://purl.org/dc/elements/1.1/"
   xmlns:cc="http://creativecommons.org/ns#"
   xmlns:rdf="http://www.w3.org/1999/02/22-rdf-syntax-ns#"
   xmlns:svg="http://www.w3.org/2000/svg"
   xmlns="http://www.w3.org/2000/svg"
   xmlns:xlink="http://www.w3.org/1999/xlink"
   xmlns:sodipodi="http://sodipodi.sourceforge.net/DTD/sodipodi-0.dtd"
   xmlns:inkscape="http://www.inkscape.org/namespaces/inkscape"
   width="451.60721"
   height="79.971382"
   id="svg2406"
   sodipodi:version="0.32"
   inkscape:version="0.48.1 "
   version="1.0"
   sodipodi:docname="document_logo.svg"
   inkscape:output_extension="org.inkscape.output.svg.inkscape"
   inkscape:export-filename="C:\Users\joeb\Pictures\personal\svg\hum - white.png"
   inkscape:export-xdpi="89.668961"
   inkscape:export-ydpi="89.668961"
   style="display:inline">
  <defs
     id="defs2408">
    <inkscape:perspective
       sodipodi:type="inkscape:persp3d"
       inkscape:vp_x="0 : 526.18109 : 1"
       inkscape:vp_y="0 : 1000 : 0"
       inkscape:vp_z="744.09448 : 526.18109 : 1"
       inkscape:persp3d-origin="372.04724 : 350.78739 : 1"
       id="perspective2414" />
    <inkscape:perspective
       id="perspective3546"
       inkscape:persp3d-origin="372.04724 : 350.78739 : 1"
       inkscape:vp_z="744.09448 : 526.18109 : 1"
       inkscape:vp_y="0 : 1000 : 0"
       inkscape:vp_x="0 : 526.18109 : 1"
       sodipodi:type="inkscape:persp3d" />
    <inkscape:perspective
       sodipodi:type="inkscape:persp3d"
       inkscape:vp_x="0 : 526.18109 : 1"
       inkscape:vp_y="0 : 1000 : 0"
       inkscape:vp_z="744.09448 : 526.18109 : 1"
       inkscape:persp3d-origin="372.04724 : 350.78739 : 1"
       id="perspective3546-0" />
    <inkscape:perspective
       id="perspective2414-4"
       inkscape:persp3d-origin="372.04724 : 350.78739 : 1"
       inkscape:vp_z="744.09448 : 526.18109 : 1"
       inkscape:vp_y="0 : 1000 : 0"
       inkscape:vp_x="0 : 526.18109 : 1"
       sodipodi:type="inkscape:persp3d" />
  </defs>
  <sodipodi:namedview
     id="base"
     pagecolor="#000000"
     bordercolor="#666666"
     borderopacity="1.0"
     gridtolerance="10000"
     guidetolerance="10"
     objecttolerance="10"
     inkscape:pageopacity="0"
     inkscape:pageshadow="2"
     inkscape:zoom="1.1747362"
     inkscape:cx="245.4276"
     inkscape:cy="-89.08429"
     inkscape:document-units="px"
     inkscape:current-layer="layer1"
     showgrid="false"
     inkscape:window-width="1440"
     inkscape:window-height="878"
     inkscape:window-x="1272"
     inkscape:window-y="-8"
     showguides="true"
     inkscape:guide-bbox="true"
     showborder="false"
     inkscape:window-maximized="1" />
  <metadata
     id="metadata2411">
    <rdf:RDF>
      <cc:Work
         rdf:about="">
        <dc:format>image/svg+xml</dc:format>
        <dc:type
           rdf:resource="http://purl.org/dc/dcmitype/StillImage" />
        <dc:title></dc:title>
      </cc:Work>
    </rdf:RDF>
  </metadata>
  <g
     inkscape:groupmode="layer"
     id="layer6"
     inkscape:label="Name"
     transform="translate(1071.951,-529.92067)"
     style="display:inline;opacity:0.52439024">
    <flowRoot
       xml:space="preserve"
       id="flowRoot3228"
       style="font-size:32px;font-style:normal;font-variant:normal;font-weight:900;font-stretch:normal;text-align:start;line-height:125%;writing-mode:lr-tb;text-anchor:start;fill:#ffffff;fill-opacity:1;stroke:#000000;stroke-width:4.09575605000000030;stroke-linecap:butt;stroke-linejoin:miter;stroke-miterlimit:4;stroke-opacity:1;stroke-dasharray:none;display:inline;font-family:Blackoak Std;-inkscape-font-specification:Blackoak Std Heavy"
       transform="matrix(0.4355667,0,0,0.4868676,-721.17537,-84.930959)"
       inkscape:export-filename="C:\Projects\SVG\htg\document_fade.png"
       inkscape:export-xdpi="89.669998"
       inkscape:export-ydpi="89.669998"><flowRegion
         id="flowRegion3230"><rect
           id="rect3232"
           width="746.349"
           height="49.758869"
           x="-803.58466"
           y="1266.9891"
           style="fill:#ffffff;stroke:#000000;stroke-width:4.09575605000000030;stroke-linecap:butt;stroke-linejoin:miter;stroke-miterlimit:4;stroke-dasharray:none" /></flowRegion><flowPara
         id="flowPara3234"
         style="font-size:62.50372313999999800px;font-style:normal;font-variant:normal;font-weight:normal;font-stretch:normal;text-align:start;line-height:100%;writing-mode:lr-tb;text-anchor:start;stroke:#000000;stroke-width:4.09575605000000030;stroke-linecap:butt;stroke-linejoin:miter;stroke-miterlimit:4;stroke-dasharray:none;font-family:Wide Latin;-inkscape-font-specification:Wide Latin">HUMBOLDT</flowPara></flowRoot>    <flowRoot
       xml:space="preserve"
       id="flowRoot2465"
       style="font-size:32px;font-style:normal;font-variant:normal;font-weight:900;font-stretch:normal;text-align:start;line-height:125%;writing-mode:lr-tb;text-anchor:start;fill:#ffffff;fill-opacity:1;stroke:#000000;stroke-width:4.09575605000000030;stroke-linecap:butt;stroke-linejoin:miter;stroke-miterlimit:4;stroke-opacity:1;stroke-dasharray:none;display:inline;font-family:Blackoak Std;-inkscape-font-specification:Blackoak Std Heavy"
       transform="matrix(0.4355667,0,0,0.4868676,-643.59832,-56.439709)"
       inkscape:export-filename="C:\Projects\SVG\htg\document_fade.png"
       inkscape:export-xdpi="89.669998"
       inkscape:export-ydpi="89.669998"><flowRegion
         id="flowRegion2467"><rect
           id="rect2469"
           width="877.99231"
           height="58.069447"
           x="-803.58466"
           y="1266.9891"
           style="fill:#ffffff;stroke:#000000;stroke-width:4.09575605000000030;stroke-linecap:butt;stroke-linejoin:miter;stroke-miterlimit:4;stroke-dasharray:none" /></flowRegion><flowPara
         id="flowPara2471"
         style="font-size:62.50372313999999800px;font-style:normal;font-variant:normal;font-weight:normal;font-stretch:normal;text-align:start;line-height:100%;writing-mode:lr-tb;text-anchor:start;stroke:#000000;stroke-width:4.09575605000000030;stroke-linecap:butt;stroke-linejoin:miter;stroke-miterlimit:4;stroke-dasharray:none;font-family:Wide Latin;-inkscape-font-specification:Wide Latin">TECHNOLOGY</flowPara></flowRoot>    <flowRoot
       xml:space="preserve"
       id="flowRoot2473"
       style="font-size:32px;font-style:normal;font-variant:normal;font-weight:900;font-stretch:normal;text-align:start;line-height:125%;writing-mode:lr-tb;text-anchor:start;fill:#ffffff;fill-opacity:1;stroke:#000000;stroke-width:4.09575605000000030;stroke-linecap:butt;stroke-linejoin:miter;stroke-miterlimit:4;stroke-opacity:1;stroke-dasharray:none;display:inline;font-family:Blackoak Std;-inkscape-font-specification:Blackoak Std Heavy"
       transform="matrix(0.4355667,0,0,0.4868676,-700.99711,-29.927618)"
       inkscape:export-filename="C:\Projects\SVG\htg\document_fade.png"
       inkscape:export-xdpi="89.669998"
       inkscape:export-ydpi="89.669998"><flowRegion
         id="flowRegion2475"><rect
           id="rect2477"
           width="877.99231"
           height="58.069447"
           x="-803.58466"
           y="1266.9891"
           style="fill:#ffffff;stroke:#000000;stroke-width:4.09575605000000030;stroke-linecap:butt;stroke-linejoin:miter;stroke-miterlimit:4;stroke-dasharray:none" /></flowRegion><flowPara
         id="flowPara2479"
         style="font-size:62.50372313999999800px;font-style:normal;font-variant:normal;font-weight:normal;font-stretch:normal;text-align:start;line-height:100%;writing-mode:lr-tb;text-anchor:start;stroke:#000000;stroke-width:4.09575605000000030;stroke-linecap:butt;stroke-linejoin:miter;stroke-miterlimit:4;stroke-dasharray:none;font-family:Wide Latin;-inkscape-font-specification:Wide Latin">GROUP</flowPara></flowRoot>    <flowRoot
       xml:space="preserve"
       id="flowRoot3855"
       style="font-size:32px;font-style:normal;font-variant:normal;font-weight:900;font-stretch:normal;text-align:start;line-height:125%;writing-mode:lr-tb;text-anchor:start;fill:#000000;fill-opacity:1;stroke:none;font-family:Blackoak Std;-inkscape-font-specification:Blackoak Std Heavy"><flowRegion
         id="flowRegion3857"><rect
           id="rect3859"
           width="384.76721"
           height="71.505409"
           x="1065.7711"
           y="297.92178" /></flowRegion><flowPara
         id="flowPara3861" /></flowRoot>    <text
       xml:space="preserve"
       style="font-size:9.04174805000000070px;font-style:normal;font-variant:normal;font-weight:900;font-stretch:normal;text-align:start;line-height:100%;writing-mode:lr-tb;text-anchor:start;fill:#ffffff;fill-opacity:1;stroke:#000000;stroke-width:0.61778778000000001;stroke-linecap:butt;stroke-linejoin:bevel;stroke-miterlimit:4;stroke-opacity:1;stroke-dasharray:none;font-family:Blackoak Std;-inkscape-font-specification:Blackoak Std Heavy"
       x="-1095.2502"
       y="475.30386"
       id="text3863"
       sodipodi:linespacing="100%"
       transform="scale(0.7821892,1.2784631)"
       inkscape:export-filename="C:\Projects\SVG\htg\document_fade.png"
       inkscape:export-xdpi="89.669998"
       inkscape:export-ydpi="89.669998"><tspan
         sodipodi:role="line"
         id="tspan3865"
         x="-1095.2502"
         y="475.30386"
         style="font-size:9.04174805000000070px;font-style:normal;font-variant:normal;font-weight:normal;font-stretch:normal;text-align:start;line-height:100%;writing-mode:lr-tb;text-anchor:start;fill:#ffffff;stroke:#000000;stroke-width:0.61778778000000001;stroke-linejoin:bevel;stroke-miterlimit:4;stroke-dasharray:none;font-family:Wide Latin;-inkscape-font-specification:Wide Latin">, LLC</tspan></text>
  </g>
  <g
     inkscape:groupmode="layer"
     id="layer8"
     inkscape:label="NAME FILL"
     style="display:none"
     transform="translate(-884.32727,-529.92067)">
    <path
       style="fill:none;stroke:#000000;stroke-width:1.48745501;stroke-linecap:butt;stroke-linejoin:round;stroke-miterlimit:4;stroke-opacity:1;stroke-dasharray:none"
       d="m 891.23368,548.97828 2.05768,-1.49051 0,-5.88088 0,-5.8808 -1.98328,-1.31247 c -1.09081,-0.72188 -1.98327,-1.42086 -1.98327,-1.55336 0,-0.13246 3.1674,-0.24084 7.03871,-0.24084 l 7.03871,0 -1.58473,1.63497 c -1.2752,1.31572 -1.58472,2.04486 -1.58472,3.73348 l 0,2.09843 6.32172,-0.13877 6.32165,-0.13878 0.14968,-2.04996 c 0.13492,-1.8483 -0.0347,-2.20184 -1.72438,-3.59466 l -1.87406,-1.54471 7.40004,0 7.40001,0 -2.08095,1.53031 -2.08101,1.53036 0,6.11438 0,6.11441 1.73542,1.07251 c 0.95444,0.58989 1.73537,1.16588 1.73537,1.27998 0,0.11414 -3.05585,0.20749 -6.79084,0.20749 l -6.79079,0 1.58472,-1.63501 c 1.32595,-1.36803 1.58474,-2.01574 1.58474,-3.96658 l 0,-2.33153 -6.44567,0 -6.44565,0 0,2.57594 c 0,2.11989 0.23587,2.82211 1.33232,3.96656 l 1.33234,1.39062 -6.8607,0 -6.86073,0 2.05767,-1.49058 z"
       id="path3812"
       inkscape:export-filename="F:\Pictures\SVG\Banner\hum_logo_small.png"
       inkscape:export-xdpi="89.669998"
       inkscape:export-ydpi="89.669998"
       inkscape:connector-curvature="0" />
    <path
       style="fill:none;stroke:#000000;stroke-width:1.48745501;stroke-linecap:butt;stroke-linejoin:round;stroke-miterlimit:4;stroke-opacity:1;stroke-dasharray:none"
       d="m 940.95603,550.50927 c -1.46344,-0.50532 -3.35844,-1.61643 -4.21112,-2.46908 -1.52558,-1.52559 -1.55305,-1.63929 -1.72781,-7.14425 l -0.17759,-5.59392 -2.05695,-1.33345 -2.05694,-1.33345 7.67421,-0.008 7.67417,-0.008 -1.84831,1.52354 -1.84835,1.52355 0,5.45603 c 0,5.33171 0.0321,5.48812 1.40685,6.8629 2.61837,2.61835 9.20883,2.62422 12.13565,0.0108 1.56445,-1.3969 1.58163,-1.46306 1.75148,-6.74253 l 0.17147,-5.33182 -1.90686,-1.63265 -1.90684,-1.63263 5.08211,-0.0186 c 2.79522,-0.0102 5.08215,0.0898 5.08215,0.22224 0,0.1325 -0.89246,0.83148 -1.98327,1.55335 l -1.98327,1.31248 0,5.92207 c 0,5.83933 -0.0196,5.94165 -1.40257,7.32462 -1.89137,1.89137 -4.35465,2.48471 -10.24914,2.46876 -3.51032,-0.01 -5.73524,-0.28172 -7.61906,-0.93226 l -10e-6,-10e-6 z"
       id="path3814"
       inkscape:export-filename="F:\Pictures\SVG\Banner\hum_logo_small.png"
       inkscape:export-xdpi="89.669998"
       inkscape:export-ydpi="89.669998"
       inkscape:connector-curvature="0" />
    <path
       style="fill:none;stroke:#000000;stroke-width:1.48745501;stroke-linecap:butt;stroke-linejoin:round;stroke-miterlimit:4;stroke-opacity:1;stroke-dasharray:none"
       d="m 973.366,549.24467 c 0.81809,-0.67058 1.6548,-1.22729 1.85933,-1.23711 0.20451,-0.01 0.37184,-2.8036 0.37184,-6.20849 l 0,-6.1907 -2.07315,-1.37054 -2.07309,-1.37052 6.63442,-0.13905 c 3.64895,-0.0765 6.86881,-0.0473 7.15525,0.0648 0.28649,0.11209 1.41333,2.57009 2.50411,5.46227 1.09081,2.89218 2.09485,5.2615 2.23121,5.26516 0.13634,0.004 1.14038,-2.4475 2.23118,-5.44704 l 1.98326,-5.45371 7.80914,-1.6e-4 c 4.295,-5e-5 7.8091,0.0818 7.8091,0.18188 0,0.10013 -0.8924,0.77264 -1.9833,1.49449 l -1.9832,1.31247 0,6.19069 c 0,3.4049 0.1674,6.19874 0.3719,6.2085 0.2046,0.01 1.0411,0.56653 1.8593,1.23711 l 1.4874,1.21925 -6.9414,-0.005 -6.9415,-0.005 1.88073,-1.60407 1.88073,-1.60403 -0.14538,-6.69355 c -0.14528,-6.69112 -0.14577,-6.6935 -1.33321,-6.6935 -1.08102,0 -1.46445,0.73572 -4.26303,8.18097 l -3.0751,8.18101 -1.74926,0.15024 -1.74926,0.15022 -3.23081,-8.08334 c -2.62335,-6.56346 -3.42735,-8.11309 -4.27595,-8.24175 -1.02008,-0.15461 -1.04528,0.006 -1.04966,6.69355 l -0.004,6.85199 1.61587,1.35012 1.61589,1.35021 -4.95821,0.0109 -4.95818,0.0109 1.48748,-1.21925 z"
       id="path3816"
       inkscape:export-filename="F:\Pictures\SVG\Banner\hum_logo_small.png"
       inkscape:export-xdpi="89.669998"
       inkscape:export-ydpi="89.669998"
       inkscape:connector-curvature="0" />
    <path
       style="fill:none;stroke:#000000;stroke-width:1.48745501;stroke-linecap:butt;stroke-linejoin:round;stroke-miterlimit:4;stroke-opacity:1;stroke-dasharray:none"
       d="m 1019.8489,549.2307 1.8596,-1.27671 -0.01,-6.3038 -0.01,-6.30378 -1.853,-1.23957 -1.8533,-1.23953 11.1561,-0.14958 c 6.1359,-0.0822 12.316,-0.0118 13.7338,0.15655 3.1742,0.37679 5.7951,2.02888 6.0014,3.78266 0.1227,1.04538 -0.1759,1.43314 -1.6368,2.1265 -0.983,0.46639 -2.5568,0.97285 -3.4971,1.12547 -1.3731,0.22278 -1.7102,0.50212 -1.7102,1.417 0,0.98236 0.3772,1.2178 2.7319,1.70669 3.1707,0.65816 5.8241,2.60392 5.5991,4.10558 -0.082,0.55 -0.7793,1.4686 -1.5485,2.04138 -1.3364,0.9948 -2.0574,1.04778 -16.1142,1.18457 l -14.7155,0.1432 1.8594,-1.27663 z m 21.737,-1.17193 c 1.2224,-1.51112 1.2046,-3.28176 -0.045,-4.53138 -0.8762,-0.87667 -1.6525,-0.99165 -6.6936,-0.99165 l -5.7015,0 0,3.51343 0,3.51339 5.7468,-0.16663 c 5.3398,-0.15484 5.8136,-0.24946 6.6935,-1.33716 l 0,0 z m -0.5405,-8.49794 c 1.1294,-1.12957 1.2391,-2.07372 0.4214,-3.62726 -0.8937,-1.69749 -1.33,-1.81108 -6.9912,-1.81912 l -5.33,-0.008 0,3.22283 0,3.2228 5.4538,0 c 4.7931,0 5.5743,-0.12019 6.446,-0.99164 z"
       id="path3818"
       inkscape:export-filename="F:\Pictures\SVG\Banner\hum_logo_small.png"
       inkscape:export-xdpi="89.669998"
       inkscape:export-ydpi="89.669998"
       inkscape:connector-curvature="0" />
    <path
       style="fill:none;stroke:#000000;stroke-width:1.48745501;stroke-linecap:butt;stroke-linejoin:round;stroke-miterlimit:4;stroke-opacity:1;stroke-dasharray:none"
       d="m 1063.4987,550.74119 c -2.6403,-0.82517 -6.0012,-2.79076 -7.4805,-4.37481 -4.4884,-4.80602 0.2552,-11.75692 9.3922,-13.76249 11.5812,-2.5422 23.8136,4.80568 20.2481,12.16306 -1.161,2.39643 -4.5948,4.81865 -8.3849,5.91468 -3.2748,0.94724 -10.8301,0.97988 -13.7748,0.0596 l -10e-5,0 z m 10.817,-1.89364 c 2.5282,-1.68908 3.5079,-3.96606 3.2998,-7.66998 -0.2731,-4.85451 -3.0444,-7.81443 -7.3172,-7.81443 -4.2725,0 -7.0441,2.95991 -7.3168,7.81443 -0.3011,5.35501 2.5611,8.79544 7.3168,8.79544 1.5997,0 2.8621,-0.35361 4.0174,-1.12544 l 0,-2e-5 z"
       id="path3820"
       inkscape:export-filename="F:\Pictures\SVG\Banner\hum_logo_small.png"
       inkscape:export-xdpi="89.669998"
       inkscape:export-ydpi="89.669998"
       inkscape:connector-curvature="0" />
    <path
       style="fill:none;stroke:#000000;stroke-width:1.48745501;stroke-linecap:butt;stroke-linejoin:round;stroke-miterlimit:4;stroke-opacity:1;stroke-dasharray:none"
       d="m 1093.1062,550.26136 c 0,-0.11409 0.7808,-0.69008 1.7354,-1.27997 l 1.7354,-1.07251 0,-6.15027 0,-6.15024 -2.0757,-1.37054 -2.0753,-1.37052 3.8107,-0.14482 c 2.0963,-0.0797 5.5258,-0.0797 7.6221,0 l 3.8105,0.14482 -2.0752,1.37052 -2.0759,1.37054 0,6.68649 0,6.68653 6.4935,0 6.4932,0 3.1753,-2.78754 3.175,-2.78754 0,3.53126 0,3.53129 -14.8744,0 c -8.1812,0 -14.8746,-0.0934 -14.8746,-0.20749 l 0,-1e-5 z"
       id="path3822"
       inkscape:export-filename="F:\Pictures\SVG\Banner\hum_logo_small.png"
       inkscape:export-xdpi="89.669998"
       inkscape:export-ydpi="89.669998"
       inkscape:connector-curvature="0" />
    <path
       style="fill:none;stroke:#000000;stroke-width:1.48745501;stroke-linecap:butt;stroke-linejoin:round;stroke-miterlimit:4;stroke-opacity:1;stroke-dasharray:none"
       d="m 1130.5403,549.24467 c 0.8182,-0.67058 1.6549,-1.22729 1.8598,-1.23711 0.2042,-0.01 0.3718,-2.77643 0.3718,-6.14812 l 0,-6.13029 -2.0659,-1.43093 -2.0662,-1.43091 10.1227,-0.15146 c 12.9448,-0.19361 15.4482,0.0641 18.7086,1.92624 6.2383,3.56292 6.9545,9.56865 1.577,13.22831 -3.2977,2.24412 -5.7978,2.59863 -18.3096,2.59599 l -11.6854,-0.002 1.4872,-1.21925 z m 19.6345,-0.76464 c 2.782,-0.77282 3.6134,-2.0468 3.8218,-5.85675 0.1549,-2.83516 0.013,-3.55943 -0.9873,-5.04571 -1.7892,-2.65755 -3.8847,-3.46904 -8.9579,-3.46993 l -4.3384,-8e-4 0,7.4373 0,7.43725 4.3384,-0.003 c 2.3863,-0.002 5.1416,-0.22592 6.1234,-0.49863 l 0,2e-5 z"
       id="path3824"
       inkscape:export-filename="F:\Pictures\SVG\Banner\hum_logo_small.png"
       inkscape:export-xdpi="89.669998"
       inkscape:export-ydpi="89.669998"
       inkscape:connector-curvature="0" />
    <path
       style="fill:none;stroke:#000000;stroke-width:1.48745501;stroke-linecap:butt;stroke-linejoin:round;stroke-miterlimit:4;stroke-opacity:1;stroke-dasharray:none"
       d="m 1175.542,549.1501 1.8532,-1.3187 0,-6.86228 0,-6.86228 -2.9209,0 c -2.7732,0 -3.0505,0.11576 -5.4542,2.27714 -2.7883,2.50679 -2.9245,2.3896 -2.2149,-1.90526 l 0.3075,-1.8593 14.0661,0 14.0664,0 0,1.42547 c 0,0.78401 0.149,2.17324 0.3319,3.08719 l 0.3321,1.66176 -2.6787,-2.34352 c -2.5305,-2.2135 -2.8374,-2.34348 -5.5384,-2.34348 l -2.8598,0 0,6.92358 0,6.92357 1.8504,1.25741 1.8507,1.25746 -7.4224,0 -7.4227,0 1.8537,-1.31876 z"
       id="path3826"
       inkscape:export-filename="F:\Pictures\SVG\Banner\hum_logo_small.png"
       inkscape:export-xdpi="89.669998"
       inkscape:export-ydpi="89.669998"
       inkscape:connector-curvature="0" />
    <path
       style="fill:none;stroke:#000000;stroke-width:1.48745501;stroke-linecap:butt;stroke-linejoin:round;stroke-miterlimit:4;stroke-opacity:1;stroke-dasharray:none"
       d="m 971.63062,579.04584 c 0,-0.0993 0.89856,-0.80317 1.99678,-1.56424 l 1.99674,-1.38375 -0.13742,-6.74075 -0.13746,-6.74071 -2.89563,-0.15004 c -2.84011,-0.14713 -2.94287,-0.10577 -5.36245,2.15748 -1.3568,1.26908 -2.52162,2.22906 -2.58852,2.13329 -0.0669,-0.0958 -0.0308,-1.34555 0.0803,-2.7772 l 0.20193,-2.60305 14.06048,0 14.0605,0 0.31337,1.67039 c 0.17238,0.91874 0.23826,2.15198 0.14644,2.74054 -0.15347,0.98363 -0.37374,0.8887 -2.72605,-1.17462 -2.38198,-2.08936 -2.75085,-2.24467 -5.33003,-2.24467 l -2.77097,0 0,6.93834 0,6.93833 2.05765,1.49056 2.0577,1.4906 -7.5117,0 c -4.13141,0 -7.51166,-0.0812 -7.51166,-0.1805 l 0,0 z"
       id="path3828"
       inkscape:export-filename="F:\Pictures\SVG\Banner\hum_logo_small.png"
       inkscape:export-xdpi="89.669998"
       inkscape:export-ydpi="89.669998"
       inkscape:connector-curvature="0" />
    <path
       style="fill:none;stroke:#000000;stroke-width:1.48745501;stroke-linecap:butt;stroke-linejoin:round;stroke-miterlimit:4;stroke-opacity:1;stroke-dasharray:none"
       d="m 999.39645,579.04429 c 0,-0.10011 0.89245,-0.77263 1.98335,-1.4945 l 1.9833,-1.31247 0,-5.93966 0,-5.9397 -2.0578,-1.49053 -2.05764,-1.49056 15.19684,0 15.1969,0 0,2.23118 c 0,1.22712 -0.1299,2.23119 -0.2885,2.23119 -0.1583,0 -1.2414,-0.78094 -2.4061,-1.73538 l -2.1179,-1.73535 -7.2623,0 -7.2623,0 0,3.2228 0,3.22284 4.4872,0 c 3.052,0 4.9545,-0.24188 5.9498,-0.75648 l 1.4628,-0.75644 0,2.49179 c 0,2.70116 -0.1244,2.81079 -1.9832,1.74811 -0.8081,-0.46186 -2.7583,-0.7147 -5.6007,-0.72616 l -4.361,-0.0176 0.1465,3.34678 0.1468,3.34676 6.7614,0.13758 6.7618,0.13761 2.4109,-1.81657 c 1.3261,-0.99909 2.6901,-2.03655 3.0309,-2.3055 0.4813,-0.37995 0.6197,0.1879 0.6197,2.54663 l 0,3.03566 -15.3704,0 c -8.4535,0 -15.37035,-0.0819 -15.37035,-0.18205 l 0,0 z"
       id="path3830"
       inkscape:export-filename="F:\Pictures\SVG\Banner\hum_logo_small.png"
       inkscape:export-xdpi="89.669998"
       inkscape:export-ydpi="89.669998"
       inkscape:connector-curvature="0" />
    <path
       style="fill:none;stroke:#000000;stroke-width:1.48745501;stroke-linecap:butt;stroke-linejoin:round;stroke-miterlimit:4;stroke-opacity:1;stroke-dasharray:none"
       d="m 1047.1121,579.72542 c -6.3159,-1.34368 -11.5227,-5.32384 -11.5191,-8.80552 0,-4.5609 5.4514,-8.73681 13.1428,-10.07624 3.6697,-0.63902 9.0874,0.0129 12.4431,1.4973 1.8592,0.82225 2.2067,0.84454 3.1264,0.20033 0.9999,-0.70022 1.0349,-0.6546 1.0349,1.34356 l 0,2.06842 -1.3634,-0.89727 c -5.4629,-3.59477 -12.8721,-4.12643 -16.9584,-1.21681 -2.0149,1.43479 -3.2116,4.79942 -2.7656,7.77518 0.6459,4.30384 4.44,6.6203 10.8435,6.6203 2.8429,0 7.5681,-1.27981 9.3133,-2.52241 1.6942,-1.20649 1.9022,-0.57637 0.3051,0.92432 -2.2434,2.10719 -5.6458,3.17492 -10.7151,3.36228 -2.6253,0.097 -5.725,-0.026 -6.8875,-0.27343 l 0,-10e-6 z"
       id="path3832"
       inkscape:export-filename="F:\Pictures\SVG\Banner\hum_logo_small.png"
       inkscape:export-xdpi="89.669998"
       inkscape:export-ydpi="89.669998"
       inkscape:connector-curvature="0" />
    <path
       style="fill:none;stroke:#000000;stroke-width:1.48745501;stroke-linecap:butt;stroke-linejoin:round;stroke-miterlimit:4;stroke-opacity:1;stroke-dasharray:none"
       d="m 1074.1906,577.73574 2.0576,-1.49056 0,-6.15414 0,-6.1542 -1.7355,-1.07251 c -0.9541,-0.58991 -1.735,-1.1659 -1.735,-1.28001 0,-0.11413 3.0557,-0.20745 6.7907,-0.20745 l 6.7907,0 -1.6206,1.67224 c -1.2975,1.33852 -1.5889,2.00655 -1.461,3.3468 l 0.1604,1.6745 6.3218,0.13879 6.3214,0.13873 0,-2.09489 c 0,-1.59793 -0.316,-2.42484 -1.3324,-3.48554 l -1.3324,-1.39063 6.9045,0 6.9043,0 -1.8533,1.31874 -1.8536,1.31871 0,6.36645 c 0,3.50153 0.1674,6.36754 0.3719,6.36892 0.2044,10e-4 1.0413,0.5511 1.8593,1.22169 l 1.4872,1.21927 -7.1889,0.003 -7.1894,0.003 1.6113,-1.46589 c 1.4089,-1.28168 1.6115,-1.77848 1.6115,-3.95204 l 0,-2.48609 -6.4458,0 -6.4456,0 0,2.28826 c 0,2.00493 0.2269,2.49612 1.8324,3.96657 l 1.8322,1.67831 -7.3606,0 -7.3606,0 2.0575,-1.4906 z"
       id="path3834"
       inkscape:export-filename="F:\Pictures\SVG\Banner\hum_logo_small.png"
       inkscape:export-xdpi="89.669998"
       inkscape:export-ydpi="89.669998"
       inkscape:connector-curvature="0" />
    <path
       style="fill:none;stroke:#000000;stroke-width:1.48745501;stroke-linecap:butt;stroke-linejoin:round;stroke-miterlimit:4;stroke-opacity:1;stroke-dasharray:none"
       d="m 1117.3036,577.69599 2.0809,-1.53037 0,-6.03088 0,-6.03088 -1.8223,-1.23953 -1.8217,-1.23958 5.8919,-0.14055 5.8923,-0.14054 5.9811,5.96641 c 3.2892,3.28153 6.1447,5.96642 6.3449,5.96642 0.2006,0 0.3634,-2.06384 0.3616,-4.58631 l 0,-4.58632 -1.8261,-1.23953 -1.8265,-1.23958 2.5735,-0.14985 c 1.4155,-0.0824 3.7447,-0.0824 5.1764,-1e-5 l 2.6031,0.14986 -1.8594,1.15604 -1.8596,1.15605 0,7.64473 0,7.64477 -3.8354,0 -3.8362,0 -6.5763,-6.56271 -6.5765,-6.56273 0,5.07214 0,5.07214 2.058,1.49056 2.0576,1.4906 -5.6261,0 -5.626,0 2.081,-1.53035 z"
       id="path3836"
       inkscape:export-filename="F:\Pictures\SVG\Banner\hum_logo_small.png"
       inkscape:export-xdpi="89.669998"
       inkscape:export-ydpi="89.669998"
       inkscape:connector-curvature="0" />
    <path
       style="fill:none;stroke:#000000;stroke-width:1.48745501;stroke-linecap:butt;stroke-linejoin:round;stroke-miterlimit:4;stroke-opacity:1;stroke-dasharray:none"
       d="m 1163.039,579.70929 c -5.8428,-1.2325 -10.9306,-5.34728 -10.9306,-8.83999 0,-3.52938 3.5267,-7.20901 8.6937,-9.07032 4.2234,-1.52159 11.2489,-1.4927 15.293,0.0628 3.3214,1.27785 7.4794,4.95265 8.0097,7.07956 0.9487,3.80338 -2.066,7.73053 -7.4935,9.76203 -3.3409,1.25049 -10.0542,1.74806 -13.5723,1.00589 z m 8.9876,-2.02486 c 0.4562,-0.23931 1.2922,-1.02345 1.8576,-1.74254 2.7343,-3.47588 2.3879,-9.08986 -0.7485,-12.12971 -1.6043,-1.55501 -1.9936,-1.69159 -4.8168,-1.69159 -2.3002,0 -3.4032,0.24897 -4.3928,0.99161 -5.1448,3.85997 -3.9702,13.32104 1.8768,15.11634 1.5213,0.4672 4.8512,0.17606 6.2237,-0.54412 l 0,10e-6 z"
       id="path3838"
       inkscape:export-filename="F:\Pictures\SVG\Banner\hum_logo_small.png"
       inkscape:export-xdpi="89.669998"
       inkscape:export-ydpi="89.669998"
       inkscape:connector-curvature="0" />
    <path
       style="fill:none;stroke:#000000;stroke-width:1.48745501;stroke-linecap:butt;stroke-linejoin:round;stroke-miterlimit:4;stroke-opacity:1;stroke-dasharray:none"
       d="m 1192.0219,577.97138 c 0.8183,-0.67059 1.6547,-1.22033 1.8593,-1.22169 0.2047,-10e-4 0.3719,-2.88483 0.3719,-6.40768 l 0,-6.40517 -1.7356,-1.07251 c -0.9542,-0.58991 -1.7352,-1.1659 -1.7352,-1.28001 0,-0.11413 3.2883,-0.20745 7.3073,-0.20745 l 7.3074,0 -1.8532,1.31874 -1.8535,1.31871 0,6.86227 0,6.86227 6.1848,0 6.1851,0 3.4835,-2.99814 3.4835,-2.99812 0,3.74187 0,3.74187 -15.2465,-0.0179 -15.2463,-0.0178 1.4875,-1.21927 z"
       id="path3840"
       inkscape:export-filename="F:\Pictures\SVG\Banner\hum_logo_small.png"
       inkscape:export-xdpi="89.669998"
       inkscape:export-ydpi="89.669998"
       inkscape:connector-curvature="0" />
    <path
       style="fill:none;stroke:#000000;stroke-width:1.48745501;stroke-linecap:butt;stroke-linejoin:round;stroke-miterlimit:4;stroke-opacity:1;stroke-dasharray:none"
       d="m 1235.1581,579.51835 c -5.0609,-1.25601 -9.4976,-4.35179 -10.4252,-7.27394 -1.4647,-4.61549 4.7578,-10.16673 12.7996,-11.41872 11.7621,-1.83117 22.8554,6.42189 18.0781,13.44942 -3.108,4.57206 -12.9701,7.10029 -20.4525,5.24323 l 0,1e-5 z m 9.6375,-2.20776 c 3.4522,-2.49132 4.4864,-7.14084 2.5014,-11.24162 -1.3838,-2.85817 -3.4467,-4.19197 -6.4876,-4.19444 -2.6985,-0.002 -5.1268,1.42682 -6.5418,3.84919 -1.7704,3.03155 -1.0366,9.01269 1.3492,10.99248 2.4452,2.02961 6.7999,2.3116 9.1788,0.59439 l 0,0 z"
       id="path3842"
       inkscape:export-filename="F:\Pictures\SVG\Banner\hum_logo_small.png"
       inkscape:export-xdpi="89.669998"
       inkscape:export-ydpi="89.669998"
       inkscape:connector-curvature="0" />
    <path
       style="fill:none;stroke:#000000;stroke-width:1.48745501;stroke-linecap:butt;stroke-linejoin:round;stroke-miterlimit:4;stroke-opacity:1;stroke-dasharray:none"
       d="m 1270.7334,579.48328 c -3.7408,-1.0524 -6.1917,-2.42201 -7.9803,-4.45945 -1.3058,-1.48731 -1.5643,-2.18856 -1.5643,-4.24226 0,-2.13916 0.2385,-2.72456 1.8277,-4.48362 4.9335,-5.46066 15.2715,-7.31724 23.1668,-4.1604 2.1526,0.86072 3.1728,1.04234 3.8426,0.68397 0.8115,-0.43441 0.9118,-0.27844 0.9118,1.42221 l 0,1.91011 -3.3467,-1.64776 c -8.3777,-4.12456 -15.6303,-3.02534 -17.5041,2.65302 -0.8078,2.44733 -0.3642,6.84255 0.857,8.49307 2.1776,2.94256 7.6907,3.96101 11.7419,2.16902 3.0796,-1.36231 3.1843,-2.955 0.3187,-4.85145 -1.0909,-0.72185 -1.9835,-1.39438 -1.9835,-1.49449 0,-0.10016 3.2795,-0.18205 7.2869,-0.18205 l 7.2876,0 -2.0813,1.53036 c -1.9536,1.43702 -2.0809,1.6789 -2.0809,3.96655 0,2.65587 -0.053,2.72131 -1.4765,1.83201 -0.781,-0.48769 -1.616,-0.42824 -4.332,0.30842 -4.5415,1.23193 -11.5526,1.49213 -14.8914,0.55272 l 0,2e-5 z"
       id="path3844"
       inkscape:export-filename="F:\Pictures\SVG\Banner\hum_logo_small.png"
       inkscape:export-xdpi="89.669998"
       inkscape:export-ydpi="89.669998"
       inkscape:connector-curvature="0" />
    <path
       style="fill:none;stroke:#000000;stroke-width:1.48745501;stroke-linecap:butt;stroke-linejoin:round;stroke-miterlimit:4;stroke-opacity:1;stroke-dasharray:none"
       d="m 1308.7871,579.04429 c 0,-0.10011 0.8924,-0.77263 1.9832,-1.4945 1.7267,-1.14256 1.9831,-1.55225 1.9818,-3.16474 0,-1.67929 -0.5017,-2.37327 -5.352,-7.43023 l -5.3506,-5.57795 6.1824,0 6.182,0 -1.1806,1.25652 -1.1803,1.25652 3.2419,3.24205 3.2422,3.24203 3.1533,-3.55685 3.1535,-3.55685 -1.2109,-0.9307 -1.2111,-0.93068 4.2148,-0.008 c 4.173,-0.008 4.2017,7.2e-4 2.9142,0.85665 -0.7152,0.47544 -3.225,2.925 -5.578,5.44349 -4.0657,4.35166 -4.2777,4.69027 -4.2777,6.81752 0,1.23112 0.1674,2.23949 0.3715,2.24087 0.2049,10e-4 1.0415,0.5511 1.8596,1.22169 l 1.4875,1.21927 -7.3135,0.0178 c -4.0222,0.01 -7.3132,-0.0641 -7.3132,-0.16418 l 0,0 z"
       id="path3846"
       inkscape:export-filename="F:\Pictures\SVG\Banner\hum_logo_small.png"
       inkscape:export-xdpi="89.669998"
       inkscape:export-ydpi="89.669998"
       inkscape:connector-curvature="0" />
    <path
       style="fill:none;stroke:#000000;stroke-width:1.48745501;stroke-linecap:butt;stroke-linejoin:round;stroke-miterlimit:4;stroke-opacity:1;stroke-dasharray:none"
       d="m 916.34691,605.83009 c -9.29111,-3.08193 -11.7414,-9.00683 -5.86421,-14.1801 3.16829,-2.78887 6.84707,-4.0666 12.55772,-4.36171 4.15888,-0.21491 5.16292,-0.0911 8.57694,1.05796 2.95406,0.99424 4.095,1.17919 4.83425,0.78355 0.89362,-0.47825 0.96753,-0.34549 0.96753,1.73783 l 0,2.25567 -1.89184,-1.25199 c -4.63484,-3.06721 -11.84745,-4.16691 -15.45189,-2.356 -2.77774,1.39562 -3.97677,3.66111 -3.9746,7.50985 0.003,5.78528 2.40792,8.07122 8.49031,8.07122 4.02879,0 6.54744,-1.1484 6.76966,-3.08667 0.11221,-0.97859 -0.32239,-1.50501 -2.23117,-2.70277 l -2.37054,-1.48743 3.84259,-0.14479 c 2.11343,-0.0797 5.55748,-0.0797 7.65347,0 l 3.81092,0.14479 -2.07554,1.37052 c -2.01999,1.33389 -2.07552,1.44368 -2.07552,4.10325 l 0,2.7327 -1.52696,-0.78964 c -1.40409,-0.72605 -1.71324,-0.72214 -3.84257,0.0487 -3.09396,1.12003 -13.418,1.46745 -16.19855,0.54513 l 0,-3e-5 z"
       id="path3848"
       inkscape:export-filename="F:\Pictures\SVG\Banner\hum_logo_small.png"
       inkscape:export-xdpi="89.669998"
       inkscape:export-ydpi="89.669998"
       inkscape:connector-curvature="0" />
    <path
       style="fill:none;stroke:#000000;stroke-width:1.48745501;stroke-linecap:butt;stroke-linejoin:round;stroke-miterlimit:4;stroke-opacity:1;stroke-dasharray:none"
       d="m 949.81462,605.29723 c 0,-0.11415 0.78093,-0.69012 1.73539,-1.27999 l 1.73534,-1.07252 0,-6.15027 0,-6.15025 -2.08008,-1.37054 -2.08009,-1.37056 1.70823,-0.16917 c 0.93952,-0.093 6.9515,-0.0813 13.35994,0.0262 12.7036,0.21297 14.47953,0.55362 16.14588,3.09677 1.38203,2.10929 0.38781,3.53038 -3.21223,4.59135 -3.80514,1.12141 -4.19139,2.17066 -1.37176,3.72607 1.22694,0.67686 2.47985,1.91876 3.13642,3.10896 0.60127,1.09 1.34196,2.26072 1.64593,2.60162 0.43707,0.49014 -0.25512,0.61799 -3.30946,0.61132 l -3.86213,-0.008 -1.18509,-2.73725 c -1.75505,-4.05356 -2.80447,-4.68309 -7.8065,-4.68309 l -4.1476,0 0,2.47908 c 0,1.3635 0.16733,2.48709 0.37187,2.49692 0.20452,0.01 1.04121,0.56651 1.8593,1.23707 l 1.48746,1.21925 -7.0654,0.003 c -3.88599,10e-4 -7.06542,-0.0909 -7.06542,-0.20501 l 0,0 z m 22.33465,-10.12351 c 0.78528,-0.63589 1.11023,-1.40621 1.0776,-2.55432 -0.0796,-2.80037 -0.94032,-3.20091 -7.31279,-3.40322 l -5.68727,-0.18051 0,3.52423 0,3.52423 5.39908,0 c 4.49977,0 5.58634,-0.15163 6.52339,-0.91044 l -10e-6,3e-5 z"
       id="path3850"
       inkscape:export-filename="F:\Pictures\SVG\Banner\hum_logo_small.png"
       inkscape:export-xdpi="89.669998"
       inkscape:export-ydpi="89.669998"
       inkscape:connector-curvature="0" />
    <path
       style="fill:none;stroke:#000000;stroke-width:1.48745501;stroke-linecap:butt;stroke-linejoin:round;stroke-miterlimit:4;stroke-opacity:1;stroke-dasharray:none"
       d="m 997.16525,605.82855 c -4.76374,-1.56856 -8.8712,-4.76431 -9.43753,-7.34272 -0.74031,-3.37059 2.2513,-7.25909 7.45427,-9.68912 2.71912,-1.26992 3.46518,-1.38912 8.67681,-1.38599 4.8762,0.003 6.0571,0.16666 8.1537,1.13048 5.2044,2.39238 7.7074,5.28312 7.711,8.90501 0,2.80241 -2.3385,5.42434 -6.5621,7.35017 -2.7191,1.2397 -3.7826,1.4324 -8.5589,1.55043 -3.5261,0.0871 -6.15499,-0.096 -7.43725,-0.51826 z m 10.16435,-1.68813 c 2.6303,-1.31407 4.1055,-4.52355 3.7948,-8.25616 -0.3968,-4.76423 -3.1248,-7.50354 -7.4273,-7.45837 -4.65973,0.0489 -7.27718,3.10983 -7.27373,8.50619 0.004,6.3148 5.46703,9.9255 10.90623,7.20833 l 0,10e-6 z"
       id="path3852"
       inkscape:export-filename="F:\Pictures\SVG\Banner\hum_logo_small.png"
       inkscape:export-xdpi="89.669998"
       inkscape:export-ydpi="89.669998"
       inkscape:connector-curvature="0" />
    <path
       style="fill:none;stroke:#000000;stroke-width:1.48745501;stroke-linecap:butt;stroke-linejoin:round;stroke-miterlimit:4;stroke-opacity:1;stroke-dasharray:none"
       d="m 1034.9089,605.62983 c -1.3295,-0.4429 -3.1702,-1.51527 -4.0904,-2.38306 l -1.6729,-1.57782 0,-5.51238 0,-5.51237 -1.9833,-1.31246 c -1.0907,-0.72186 -1.9835,-1.39438 -1.9835,-1.4945 0,-0.10013 3.2913,-0.17366 7.3133,-0.1634 l 7.3136,0.0186 -1.8595,1.59282 -1.8594,1.59281 0,4.85887 c 0,3.27905 0.2346,5.31169 0.7204,6.25181 1.1517,2.22692 4.7131,3.32279 9.0417,2.78201 2.1321,-0.26639 3.1376,-0.68563 4.2055,-1.75324 1.3701,-1.37025 1.4032,-1.53083 1.4032,-6.85915 l 0,-5.45604 -1.8486,-1.52351 -1.8482,-1.52358 5.4166,0 5.4167,0 -2.0399,1.50002 -2.0393,1.50002 -0.1654,5.9791 -0.1652,5.97909 -1.5849,1.41501 c -0.8719,0.77826 -2.4336,1.65064 -3.4707,1.93867 -2.8979,0.80477 -11.3961,0.60319 -14.2198,-0.3373 l 0,-1e-5 z"
       id="path3854"
       inkscape:export-filename="F:\Pictures\SVG\Banner\hum_logo_small.png"
       inkscape:export-xdpi="89.669998"
       inkscape:export-ydpi="89.669998"
       inkscape:connector-curvature="0" />
    <path
       style="fill:none;stroke:#000000;stroke-width:1.48745501;stroke-linecap:butt;stroke-linejoin:round;stroke-miterlimit:4;stroke-opacity:1;stroke-dasharray:none"
       d="m 1067.4536,604.18593 1.8533,-1.31871 -0.01,-6.24252 -0.01,-6.2425 -1.8533,-1.2395 -1.853,-1.2396 11.106,-0.13362 c 8.7477,-0.10524 11.7423,0.0294 14.1029,0.63412 7.0846,1.81497 8.9586,6.50548 3.6922,9.24067 -1.8675,0.96997 -3.0795,1.13083 -9.936,1.31897 l -7.8091,0.21426 0,1.90617 c 0,1.64589 0.2526,2.07787 1.8503,3.16358 l 1.8505,1.25742 -7.4226,0 -7.4223,0 1.8535,-1.31874 z m 20.8756,-7.64196 c 0.9656,-0.75978 1.3061,-1.47908 1.3061,-2.7596 0,-3.70117 -1.7227,-4.64167 -8.5027,-4.64167 l -4.3884,0 0,4.21443 0,4.21446 5.1392,0 c 4.4485,0 5.3145,-0.13813 6.4458,-1.02762 l 0,0 z"
       id="path3856"
       inkscape:export-filename="F:\Pictures\SVG\Banner\hum_logo_small.png"
       inkscape:export-xdpi="89.669998"
       inkscape:export-ydpi="89.669998"
       inkscape:connector-curvature="0" />
    <path
       style="fill:none;stroke:#000000;stroke-width:0.61778754;stroke-linecap:butt;stroke-linejoin:bevel;stroke-miterlimit:4;stroke-opacity:1;stroke-dasharray:none"
       d="m 1101.3738,608.46748 c -2e-4,-0.0104 0.046,-0.12192 0.1029,-0.24793 0.058,-0.12595 0.1224,-0.29695 0.1448,-0.37998 0.046,-0.17073 0.063,-0.14594 -0.2706,-0.37825 l -0.1622,-0.11243 -0.1343,0.0652 c -0.1635,0.079 -0.2326,0.0816 -0.3331,0.0124 -0.108,-0.0746 -0.1464,-0.12535 -0.2402,-0.31903 -0.07,-0.14378 -0.083,-0.21168 -0.083,-0.43386 0,-0.2176 0.014,-0.2931 0.079,-0.43403 0.1454,-0.31278 0.3641,-0.47289 0.6506,-0.47697 0.205,-0.003 0.3461,0.0774 0.4916,0.27894 0.2853,0.39568 0.3531,1.12905 0.157,1.69882 -0.088,0.2574 -0.3996,0.81874 -0.4028,0.72721 l 0,0 z"
       id="path4653"
       inkscape:export-filename="F:\Pictures\SVG\Banner\hum_logo_small.png"
       inkscape:export-xdpi="89.669998"
       inkscape:export-ydpi="89.669998"
       inkscape:connector-curvature="0" />
    <path
       style="fill:none;stroke:#000000;stroke-width:0.61778754;stroke-linecap:butt;stroke-linejoin:bevel;stroke-miterlimit:4;stroke-opacity:1;stroke-dasharray:none"
       d="m 1105.6496,607.33645 c 0,-0.0103 0.2653,-0.29138 0.5902,-0.62446 0.3334,-0.34228 0.6098,-0.65251 0.6351,-0.71325 0.067,-0.1598 0.067,-4.19309 4e-4,-4.34937 -0.025,-0.0574 -0.3107,-0.38336 -0.6355,-0.72425 l -0.5906,-0.61977 1.0846,-0.008 c 0.5967,-0.004 1.572,-0.004 2.1672,0 l 1.0823,0.008 -0.5896,0.61558 c -0.3244,0.33856 -0.6092,0.6623 -0.6328,0.71949 -0.036,0.0858 -0.044,0.48884 -0.044,2.31403 l 0,2.21008 0.1483,0.14602 0.1483,0.14606 1.4775,0 c 1.3228,0 1.489,-0.005 1.5874,-0.0524 0.08,-0.0379 0.3209,-0.31208 0.8729,-0.99164 0.42,-0.51663 0.7682,-0.93929 0.7742,-0.93929 0.01,0 0.012,0.64845 0.012,1.44098 l 0,1.44099 -4.0442,0 c -2.2241,0 -4.0436,-0.008 -4.0436,-0.0188 z"
       id="path4655"
       inkscape:export-filename="F:\Pictures\SVG\Banner\hum_logo_small.png"
       inkscape:export-xdpi="89.669998"
       inkscape:export-ydpi="89.669998"
       inkscape:connector-curvature="0" />
    <path
       style="fill:none;stroke:#000000;stroke-width:0.61778754;stroke-linecap:butt;stroke-linejoin:bevel;stroke-miterlimit:4;stroke-opacity:1;stroke-dasharray:none"
       d="m 1115.6014,606.73321 c 0.3301,-0.34211 0.623,-0.67332 0.6514,-0.73597 0.047,-0.10295 0.052,-0.31281 0.052,-2.17468 0,-1.86161 0,-2.07182 -0.052,-2.17537 -0.028,-0.0631 -0.3133,-0.38604 -0.6327,-0.71774 -0.3196,-0.3317 -0.5811,-0.61134 -0.5811,-0.62137 0,-0.01 0.9775,-0.0182 2.1722,-0.0182 l 2.1719,0 -0.5991,0.62292 c -0.4077,0.4234 -0.6167,0.6641 -0.6523,0.75147 -0.047,0.11644 -0.053,0.33291 -0.054,2.29882 l 0,2.17025 0.1637,0.16165 0.1636,0.16164 1.4712,-8.5e-4 c 1.3266,-7.4e-4 1.4823,-0.006 1.585,-0.0542 0.085,-0.0401 0.3039,-0.28844 0.8793,-0.99861 0.4213,-0.51983 0.771,-0.95095 0.7772,-0.95805 0.01,-0.007 0.011,0.64483 0.011,1.44872 l 0,1.46164 -4.0624,0 -4.0626,0 0.5995,-0.62207 z"
       id="path4657"
       inkscape:export-filename="F:\Pictures\SVG\Banner\hum_logo_small.png"
       inkscape:export-xdpi="89.669998"
       inkscape:export-ydpi="89.669998"
       inkscape:connector-curvature="0" />
    <path
       style="fill:none;stroke:#000000;stroke-width:0.61778754;stroke-linecap:butt;stroke-linejoin:bevel;stroke-miterlimit:4;stroke-opacity:1;stroke-dasharray:none"
       d="m 1127.851,607.68152 c -0.9776,-0.14985 -1.7826,-0.5206 -2.5128,-1.15745 -0.5127,-0.44695 -0.9497,-1.12017 -1.1003,-1.69441 -0.098,-0.37513 -0.1139,-1.0818 -0.033,-1.47193 0.1635,-0.78632 0.6355,-1.54732 1.3456,-2.16914 0.9148,-0.80119 1.83,-1.15671 2.9685,-1.15293 0.8846,0.003 1.6528,0.24452 2.3357,0.73454 l 0.23,0.1651 0.197,-0.0173 c 0.1805,-0.0159 0.2113,-0.03 0.3752,-0.17084 l 0.1781,-0.15352 0,0.84058 0,0.84055 -0.1825,-0.20998 c -0.3389,-0.39032 -0.6658,-0.64861 -1.092,-0.86259 -0.5406,-0.27171 -1.0398,-0.38517 -1.6942,-0.38539 -1.4361,-4.4e-4 -2.2615,0.75461 -2.4859,2.27376 -0.052,0.35325 -0.044,1.21649 0.015,1.55323 0.1804,1.03097 0.6492,1.61224 1.5356,1.90385 0.6453,0.21216 1.7435,0.21284 2.4522,10e-4 0.6209,-0.18525 1.3051,-0.65279 1.5993,-1.09248 0.043,-0.0643 0.083,-0.11189 0.089,-0.10584 0.032,0.032 -0.1308,0.53899 -0.2524,0.78582 -0.1046,0.21223 -0.1999,0.34821 -0.3774,0.53678 -0.4742,0.50421 -1.0187,0.79405 -1.8142,0.9652 -0.381,0.082 -1.3669,0.10584 -1.7767,0.043 l 0,0 z"
       id="path4659"
       inkscape:export-filename="F:\Pictures\SVG\Banner\hum_logo_small.png"
       inkscape:export-xdpi="89.669998"
       inkscape:export-ydpi="89.669998"
       inkscape:connector-curvature="0" />
  </g>
  <g
     inkscape:groupmode="layer"
     id="layer1"
     inkscape:label="squid"
     style="opacity:0.46341463">
    <g
       id="g3191"
       transform="matrix(0.05998923,0,0,0.05998923,477.76185,-7.7555686)"
       inkscape:export-filename="C:\Projects\SVG\htg\document_fade.png"
       inkscape:export-xdpi="89.669998"
       inkscape:export-ydpi="89.669998">
      <g
         transform="translate(338.17672,6.3312442)"
         style="display:none"
         inkscape:label="photo"
         id="layer2">
        <image
           sodipodi:absref="C:\Projects\SVG\htg\scan0001.jpg"
           xlink:href="scan0001.jpg"
           y="-703.28571"
           x="-1542.3622"
           id="image3548"
           height="2338"
           width="1700"
           transform="matrix(0,-1,1,0,0,0)" />
      </g>
      <g
         transform="translate(338.17672,6.3312442)"
         inkscape:label="base"
         id="layer3">
        <path
           id="path3555"
           d="m 862.85714,466.6479 c 314.28576,-11.42857 571.42856,-320 571.42856,-320 C 1282.8571,40.933611 1140,58.076468 1140,58.076468"
           style="fill:none;stroke:#ffffff;stroke-width:4;stroke-linecap:butt;stroke-linejoin:miter;stroke-miterlimit:4;stroke-opacity:1;stroke-dasharray:none;marker-start:none"
           inkscape:connector-curvature="0" />
        <path
           sodipodi:nodetypes="ccc"
           id="path4842"
           d="M 345.71428,486.6479 C 582.85714,118.07647 1237.7529,-4.3312442 1237.7529,-4.3312442 c -3.4833,54.4382122 0.1444,69.1733572 0.1444,69.1733572"
           style="fill:none;stroke:#ffffff;stroke-width:4;stroke-linecap:butt;stroke-linejoin:miter;stroke-miterlimit:4;stroke-opacity:1;stroke-dasharray:none"
           inkscape:connector-curvature="0" />
        <path
           sodipodi:nodetypes="cc"
           id="path4848"
           d="M 346.89775,485.46443 C -161.67367,1085.4644 340,1318.0765 340,1318.0765"
           style="fill:none;stroke:#ffffff;stroke-width:4;stroke-linecap:butt;stroke-linejoin:miter;stroke-miterlimit:4;stroke-opacity:1;stroke-dasharray:none"
           inkscape:connector-curvature="0" />
        <path
           sodipodi:nodetypes="cc"
           id="path4850"
           d="M 584.69538,1279.3489 C 476.30059,1364.9454 340,1318.0765 340,1318.0765"
           style="fill:none;stroke:#ffffff;stroke-width:4;stroke-linecap:butt;stroke-linejoin:miter;stroke-miterlimit:4;stroke-opacity:1;stroke-dasharray:none"
           inkscape:connector-curvature="0" />
        <path
           sodipodi:nodetypes="ccc"
           id="path4852"
           d="M 354.92721,1123.322 C 246.35578,977.60773 540,912.36218 540,912.36218 646.26216,880.26798 657.14285,800.93361 657.14285,800.93361"
           style="fill:none;stroke:#ffffff;stroke-width:4;stroke-linecap:butt;stroke-linejoin:miter;stroke-miterlimit:4;stroke-opacity:1;stroke-dasharray:none"
           inkscape:connector-curvature="0" />
        <path
           sodipodi:nodetypes="cc"
           id="path4858"
           d="m 516.65386,1150.1118 c 117.93113,-19.7813 68.84422,-85.2746 68.84422,-85.2746"
           style="fill:none;stroke:#ffffff;stroke-width:4;stroke-linecap:butt;stroke-linejoin:miter;stroke-miterlimit:4;stroke-opacity:1;stroke-dasharray:none"
           inkscape:connector-curvature="0" />
        <path
           sodipodi:nodetypes="cc"
           id="path4872"
           d="m 665.71429,829.50504 c -11.42858,80 2.41737,144.70732 2.41737,144.70732"
           style="fill:none;stroke:#ffffff;stroke-width:4;stroke-linecap:butt;stroke-linejoin:miter;stroke-miterlimit:4;stroke-opacity:1;stroke-dasharray:none"
           inkscape:connector-curvature="0" />
        <path
           sodipodi:nodetypes="ccc"
           id="path4874"
           d="m 745.71429,1166.6479 c 117.14285,200 251.42857,85.7143 251.42857,85.7143 191.42854,-165.7143 141.65324,-303.30659 141.65324,-303.30659"
           style="fill:none;stroke:#ffffff;stroke-width:4;stroke-linecap:butt;stroke-linejoin:miter;stroke-miterlimit:4;stroke-opacity:1;stroke-dasharray:none"
           inkscape:connector-curvature="0" />
        <path
           sodipodi:nodetypes="ccc"
           id="path4876"
           d="m 590.96301,1276.7121 c 220,337.1428 491.89409,52.7929 491.89409,52.7929 180,-205.7142 114.2858,-434.28567 114.2858,-434.28567"
           style="fill:none;stroke:#ffffff;stroke-width:4;stroke-linecap:butt;stroke-linejoin:miter;stroke-miterlimit:4;stroke-opacity:1;stroke-dasharray:none"
           inkscape:connector-curvature="0" />
        <path
           sodipodi:nodetypes="ccccccc"
           id="path4878"
           d="m 1165.7143,827.56288 c -98.5073,-101.97441 -155.6341,3.90045 -155.6341,3.90045 -65.28091,119.83944 64.2055,132.32742 64.2055,132.32742 148.7159,-6.29203 140,-145.71428 140,-145.71428 -6.3243,-140.89886 -71.4286,-148.57143 -71.4286,-148.57143 77.1429,177.14286 -25.7142,228.57143 -25.7142,228.57143 -78.3467,18.97283 -35.6341,-40.60999 -35.6341,-40.60999"
           style="fill:none;stroke:#ffffff;stroke-width:4;stroke-linecap:butt;stroke-linejoin:miter;stroke-miterlimit:4;stroke-opacity:1;stroke-dasharray:none"
           inkscape:connector-curvature="0" />
        <path
           sodipodi:nodetypes="ccc"
           id="path4880"
           d="m 1022.1028,946.19846 c 14.8958,-100.4333 70.2085,-90.0964 70.2085,-90.0964 27.275,-2.37616 34.4982,36.14724 34.4982,36.14724"
           style="fill:none;stroke:#ffffff;stroke-width:4;stroke-linecap:butt;stroke-linejoin:miter;stroke-miterlimit:4;stroke-opacity:1;stroke-dasharray:none"
           inkscape:connector-curvature="0" />
        <path
           sodipodi:nodetypes="cccccc"
           id="path4884"
           d="m 682.85714,743.79075 c -2.85714,102.85715 42.85715,120 42.85715,120 104.63948,53.91866 108.71989,-70.67817 108.71989,-70.67817 6.17178,-52.31535 -42.98948,-33.55548 -42.98948,-33.55548 -24.53461,12.14671 -6.97463,31.26309 -6.97463,31.26309 11.57989,15.95531 50.22796,7.68323 50.22796,7.68323"
           style="fill:none;stroke:#ffffff;stroke-width:4;stroke-linecap:butt;stroke-linejoin:miter;stroke-miterlimit:4;stroke-opacity:1;stroke-dasharray:none"
           inkscape:connector-curvature="0" />
        <path
           sodipodi:nodetypes="ccccc"
           id="path4886"
           d="m 663.52278,948.35041 c 183.34614,56.96619 213.62008,-104.55966 213.62008,-104.55966 14.36069,-172.0051 -84.86304,-131.18407 -84.86304,-131.18407 -96.26787,54.71475 -9.33622,103.68411 -9.33622,103.68411 15.07225,10.23253 47.23997,4.65141 47.23997,4.65141"
           style="fill:none;stroke:#ffffff;stroke-width:4;stroke-linecap:butt;stroke-linejoin:miter;stroke-miterlimit:4;stroke-opacity:1;stroke-dasharray:none"
           inkscape:connector-curvature="0" />
        <path
           sodipodi:nodetypes="cc"
           id="path4888"
           d="m 789.61876,761.22651 c 4.3418,38.04173 45.71832,31.06863 45.71832,31.06863"
           style="fill:none;stroke:#ffffff;stroke-width:4;stroke-linecap:butt;stroke-linejoin:miter;stroke-miterlimit:4;stroke-opacity:1;stroke-dasharray:none"
           inkscape:connector-curvature="0" />
        <path
           sodipodi:nodetypes="ccc"
           id="path4899"
           d="M 255.63307,580.49633 C -78.652639,829.06776 -17.140142,1086.2106 -17.140142,1086.2106 11.181285,1334.3615 274.28931,1275.3704 274.28931,1275.3704"
           style="fill:none;stroke:#ffffff;stroke-width:4;stroke-linecap:butt;stroke-linejoin:miter;stroke-miterlimit:4;stroke-opacity:1;stroke-dasharray:none"
           inkscape:connector-curvature="0" />
        <path
           sodipodi:nodetypes="ccccccc"
           id="path4902"
           d="m 259.66428,1277.7408 c 102.85715,100 17.47858,134.6214 17.47858,134.6214 -94.28572,37.1428 -65.71429,-51.4286 -65.71429,-51.4286 22.85714,-37.1428 62.85714,-22.8571 62.85714,-22.8571 -77.14285,-25.7143 -102.52142,48.4036 -102.52142,48.4036 -30.75893,83.6946 99.66428,80.1678 99.66428,80.1678 140.33572,-19.6626 87.22679,-141.6804 87.22679,-141.6804"
           style="fill:none;stroke:#ffffff;stroke-width:4;stroke-linecap:butt;stroke-linejoin:miter;stroke-miterlimit:4;stroke-opacity:1;stroke-dasharray:none"
           inkscape:connector-curvature="0" />
        <path
           sodipodi:nodetypes="ccccc"
           id="path4904"
           d="M 200,623.79075 C -114.28571,523.79075 0.17331474,287.65805 0.17331474,287.65805 114.5975,58.739991 288.57143,241.45355 288.57143,241.45355 c 78.44863,92.28668 -45.71429,182.3372 -45.71429,182.3372 -65.71428,57.14286 -128.74474,5.05076 -128.74474,5.05076"
           style="fill:none;stroke:#ffffff;stroke-width:4;stroke-linecap:butt;stroke-linejoin:miter;stroke-miterlimit:4;stroke-opacity:1;stroke-dasharray:none"
           inkscape:connector-curvature="0" />
        <path
           sodipodi:nodetypes="cccc"
           id="path4906"
           d="M 378.98984,440.93361 C 176.1327,549.50504 111.42857,426.6479 111.42857,426.6479 c -44.387238,-129.37853 102.85714,-140 102.85714,-140 53.44889,16.62291 28.57143,62.85714 28.57143,62.85714"
           style="fill:none;stroke:#ffffff;stroke-width:4;stroke-linecap:butt;stroke-linejoin:miter;stroke-miterlimit:4;stroke-opacity:1;stroke-dasharray:none"
           inkscape:connector-curvature="0" />
        <path
           sodipodi:nodetypes="cc"
           id="path4908"
           d="m 213.62219,287.48474 c -51.25526,67.9079 -91.42857,40.83683 -91.42857,40.83683"
           style="fill:none;stroke:#ffffff;stroke-width:4;stroke-linecap:butt;stroke-linejoin:miter;stroke-miterlimit:4;stroke-opacity:1;stroke-dasharray:none"
           inkscape:connector-curvature="0" />
        <path
           sodipodi:nodetypes="cc"
           id="path4910"
           d="M 28.888322,241.2505 C -65.397392,78.393362 3.6939806,10.341878 3.6939806,10.341878"
           style="fill:none;stroke:#ffffff;stroke-width:4;stroke-linecap:butt;stroke-linejoin:miter;stroke-miterlimit:4;stroke-opacity:1;stroke-dasharray:none"
           inkscape:connector-curvature="0" />
        <path
           sodipodi:nodetypes="cc"
           id="path4912"
           d="M -18.816533,354.52607 C -138.81652,163.0975 2.8571429,9.5050398 2.8571429,9.5050398"
           style="fill:none;stroke:#ffffff;stroke-width:4;stroke-linecap:butt;stroke-linejoin:miter;stroke-miterlimit:4;stroke-opacity:1;stroke-dasharray:none"
           inkscape:connector-curvature="0" />
        <path
           sodipodi:nodetypes="cc"
           id="path4914"
           d="m 493.69185,1323.0444 c 88.57143,51.4286 130.95336,1.2846 130.95336,1.2846"
           style="fill:none;stroke:#ffffff;stroke-width:4;stroke-linecap:butt;stroke-linejoin:miter;stroke-miterlimit:4;stroke-opacity:1;stroke-dasharray:none"
           inkscape:connector-curvature="0" />
        <path
           sodipodi:nodetypes="ccc"
           id="path4916"
           d="m 395.31,1329.9273 c 114.28572,154.2858 252.507,26.6484 252.507,26.6484 -111.42857,22.8571 -154.27764,-32.4799 -154.27764,-32.4799"
           style="fill:none;stroke:#ffffff;stroke-width:4;stroke-linecap:butt;stroke-linejoin:miter;stroke-miterlimit:4;stroke-opacity:1;stroke-dasharray:none"
           inkscape:connector-curvature="0" />
        <path
           sodipodi:nodetypes="ccc"
           id="path4918"
           d="m 75.378571,1250.5131 c -109.249996,268.4017 -262.775001,201.6812 -262.775001,201.6812 -226.72142,-72.6035 -126.88928,-285.7152 -126.88928,-285.7152"
           style="fill:none;stroke:#ffffff;stroke-width:4;stroke-linecap:butt;stroke-linejoin:miter;stroke-miterlimit:4;stroke-opacity:1;stroke-dasharray:none"
           inkscape:connector-curvature="0" />
        <path
           sodipodi:nodetypes="cccccccccccc"
           id="path4920"
           d="m -14.285715,1136.6479 c 24.2857148,215.7143 -157.142855,181.4286 -157.142855,181.4286 -250.50536,-66.9733 -94.28572,-277.1429 -94.28572,-277.1429 77.14286,-99.99999 5.71429,-79.99999 5.71429,-79.99999 -23.83756,13.10225 8.5417,30.07179 8.5417,30.07179 -74.28572,-5.71429 -23.28789,-54.77592 -23.28789,-54.77592 63.73604,-42.36693 86.17476,38.98984 86.17476,38.98984 18.2966,40.99268 -6.83828,77.60338 -6.83828,77.60338 -99.14388,150.6631 37.96667,180.4309 37.96667,180.4309 86.738313,5.7237 41.25098,-66.6341 41.25098,-66.6341 -40.13464,-49.9598 -68.58323,-1.3057 -68.58323,-1.3057 -20.59882,35.3742 9.35157,61.5213 9.35157,61.5213"
           style="fill:none;stroke:#ffffff;stroke-width:4;stroke-linecap:butt;stroke-linejoin:miter;stroke-miterlimit:4;stroke-opacity:1;stroke-dasharray:none"
           inkscape:connector-curvature="0" />
        <path
           sodipodi:nodetypes="cc"
           id="path4924"
           d="m -69.57768,1064.2961 c -7.564285,-48.2357 52.100893,-92.94464 52.100893,-92.94464"
           style="fill:none;stroke:#ffffff;stroke-width:4;stroke-linecap:butt;stroke-linejoin:miter;stroke-miterlimit:4;stroke-opacity:1;stroke-dasharray:none"
           inkscape:connector-curvature="0" />
        <path
           sodipodi:nodetypes="ccccc"
           id="path4926"
           d="m -46.71954,1000.4467 c -142.01975,0.013 -176.1376,-122.37023 -176.1376,-122.37023 -29.55185,-104.21393 51.42857,-162.85714 51.42857,-162.85714 -57.63307,170.59173 37.31617,200.34663 37.31617,200.34663 42.451042,18.23712 51.745466,5.54097 51.745466,5.54097"
           style="fill:none;stroke:#ffffff;stroke-width:4;stroke-linecap:butt;stroke-linejoin:miter;stroke-miterlimit:4;stroke-opacity:1;stroke-dasharray:none"
           inkscape:connector-curvature="0" />
        <path
           sodipodi:nodetypes="cccc"
           id="path4928"
           d="m 125.71429,698.07647 c -177.142861,-177.14286 -262.85715,22.85714 -262.85715,22.85714 -48.57143,105.71429 14.28572,162.85714 14.28572,162.85714 59.796946,65.33792 111.601884,64.38724 111.601884,64.38724"
           style="fill:none;stroke:#ffffff;stroke-width:4;stroke-linecap:butt;stroke-linejoin:miter;stroke-miterlimit:4;stroke-opacity:1;stroke-dasharray:none"
           inkscape:connector-curvature="0" />
        <path
           sodipodi:nodetypes="cccc"
           id="path4930"
           d="m 58.326324,780.09678 c -28.774478,-81.67369 -86.897753,-36.30603 -86.897753,-36.30603 -43.030458,42.13415 -1.84699,86.23424 -1.84699,86.23424 42.569986,37.57359 53.275562,16.62291 53.275562,16.62291"
           style="fill:none;stroke:#ffffff;stroke-width:4;stroke-linecap:butt;stroke-linejoin:miter;stroke-miterlimit:4;stroke-opacity:1;stroke-dasharray:none"
           inkscape:connector-curvature="0" />
        <path
           sodipodi:nodetypes="ccc"
           id="path4932"
           d="M 1057.6628,40.096773 C 834.80566,-2.7603694 785.71429,46.647897 785.71429,46.647897 729.64105,132.99597 725.19434,171.87197 725.19434,171.87197"
           style="fill:none;stroke:#ffffff;stroke-width:4;stroke-linecap:butt;stroke-linejoin:miter;stroke-miterlimit:4;stroke-opacity:1;stroke-dasharray:none"
           inkscape:connector-curvature="0" />
        <path
           sodipodi:nodetypes="cccccccccccccccc"
           id="path4934"
           d="m 586.31622,1064.9947 c -61.19581,-35.3371 -92.03051,4.0609 -92.03051,4.0609 -41.66941,54.8634 37.14286,91.878 37.14286,91.878 156.98229,53.8523 253.25854,-158.5072 253.25854,-158.5072 53.04961,-90.20866 146.29203,-56.0835 146.29203,-56.0835 129.48656,44.0288 20.14444,162.8571 20.14444,162.8571 -56.05118,61.0596 -102.08659,5.586 -102.08659,5.586 -21.07556,-40.2727 42.23102,-75.3612 42.23102,-75.3612 -38.60333,81.6855 23.3227,40.1443 23.3227,40.1443 73.24245,-63.756 -4.65487,-93.08173 -4.65487,-93.08173 C 836.49245,962.35774 760,1143.7908 760,1143.7908 c -77.93774,130.9928 -155.44035,131.4875 -155.44035,131.4875 -192.0942,36.8484 -238.84536,-97.2018 -238.84536,-97.2018 -48.74807,-146.6334 86.1444,-215.3815 86.1444,-215.3815 131.29285,-74.28571 219.56988,18.23861 219.56988,18.23861 65.71429,82.85719 20.75443,143.16219 20.75443,143.16219"
           style="fill:none;stroke:#ffffff;stroke-width:4;stroke-linecap:butt;stroke-linejoin:miter;stroke-miterlimit:4;stroke-opacity:1;stroke-dasharray:none"
           inkscape:connector-curvature="0" />
        <path
           sodipodi:nodetypes="cc"
           id="path4936"
           d="m -13.697321,1137.9086 c -20.51484,-108.153 -176.555359,-94.2857 -176.555359,-94.2857"
           style="fill:none;stroke:#ffffff;stroke-width:4;stroke-linecap:butt;stroke-linejoin:miter;stroke-miterlimit:4;stroke-opacity:1;stroke-dasharray:none"
           inkscape:connector-curvature="0" />
        <path
           sodipodi:nodetypes="cc"
           id="path4938"
           d="M 687.1723,798.01759 C 881.45802,495.16045 969.17818,450.05292 969.17818,450.05292"
           style="fill:none;stroke:#ffffff;stroke-width:4;stroke-linecap:butt;stroke-linejoin:miter;stroke-miterlimit:4;stroke-opacity:1;stroke-dasharray:none"
           inkscape:connector-curvature="0" />
        <path
           sodipodi:nodetypes="ccc"
           id="path3190"
           d="m 876.34321,777.69779 c 20.76652,-11.13567 29.7438,-18.41931 29.7438,-18.41931 -5.11639,32.80509 -27.08677,43.63979 -27.08677,43.63979"
           style="fill:none;stroke:#ffffff;stroke-width:4;stroke-linecap:butt;stroke-linejoin:miter;stroke-miterlimit:4;stroke-opacity:1;stroke-dasharray:none"
           inkscape:connector-curvature="0" />
        <path
           id="path3193"
           d="m 539.69563,1146.0002 c -20.43012,-69.8029 -13.62008,-95.3405 -13.62008,-95.3405"
           style="fill:none;stroke:#ffffff;stroke-width:4;stroke-linecap:butt;stroke-linejoin:miter;stroke-miterlimit:4;stroke-opacity:1;stroke-dasharray:none"
           inkscape:connector-curvature="0" />
        <path
           id="path3195"
           d="m 712.68292,1107.7396 c -8.427,-12.0386 -7.22314,-18.0579 -7.22314,-18.0579"
           style="fill:none;stroke:#ffffff;stroke-width:4;stroke-linecap:butt;stroke-linejoin:miter;stroke-miterlimit:4;stroke-opacity:1;stroke-dasharray:none"
           inkscape:connector-curvature="0" />
      </g>
      <g
         inkscape:label="fill"
         id="layer1-8">
        <path
           id="path2423"
           d="m 728.3555,1331.6343 c -29.19183,-3.7922 -49.10506,-9.749 -66.21209,-19.8068 -60.80221,-35.7474 -118.65954,-92.6949 -152.44818,-150.0508 -47.45649,-80.5578 -60.53808,-179.39071 -37.43993,-282.86849 24.26421,-108.70148 87.68889,-226.66731 190.94124,-355.1376 12.77147,-15.89091 28.50033,-36.47685 34.95252,-45.74654 55.69449,-80.01287 134.45341,-153.36209 237.26972,-220.97269 48.3057,-31.76521 86.07332,-53.06377 149.00952,-84.03237 114.1701,-56.17891 232.9331,-100.718369 367.4448,-137.802006 28.4103,-7.832457 120.1832,-30.2489834 120.5296,-29.440642 0.079,0.1847919 -0.3094,13.735085 -0.8639,30.111696 l -1.0081,29.775627 -12.3783,-1.524058 c -6.808,-0.838269 -27.8179,-2.197663 -46.6884,-3.020884 -29.5364,-1.288512 -34.3099,-0.995036 -34.3099,2.109541 0,2.998397 6.595,3.839965 39.1253,4.992681 58.8806,2.086379 107.4904,13.288358 165.9124,38.233945 28.1767,12.03117 81.6366,42.18173 83.2211,46.93554 1.1615,3.48468 -39.6897,46.11564 -77.5839,80.96413 -151.4512,139.27781 -316.4233,222.10281 -466.4944,234.20566 -14.5117,1.17027 -21.0674,2.6488 -21.0674,4.75119 0,3.57702 15.5215,2.80994 56.2566,-2.7799 14.3883,-1.97442 26.6031,-3.14724 27.1441,-2.6063 0.5408,0.54099 -6.1565,7.25191 -14.8828,14.91332 -46.8269,41.11184 -128.3474,143.78345 -206.052,259.51439 -38.8473,57.85781 -38.1331,57.40916 -38.196,23.99471 -0.026,-13.89662 -0.7695,-17.45592 -3.6445,-17.45592 -4.2956,0 -4.4406,4.57933 -1.1379,35.93723 4.5554,43.25273 18.9152,74.40176 39.7203,86.15901 24.4084,13.79361 54.9998,18.87307 71.6477,11.89667 20.3339,-8.52094 34.5866,-30.0801 41.2668,-62.42105 8.8873,-43.02626 1.5277,-59.79766 -26.3505,-60.04819 -24.7482,-0.22232 -38.9421,16.19565 -29.1921,33.76598 5.9141,10.65779 15.7351,14.87011 34.7101,14.8873 l 17.5016,0.0159 -1.6204,6.62121 c -2.1245,8.68128 -4.7458,10.17271 -17.733,10.09022 -29.8576,-0.18963 -60.1928,-26.50391 -60.1928,-52.21421 0,-13.25048 4.1509,-21.25415 17.271,-33.30244 14.8592,-13.64516 25.593,-19.60952 38.8003,-21.55979 27.2782,-4.02806 49.6636,11.45175 59.5581,41.18517 6.2858,18.88947 9.1683,51.9196 6.9814,80.00343 -3.861,49.58253 -43.3193,100.10371 -91.0187,116.53779 -21.2722,7.32893 -66.431,7.77946 -95.8453,0.95603 l -19.7103,-4.57239 -1.6955,-15.83177 c -1.9124,-17.85695 0.064,-90.75333 2.635,-97.21491 1.1565,-2.90568 0.5355,-4.2135 -2.0005,-4.2135 -2.7422,0 -4.1748,4.13431 -5.63167,16.25206 -2.50306,20.8153 -1.94543,86.02548 0.91565,107.14321 1.21112,8.93863 1.90832,16.25206 1.54932,16.25206 -0.3592,0 -5.48689,-3.26247 -11.39518,-7.24996 -29.73043,-20.06496 -61.42941,-29.73395 -97.84606,-29.84567 -33.97861,-0.1043 -55.85581,5.35745 -90.87526,22.68706 -32.92403,16.29263 -56.75653,35.18455 -74.82882,59.31682 -20.1593,26.9185 -28.0513,46.1864 -35.84675,87.5159 l -2.04366,10.8347 -7.13117,-14.4463 c -6.30531,-12.7734 -7.13092,-16.9556 -7.12971,-36.1157 10e-4,-19.1696 0.79526,-23.1821 6.88076,-34.7826 22.12952,-42.18346 80.39087,-76.43514 182.60308,-107.35157 49.77296,-15.05497 70.24983,-25.92283 94.86797,-50.34996 13.89539,-13.78758 21.98723,-24.26703 27.99014,-36.24848 10.34209,-20.64228 13.38327,-32.50412 8.33358,-32.50412 -1.98805,0 -4.1456,3.21808 -4.99071,7.44318 -0.81862,4.09379 -4.28958,13.03237 -7.71311,19.86363 -20.63,41.1643 -56.47121,67.11027 -116.94211,84.65618 -125.89881,36.53006 -193.5943,85.20544 -198.83204,142.96674 -1.56333,17.2414 3.48854,35.7272 15.24636,55.7888 5.38557,9.1892 9.30653,19.7163 10.54771,28.3188 5.257,36.4385 16.56843,61.3572 38.92958,85.7603 35.37483,38.6055 78.4582,56.3131 142.38995,58.5233 l 35.62909,1.2318 -8.86351,6.0231 c -15.21578,10.3393 -44.01491,22.4588 -68.12791,28.6701 -25.81285,6.6492 -75.5403,9.3849 -103.81792,5.7115 l 0,0 z M 898.09924,870.71325 c 22.45673,-6.19748 35.85999,-13.95694 51.98612,-30.09569 19.4223,-19.43809 26.26454,-35.17894 26.26454,-60.42557 0,-25.37281 -6.82009,-40.96195 -26.58043,-60.75764 -23.18434,-23.22575 -47.91107,-33.08599 -82.9705,-33.08599 -35.44586,0 -59.50613,9.58007 -82.88815,33.00367 -19.8487,19.88383 -26.66277,35.43265 -26.66277,60.83996 0,25.37282 6.82009,40.96196 26.58043,60.75764 23.27921,23.32072 46.28057,32.57554 81.76664,32.89928 11.25605,0.10278 25.88291,-1.30833 32.50412,-3.13564 l 0,-2e-5 z M 752.43263,847.52786 c 0,-1.36823 -2.55892,-7.59818 -5.6863,-13.84429 -11.06873,-22.10618 -14.64395,-36.73245 -14.54667,-59.51086 0.11147,-26.03941 5.66053,-42.41496 21.11901,-62.32234 20.29942,-26.14181 47.41749,-44.32608 75.43219,-50.58197 21.13947,-4.72061 55.37498,-4.96889 72.07294,-0.52271 31.02579,8.26115 61.16939,32.14662 78.85307,62.48209 5.14047,8.8182 10.28695,16.0331 11.43664,16.0331 3.02312,0 2.6728,-1.45452 -3.06622,-12.73641 -17.08465,-33.58485 -48.63652,-59.93587 -84.90991,-70.91362 -24.76598,-7.49511 -78.5172,-3.06044 -101.34665,8.36156 -15.54395,7.77696 -41.92622,29.80738 -52.43203,43.78317 -27.61791,36.73972 -30.43156,78.39745 -8.51126,126.00802 6.7558,14.67407 11.58519,20.41148 11.58519,13.76431 l 0,-5e-5 z"
           style="fill:#000000;fill-opacity:1;fill-rule:nonzero;stroke:#ffffff;stroke-width:9.63084983999999980;stroke-linecap:butt;stroke-linejoin:miter;stroke-miterlimit:4;stroke-opacity:0;stroke-dasharray:none"
           inkscape:connector-curvature="0" />
        <path
           id="path2425"
           d="m 522.49608,1283.3039 c -53.28894,-3.6729 -102.40575,-23.0528 -134.58194,-53.1018 -35.56266,-33.2116 -52.76738,-69.4882 -63.265,-133.3959 -4.7615,-28.9873 -5.24381,-81.5702 -0.99369,-108.34707 22.06211,-138.99691 104.33627,-265.5216 246.39295,-378.91319 14.2356,-11.36303 25.88291,-21.49675 25.88291,-22.51938 0,-4.90345 -8.08028,-0.10011 -31.30026,18.60627 -13.90454,11.20177 -26.14102,20.38904 -27.19199,20.4162 -4.97192,0.12845 -51.33556,-18.76455 -73.93194,-30.12689 -63.54575,-31.9535 -107.13507,-75.87196 -128.35573,-129.32505 -22.17415,-55.85494 -16.3706,-131.55689 14.28849,-186.38048 21.90809,-39.17524 51.55255,-70.62507 79.96919,-84.83926 20.27513,-10.1418 36.05143,-13.09151 62.67254,-11.71796 38.56698,1.98995 73.84984,17.55088 113.01345,49.84266 30.53558,25.17777 43.62222,49.02599 43.67663,79.59371 0.0554,31.22868 -15.87694,62.10321 -49.09229,95.13272 -22.44638,22.32106 -40.79267,35.13495 -58.68174,40.9861 -23.7764,7.77696 -64.79756,0.89818 -82.94931,-13.90959 -5.24255,-4.2768 -7.47016,-9.28366 -10.4526,-23.49302 -4.71442,-22.46263 -3.01181,-42.63483 4.97891,-58.98896 l 5.88228,-12.03856 21.18474,-0.0289 c 26.3671,-0.036 35.53375,-4.3678 58.48069,-27.63555 l 16.16779,-16.39405 7.64401,3.7021 c 17.07814,8.27115 25.10474,26.37999 19.69557,44.4346 -3.08115,10.28354 -1.89656,14.28689 2.82882,9.56144 1.59126,-1.59131 3.29231,-10.18686 3.77987,-19.1012 0.76228,-13.94027 0.0886,-17.38689 -4.81591,-24.63487 -7.52916,-11.12689 -27.01237,-21.76296 -36.77949,-20.07831 -50.35418,8.68506 -87.33448,30.90545 -100.59568,60.44467 -7.77147,17.31058 -8.72336,50.55276 -2.07456,72.44253 4.26919,14.05543 7.3672,19.10074 18.943,30.84992 26.28379,26.67758 61.29289,39.87784 105.32683,39.7139 36.79803,-0.13693 72.83523,-8.65787 115.18665,-27.23554 9.05878,-3.97362 16.94187,-6.75347 17.51779,-6.1774 1.40852,1.40871 -22.54269,34.65156 -41.51137,57.61473 -137.37926,166.30957 -212.32052,340.76416 -204.57009,476.21586 6.00917,105.02342 46.3723,190.22512 124.75009,263.33242 l 24.33643,22.6999 -19.05873,1.4952 c -10.48221,0.8225 -23.39237,1.8244 -28.68934,2.2264 -5.29696,0.4021 -20.46555,-0.016 -33.70797,-0.9284 z"
           style="fill:#000000;fill-opacity:1;fill-rule:nonzero;stroke:#ffffff;stroke-width:9.63084983999999980;stroke-linecap:butt;stroke-linejoin:miter;stroke-miterlimit:4;stroke-opacity:0;stroke-dasharray:none"
           inkscape:connector-curvature="0" />
        <path
           id="path2428"
           d="M 310.22927,337.79655 C 272.26961,268.01437 264.70786,188.87298 289.0643,116.28423 c 6.97377,-20.783761 24.28782,-57.579893 28.24413,-60.025046 1.63513,-1.010493 1.95603,-0.01965 0.89189,2.753484 -0.91426,2.382673 -2.30587,13.665984 -3.09232,25.074039 -2.65342,38.489043 9.38319,86.413573 34.14584,135.954163 l 13.05941,26.12683 -13.13677,22.0274 c -13.61424,22.82807 -20.34081,39.3713 -27.32135,67.19376 l -4.08295,16.27381 -7.54291,-13.86612 z"
           style="fill:#000000;fill-opacity:1;fill-rule:nonzero;stroke:#ffffff;stroke-width:9.63084983999999980;stroke-linecap:butt;stroke-linejoin:miter;stroke-miterlimit:4;stroke-opacity:0;stroke-dasharray:none"
           inkscape:connector-curvature="0" />
        <path
           id="path2430"
           d="m 1069.1525,168.00462 c 11.7923,-39.30928 51.69,-111.098315 65.7992,-118.394527 25.9992,-13.444763 83.2435,-20.07281 138.9905,-16.093078 36.0184,2.571292 104.2949,11.319379 106.6388,13.663287 1.6791,1.678922 1.2385,1.844838 -40.6665,15.315749 -72.7382,23.382596 -169.8581,61.979139 -239.1193,95.028729 -29.7095,14.17642 -33.0873,15.29521 -31.6427,10.47984 z"
           style="fill:#000000;fill-opacity:1;fill-rule:nonzero;stroke:#ffffff;stroke-width:9.63084983999999980;stroke-linecap:butt;stroke-linejoin:miter;stroke-miterlimit:4;stroke-opacity:0;stroke-dasharray:none"
           inkscape:connector-curvature="0" />
        <path
           id="path2432"
           d="m 306.90059,947.68892 c -26.25481,-7.24798 -56.78848,-27.30755 -83.22143,-54.67359 -18.69408,-19.35394 -27.44588,-34.28527 -33.27006,-56.76153 -18.51801,-71.46317 32.4016,-169.85639 101.22948,-195.6082 17.51565,-6.55346 47.43189,-7.13567 67.46143,-1.31293 27.99674,8.13886 59.60471,27.46608 86.92856,53.15396 l 12.61786,11.86242 -17.01697,20.46556 c -9.35942,11.25605 -22.54979,28.32071 -29.31197,37.92147 -6.76218,9.60075 -12.92364,17.45591 -13.69218,17.45591 -0.76847,0 -3.9766,-5.43271 -7.12904,-12.0727 -11.94353,-25.15648 -33.1616,-36.83829 -57.6313,-31.72956 -36.26181,7.57074 -54.64166,42.01437 -42.08484,78.86667 7.06281,20.72807 38.94244,46.79782 57.22711,46.79782 l 5.93826,0 -6.87544,16.25206 c -5.4994,12.99936 -14.47516,40.03696 -23.17965,69.82366 -1.05022,3.594 -3.59986,3.53149 -17.98987,-0.44106 l 5e-5,4e-5 z"
           style="fill:#000000;fill-opacity:1;fill-rule:nonzero;stroke:#ffffff;stroke-width:9.63084983999999980;stroke-linecap:butt;stroke-linejoin:miter;stroke-miterlimit:4;stroke-opacity:0;stroke-dasharray:none"
           inkscape:connector-curvature="0" />
        <path
           id="path2434"
           d="m 262.46312,1001.375 c -47.2013,-5.95151 -89.4033,-30.16829 -116.66959,-66.94848 -45.21368,-60.98989 -44.69145,-130.63511 1.41461,-188.65942 6.10063,-7.67772 11.37911,-13.63673 11.72991,-13.24242 0.35078,0.39424 -2.06242,11.00989 -5.36274,23.59019 -5.04329,19.22431 -6.05167,28.82684 -6.32066,60.19281 -0.29935,34.89561 0.0882,38.3723 5.96567,53.52805 11.70343,30.17878 30.15443,48.18642 60.16495,58.71925 14.20758,4.98649 20.62967,5.98591 31.98003,4.977 11.87713,-1.05573 15.62206,-0.38446 22.87327,4.09993 12.68051,7.84206 31.80972,15.51595 43.22976,17.34208 9.1066,1.45625 9.98375,2.22458 9.98375,8.74599 0,5.54968 -3.59041,10.86853 -16.04514,23.7694 -10.49707,10.87308 -17.78178,16.51452 -21.06749,16.31532 -2.76229,-0.1674 -12.60664,-1.2609 -21.87633,-2.4297 l 0,0 z"
           style="fill:#000000;fill-opacity:1;fill-rule:nonzero;stroke:#ffffff;stroke-width:9.63084983999999980;stroke-linecap:butt;stroke-linejoin:miter;stroke-miterlimit:4;stroke-opacity:0;stroke-dasharray:none"
           inkscape:connector-curvature="0" />
        <path
           id="path2436"
           d="m 176.98933,1321.8142 c -24.97557,-2.5502 -62.90388,-17.3933 -89.320988,-34.9554 -56.119301,-37.308 -73.043353,-94.4714 -49.139583,-165.9755 7.46622,-22.3341 22.496968,-50.3859 45.312259,-84.5664 26.575632,-39.81389 32.031942,-54.73904 23.962812,-65.5468 -4.20076,-5.62639 -6.43011,-6.3881 -18.696013,-6.3881 -12.45565,0 -14.459228,0.71341 -18.969452,6.75436 -4.859414,6.5086 -4.891557,7.01795 -0.884834,13.99928 4.127951,7.19268 4.11909,7.2333 -1.236264,5.63542 -9.367784,-2.79504 -16.103432,-8.1965 -17.585716,-14.10231 -1.673914,-6.66936 5.34659,-21.7465 13.795759,-29.62774 12.867009,-12.00214 36.29747,-16.31322 50.03939,-9.20697 10.53825,5.44959 23.18317,21.75459 30.58718,39.44069 5.55591,13.27174 6.69423,19.48942 6.67564,36.46537 -0.0245,22.3684 1.37151,18.5659 -25.63407,69.8237 -17.14828,32.5483 -22.10526,51.1369 -20.66029,77.4772 1.8327,33.4078 17.05773,54.9814 50.67705,71.8084 16.18472,8.1006 21.56403,9.6213 33.99642,9.61 19.90747,-0.018 30.51884,-3.3318 38.98339,-12.1737 6.19529,-6.4713 7.06842,-9.1224 6.9443,-21.0827 -0.23465,-22.6136 -14.62016,-47.6773 -32.84452,-57.2248 -8.33242,-4.3653 -24.39679,-4.37 -32.74325,-0.01 -20.3763,10.6451 -32.28211,40.0958 -24.49212,60.585 3.95216,10.3947 0.62868,9.9349 -11.06433,-1.5312 -29.20091,-28.6341 -31.90419,-66.5894 -8.2448,-115.759 3.59426,-7.4698 10.55601,-20.2006 15.47047,-28.2907 l 8.93545,-14.7092 14.56486,0 c 21.57929,0 62.94656,6.7239 80.44598,13.0759 48.71787,17.6836 71.97151,46.1481 75.59298,92.5324 3.40195,43.5734 -2.73432,79.821 -18.25624,107.8405 -22.49533,40.6077 -70.21516,61.8195 -126.21147,56.1018 l 0,10e-5 z"
           style="fill:#000000;fill-opacity:1;fill-rule:nonzero;stroke:#ffffff;stroke-width:9.63084983999999980;stroke-linecap:butt;stroke-linejoin:miter;stroke-miterlimit:4;stroke-opacity:0;stroke-dasharray:none"
           inkscape:connector-curvature="0" />
        <path
           id="path2438"
           d="m 166.15462,1459.9079 c -11.69609,-2.6914 -47.09346,-16.4617 -61.39667,-23.8845 -22.20814,-11.525 -47.430855,-31.4068 -60.963211,-48.0539 -14.601452,-17.9623 -28.953297,-47.631 -33.924164,-70.1291 -7.3743661,-33.3766 -3.4583902,-87.2518 8.886145,-122.2508 l 3.373229,-9.5637 1.346826,14.3791 c 4.943973,52.7853 47.706489,95.3836 121.008435,120.5437 36.10126,12.3913 81.40909,10.1134 115.34373,-5.7992 46.94813,-22.0149 70.78542,-72.2022 68.40887,-144.0288 l -0.96675,-29.2172 7.37567,19.5863 c 13.33983,35.4248 35.62601,65.8616 62.21101,84.9632 6.86176,4.9302 12.89522,9.27 13.4078,9.6438 2.55767,1.8655 -42.84127,86.8166 -56.88779,106.4491 -36.21369,50.6151 -79.58343,84.3249 -122.56242,95.2636 -13.82718,3.5191 -52.96698,4.7894 -64.66071,2.0984 l 0,0 z"
           style="fill:#000000;fill-opacity:1;fill-rule:nonzero;stroke:#ffffff;stroke-width:9.63084983999999980;stroke-linecap:butt;stroke-linejoin:miter;stroke-miterlimit:4;stroke-opacity:0;stroke-dasharray:none"
           inkscape:connector-curvature="0" />
        <path
           id="path2440"
           d="m 565.39501,1465.179 c -41.42638,-9.005 -58.47587,-26.0359 -55.44673,-55.3861 2.89456,-28.046 29.01607,-59.8133 53.47891,-65.038 l 7.22314,-1.5428 -7.30259,4.9133 c -14.07405,9.4694 -18.43586,18.2536 -19.71291,39.6992 -1.0553,17.726 -0.62336,20.3698 4.57008,27.9684 8.30685,12.1532 14.98151,14.897 33.28013,13.6807 22.30601,-1.4826 42.40824,-9.6923 54.66229,-22.324 24.29479,-25.0437 19.10954,-59.9078 -15.23745,-102.4509 -16.20751,-20.0751 -15.56827,-24.0135 1.76197,-10.8543 16.7401,12.711 50.56822,32.1765 61.5132,35.3959 9.5266,2.8021 10.20822,3.6449 14.30591,17.6783 6.04263,20.6944 5.55387,49.3634 -1.13813,66.7471 -16.00455,41.5746 -73.83082,64.1487 -131.95806,51.5132 l 2.4e-4,0 z"
           style="fill:#000000;fill-opacity:1;fill-rule:nonzero;stroke:#ffffff;stroke-width:9.63084983999999980;stroke-linecap:butt;stroke-linejoin:miter;stroke-miterlimit:4;stroke-opacity:0;stroke-dasharray:none"
           inkscape:connector-curvature="0" />
        <path
           id="path2442"
           d="m 830.9438,1404.9404 c -27.66293,-7.5953 -61.58038,-30.2904 -81.22683,-54.3506 l -8.7347,-10.6972 26.79254,-0.1167 c 14.73617,-0.064 34.62219,-1.4912 44.19164,-3.1712 l 17.39885,-3.0547 10.28984,8.3446 c 24.9533,20.2361 54.26407,28.6989 99.26229,28.6596 31.09922,-0.027 31.17073,-0.014 25.28098,4.5443 -10.86408,8.4088 -49.06798,25.8524 -65.04917,29.7007 -18.90271,4.5519 -51.89295,4.6202 -68.20568,0.1412 l 2.4e-4,0 z"
           style="fill:#000000;fill-opacity:1;fill-rule:nonzero;stroke:#ffffff;stroke-width:9.63084983999999980;stroke-linecap:butt;stroke-linejoin:miter;stroke-miterlimit:4;stroke-opacity:0;stroke-dasharray:none"
           inkscape:connector-curvature="0" />
        <path
           id="path2444"
           d="m 900.50695,1361.8953 c -14.81345,-2.9728 -38.136,-11.0616 -36.52837,-12.6691 0.49406,-0.4942 7.83157,0.8799 16.30575,3.0534 26.13259,6.7028 56.47988,1.8887 75.60001,-11.9927 l 7.22314,-5.2441 11.51127,12.4002 11.51151,12.4001 -18.23095,2.7116 c -22.71172,3.3779 -48.53323,3.1253 -67.39236,-0.6594 z"
           style="fill:#000000;fill-opacity:1;fill-rule:nonzero;stroke:#ffffff;stroke-width:9.63084983999999980;stroke-linecap:butt;stroke-linejoin:miter;stroke-miterlimit:4;stroke-opacity:0;stroke-dasharray:none"
           inkscape:connector-curvature="0" />
        <path
           id="path2446"
           d="m 854.33015,1283.2276 c -57.09023,-5.4676 -105.24304,-32.9135 -134.05782,-76.4096 -16.18007,-24.4241 -21.8471,-45.6896 -21.93836,-82.3231 -0.0838,-33.6871 2.39785,-45.5444 14.79732,-70.7031 31.69128,-64.30142 105.72314,-109.68509 179.16536,-109.83355 26.3293,-0.0531 51.88693,6.38946 76.83492,19.36884 32.62163,16.97156 50.11773,36.31969 64.23153,71.03041 6.0734,14.9369 6.7763,19.5013 6.6506,43.187 -0.2117,39.7795 -6.7171,51.3732 -40.05089,71.3744 -27.48139,16.4896 -46.90802,21.9608 -78.9903,22.2464 -27.04993,0.2408 -52.84616,-4.5114 -56.48976,-10.4065 -0.74639,-1.208 4.8867,-3.9326 12.51794,-6.0548 29.24889,-8.1339 50.6354,-22.0911 56.17483,-36.6606 3.84006,-10.101 2.58829,-29.8478 -2.55748,-40.3407 -3.84343,-7.8371 -7.37145,-10.8964 -17.69235,-15.3427 -37.05638,-15.9633 -75.12424,-6.6704 -89.31289,21.8023 -11.43736,22.9516 -7.2241,41.6506 14.23174,63.1622 17.7995,17.8457 31.45123,24.7172 58.31769,29.3536 24.57456,4.2408 48.97263,1.8648 75.46855,-7.3495 53.57782,-18.6325 106.45722,-71.843 150.51692,-151.459 21.7879,-39.3705 51.8436,-61.56489 90.4857,-66.81823 37.4253,-5.08793 77.6598,8.00465 101.2706,32.95385 22.6826,23.96858 18.6995,62.98938 -10.983,107.59968 -22.5025,33.8189 -42.9729,48.388 -67.8239,48.2712 -24.8526,-0.1169 -49.3403,-17.354 -49.2143,-34.6429 0.077,-10.6246 9.5164,-27.3684 22.0912,-39.1871 6.7286,-6.3241 12.6371,-11.0953 13.1297,-10.6025 0.4929,0.4928 -0.7435,4.8197 -2.7472,9.6153 -4.0574,9.711 -4.7446,25.0742 -1.3606,30.4233 1.2819,2.0264 5.6481,3.3939 10.4047,3.2591 24.4073,-0.6919 59.3179,-37.4108 59.4912,-62.5731 0.1688,-24.4484 -25.3657,-47.37524 -52.9167,-47.51287 -19.1502,-0.0956 -33.6169,7.78621 -56.7642,30.92667 -23.2975,23.2907 -45.7227,56.7011 -69.906,104.1503 -9.7616,19.1531 -23.1523,42.5996 -29.7569,52.1032 -32.3592,46.5622 -72.8312,82.4575 -107.66594,95.4909 -24.42167,9.1373 -82.23639,15.0919 -115.55191,11.9012 l 0,0 z"
           style="fill:#000000;fill-opacity:1;fill-rule:nonzero;stroke:#ffffff;stroke-width:9.63084983999999980;stroke-linecap:butt;stroke-linejoin:miter;stroke-miterlimit:4;stroke-opacity:0;stroke-dasharray:none"
           inkscape:connector-curvature="0" />
        <path
           id="path2448"
           d="m 878.86402,1143.1547 c -6.77626,-19.8745 -14.97862,-73.3321 -12.31617,-80.2701 3.8025,-9.9099 51.72489,4.0233 58.70292,17.0676 2.14431,4.0085 3.92722,13.1968 4.00643,20.6458 0.18588,17.5406 -7.3818,27.8867 -27.89744,38.1384 -16.20101,8.0959 -20.92543,9.0237 -22.49574,4.4183 z"
           style="fill:#000000;fill-opacity:1;fill-rule:nonzero;stroke:#ffffff;stroke-width:9.63084983999999980;stroke-linecap:butt;stroke-linejoin:miter;stroke-miterlimit:4;stroke-opacity:0;stroke-dasharray:none"
           inkscape:connector-curvature="0" />
        <path
           id="path2450"
           d="m 1140.8109,1441.3144 c -53.1491,-10.1637 -99.8975,-35.9045 -143.07859,-78.7827 -18.57647,-18.4456 -41.45214,-45.7059 -54.68686,-65.1676 l -7.69866,-11.3207 9.06504,-1.5566 c 13.95462,-2.3963 30.47345,-7.4299 39.45446,-12.0226 28.07541,-14.3571 68.70461,-50.5972 90.07641,-80.3455 4.839,-6.7355 9.2453,-12.2464 9.7921,-12.2464 0.5468,0 5.7566,7.3134 11.578,16.252 31.4565,48.3012 73.4981,82.7146 113.7288,93.0938 18.4233,4.7531 53.1584,4.8866 70.6801,0.2717 26.6996,-7.0321 50.4661,-21.5178 78.3108,-47.7306 67.8306,-63.8551 112.0138,-135.8287 124.0324,-202.0459 2.9733,-16.3823 3.4712,-50.77251 1.0189,-70.39934 l -1.5289,-12.239 9.3846,-5.27451 c 13.188,-7.41223 30.6701,-23.28469 37.0941,-33.67884 l 5.4398,-8.80149 1.9254,7.06531 c 4.8668,17.85786 9.5476,80.28188 8.0221,106.98557 -6.4407,112.7493 -41.5601,205.7216 -110.4069,292.2818 -43.3523,54.5061 -122.8771,104.1847 -195.4273,122.0822 -25.4023,6.2666 -73.4343,8.0431 -96.7758,3.5794 z"
           style="fill:#000000;fill-opacity:1;fill-rule:nonzero;stroke:#ffffff;stroke-width:9.63084983999999980;stroke-linecap:butt;stroke-linejoin:miter;stroke-miterlimit:4;stroke-opacity:0;stroke-dasharray:none"
           inkscape:connector-curvature="0" />
        <path
           id="path2452"
           d="m 1403.395,965.22906 c -5.4749,-0.93766 -16.3096,-4.25276 -24.0771,-7.36692 l -14.1224,-5.66213 0.7803,-9.55914 c 1.1102,-13.60211 9.2288,-36.5675 17.5385,-49.61186 6.1459,-9.64795 22.0886,-23.75165 26.8484,-23.75165 0.8632,0 -0.01,4.47011 -1.9353,9.93357 -4.8696,13.80253 -4.3972,19.68873 2.068,25.76243 4.4338,4.16546 8.4925,5.23237 19.8636,5.22168 21.9863,-0.0207 30.1715,-3.33196 44.6388,-18.05862 26.9435,-27.4263 37.0219,-54.54097 36.6872,-98.70201 -0.2455,-32.40092 -4.0485,-52.98785 -16.3452,-88.48343 -4.473,-12.91136 -7.2316,-23.4752 -6.13,-23.4752 6.0009,0 29.9572,26.34531 37.4055,41.13594 12.9597,25.73421 22.7702,71.97324 22.7702,107.31974 0,45.31139 -23.8224,92.19114 -57.9891,114.11577 -23.7706,15.25368 -64.8628,25.14449 -88.0014,21.18181 l 0,2e-5 z"
           style="fill:#000000;fill-opacity:1;fill-rule:nonzero;stroke:#ffffff;stroke-width:9.63084983999999980;stroke-linecap:butt;stroke-linejoin:miter;stroke-miterlimit:4;stroke-opacity:0;stroke-dasharray:none"
           inkscape:connector-curvature="0" />
        <path
           id="path2454"
           d="m 1350.251,938.46163 c -15.9328,-16.79083 -20.154,-34.67063 -14.2016,-60.1554 8.0283,-34.37339 30.4814,-65.42638 56.5711,-78.23905 20.5096,-10.07223 39.7345,-9.26286 63.9214,2.69096 10.0806,4.98211 24.4325,14.74016 31.8933,21.68455 l 13.5648,12.62622 -6.5109,14.22158 c -6.4693,14.13121 -24.1345,39.65628 -27.4446,39.65628 -0.952,0 -3.9445,-4.59428 -6.6508,-10.20949 -6.8119,-14.13333 -17.8633,-21.10457 -33.3519,-21.0379 -31.3296,0.13483 -54.735,24.86069 -66.175,69.90779 l -4.2262,16.64218 -7.3896,-7.78772 z"
           style="fill:#000000;fill-opacity:1;fill-rule:nonzero;stroke:#ffffff;stroke-width:9.63084983999999980;stroke-linecap:butt;stroke-linejoin:miter;stroke-miterlimit:4;stroke-opacity:0;stroke-dasharray:none"
           inkscape:connector-curvature="0" />
        <path
           id="path2456"
           d="m 1038.3485,1121.3652 c 0,-0.215 0.7878,-2.3752 1.7506,-4.8004 0.9629,-2.4252 2.0892,-5.5606 2.503,-6.9676 0.4138,-1.407 0.9126,-2.5543 1.1086,-2.5496 0.1958,0 1.0791,1.32 1.9627,2.9227 l 1.6065,2.914 -4.4658,4.4359 c -2.456,2.4397 -4.4656,4.26 -4.4656,4.045 l 0,0 z"
           style="fill:#000000;fill-opacity:1;fill-rule:nonzero;stroke:#ffffff;stroke-width:2.40771245999999990;stroke-linecap:butt;stroke-linejoin:miter;stroke-miterlimit:4;stroke-opacity:0;stroke-dasharray:none"
           inkscape:connector-curvature="0" />
        <path
           id="path2458"
           d="m 1144.2878,804.22992 c -9.508,-0.87955 -15.8403,-3.66703 -19.8636,-8.74396 -6.8434,-8.63573 -7.1748,-16.36161 -0.9634,-22.45775 l 2.6421,-2.59301 0.4236,2.50739 c 0.6267,3.7096 2.8946,9.1205 5.4123,12.91372 6.2991,9.49003 16.6455,14.54855 31.1593,15.23427 5.0832,0.24014 7.0727,0.54604 7.0727,1.08743 0,0.93725 -2.4447,1.40646 -11.0286,2.11673 -7.41,0.61313 -7.5311,0.61259 -14.8544,-0.0648 l 0,2e-5 z"
           style="fill:#000000;fill-opacity:1;fill-rule:nonzero;stroke:#ffffff;stroke-width:2.40771245999999990;stroke-linecap:butt;stroke-linejoin:miter;stroke-miterlimit:4;stroke-opacity:0;stroke-dasharray:none"
           inkscape:connector-curvature="0" />
        <path
           id="path2460"
           d="m 1218.6855,804.15703 c -0.156,-0.766 -0.4328,-3.96597 -0.6152,-7.11105 -0.1824,-3.14507 -0.5032,-7.09794 -0.713,-8.78415 l -0.3815,-3.06583 4.7376,-2.5917 c 2.6057,-1.42543 7.9203,-4.56667 11.8103,-6.98054 3.89,-2.41384 7.0726,-4.16267 7.0726,-3.88624 0,0.27643 -0.5694,2.35949 -1.2653,4.62902 -2.9238,9.53512 -10.1078,20.59801 -17.2695,26.59414 -2.9976,2.50977 -3.101,2.5464 -3.376,1.19634 l 0,10e-6 z"
           style="fill:#000000;fill-opacity:1;fill-rule:nonzero;stroke:#ffffff;stroke-width:2.40771245999999990;stroke-linecap:butt;stroke-linejoin:miter;stroke-miterlimit:4;stroke-opacity:0;stroke-dasharray:none"
           inkscape:connector-curvature="0" />
        <path
           id="path2462"
           d="m 310.79694,1104.5269 c -6.15544,-9.4236 -14.83339,-18.3306 -24.88486,-25.5414 l -15.43359,-11.0719 1.35022,-11.8926 c 0.74266,-6.541 4.04282,-17.3757 7.3337,-24.0772 6.09486,-12.4113 31.39044,-44.68853 35.02228,-44.68853 1.09931,0 1.42021,17.06463 0.71307,37.92143 -0.96942,28.5933 -0.29098,44.6528 2.75813,65.2858 2.22405,15.0503 3.71724,27.6274 3.31809,27.9491 -0.39922,0.3217 -4.97886,-5.9264 -10.17706,-13.8847 l 2e-5,0 z"
           style="fill:#000000;fill-opacity:1;fill-rule:nonzero;stroke:#ffffff;stroke-width:9.63084983999999980;stroke-linecap:butt;stroke-linejoin:miter;stroke-miterlimit:4;stroke-opacity:0;stroke-dasharray:none"
           inkscape:connector-curvature="0" />
        <path
           id="path2464"
           d="m 326.55892,1146.1934 c -0.17953,-5.8676 -4.02957,-19.6479 -7.31546,-26.1839 -0.58251,-1.1587 -1.24552,-2.7839 -1.47334,-3.6115 -0.37689,-1.3693 -0.24432,-1.3151 1.47149,0.6019 l 1.8857,2.1067 -0.3067,-6.3202 -0.30669,-6.3203 1.39857,7.5241 c 1.55026,8.3402 4.58069,21.539 6.01178,26.1839 1.07621,3.4931 1.1776,5.6668 0.14037,3.0097 -0.66764,-1.7105 -0.72312,-1.5833 -1.05004,2.4077 l -0.34517,4.2135 -0.11051,-3.6116 z"
           style="fill:#800000;fill-opacity:1;fill-rule:nonzero;stroke:#ffffff;stroke-width:2.40771245999999990;stroke-linecap:butt;stroke-linejoin:miter;stroke-miterlimit:4;stroke-opacity:0;stroke-dasharray:none"
           inkscape:connector-curvature="0" />
        <flowRoot
           style="font-size:32px;font-style:normal;font-variant:normal;font-weight:900;font-stretch:normal;text-align:start;line-height:125%;writing-mode:lr-tb;text-anchor:start;fill:#000000;fill-opacity:1;stroke:none;font-family:Blackoak Std;-inkscape-font-specification:Blackoak Std Heavy"
           id="flowRoot5101"
           xml:space="preserve"><flowRegion
             id="flowRegion5103"><rect
               y="218.5482"
               x="-1632.707"
               height="292.8317"
               width="1469.266"
               id="rect5105" /></flowRegion><flowPara
             id="flowPara5107" /></flowRoot>        <flowRoot
           style="font-size:32px;font-style:normal;font-variant:normal;font-weight:900;font-stretch:normal;text-align:start;line-height:125%;writing-mode:lr-tb;text-anchor:start;fill:#000000;fill-opacity:1;stroke:none;font-family:Blackoak Std;-inkscape-font-specification:Blackoak Std Heavy"
           id="flowRoot5109"
           xml:space="preserve"><flowRegion
             id="flowRegion5111"><rect
               y="283.24356"
               x="-1649.7321"
               height="338.79947"
               width="1333.0652"
               id="rect5113" /></flowRegion><flowPara
             id="flowPara5115" /></flowRoot>      </g>
      <g
         transform="translate(338.17672,6.3312442)"
         inkscape:label="eye"
         id="layer4">
        <path
           transform="matrix(1.7565652,0,0,1.5370584,-297.01425,-501.20694)"
           d="m 531.42857,829.50507 c 0,33.13708 -27.50251,60 -61.42857,60 -33.92606,0 -61.42857,-26.86292 -61.42857,-60 0,-33.13709 27.50251,-60 61.42857,-60 33.92606,0 61.42857,26.86291 61.42857,60 z"
           sodipodi:ry="60"
           sodipodi:rx="61.42857"
           sodipodi:cy="829.50507"
           sodipodi:cx="470"
           id="path2427"
           style="fill:#ffffff;fill-opacity:1;fill-rule:nonzero;stroke:#ffffff;stroke-width:2;stroke-linecap:butt;stroke-linejoin:miter;stroke-miterlimit:4;stroke-opacity:1;stroke-dasharray:none"
           sodipodi:type="arc" />
        <path
           transform="matrix(1.4350586,0,0,1.2490299,-145.95591,-262.66392)"
           d="m 531.42857,829.50507 c 0,33.13708 -27.50251,60 -61.42857,60 -33.92606,0 -61.42857,-26.86292 -61.42857,-60 0,-33.13709 27.50251,-60 61.42857,-60 33.92606,0 61.42857,26.86291 61.42857,60 z"
           sodipodi:ry="60"
           sodipodi:rx="61.42857"
           sodipodi:cy="829.50507"
           sodipodi:cx="470"
           id="path2429"
           style="fill:#000000;fill-opacity:1;fill-rule:nonzero;stroke:#ffffff;stroke-width:2;stroke-linecap:butt;stroke-linejoin:miter;stroke-miterlimit:4;stroke-opacity:1;stroke-dasharray:none"
           sodipodi:type="arc" />
        <path
           sodipodi:nodetypes="ccc"
           id="path2433"
           d="m 412.85714,843.21931 c -74.2857,-128.57142 57.14287,-185.71428 57.14287,-185.71428 137.14285,-45.71428 182.85714,74.28572 182.85714,74.28572"
           style="fill:none;stroke:#ffffff;stroke-width:3;stroke-linecap:butt;stroke-linejoin:miter;stroke-miterlimit:4;stroke-opacity:1;stroke-dasharray:none"
           inkscape:connector-curvature="0" />
      </g>
    </g>
  </g>
</svg>
