<?xml version="1.0" encoding="UTF-8" standalone="no"?>
<!-- Created with Inkscape (http://www.inkscape.org/) -->

<svg
   xmlns:dc="http://purl.org/dc/elements/1.1/"
   xmlns:cc="http://creativecommons.org/ns#"
   xmlns:rdf="http://www.w3.org/1999/02/22-rdf-syntax-ns#"
   xmlns:svg="http://www.w3.org/2000/svg"
   xmlns="http://www.w3.org/2000/svg"
   xmlns:xlink="http://www.w3.org/1999/xlink"
   xmlns:sodipodi="http://sodipodi.sourceforge.net/DTD/sodipodi-0.dtd"
   xmlns:inkscape="http://www.inkscape.org/namespaces/inkscape"
   width="688.45233"
   height="273.18695"
   id="svg2406"
   sodipodi:version="0.32"
   inkscape:version="0.47pre3 "
   version="1.0"
   sodipodi:docname="htg.svg"
   inkscape:output_extension="org.inkscape.output.svg.inkscape"
   inkscape:export-filename="F:\Pictures\SVG\hum_logo - Copy.svg.png"
   inkscape:export-xdpi="81.130402"
   inkscape:export-ydpi="81.130402"
   style="display:inline">
  <defs
     id="defs2408">
    <inkscape:perspective
       sodipodi:type="inkscape:persp3d"
       inkscape:vp_x="0 : 526.18109 : 1"
       inkscape:vp_y="0 : 1000 : 0"
       inkscape:vp_z="744.09448 : 526.18109 : 1"
       inkscape:persp3d-origin="372.04724 : 350.78739 : 1"
       id="perspective2414" />
    <inkscape:perspective
       id="perspective3546"
       inkscape:persp3d-origin="372.04724 : 350.78739 : 1"
       inkscape:vp_z="744.09448 : 526.18109 : 1"
       inkscape:vp_y="0 : 1000 : 0"
       inkscape:vp_x="0 : 526.18109 : 1"
       sodipodi:type="inkscape:persp3d" />
    <inkscape:perspective
       sodipodi:type="inkscape:persp3d"
       inkscape:vp_x="0 : 526.18109 : 1"
       inkscape:vp_y="0 : 1000 : 0"
       inkscape:vp_z="744.09448 : 526.18109 : 1"
       inkscape:persp3d-origin="372.04724 : 350.78739 : 1"
       id="perspective3450" />
    <inkscape:perspective
       id="perspective3448"
       inkscape:persp3d-origin="372.04724 : 350.78739 : 1"
       inkscape:vp_z="744.09448 : 526.18109 : 1"
       inkscape:vp_y="0 : 1000 : 0"
       inkscape:vp_x="0 : 526.18109 : 1"
       sodipodi:type="inkscape:persp3d" />
    <inkscape:perspective
       id="perspective4030"
       inkscape:persp3d-origin="0.5 : 0.33333333 : 1"
       inkscape:vp_z="1 : 0.5 : 1"
       inkscape:vp_y="0 : 1000 : 0"
       inkscape:vp_x="0 : 0.5 : 1"
       sodipodi:type="inkscape:persp3d" />
    <inkscape:perspective
       id="perspective5503"
       inkscape:persp3d-origin="0.5 : 0.33333333 : 1"
       inkscape:vp_z="1 : 0.5 : 1"
       inkscape:vp_y="0 : 1000 : 0"
       inkscape:vp_x="0 : 0.5 : 1"
       sodipodi:type="inkscape:persp3d" />
  </defs>
  <sodipodi:namedview
     id="base"
     pagecolor="#000000"
     bordercolor="#666666"
     borderopacity="1.0"
     gridtolerance="10000"
     guidetolerance="10"
     objecttolerance="10"
     inkscape:pageopacity="0"
     inkscape:pageshadow="2"
     inkscape:zoom="0.83066393"
     inkscape:cx="-25.840568"
     inkscape:cy="237.32652"
     inkscape:document-units="px"
     inkscape:current-layer="layer14"
     showgrid="false"
     inkscape:window-width="1600"
     inkscape:window-height="838"
     inkscape:window-x="1272"
     inkscape:window-y="-8"
     showguides="true"
     inkscape:guide-bbox="true"
     showborder="false"
     inkscape:window-maximized="1" />
  <metadata
     id="metadata2411">
    <rdf:RDF>
      <cc:Work
         rdf:about="">
        <dc:format>image/svg+xml</dc:format>
        <dc:type
           rdf:resource="http://purl.org/dc/dcmitype/StillImage" />
        <dc:title></dc:title>
      </cc:Work>
    </rdf:RDF>
  </metadata>
  <g
     inkscape:groupmode="layer"
     id="layer14"
     inkscape:label="Layer#1">
    <image
       y="-226.84602"
       x="284.82489"
       id="image5505"
       height="480"
       width="320"
       xlink:href="file:///C:/Users/htg/Desktop/GreenTeaHot/inkscape_pasted_image_20110316_004619.png"
       inkscape:export-filename="C:\Airplay SDK\4.3\examples\IwGx\data\splash.png"
       inkscape:export-xdpi="90"
       inkscape:export-ydpi="90" />
  </g>
  <g
     inkscape:groupmode="layer"
     id="layer1"
     inkscape:label="Layer"
     style="display:inline">
    <rect
       style="opacity:0.8;fill:#000000;fill-opacity:1;stroke:none"
       id="rect3007"
       width="295.24576"
       height="462.28082"
       x="-483.3483"
       y="-215.5787" />
    <image
       y="-189.66689"
       x="320.76917"
       id="image4032"
       height="208.2093"
       width="248.11148"
       xlink:href="file:///C:/Users/htg/Desktop/GreenTeaHot/inkscape_pasted_image_20110316_004311.png" />
    <path
       sodipodi:type="arc"
       style="opacity:0.80000000000000004;fill:#000000;fill-opacity:1;stroke:none"
       id="path4036"
       sodipodi:cx="154.0936"
       sodipodi:cy="-54.261959"
       sodipodi:rx="121.58949"
       sodipodi:ry="103.53164"
       d="m 275.68309,-54.261959 a 121.58949,103.53164 0 1 1 -243.178985,0 121.58949,103.53164 0 1 1 243.178985,0 z" />
  </g>
  <g
     inkscape:groupmode="layer"
     id="layer6"
     inkscape:label="Name"
     transform="translate(1047.8961,-396.17315)"
     style="display:inline">
    <flowRoot
       xml:space="preserve"
       id="flowRoot3855"
       style="font-size:32px;font-style:normal;font-variant:normal;font-weight:900;font-stretch:normal;text-align:start;line-height:125%;writing-mode:lr-tb;text-anchor:start;fill:#000000;fill-opacity:1;stroke:none;font-family:Blackoak Std;-inkscape-font-specification:Blackoak Std Heavy"><flowRegion
         id="flowRegion3857"><rect
           id="rect3859"
           width="384.76721"
           height="71.505409"
           x="1065.7711"
           y="297.92178" /></flowRegion><flowPara
         id="flowPara3861" /></flowRoot>  </g>
  <g
     inkscape:groupmode="layer"
     id="layer8"
     inkscape:label="NAME FILL"
     style="display:none"
     transform="translate(-908.38215,-396.17315)" />
  <g
     inkscape:groupmode="layer"
     id="layer2"
     inkscape:label="squid"
     transform="translate(-146.83066,112.00597)"
     style="display:inline">
    <g
       id="g3050"
       transform="translate(34.834213,-56.581246)">
      <g
         id="g3150"
         transform="matrix(0.64910264,0,0,0.64910264,354.4074,67.477987)">
        <g
           style="display:inline"
           id="g3009"
           transform="translate(-759.68392,-602.07991)">
          <g
             transform="translate(55.377389,36.844656)"
             id="g2970">
            <flowRoot
               xml:space="preserve"
               id="flowRoot3228"
               style="font-size:32px;font-style:normal;font-variant:normal;font-weight:900;font-stretch:normal;text-align:start;line-height:125%;writing-mode:lr-tb;text-anchor:start;fill:#ffffff;fill-opacity:1;stroke:#d40000;stroke-width:4.09575605;stroke-linecap:butt;stroke-linejoin:miter;stroke-miterlimit:4;stroke-opacity:1;stroke-dasharray:none;display:inline;font-family:Blackoak Std;-inkscape-font-specification:Blackoak Std Heavy"
               transform="matrix(0.4742241,0,0,0.5300777,1334.3602,11.46289)"
               inkscape:export-filename="F:\Pictures\SVG\path2533.png"
               inkscape:export-xdpi="89.669998"
               inkscape:export-ydpi="89.669998"><flowRegion
                 id="flowRegion3230"><rect
                   id="rect3232"
                   width="746.349"
                   height="49.758869"
                   x="-803.58466"
                   y="1266.9891"
                   style="fill:#ffffff;stroke:#d40000;stroke-width:4.09575605;stroke-linecap:butt;stroke-linejoin:miter;stroke-miterlimit:4;stroke-dasharray:none" /></flowRegion><flowPara
                 id="flowPara3234"
                 style="font-size:62.50372314px;font-style:normal;font-variant:normal;font-weight:normal;font-stretch:normal;text-align:start;line-height:100%;writing-mode:lr-tb;text-anchor:start;stroke:#d40000;stroke-width:4.09575605;stroke-linecap:butt;stroke-linejoin:miter;stroke-miterlimit:4;stroke-dasharray:none;font-family:Wide Latin;-inkscape-font-specification:Wide Latin">H</flowPara></flowRoot>            <path
               style="fill:none;stroke:#009dba;stroke-width:1.61946881;stroke-linecap:butt;stroke-linejoin:round;stroke-miterlimit:4;stroke-opacity:1;stroke-dasharray:none"
               d="m 959.97201,701.63262 2.24031,-1.62281 0,-6.40279 0,-6.40275 -2.1593,-1.42892 c -1.18757,-0.78594 -2.15925,-1.54699 -2.15925,-1.69124 0,-0.1442 3.44851,-0.26222 7.66339,-0.26222 l 7.66344,0 -1.72538,1.7801 c -1.3884,1.4325 -1.72537,2.22632 -1.72537,4.06484 l 0,2.28463 6.88276,-0.15104 6.88273,-0.15109 0.16298,-2.2319 c 0.1469,-2.01236 -0.0378,-2.3973 -1.87745,-3.9137 l -2.04041,-1.68184 8.05684,0 8.05674,0 -2.26561,1.66615 -2.26564,1.66618 0,6.65704 0,6.65706 1.88937,1.16771 c 1.03915,0.64225 1.88938,1.26934 1.88938,1.39357 0,0.12425 -3.32709,0.22593 -7.39351,0.22593 l -7.3935,0 1.72533,-1.78014 c 1.4436,-1.48946 1.72539,-2.19461 1.72539,-4.31859 l 0,-2.53844 -7.01769,0 -7.01771,0 0,2.80448 c 0,2.30807 0.2568,3.07259 1.45055,4.31859 l 1.45059,1.5141 -7.46962,0 -7.46962,0 2.24026,-1.62291 z"
               id="path3812"
               inkscape:export-filename="F:\Pictures\SVG\path2533.png"
               inkscape:export-xdpi="89.669998"
               inkscape:export-ydpi="89.669998" />
          </g>
          <g
             transform="translate(42.959129,40.460427)"
             id="g2981">
            <g
               transform="translate(-1.5048204,0.60192815)"
               id="g2999">
              <flowRoot
                 inkscape:export-ydpi="89.669998"
                 inkscape:export-xdpi="89.669998"
                 inkscape:export-filename="F:\Pictures\SVG\path2533.png"
                 transform="matrix(0.4742241,0,0,0.5300777,1395.3429,7.24519)"
                 style="font-size:32px;font-style:normal;font-variant:normal;font-weight:900;font-stretch:normal;text-align:start;line-height:125%;writing-mode:lr-tb;text-anchor:start;fill:#ffffff;fill-opacity:1;stroke:#d40000;stroke-width:4.09575605;stroke-linecap:butt;stroke-linejoin:miter;stroke-miterlimit:4;stroke-opacity:1;stroke-dasharray:none;display:inline;font-family:Blackoak Std;-inkscape-font-specification:Blackoak Std Heavy"
                 id="flowRoot2465"
                 xml:space="preserve"><flowRegion
                   id="flowRegion2467"><rect
                     style="fill:#ffffff;stroke:#d40000;stroke-width:4.09575605;stroke-linecap:butt;stroke-linejoin:miter;stroke-miterlimit:4;stroke-dasharray:none"
                     y="1266.9891"
                     x="-803.58466"
                     height="58.069447"
                     width="877.99231"
                     id="rect2469" /></flowRegion><flowPara
                   style="font-size:62.50372314px;font-style:normal;font-variant:normal;font-weight:normal;font-stretch:normal;text-align:start;line-height:100%;writing-mode:lr-tb;text-anchor:start;stroke:#d40000;stroke-width:4.09575605;stroke-linecap:butt;stroke-linejoin:miter;stroke-miterlimit:4;stroke-dasharray:none;font-family:Wide Latin;-inkscape-font-specification:Wide Latin"
                   id="flowPara2471">T</flowPara></flowRoot>              <path
                 inkscape:export-ydpi="89.669998"
                 inkscape:export-xdpi="89.669998"
                 inkscape:export-filename="F:\Pictures\SVG\path2533.png"
                 id="path3828"
                 d="m 1024.0249,699.13114 c 0,-0.10806 0.9783,-0.87443 2.174,-1.70305 l 2.1738,-1.50655 -0.1495,-7.33902 -0.1496,-7.33895 -3.1526,-0.16332 c -3.0923,-0.16023 -3.2041,-0.11521 -5.8384,2.3489 -1.4774,1.38174 -2.7456,2.4269 -2.8183,2.32261 -0.073,-0.10426 -0.034,-1.4649 0.087,-3.02364 l 0.22,-2.83409 15.3085,0 15.3081,0 0.341,1.81866 c 0.1879,1.00027 0.2596,2.34296 0.1596,2.98377 -0.1672,1.07093 -0.4071,0.96757 -2.9678,-1.27885 -2.5933,-2.2748 -2.9953,-2.44393 -5.8034,-2.44393 l -3.0166,0 0,7.55413 0,7.55413 2.2403,1.62281 2.2403,1.62293 -8.1785,0 c -4.4978,0 -8.1783,-0.0884 -8.1783,-0.19654 l 0,0 z"
                 style="fill:none;stroke:#009dba;stroke-width:1.61946881;stroke-linecap:butt;stroke-linejoin:round;stroke-miterlimit:4;stroke-opacity:1;stroke-dasharray:none" />
            </g>
          </g>
          <g
             transform="translate(19.368449,31.601228)"
             id="g2992">
            <flowRoot
               xml:space="preserve"
               id="flowRoot2473"
               style="font-size:32px;font-style:normal;font-variant:normal;font-weight:900;font-stretch:normal;text-align:start;line-height:125%;writing-mode:lr-tb;text-anchor:start;fill:#ffffff;fill-opacity:1;stroke:#d40000;stroke-width:4.09575605;stroke-linecap:butt;stroke-linejoin:miter;stroke-miterlimit:4;stroke-opacity:1;stroke-dasharray:none;display:inline;font-family:Blackoak Std;-inkscape-font-specification:Blackoak Std Heavy"
               transform="matrix(0.4742241,0,0,0.5300777,1452.0316,17.45049)"
               inkscape:export-filename="F:\Pictures\SVG\path2533.png"
               inkscape:export-xdpi="89.669998"
               inkscape:export-ydpi="89.669998"><flowRegion
                 id="flowRegion2475"><rect
                   id="rect2477"
                   width="877.99231"
                   height="58.069447"
                   x="-803.58466"
                   y="1266.9891"
                   style="fill:#ffffff;stroke:#d40000;stroke-width:4.09575605;stroke-linecap:butt;stroke-linejoin:miter;stroke-miterlimit:4;stroke-dasharray:none" /></flowRegion><flowPara
                 id="flowPara2479"
                 style="font-size:62.50372314px;font-style:normal;font-variant:normal;font-weight:normal;font-stretch:normal;text-align:start;line-height:100%;writing-mode:lr-tb;text-anchor:start;stroke:#d40000;stroke-width:4.09575605;stroke-linecap:butt;stroke-linejoin:miter;stroke-miterlimit:4;stroke-dasharray:none;font-family:Wide Latin;-inkscape-font-specification:Wide Latin">G</flowPara></flowRoot>            <path
               style="fill:none;stroke:#009dba;stroke-width:1.61946881;stroke-linecap:butt;stroke-linejoin:round;stroke-miterlimit:4;stroke-opacity:1;stroke-dasharray:none"
               d="m 1083.0163,709.63278 c -10.1156,-3.35543 -12.7833,-9.80617 -6.3846,-15.43858 3.4495,-3.03637 7.4548,-4.42756 13.6723,-4.74884 4.528,-0.23401 5.6211,-0.0992 9.3381,1.15185 3.2162,1.08249 4.4585,1.28385 5.2633,0.85311 0.973,-0.52069 1.0534,-0.37615 1.0534,1.89205 l 0,2.45589 -2.0597,-1.36312 c -5.0463,-3.33944 -12.899,-4.53677 -16.8233,-2.5651 -3.0243,1.51945 -4.3297,3.98602 -4.3273,8.17636 0,6.29867 2.6216,8.78755 9.2438,8.78755 4.3863,1e-5 7.1286,-1.25033 7.3704,-3.36061 0.1222,-1.06545 -0.3509,-1.63863 -2.4292,-2.94264 l -2.5808,-1.61943 4.1836,-0.15768 c 2.301,-0.0867 6.0507,-0.0867 8.3327,0 l 4.1492,0.15768 -2.2598,1.49213 c -2.1993,1.45226 -2.2596,1.5718 -2.2596,4.46742 l 0,2.97519 -1.6625,-0.85966 c -1.5288,-0.79054 -1.8654,-0.78627 -4.1837,0.053 -3.3685,1.21941 -14.6089,1.59766 -17.6363,0.59347 l 0,-2e-5 z"
               id="path3848"
               inkscape:export-filename="F:\Pictures\SVG\path2533.png"
               inkscape:export-xdpi="89.669998"
               inkscape:export-ydpi="89.669998" />
          </g>
        </g>
        <g
           style="display:inline"
           id="g3452"
           transform="matrix(0.19290175,0,0,0.18769235,244.54713,6.0481959)"
           inkscape:export-filename="F:\Pictures\SVG\path2533.png"
           inkscape:export-xdpi="89.669998"
           inkscape:export-ydpi="89.669998">
          <g
             transform="translate(-202.19908,-440.64953)"
             style="display:none"
             inkscape:label="photo"
             id="g3454">
            <image
               transform="matrix(0,-1,1,0,0,0)"
               xlink:href="E:\Share\HTG\SVG\scan0001.jpg"
               sodipodi:absref="E:\Share\HTG\SVG\scan0001.jpg"
               width="1700"
               height="2338"
               id="image3548"
               x="-1542.3622"
               y="-703.28571" />
          </g>
          <g
             style="display:inline"
             transform="translate(-202.19908,-440.64953)"
             inkscape:label="base"
             id="layer3">
            <path
               inkscape:export-ydpi="90.044502"
               inkscape:export-xdpi="90.044502"
               inkscape:export-filename="F:\Pictures\SVG\path2433.png"
               id="path3555"
               d="m 668.33724,631.65437 c 118.2343,-4.29942 214.97143,-120.384 214.97143,-120.384 -56.96745,-39.76972 -110.71029,-33.32058 -110.71029,-33.32058"
               style="fill:none;stroke:none;stroke-width:8;marker-start:none" />
            <path
               inkscape:export-ydpi="90.044502"
               inkscape:export-xdpi="90.044502"
               inkscape:export-filename="F:\Pictures\SVG\path2433.png"
               sodipodi:nodetypes="ccc"
               id="path4842"
               d="M 473.7881,639.17837 C 563.00124,500.5218 809.37302,454.47202 809.37302,454.47202 c -1.31041,20.47964 0.0543,26.02301 0.0543,26.02301"
               style="fill:none;stroke:none" />
            <path
               inkscape:export-ydpi="90.044502"
               inkscape:export-xdpi="90.044502"
               inkscape:export-filename="F:\Pictures\SVG\path2433.png"
               sodipodi:nodetypes="cc"
               id="path4848"
               d="M 474.23332,638.73315 C 282.90876,864.45314 471.63838,951.9618 471.63838,951.9618"
               style="fill:none;stroke:none" />
            <path
               inkscape:export-ydpi="90.044502"
               inkscape:export-xdpi="90.044502"
               inkscape:export-filename="F:\Pictures\SVG\path2433.png"
               sodipodi:nodetypes="cc"
               id="path4850"
               d="m 563.69279,937.39249 c -40.77812,32.20143 -92.05441,14.56931 -92.05441,14.56931"
               style="fill:none;stroke:none" />
            <path
               inkscape:export-ydpi="90.044502"
               inkscape:export-xdpi="90.044502"
               inkscape:export-filename="F:\Pictures\SVG\path2433.png"
               sodipodi:nodetypes="ccc"
               id="path4852"
               d="m 477.25401,878.69516 c -40.84458,-54.8177 69.62437,-79.36307 69.62437,-79.36307 39.97583,-12.07385 44.06915,-41.91944 44.06915,-41.91944"
               style="fill:none;stroke:none" />
            <path
               inkscape:export-ydpi="90.044502"
               inkscape:export-xdpi="90.044502"
               inkscape:export-filename="F:\Pictures\SVG\path2433.png"
               sodipodi:nodetypes="cc"
               id="path4858"
               d="m 538.09557,888.77349 c 44.36569,-7.44173 25.89919,-32.08031 25.89919,-32.08031"
               style="fill:none;stroke:none" />
            <path
               inkscape:export-ydpi="90.044502"
               inkscape:export-xdpi="90.044502"
               inkscape:export-filename="F:\Pictures\SVG\path2433.png"
               sodipodi:nodetypes="cc"
               id="path4872"
               d="m 594.17211,768.16122 c -4.29943,30.096 0.9094,54.4389 0.9094,54.4389"
               style="fill:none;stroke:none" />
            <path
               inkscape:export-ydpi="90.044502"
               inkscape:export-xdpi="90.044502"
               inkscape:export-filename="F:\Pictures\SVG\path2433.png"
               sodipodi:nodetypes="ccc"
               id="path4874"
               d="m 624.26811,894.99437 c 44.06913,75.24 94.58742,32.24572 94.58742,32.24572 72.01541,-62.34172 53.28995,-114.10394 53.28995,-114.10394"
               style="fill:none;stroke:none" />
            <path
               inkscape:export-ydpi="90.044502"
               inkscape:export-xdpi="90.044502"
               inkscape:export-filename="F:\Pictures\SVG\path2433.png"
               sodipodi:nodetypes="ccc"
               id="path4876"
               d="m 566.05067,936.40052 c 82.764,126.83308 185.05055,19.86072 185.05055,19.86072 67.716,-77.38971 42.99432,-163.37829 42.99432,-163.37829"
               style="fill:none;stroke:none" />
            <path
               inkscape:export-ydpi="90.044502"
               inkscape:export-xdpi="90.044502"
               inkscape:export-filename="F:\Pictures\SVG\path2433.png"
               sodipodi:nodetypes="ccccccc"
               id="path4878"
               d="m 782.27211,767.43059 c -37.05846,-38.36277 -58.54955,1.46735 -58.54955,1.46735 -24.55868,45.0836 24.15411,49.78158 24.15411,49.78158 55.94692,-2.36707 52.668,-54.81772 52.668,-54.81772 -2.37921,-53.00615 -26.87145,-55.89258 -26.87145,-55.89258 29.02116,66.64115 -9.67368,85.98858 -9.67368,85.98858 -29.47402,7.13757 -13.40554,-15.27748 -13.40554,-15.27748"
               style="fill:none;stroke:none" />
            <path
               inkscape:export-ydpi="90.044502"
               inkscape:export-xdpi="90.044502"
               inkscape:export-filename="F:\Pictures\SVG\path2433.png"
               sodipodi:nodetypes="ccc"
               id="path4880"
               d="m 728.24546,812.06129 c 5.6038,-37.78301 26.41244,-33.89427 26.41244,-33.89427 10.26085,-0.89391 12.97822,13.59859 12.97822,13.59859"
               style="fill:none;stroke:none" />
            <path
               inkscape:export-ydpi="90.044502"
               inkscape:export-xdpi="90.044502"
               inkscape:export-filename="F:\Pictures\SVG\path2433.png"
               sodipodi:nodetypes="cccccc"
               id="path4884"
               d="m 600.62124,735.91552 c -1.07486,38.69485 16.12287,45.144 16.12287,45.144 39.36537,20.2842 40.90041,-26.58914 40.90041,-26.58914 2.32182,-19.68103 -16.17264,-12.62358 -16.17264,-12.62358 -9.22992,4.56961 -2.62386,11.76118 -2.62386,11.76118 4.35635,6.00238 18.89577,2.89044 18.89577,2.89044"
               style="fill:none;stroke:none" />
            <path
               inkscape:export-ydpi="90.044502"
               inkscape:export-xdpi="90.044502"
               inkscape:export-filename="F:\Pictures\SVG\path2433.png"
               sodipodi:nodetypes="ccccc"
               id="path4886"
               d="m 593.34765,812.87086 c 68.97482,21.43067 80.36388,-39.33534 80.36388,-39.33534 5.40249,-64.70832 -31.92547,-49.35145 -31.92547,-49.35145 -36.21598,20.58368 -3.51229,39.00596 -3.51229,39.00596 5.67018,3.84947 17.77167,1.74985 17.77167,1.74985"
               style="fill:none;stroke:none" />
            <path
               inkscape:export-ydpi="90.044502"
               inkscape:export-xdpi="90.044502"
               inkscape:export-filename="F:\Pictures\SVG\path2433.png"
               sodipodi:nodetypes="cc"
               id="path4888"
               d="m 640.78496,742.47484 c 1.63338,14.3113 17.19923,11.68802 17.19923,11.68802"
               style="fill:none;stroke:none" />
            <path
               inkscape:export-ydpi="90.044502"
               inkscape:export-xdpi="90.044502"
               inkscape:export-filename="F:\Pictures\SVG\path2433.png"
               sodipodi:nodetypes="ccc"
               id="path4899"
               d="M 439.89955,674.48416 C 314.14126,767.99672 337.28226,864.73385 337.28226,864.73385 347.93679,958.08822 446.91803,935.8958 446.91803,935.8958"
               style="fill:none;stroke:none" />
            <path
               inkscape:export-ydpi="90.044502"
               inkscape:export-xdpi="90.044502"
               inkscape:export-filename="F:\Pictures\SVG\path2433.png"
               sodipodi:nodetypes="ccccccc"
               id="path4902"
               d="m 441.41609,936.78756 c 38.69486,37.62 6.57544,50.64457 6.57544,50.64457 -35.47029,13.97307 -24.72172,-19.34745 -24.72172,-19.34745 8.59887,-13.97311 23.64687,-8.59888 23.64687,-8.59888 -29.02115,-9.67368 -38.56856,18.20944 -38.56856,18.20944 -11.57152,31.48586 37.49369,30.15916 37.49369,30.15916 52.79431,-7.3971 32.81472,-53.30021 32.81472,-53.30021"
               style="fill:none;stroke:none" />
            <path
               inkscape:export-ydpi="90.044502"
               inkscape:export-xdpi="90.044502"
               inkscape:export-filename="F:\Pictures\SVG\path2433.png"
               sodipodi:nodetypes="ccccc"
               id="path4904"
               d="m 418.97038,690.77152 c -118.23427,-37.62 -75.17479,-126.45313 -75.17479,-126.45313 43.04637,-86.11898 108.49537,-17.38213 108.49537,-17.38213 29.51237,34.71825 -17.19772,68.59526 -17.19772,68.59526 -24.72171,21.49713 -48.43378,1.90008 -48.43378,1.90008"
               style="fill:none;stroke:none" />
            <path
               inkscape:export-ydpi="90.044502"
               inkscape:export-xdpi="90.044502"
               inkscape:export-filename="F:\Pictures\SVG\path2433.png"
               sodipodi:nodetypes="cccc"
               id="path4906"
               d="m 486.30637,621.98065 c -76.31486,40.84457 -100.65656,-5.37428 -100.65656,-5.37428 -16.69847,-48.67219 38.69487,-52.668 38.69487,-52.668 20.10746,6.25354 10.74856,23.64685 10.74856,23.64685"
               style="fill:none;stroke:none" />
            <path
               inkscape:export-ydpi="90.044502"
               inkscape:export-xdpi="90.044502"
               inkscape:export-filename="F:\Pictures\SVG\path2433.png"
               sodipodi:nodetypes="cc"
               id="path4908"
               d="m 424.09506,564.25319 c -19.28223,25.54695 -34.39543,15.36282 -34.39543,15.36282"
               style="fill:none;stroke:none" />
            <path
               inkscape:export-ydpi="90.044502"
               inkscape:export-xdpi="90.044502"
               inkscape:export-filename="F:\Pictures\SVG\path2433.png"
               sodipodi:nodetypes="cc"
               id="path4910"
               d="m 354.59818,546.85986 c -35.47029,-61.26684 -9.47813,-86.86781 -9.47813,-86.86781"
               style="fill:none;stroke:none" />
            <path
               inkscape:export-ydpi="90.044502"
               inkscape:export-xdpi="90.044502"
               inkscape:export-filename="F:\Pictures\SVG\path2433.png"
               sodipodi:nodetypes="cc"
               id="path4912"
               d="m 336.6516,589.47414 c -45.144,-72.01544 8.15364,-129.79692 8.15364,-129.79692"
               style="fill:none;stroke:none" />
            <path
               inkscape:export-ydpi="90.044502"
               inkscape:export-xdpi="90.044502"
               inkscape:export-filename="F:\Pictures\SVG\path2433.png"
               sodipodi:nodetypes="cc"
               id="path4914"
               d="m 529.45726,953.83076 c 33.32057,19.34744 49.26466,0.48327 49.26466,0.48327"
               style="fill:none;stroke:none" />
            <path
               inkscape:export-ydpi="90.044502"
               inkscape:export-xdpi="90.044502"
               inkscape:export-filename="F:\Pictures\SVG\path2433.png"
               sodipodi:nodetypes="ccc"
               id="path4916"
               d="m 492.446,956.42008 c 42.9943,58.04232 94.99314,10.02512 94.99314,10.02512 -41.91942,8.59889 -58.03925,-12.21889 -58.03925,-12.21889"
               style="fill:none;stroke:none" />
            <path
               inkscape:export-ydpi="90.044502"
               inkscape:export-xdpi="90.044502"
               inkscape:export-filename="F:\Pictures\SVG\path2433.png"
               sodipodi:nodetypes="ccc"
               id="path4918"
               d="m 372.0878,926.54445 c -41.09985,100.97275 -98.85595,75.87245 -98.85595,75.87245 -85.2926,-27.31337 -47.73574,-107.48604 -47.73574,-107.48604"
               style="fill:none;stroke:none" />
            <path
               inkscape:export-ydpi="90.044502"
               inkscape:export-xdpi="90.044502"
               inkscape:export-filename="F:\Pictures\SVG\path2433.png"
               sodipodi:nodetypes="cccccccccccc"
               id="path4920"
               d="m 338.35611,883.70837 c 9.13627,81.15175 -59.11715,68.25343 -59.11715,68.25343 -94.24012,-25.19535 -35.47028,-104.26116 -35.47028,-104.26116 29.02113,-37.61999 2.1497,-30.09599 2.1497,-30.09599 -8.96769,4.92908 3.21339,11.31301 3.21339,11.31301 -27.94629,-2.14971 -8.76089,-20.6067 -8.76089,-20.6067 23.97749,-15.93844 32.41893,14.66798 32.41893,14.66798 6.88319,15.42144 -2.57255,29.19439 -2.57255,29.19439 -37.29794,56.67946 14.28304,67.8781 14.28304,67.8781 32.63097,2.15326 15.51863,-25.06775 15.51863,-25.06775 -15.09865,-18.79488 -25.801,-0.4912 -25.801,-0.4912 -7.74929,13.30777 3.51805,23.14431 3.51805,23.14431"
               style="fill:none;stroke:none" />
            <path
               inkscape:export-ydpi="90.044502"
               inkscape:export-xdpi="90.044502"
               inkscape:export-filename="F:\Pictures\SVG\path2433.png"
               sodipodi:nodetypes="cc"
               id="path4924"
               d="m 317.55527,856.48962 c -2.84569,-18.14627 19.60035,-34.96577 19.60035,-34.96577"
               style="fill:none;stroke:none" />
            <path
               inkscape:export-ydpi="90.044502"
               inkscape:export-xdpi="90.044502"
               inkscape:export-filename="F:\Pictures\SVG\path2433.png"
               sodipodi:nodetypes="ccccc"
               id="path4926"
               d="m 326.15449,832.46947 c -53.42782,0.005 -66.26296,-46.03567 -66.26296,-46.03567 -11.1174,-39.20529 19.34743,-61.26685 19.34743,-61.26685 -21.68156,64.1766 14.03834,75.37039 14.03834,75.37039 15.97008,6.86081 19.46665,2.08452 19.46665,2.08452"
               style="fill:none;stroke:none" />
            <path
               inkscape:export-ydpi="90.044502"
               inkscape:export-xdpi="90.044502"
               inkscape:export-filename="F:\Pictures\SVG\path2433.png"
               sodipodi:nodetypes="cccc"
               id="path4928"
               d="m 391.02411,718.7178 c -66.64115,-66.64115 -98.88687,8.59885 -98.88687,8.59885 -18.27256,39.76972 5.37429,61.26687 5.37429,61.26687 22.49562,24.58012 41.98463,24.22247 41.98463,24.22247"
               style="fill:none;stroke:none" />
            <path
               inkscape:export-ydpi="90.044502"
               inkscape:export-xdpi="90.044502"
               inkscape:export-filename="F:\Pictures\SVG\path2433.png"
               sodipodi:nodetypes="cccc"
               id="path4930"
               d="m 365.67275,749.57384 c -10.82496,-30.72565 -32.69094,-13.65832 -32.69094,-13.65832 -16.18805,15.85086 -0.69484,32.44131 -0.69484,32.44131 16.01484,14.13519 20.04227,6.25354 20.04227,6.25354"
               style="fill:none;stroke:none" />
            <path
               inkscape:export-ydpi="90.044502"
               inkscape:export-xdpi="90.044502"
               inkscape:export-filename="F:\Pictures\SVG\path2433.png"
               sodipodi:nodetypes="ccc"
               id="path4932"
               d="m 741.62313,471.18584 c -83.83886,-16.12286 -102.30702,2.46453 -102.30702,2.46453 -21.09476,32.48415 -22.76761,47.1093 -22.76761,47.1093"
               style="fill:none;stroke:none" />
            <path
               inkscape:export-ydpi="90.044502"
               inkscape:export-xdpi="90.044502"
               inkscape:export-filename="F:\Pictures\SVG\path2433.png"
               sodipodi:nodetypes="cccccccccccccccc"
               id="path4934"
               d="m 564.30255,856.75243 c -23.02187,-13.29382 -34.62187,1.52771 -34.62187,1.52771 -15.67604,20.63961 13.97313,34.5645 13.97313,34.5645 59.05674,20.25924 95.27587,-59.6304 95.27587,-59.6304 19.95726,-33.9365 55.03506,-21.09861 55.03506,-21.09861 48.71284,16.56363 7.57833,61.26683 7.57833,61.26683 -21.08645,22.97062 -38.40497,2.10145 -38.40497,2.10145 -7.92862,-15.15058 15.88731,-28.35087 15.88731,-28.35087 -14.52257,30.73008 8.77401,15.10228 8.77401,15.10228 27.5538,-23.98501 -1.75117,-35.01733 -1.75117,-35.01733 -27.62941,-9.07758 -56.40587,59.17754 -56.40587,59.17754 -29.32018,49.27952 -58.47666,49.46559 -58.47666,49.46559 -72.26584,13.86237 -89.85361,-36.56732 -89.85361,-36.56732 -18.33903,-55.16348 32.40752,-81.02652 32.40752,-81.02652 49.39237,-27.94627 82.60218,6.86137 82.60218,6.86137 24.72172,31.17088 7.80782,53.85762 7.80782,53.85762"
               style="fill:none;stroke:none" />
            <path
               inkscape:export-ydpi="90.044502"
               inkscape:export-xdpi="90.044502"
               inkscape:export-filename="F:\Pictures\SVG\path2433.png"
               sodipodi:nodetypes="cc"
               id="path4936"
               d="m 338.57745,884.18264 c -7.71767,-40.68716 -66.42012,-35.47028 -66.42012,-35.47028"
               style="fill:none;stroke:none" />
            <path
               inkscape:export-ydpi="90.044502"
               inkscape:export-xdpi="90.044502"
               inkscape:export-filename="F:\Pictures\SVG\path2433.png"
               sodipodi:nodetypes="cc"
               id="path4938"
               d="m 602.24461,756.31564 c 73.09028,-113.93485 106.0906,-130.9043 106.0906,-130.9043"
               style="fill:none;stroke:none" />
            <path
               inkscape:export-ydpi="90.044502"
               inkscape:export-xdpi="90.044502"
               inkscape:export-filename="F:\Pictures\SVG\path2433.png"
               sodipodi:nodetypes="ccc"
               id="path3190"
               d="m 673.41071,748.67134 c 7.81236,-4.18924 11.18961,-6.92935 11.18961,-6.92935 -1.92479,12.34128 -10.19004,16.4173 -10.19004,16.4173"
               style="fill:none;stroke:none" />
            <path
               inkscape:export-ydpi="90.044502"
               inkscape:export-xdpi="90.044502"
               inkscape:export-filename="F:\Pictures\SVG\path2433.png"
               id="path3193"
               d="M 546.76389,887.2267 C 539.07807,860.96685 541.64,851.3596 541.64,851.3596"
               style="fill:none;stroke:none" />
            <path
               inkscape:export-ydpi="90.044502"
               inkscape:export-xdpi="90.044502"
               inkscape:export-filename="F:\Pictures\SVG\path2433.png"
               id="path3195"
               d="m 611.8417,872.83306 c -3.17024,-4.52892 -2.71735,-6.79338 -2.71735,-6.79338"
               style="fill:none;stroke:none" />
          </g>
          <g
             style="display:inline"
             transform="translate(-540.3758,-446.98077)"
             inkscape:label="fill"
             id="g3494">
            <path
               inkscape:export-ydpi="90.044502"
               inkscape:export-xdpi="90.044502"
               inkscape:export-filename="F:\Pictures\SVG\path2433.png"
               id="path2423"
               d="m 828.69236,961.01165 c -10.98197,-1.42662 -18.47332,-3.66757 -24.90898,-7.45131 -22.8738,-13.44817 -44.63973,-34.87179 -57.35101,-56.44909 -17.85313,-30.30584 -22.77442,-67.48678 -14.08491,-106.41512 9.12821,-40.89351 32.98856,-85.27225 71.83211,-133.60276 4.80462,-5.97817 10.72181,-13.72261 13.14914,-17.20985 20.95227,-30.10085 50.58136,-57.69483 89.26085,-83.12994 18.17261,-11.95007 32.38079,-19.96257 56.05739,-31.61296 42.95085,-21.13451 87.62945,-37.89026 138.23275,-51.84112 10.688,-2.94658 45.2129,-11.37967 45.3432,-11.07558 0.03,0.0695 -0.1164,5.16714 -0.325,11.32803 l -0.3791,11.20158 -4.6568,-0.57334 c -2.5611,-0.31537 -10.4651,-0.82677 -17.5642,-1.13647 -11.1116,-0.48473 -12.9074,-0.37433 -12.9074,0.79361 0,1.128 2.481,1.4446 14.719,1.87825 22.1509,0.78489 40.4378,4.99908 62.4161,14.38362 10.6002,4.52612 30.7118,15.86876 31.3078,17.65715 0.4371,1.31093 -14.9312,17.34871 -29.187,30.4587 -56.976,52.39632 -119.0384,83.55508 -175.4951,88.10816 -5.4595,0.44027 -7.9256,0.99649 -7.9256,1.78741 0,1.34567 5.8392,1.0571 21.1637,-1.0458 5.4128,-0.74277 10.008,-1.18399 10.2115,-0.9805 0.2036,0.20353 -2.316,2.72818 -5.5988,5.6104 -17.6163,15.46628 -48.28432,54.09134 -77.51678,97.62931 -14.61436,21.76611 -14.34568,21.59733 -14.36934,9.02682 -0.01,-5.22791 -0.28948,-6.56693 -1.37106,-6.56693 -1.61601,0 -1.67055,1.72275 -0.42809,13.51959 1.71375,16.27168 7.11591,27.98994 14.94279,32.41303 9.18244,5.18915 20.69096,7.10004 26.95386,4.47552 7.64965,-3.20558 13.01148,-11.31614 15.52459,-23.48279 3.34335,-16.18649 0.57474,-22.49589 -9.91304,-22.59014 -9.31027,-0.0836 -14.65006,6.09281 -10.98211,12.70276 2.22493,4.00946 5.91959,5.59414 13.05799,5.6006 l 6.58413,0.006 -0.60963,2.4909 c -0.79928,3.2659 -1.78537,3.82697 -6.67116,3.79595 -11.23243,-0.0714 -22.64456,-9.97078 -22.64456,-19.643 0,-4.98483 1.56156,-7.99579 6.49735,-12.52837 5.59006,-5.13331 9.62812,-7.37711 14.59666,-8.11079 10.26203,-1.51536 18.6834,4.30814 22.4057,15.49385 2.3648,7.10622 3.4492,19.53216 2.6265,30.0973 -1.4525,18.65295 -16.29679,37.65901 -34.24126,43.84152 -8.00261,2.75714 -24.99135,2.92662 -36.05701,0.35965 l -7.41501,-1.72013 -0.63785,-5.95591 c -0.71944,-6.7178 0.0239,-34.14141 0.99129,-36.57225 0.43507,-1.09312 0.20145,-1.58512 -0.75259,-1.58512 -1.03162,0 -1.57056,1.55533 -2.11863,6.11402 -0.94166,7.83071 -0.73188,32.36279 0.34446,40.30728 0.45563,3.36271 0.71791,6.11403 0.58285,6.11403 -0.13512,0 -2.06416,-1.22736 -4.28686,-2.72744 -11.18458,-7.54844 -23.10974,-11.18591 -36.80968,-11.22794 -12.78275,-0.0392 -21.01296,2.01547 -34.18729,8.53487 -12.38601,6.12929 -21.3518,13.23643 -28.1506,22.31501 -7.58392,10.12673 -10.55289,17.37532 -13.48554,32.92347 l -0.76882,4.07602 -2.68275,-5.4347 c -2.37205,-4.80535 -2.68266,-6.3787 -2.68219,-13.58672 5.4e-4,-7.21161 0.29918,-8.72111 2.58854,-13.08522 8.32512,-15.86943 30.24304,-28.75491 68.69528,-40.38567 18.72458,-5.66368 26.42798,-9.75217 35.68932,-18.94166 5.22745,-5.18689 8.2716,-9.12926 10.5299,-13.63668 3.89069,-7.76563 5.03478,-12.22805 3.13508,-12.22805 -0.74789,0 -1.55956,1.21065 -1.87749,2.80013 -0.30797,1.54008 -1.61374,4.90277 -2.90168,7.47269 -7.76101,15.48601 -21.24446,25.24689 -43.99362,31.84766 -47.36314,13.7426 -72.83017,32.0543 -74.80061,53.7841 -0.58813,6.48622 1.31238,13.44057 5.73568,20.98775 2.02605,3.45698 3.50112,7.41727 3.96804,10.65353 1.97768,13.70816 6.23305,23.08258 14.64531,32.26303 13.30801,14.5234 29.51598,21.185 53.56711,22.01647 l 13.40366,0.46341 -3.33445,2.26585 c -5.72417,3.88968 -16.55842,8.449 -25.62973,10.78572 -9.71079,2.50144 -28.41826,3.53057 -39.0563,2.14863 l 0,0 z m 63.8576,-173.39847 c 8.44822,-2.33149 13.49053,-5.25059 19.55718,-11.322 7.30666,-7.3126 9.88071,-13.23431 9.88071,-22.73209 0,-9.54526 -2.56571,-15.40989 -9.99955,-22.85703 -8.72195,-8.73752 -18.02415,-12.44695 -31.2135,-12.44695 -13.33474,0 -22.38621,3.60402 -31.18253,12.41598 -7.46708,7.48029 -10.03052,13.32976 -10.03052,22.888 0,9.54525 2.5657,15.40989 9.99954,22.85702 8.75764,8.77325 17.41077,12.25491 30.76061,12.37671 4.23453,0.0387 9.73717,-0.49219 12.22806,-1.17963 l 0,-10e-6 z m -54.79978,-8.72235 c 0,-0.51472 -0.96267,-2.85843 -2.13918,-5.20821 -4.16406,-8.31634 -5.50907,-13.81874 -5.47247,-22.38799 0.0419,-9.79603 2.12949,-15.95651 7.94497,-23.44566 7.63665,-9.83455 17.83847,-16.67547 28.3776,-19.02894 7.95267,-1.77589 20.83206,-1.86929 27.11383,-0.19664 11.67191,3.10783 23.01193,12.09356 29.66453,23.50575 1.93385,3.31742 3.86995,6.03166 4.30247,6.03166 1.13729,0 1.0055,-0.54719 -1.15352,-4.79143 -6.42725,-12.63462 -18.29706,-22.54788 -31.94311,-26.67771 -9.31696,-2.81967 -29.53817,-1.15133 -38.1266,3.14562 -5.84764,2.92569 -15.77264,11.21354 -19.72494,16.47123 -10.38985,13.82148 -11.44835,29.49312 -3.20193,47.40422 2.54153,5.52038 4.35835,7.67879 4.35835,5.17813 l 0,-3e-5 z"
               style="fill:#ffffff;fill-opacity:1;fill-rule:nonzero;stroke:#ffffff;stroke-width:3.62312579;stroke-linecap:butt;stroke-linejoin:miter;stroke-miterlimit:4;stroke-opacity:0;stroke-dasharray:none" />
            <path
               inkscape:export-ydpi="90.044502"
               inkscape:export-xdpi="90.044502"
               inkscape:export-filename="F:\Pictures\SVG\path2433.png"
               id="path2425"
               d="m 751.24805,942.82976 c -20.0473,-1.38171 -38.52504,-8.67243 -50.62973,-19.97687 -13.37867,-12.4942 -19.85108,-26.14146 -23.80029,-50.18354 -1.79128,-10.90502 -1.97272,-30.68671 -0.37382,-40.76016 8.29977,-52.29065 39.25129,-99.88923 92.69302,-142.54715 5.35543,-4.27477 9.73715,-8.08708 9.73715,-8.47179 0,-1.84467 -3.03979,-0.0377 -11.77515,6.99968 -5.23089,4.21411 -9.83425,7.67036 -10.22963,7.68057 -1.87044,0.0483 -19.31244,-7.05922 -27.8132,-11.33373 -23.90591,-12.02091 -40.3042,-28.54304 -48.28742,-48.65208 -8.34192,-21.01263 -6.15862,-49.49171 5.37532,-70.11633 8.24183,-14.73774 19.39408,-26.56917 30.08442,-31.91654 7.62749,-3.81535 13.56254,-4.92504 23.5774,-4.4083 14.50891,0.74861 27.78232,6.60264 42.51567,18.75081 11.48748,9.47188 16.41067,18.44357 16.43114,29.94315 0.0208,11.74823 -5.9729,23.36323 -18.46852,35.78893 -8.44432,8.39718 -15.3462,13.21777 -22.07607,15.41897 -8.94468,2.92569 -24.37684,0.33789 -31.20552,-5.23278 -1.97226,-1.60894 -2.81028,-3.49252 -3.93227,-8.83808 -1.77357,-8.45045 -1.13305,-16.03922 1.87306,-22.19164 l 2.21292,-4.52891 7.96968,-0.0109 c 9.91931,-0.0135 13.36782,-1.64317 22.00045,-10.3965 l 6.08232,-6.16744 2.87567,1.39273 c 6.42481,3.1116 9.44441,9.92416 7.40948,16.71629 -1.15912,3.86867 -0.71349,5.37474 1.06421,3.59703 0.59862,-0.59865 1.23856,-3.83231 1.42199,-7.18588 0.28676,-5.24432 0.0333,-6.54095 -1.81175,-9.26763 -2.83247,-4.18594 -10.16206,-8.18723 -13.83644,-7.55348 -18.94324,3.26733 -32.85523,11.62664 -37.8441,22.7393 -2.92364,6.51224 -3.28173,19.01794 -0.78045,27.25287 1.60606,5.28766 2.77154,7.1857 7.12635,11.60574 9.88796,10.03611 23.05838,15.00205 39.62395,14.94037 13.84343,-0.0515 27.40063,-3.25708 43.33322,-10.24601 3.40793,-1.49487 6.37353,-2.54065 6.5902,-2.32393 0.52988,0.52996 -8.48056,13.03591 -15.61658,21.67466 -51.68207,62.56567 -79.87498,128.19548 -76.95927,179.15241 2.26065,39.50979 17.44526,71.56268 46.93098,99.06564 l 9.15536,8.53968 -7.16988,0.56249 c -3.94342,0.30946 -8.80021,0.68634 -10.79292,0.83757 -1.99272,0.15131 -7.69915,-0.006 -12.68095,-0.34926 z"
               style="fill:#ffffff;fill-opacity:1;fill-rule:nonzero;stroke:#ffffff;stroke-width:3.62312579;stroke-linecap:butt;stroke-linejoin:miter;stroke-miterlimit:4;stroke-opacity:0;stroke-dasharray:none" />
            <path
               inkscape:export-ydpi="90.044502"
               inkscape:export-xdpi="90.044502"
               inkscape:export-filename="F:\Pictures\SVG\path2433.png"
               id="path2428"
               d="m 671.39327,587.12992 c -14.28042,-26.25205 -17.12515,-56.02505 -7.96226,-83.33294 2.62354,-7.81884 9.13707,-21.66156 10.62545,-22.58142 0.61514,-0.38014 0.73586,-0.007 0.33552,1.03586 -0.34393,0.89636 -0.86746,5.14115 -1.16333,9.43285 -0.99821,14.47958 3.52996,32.50879 12.84567,51.14596 l 4.91295,9.82891 -4.94206,8.28672 c -5.12167,8.58791 -7.65221,14.81148 -10.27829,25.27828 l -1.53601,6.12221 -2.83764,-5.21643 z"
               style="fill:#ffffff;fill-opacity:1;fill-rule:nonzero;stroke:#ffffff;stroke-width:3.62312579;stroke-linecap:butt;stroke-linejoin:miter;stroke-miterlimit:4;stroke-opacity:0;stroke-dasharray:none" />
            <path
               inkscape:export-ydpi="90.044502"
               inkscape:export-xdpi="90.044502"
               inkscape:export-filename="F:\Pictures\SVG\path2433.png"
               id="path2430"
               d="m 956.90019,523.2542 c 4.43626,-14.78816 19.44578,-41.79519 24.75366,-44.54002 9.7809,-5.05793 31.31625,-7.5514 52.28825,-6.05421 13.5502,0.9673 39.2357,4.25834 40.1175,5.14011 0.6317,0.63162 0.466,0.69403 -15.2987,5.7618 -27.3642,8.79652 -63.9006,23.31654 -89.95673,35.7498 -11.17671,5.33317 -12.44744,5.75406 -11.90398,3.94252 z"
               style="fill:#ffffff;fill-opacity:1;fill-rule:nonzero;stroke:#ffffff;stroke-width:3.62312579;stroke-linecap:butt;stroke-linejoin:miter;stroke-miterlimit:4;stroke-opacity:0;stroke-dasharray:none" />
            <path
               inkscape:export-ydpi="90.044502"
               inkscape:export-xdpi="90.044502"
               inkscape:export-filename="F:\Pictures\SVG\path2433.png"
               id="path2432"
               d="m 670.14103,816.57143 c -9.87707,-2.7267 -21.36383,-10.2731 -31.30791,-20.56821 -7.03271,-7.28094 -10.32514,-12.89811 -12.51619,-21.35368 -6.96647,-26.88444 12.18947,-63.89997 38.08253,-73.5878 6.58939,-2.46542 17.84387,-2.68445 25.37899,-0.49393 10.53238,3.06184 22.42328,10.33273 32.70252,19.99652 l 4.74685,4.46264 -6.40179,7.69915 c -3.52101,4.23452 -8.48324,10.65425 -11.02716,14.26605 -2.54394,3.6118 -4.86187,6.56692 -5.151,6.56692 -0.2891,0 -1.496,-2.0438 -2.68195,-4.54175 -4.49316,-9.46387 -12.4754,-13.85857 -21.68089,-11.93667 -13.6417,2.84812 -20.5562,15.80581 -15.83232,29.66965 2.65703,7.7979 14.65015,17.60533 21.52884,17.60533 l 2.23397,0 -2.58653,6.11403 c -2.06889,4.89036 -5.44557,15.0619 -8.72019,26.26766 -0.3951,1.35206 -1.35426,1.32855 -6.76779,-0.16593 l 2e-5,2e-5 z"
               style="fill:#ffffff;fill-opacity:1;fill-rule:nonzero;stroke:#ffffff;stroke-width:3.62312579;stroke-linecap:butt;stroke-linejoin:miter;stroke-miterlimit:4;stroke-opacity:0;stroke-dasharray:none" />
            <path
               inkscape:export-ydpi="90.044502"
               inkscape:export-xdpi="90.044502"
               inkscape:export-filename="F:\Pictures\SVG\path2433.png"
               id="path2434"
               d="m 653.42364,836.76814 c -17.75712,-2.23896 -33.63351,-11.34932 -43.89108,-25.18602 -17.00939,-22.9444 -16.81294,-49.14493 0.53216,-70.97367 2.29506,-2.88837 4.28083,-5.13015 4.41281,-4.98181 0.13196,0.14832 -0.77589,4.14193 -2.01747,8.87463 -1.89729,7.23218 -2.27665,10.84466 -2.37783,22.64453 -0.11263,13.12774 0.0332,14.43567 2.24428,20.13725 4.40283,11.35327 11.3441,18.12775 22.63405,22.09019 5.3449,1.87592 7.76089,2.2519 12.03088,1.87235 4.46819,-0.39717 5.87703,-0.14463 8.60494,1.5424 4.7704,2.95018 11.96681,5.83709 16.26303,6.52409 3.42591,0.54783 3.75588,0.83689 3.75588,3.29023 0,2.0878 -1.35071,4.08875 -6.03617,8.94205 -3.949,4.09045 -6.68951,6.21277 -7.92559,6.13782 -1.03918,-0.063 -4.74262,-0.47435 -8.22989,-0.91404 l 0,0 z"
               style="fill:#ffffff;fill-opacity:1;fill-rule:nonzero;stroke:#ffffff;stroke-width:3.62312579;stroke-linecap:butt;stroke-linejoin:miter;stroke-miterlimit:4;stroke-opacity:0;stroke-dasharray:none" />
            <path
               inkscape:export-ydpi="90.044502"
               inkscape:export-xdpi="90.044502"
               inkscape:export-filename="F:\Pictures\SVG\path2433.png"
               id="path2436"
               d="m 621.26841,957.31737 c -9.39581,-0.95938 -23.66443,-6.5434 -33.60256,-13.15022 -21.11207,-14.03528 -27.4789,-35.54015 -18.48631,-62.44 2.80879,-8.40209 8.46336,-18.95517 17.04648,-31.81387 9.99775,-14.97798 12.05042,-20.59284 9.01481,-24.65871 -1.58033,-2.11665 -2.41902,-2.4032 -7.03345,-2.4032 -4.68582,0 -5.43955,0.26839 -7.1363,2.54098 -1.82811,2.44854 -1.84021,2.64016 -0.33287,5.26653 1.55292,2.70589 1.54959,2.72117 -0.46509,2.12005 -3.52417,-1.05149 -6.05811,-3.08352 -6.61574,-5.30529 -0.62974,-2.50901 2.01138,-8.18103 5.18996,-11.14595 4.84056,-4.51521 13.6551,-6.13704 18.82481,-3.46367 3.9645,2.05014 8.72151,8.18408 11.5069,14.83759 2.09014,4.99283 2.51837,7.33193 2.51138,13.71828 -0.009,8.41499 0.51597,6.98449 -9.64353,26.26767 -6.4512,12.24467 -8.31601,19.2377 -7.77241,29.14692 0.68946,12.56801 6.41712,20.684 19.06471,27.01432 6.08869,3.04745 8.11238,3.61953 12.78945,3.61528 7.48919,-0.007 11.48119,-1.25341 14.66555,-4.57975 2.33067,-2.43449 2.65914,-3.43184 2.61244,-7.9313 -0.0883,-8.50724 -5.5001,-17.93621 -12.35611,-21.52798 -3.13465,-1.64222 -9.17806,-1.64399 -12.31799,-0.004 -7.66557,4.00468 -12.14454,15.08404 -9.21394,22.79208 1.4868,3.91048 0.2365,3.7375 -4.16241,-0.57605 -10.98538,-10.77215 -12.00235,-25.05093 -3.1017,-43.54853 1.35217,-2.81014 3.97118,-7.59947 5.82,-10.64297 l 3.36151,-5.53359 5.4793,0 c 8.11813,0 23.6805,2.52953 30.26379,4.91915 18.32766,6.65257 27.07568,17.36092 28.43808,34.81069 1.27981,16.39231 -1.02866,30.02866 -6.86801,40.56956 -8.46274,15.27666 -26.41494,23.25654 -47.48075,21.10551 l 0,7e-5 z"
               style="fill:#ffffff;fill-opacity:1;fill-rule:nonzero;stroke:#ffffff;stroke-width:3.62312579;stroke-linecap:butt;stroke-linejoin:miter;stroke-miterlimit:4;stroke-opacity:0;stroke-dasharray:none" />
            <path
               inkscape:export-ydpi="90.044502"
               inkscape:export-xdpi="90.044502"
               inkscape:export-filename="F:\Pictures\SVG\path2433.png"
               id="path2438"
               d="m 617.19239,1009.2682 c -4.40006,-1.0125 -17.71656,-6.1929 -23.09742,-8.9853 -8.35471,-4.33572 -17.84349,-11.81524 -22.93437,-18.07794 -5.49306,-6.75739 -10.89222,-17.91879 -12.76227,-26.38253 -2.77423,-12.55628 -1.30104,-32.82414 3.34297,-45.99076 l 1.26902,-3.59787 0.50666,5.40942 c 1.85993,19.85783 17.94719,35.88332 45.52338,45.34852 13.58129,4.66164 30.62609,3.80465 43.39231,-2.18167 17.66189,-8.28196 26.62948,-27.16244 25.73542,-54.18361 l -0.36369,-10.9915 2.77473,7.36836 c 5.01844,13.32681 13.4025,24.77713 23.40377,31.96316 2.5814,1.85473 4.85119,3.48737 5.04402,3.62799 0.96219,0.7018 -16.11689,32.66042 -21.40118,40.04613 -13.62359,19.04141 -29.9393,31.7231 -46.10799,35.8382 -5.20178,1.3239 -19.92617,1.8018 -24.32536,0.7894 l 0,0 z"
               style="fill:#ffffff;fill-opacity:1;fill-rule:nonzero;stroke:#ffffff;stroke-width:3.62312579;stroke-linecap:butt;stroke-linejoin:miter;stroke-miterlimit:4;stroke-opacity:0;stroke-dasharray:none" />
            <path
               inkscape:export-ydpi="90.044502"
               inkscape:export-xdpi="90.044502"
               inkscape:export-filename="F:\Pictures\SVG\path2433.png"
               id="path2440"
               d="m 767.38663,1011.2512 c -15.58461,-3.3877 -21.99863,-9.7948 -20.85907,-20.83623 1.08894,-10.55096 10.91586,-22.50177 20.11877,-24.46735 l 2.71735,-0.5804 -2.74724,1.84842 c -5.29466,3.56239 -6.93557,6.86701 -7.41599,14.93485 -0.397,6.66854 -0.23451,7.66312 1.71926,10.52168 3.12504,4.57204 5.63604,5.6042 12.51999,5.14672 8.39153,-0.55784 15.95397,-3.64625 20.56395,-8.39832 9.13969,-9.42142 7.18901,-22.53734 -5.73233,-38.54202 -6.09727,-7.55228 -5.85679,-9.03391 0.66286,-4.08342 6.29763,4.78188 19.02376,12.10484 23.14127,13.31598 3.5839,1.05411 3.84032,1.37117 5.38188,6.65054 2.27324,7.78523 2.08936,18.57048 -0.42817,25.11034 -6.02092,15.64031 -27.77515,24.13271 -49.64263,19.37921 l 10e-5,0 z"
               style="fill:#ffffff;fill-opacity:1;fill-rule:nonzero;stroke:#ffffff;stroke-width:3.62312579;stroke-linecap:butt;stroke-linejoin:miter;stroke-miterlimit:4;stroke-opacity:0;stroke-dasharray:none" />
            <path
               inkscape:export-ydpi="90.044502"
               inkscape:export-xdpi="90.044502"
               inkscape:export-filename="F:\Pictures\SVG\path2433.png"
               id="path2442"
               d="m 867.28608,988.58946 c -10.40679,-2.85743 -23.16654,-11.39526 -30.55753,-20.44671 l -3.286,-4.02428 10.07936,-0.0439 c 5.54374,-0.0241 13.02486,-0.56098 16.6249,-1.193 l 6.54543,-1.14914 3.87104,3.13924 c 9.38744,7.61278 20.41415,10.79649 37.34249,10.78173 11.69952,-0.0102 11.72642,-0.005 9.5107,1.70954 -4.08707,3.16338 -18.45937,9.72572 -24.4715,11.17342 -7.11119,1.71238 -19.52213,1.73815 -25.65897,0.0532 l 8e-5,0 z"
               style="fill:#ffffff;fill-opacity:1;fill-rule:nonzero;stroke:#ffffff;stroke-width:3.62312579;stroke-linecap:butt;stroke-linejoin:miter;stroke-miterlimit:4;stroke-opacity:0;stroke-dasharray:none" />
            <path
               inkscape:export-ydpi="90.044502"
               inkscape:export-xdpi="90.044502"
               inkscape:export-filename="F:\Pictures\SVG\path2433.png"
               id="path2444"
               d="m 893.45575,972.39584 c -5.57283,-1.11837 -14.34677,-4.16137 -13.74199,-4.76608 0.18587,-0.18591 2.94624,0.33099 6.13423,1.1487 9.83108,2.52159 21.24773,0.71048 28.44072,-4.5117 l 2.71734,-1.97279 4.33055,4.66496 4.33063,4.66488 -6.85848,1.0201 c -8.54415,1.27081 -18.25821,1.17578 -25.353,-0.24807 z"
               style="fill:#ffffff;fill-opacity:1;fill-rule:nonzero;stroke:#ffffff;stroke-width:3.62312579;stroke-linecap:butt;stroke-linejoin:miter;stroke-miterlimit:4;stroke-opacity:0;stroke-dasharray:none" />
            <path
               inkscape:export-ydpi="90.044502"
               inkscape:export-xdpi="90.044502"
               inkscape:export-filename="F:\Pictures\SVG\path2433.png"
               id="path2446"
               d="m 876.08403,942.8011 c -21.47735,-2.05692 -39.59244,-12.38207 -50.43255,-28.74531 -6.08695,-9.18835 -8.21888,-17.18843 -8.25322,-30.96995 -0.0315,-12.67309 0.90207,-17.1338 5.56675,-26.59851 11.92227,-24.19019 39.77306,-41.26353 67.40202,-41.31938 9.90508,-0.02 19.51986,2.40372 28.90529,7.28657 12.27225,6.3847 18.85429,13.66345 24.1639,26.72163 2.28481,5.61926 2.54924,7.33639 2.50195,16.24695 -0.0796,14.96505 -2.52696,19.32659 -15.06714,26.85105 -10.3385,6.20339 -17.6468,8.26165 -29.71614,8.36909 -10.17619,0.0906 -19.88073,-1.69718 -21.25145,-3.91492 -0.2808,-0.45445 1.83838,-1.47945 4.70924,-2.27782 11.00343,-3.05997 19.04905,-8.31067 21.13298,-13.79171 1.44462,-3.8 0.97371,-11.22874 -0.96213,-15.17618 -1.4459,-2.94831 -2.77313,-4.09922 -6.65586,-5.77192 -13.94061,-6.0054 -28.26173,-2.5094 -33.59952,8.20202 -4.30272,8.6344 -2.7177,15.66896 5.35399,23.76163 6.69618,6.71354 11.83195,9.2986 21.93912,11.04282 9.24494,1.59539 18.4235,0.70154 28.39126,-2.76488 20.15598,-7.00955 40.04921,-27.02734 56.62446,-56.97887 8.19665,-14.81119 19.50357,-23.16072 34.04082,-25.13703 14.0793,-1.91408 29.2156,3.01136 38.0979,12.39724 8.5332,9.01698 7.0348,23.69661 -4.1318,40.479 -8.4654,12.72267 -16.1664,18.20357 -25.5154,18.15963 -9.3495,-0.044 -18.5618,-6.52857 -18.5144,-13.03267 0.029,-3.99696 3.5802,-10.29599 8.3108,-14.74218 2.5313,-2.37912 4.754,-4.17405 4.9394,-3.98866 0.1854,0.18539 -0.2797,1.81317 -1.0336,3.61728 -1.5264,3.65327 -1.785,9.43291 -0.5118,11.44524 0.4822,0.76234 2.1248,1.27679 3.9143,1.22607 9.1819,-0.26029 22.3153,-14.07394 22.3805,-23.54 0.064,-9.19749 -9.5426,-17.82256 -19.9072,-17.87434 -7.2044,-0.036 -12.6467,2.92917 -21.35478,11.63462 -8.76444,8.76195 -17.2008,21.33095 -26.2986,39.18134 -3.67231,7.2054 -8.70989,16.02597 -11.19454,19.60123 -12.17353,17.51669 -27.3991,31.02051 -40.50392,35.92368 -9.18744,3.43742 -30.93734,5.67753 -43.47063,4.47724 l 0,0 z"
               style="fill:#ffffff;fill-opacity:1;fill-rule:nonzero;stroke:#ffffff;stroke-width:3.62312579;stroke-linecap:butt;stroke-linejoin:miter;stroke-miterlimit:4;stroke-opacity:0;stroke-dasharray:none" />
            <path
               inkscape:export-ydpi="90.044502"
               inkscape:export-xdpi="90.044502"
               inkscape:export-filename="F:\Pictures\SVG\path2433.png"
               id="path2448"
               d="m 885.31367,890.10565 c -2.54923,-7.47678 -5.63496,-27.58753 -4.63334,-30.1976 1.4305,-3.72811 19.4589,1.51356 22.08403,6.42082 0.80669,1.508 1.47743,4.96464 1.50722,7.76696 0.0699,6.59877 -2.77703,10.49097 -10.49501,14.34766 -6.09482,3.04568 -7.87215,3.39472 -8.4629,1.66216 z"
               style="fill:#ffffff;fill-opacity:1;fill-rule:nonzero;stroke:#ffffff;stroke-width:3.62312579;stroke-linecap:butt;stroke-linejoin:miter;stroke-miterlimit:4;stroke-opacity:0;stroke-dasharray:none" />
            <path
               inkscape:export-ydpi="90.044502"
               inkscape:export-xdpi="90.044502"
               inkscape:export-filename="F:\Pictures\SVG\path2433.png"
               id="path2450"
               d="m 983.85808,1002.2734 c -19.99469,-3.82368 -37.58144,-13.50732 -53.82616,-29.63814 -6.98847,-6.93924 -15.5943,-17.19453 -20.57319,-24.51605 l -2.89625,-4.25881 3.41028,-0.5856 c 5.24973,-0.90152 11.4641,-2.79517 14.84276,-4.5229 10.56196,-5.40115 25.84667,-19.03467 33.88674,-30.22599 1.82043,-2.5339 3.47809,-4.60709 3.68379,-4.60709 0.20571,0 2.16564,2.75129 4.35564,6.114 11.83394,18.17091 27.64995,31.1172 42.78481,35.02186 6.9308,1.78815 19.9982,1.83834 26.5898,0.10225 10.0444,-2.64551 18.9854,-8.09499 29.4605,-17.95626 25.5179,-24.02229 42.1396,-51.09876 46.661,-76.00967 1.1186,-6.16302 1.3058,-19.10061 0.3834,-26.48423 l -0.5752,-4.60431 3.5305,-1.98427 c 4.9613,-2.78849 11.5382,-8.75971 13.9548,-12.66997 l 2.0465,-3.31113 0.7243,2.65797 c 1.831,6.71813 3.5918,30.20204 3.0179,40.24797 -2.423,42.41628 -15.6349,77.39247 -41.5351,109.95642 -16.3091,20.50516 -46.2264,39.19426 -73.5198,45.92725 -9.5562,2.3576 -27.62591,3.0258 -36.40702,1.3467 z"
               style="fill:#ffffff;fill-opacity:1;fill-rule:nonzero;stroke:#ffffff;stroke-width:3.62312579;stroke-linecap:butt;stroke-linejoin:miter;stroke-miterlimit:4;stroke-opacity:0;stroke-dasharray:none" />
            <path
               inkscape:export-ydpi="90.044502"
               inkscape:export-xdpi="90.044502"
               inkscape:export-filename="F:\Pictures\SVG\path2433.png"
               id="path2452"
               d="m 1082.6423,823.17003 c -2.0597,-0.35275 -6.1357,-1.59989 -9.0579,-2.77144 l -5.3128,-2.13008 0.2936,-3.59616 c 0.4175,-5.11712 3.4719,-13.75669 6.5979,-18.66397 2.3122,-3.62957 8.3097,-8.93538 10.1004,-8.93538 0.3247,0 0,1.68166 -0.7281,3.73701 -1.8319,5.19251 -1.6541,7.4069 0.7781,9.69182 1.6679,1.56705 3.1947,1.96842 7.4726,1.9644 8.2713,-0.008 11.3506,-1.25348 16.7931,-6.79365 10.1361,-10.31777 13.9277,-20.51831 13.8018,-37.13169 -0.092,-12.18923 -1.5231,-19.93404 -6.1491,-33.28747 -1.6828,-4.85725 -2.7205,-8.83138 -2.3061,-8.83138 2.2576,0 11.2698,9.91112 14.0719,15.47535 4.8755,9.68121 8.5662,27.07633 8.5662,40.37368 0,17.04615 -8.9621,34.68231 -21.8155,42.93035 -8.9425,5.73845 -24.4014,9.45936 -33.1061,7.9686 l 0,10e-6 z"
               style="fill:#ffffff;fill-opacity:1;fill-rule:nonzero;stroke:#ffffff;stroke-width:3.62312579;stroke-linecap:butt;stroke-linejoin:miter;stroke-miterlimit:4;stroke-opacity:0;stroke-dasharray:none" />
            <path
               inkscape:export-ydpi="90.044502"
               inkscape:export-xdpi="90.044502"
               inkscape:export-filename="F:\Pictures\SVG\path2433.png"
               id="path2454"
               d="m 1062.6494,813.10013 c -5.9938,-6.31672 -7.5819,-13.0431 -5.3425,-22.63047 3.0202,-12.93127 11.4671,-24.6134 21.282,-29.43354 7.7157,-3.78916 14.9481,-3.48468 24.0471,1.01235 3.7924,1.87427 9.1917,5.54525 11.9984,8.15773 l 5.1031,4.74999 -2.4495,5.35016 c -2.4337,5.31615 -9.0793,14.91868 -10.3246,14.91868 -0.3582,0 -1.4839,-1.72836 -2.502,-3.84081 -2.5627,-5.31695 -6.7201,-7.93953 -12.5471,-7.91446 -11.7861,0.0507 -20.5913,9.3526 -24.895,26.29931 l -1.5898,6.26079 -2.7801,-2.92973 z"
               style="fill:#ffffff;fill-opacity:1;fill-rule:nonzero;stroke:#ffffff;stroke-width:3.62312579;stroke-linecap:butt;stroke-linejoin:miter;stroke-miterlimit:4;stroke-opacity:0;stroke-dasharray:none" />
            <path
               inkscape:export-ydpi="90.044502"
               inkscape:export-xdpi="90.044502"
               inkscape:export-filename="F:\Pictures\SVG\path2433.png"
               id="path2456"
               d="m 945.31173,881.90844 c 0,-0.0809 0.29636,-0.89354 0.65858,-1.80591 0.36224,-0.91235 0.78595,-2.0919 0.94162,-2.62121 0.15567,-0.52931 0.34332,-0.96092 0.41705,-0.95915 0.0737,0.002 0.40596,0.49658 0.73837,1.09951 l 0.60437,1.09625 -1.68003,1.66878 c -0.92395,0.91782 -1.67996,1.60262 -1.67996,1.52173 l 0,0 z"
               style="fill:#ffffff;fill-opacity:1;fill-rule:nonzero;stroke:#ffffff;stroke-width:0.90578145;stroke-linecap:butt;stroke-linejoin:miter;stroke-miterlimit:4;stroke-opacity:0;stroke-dasharray:none" />
            <path
               inkscape:export-ydpi="90.044502"
               inkscape:export-xdpi="90.044502"
               inkscape:export-filename="F:\Pictures\SVG\path2433.png"
               id="path2458"
               d="m 985.16613,762.60216 c -3.57691,-0.33089 -5.95916,-1.37954 -7.47269,-3.28949 -2.57448,-3.24876 -2.69916,-6.15523 -0.36243,-8.4486 l 0.99392,-0.97549 0.15936,0.94329 c 0.2358,1.39554 1.08895,3.43113 2.03614,4.85814 2.36969,3.57013 6.262,5.47315 11.7221,5.73113 1.91229,0.0903 2.66074,0.20542 2.66074,0.40909 0,0.35258 -0.91971,0.52911 -4.14892,0.7963 -2.78764,0.23067 -2.83323,0.23046 -5.58822,-0.0244 l 0,10e-6 z"
               style="fill:#ffffff;fill-opacity:1;fill-rule:nonzero;stroke:#ffffff;stroke-width:0.90578145;stroke-linecap:butt;stroke-linejoin:miter;stroke-miterlimit:4;stroke-opacity:0;stroke-dasharray:none" />
            <path
               inkscape:export-ydpi="90.044502"
               inkscape:export-xdpi="90.044502"
               inkscape:export-filename="F:\Pictures\SVG\path2433.png"
               id="path2460"
               d="m 1013.1546,762.57473 c -0.059,-0.28817 -0.1629,-1.492 -0.2315,-2.67517 -0.069,-1.18317 -0.1894,-2.67025 -0.2683,-3.3046 l -0.1434,-1.15336 1.7823,-0.97501 c 0.9802,-0.53624 2.9796,-1.71797 4.443,-2.62608 1.4634,-0.90808 2.6606,-1.56598 2.6606,-1.46199 0,0.10399 -0.2142,0.88764 -0.476,1.74143 -1.0999,3.58711 -3.8025,7.74897 -6.4968,10.00471 -1.1277,0.94418 -1.1665,0.95796 -1.2699,0.45007 l 0,0 z"
               style="fill:#ffffff;fill-opacity:1;fill-rule:nonzero;stroke:#ffffff;stroke-width:0.90578145;stroke-linecap:butt;stroke-linejoin:miter;stroke-miterlimit:4;stroke-opacity:0;stroke-dasharray:none" />
            <path
               inkscape:export-ydpi="90.044502"
               inkscape:export-xdpi="90.044502"
               inkscape:export-filename="F:\Pictures\SVG\path2433.png"
               id="path2462"
               d="m 671.60683,875.57388 c -2.31567,-3.54516 -5.58031,-6.89598 -9.36168,-9.60867 l -5.80612,-4.16525 0.50795,-4.474 c 0.27939,-2.46072 1.52092,-6.53674 2.75895,-9.05785 2.29288,-4.66912 11.80908,-16.81182 13.17537,-16.81182 0.41356,0 0.53428,6.41971 0.26826,14.26604 -0.36469,10.7568 -0.10947,16.79839 1.03761,24.56052 0.83669,5.66192 1.39842,10.39343 1.24826,10.51446 -0.15018,0.12101 -1.87305,-2.22952 -3.82861,-5.22343 l 10e-6,0 z"
               style="fill:#ffffff;fill-opacity:1;fill-rule:nonzero;stroke:#ffffff;stroke-width:3.62312579;stroke-linecap:butt;stroke-linejoin:miter;stroke-miterlimit:4;stroke-opacity:0;stroke-dasharray:none" />
            <path
               inkscape:export-ydpi="90.044502"
               inkscape:export-xdpi="90.044502"
               inkscape:export-filename="F:\Pictures\SVG\path2433.png"
               id="path2464"
               d="m 677.53649,891.24882 c -0.0675,-2.2074 -1.51592,-7.39154 -2.75207,-9.85039 -0.21914,-0.4359 -0.46857,-1.0473 -0.55428,-1.35864 -0.14178,-0.51514 -0.0919,-0.49474 0.55357,0.22643 l 0.70941,0.79254 -0.11539,-2.37766 -0.11537,-2.37769 0.52615,2.83056 c 0.5832,3.13758 1.72324,8.10297 2.26162,9.85039 0.40487,1.31409 0.44302,2.13184 0.0528,1.13224 -0.25117,-0.64349 -0.27204,-0.59563 -0.39502,0.90578 l -0.12985,1.58512 -0.0416,-1.35868 z"
               style="fill:#ffffff;fill-opacity:1;fill-rule:nonzero;stroke:#ffffff;stroke-width:0.90578145;stroke-linecap:butt;stroke-linejoin:miter;stroke-miterlimit:4;stroke-opacity:0;stroke-dasharray:none" />
            <flowRoot
               style="font-size:32px;font-style:normal;font-variant:normal;font-weight:900;font-stretch:normal;text-align:start;line-height:125%;writing-mode:lr-tb;text-anchor:start;fill:#000000;fill-opacity:1;stroke:none;font-family:Blackoak Std;-inkscape-font-specification:Blackoak Std Heavy"
               id="flowRoot5101"
               xml:space="preserve"><flowRegion
                 id="flowRegion5103"><rect
                   y="218.5482"
                   x="-1632.707"
                   height="292.8317"
                   width="1469.266"
                   id="rect5105" /></flowRegion><flowPara
                 id="flowPara5107" /></flowRoot>            <flowRoot
               style="font-size:32px;font-style:normal;font-variant:normal;font-weight:900;font-stretch:normal;text-align:start;line-height:125%;writing-mode:lr-tb;text-anchor:start;fill:#000000;fill-opacity:1;stroke:none;font-family:Blackoak Std;-inkscape-font-specification:Blackoak Std Heavy"
               id="flowRoot5109"
               xml:space="preserve"><flowRegion
                 id="flowRegion5111"><rect
                   y="283.24356"
                   x="-1649.7321"
                   height="338.79947"
                   width="1333.0652"
                   id="rect5113" /></flowRegion><flowPara
                 id="flowPara5115" /></flowRoot>          </g>
          <g
             style="display:inline"
             transform="translate(-540.3758,-446.98077)"
             inkscape:label="trace black"
             id="layer5">
            <path
               inkscape:export-ydpi="90.044502"
               inkscape:export-xdpi="90.044502"
               inkscape:export-filename="F:\Pictures\SVG\path2433.png"
               sodipodi:nodetypes="ccccccccccccccccccccccccccccccccccccccccccccccccccccccccccccccccccccccccccccccccccccccccccccccccccccccccccccccc"
               id="path3313"
               d="M 822.40743,627.4531 C 872.3652,561.16297 953.7067,526.25658 953.7067,526.25658 c 8.96677,-35.22663 24.33842,-49.66029 24.33842,-49.66029 43.44308,-17.26088 99.27498,-2.37434 99.27498,-2.37434 58.2841,-17.29307 71.8121,-15.37162 71.8121,-15.37162 1.8436,17.26089 0.5304,24.4161 0.5304,24.4161 58.2842,13.45017 75.1244,34.85144 75.1244,34.85144 -78.1447,95.7485 -181.7877,117.73921 -181.7877,117.73921 -65.81448,73.35821 -97.57336,125.0365 -97.57336,125.0365 -0.64048,22.41696 19.35658,27.93877 19.35658,27.93877 24.33845,2.56194 23.08962,-13.27199 23.08962,-13.27199 -29.60435,-5.57677 -27.12011,-28.33673 -27.12011,-28.33673 13.63777,-28.259 34.21097,-19.29221 34.21097,-19.29221 18.574,6.40484 18.4414,22.33923 18.4414,22.33923 8.0911,0.0851 9.5048,-8.10853 8.9118,-8.70148 8.3263,12.80969 -7.7636,24.869 -7.7636,24.869 1.0612,26.22766 -9.5295,34.96133 -9.5295,34.96133 -6.40475,10.24775 -18.38641,18.27656 -18.38641,18.27656 -16.01212,8.96678 -27.80615,5.68665 -27.80615,5.68665 -14.0906,0 -23.43258,-3.23461 -23.43258,-3.23461 -1.281,8.96679 0.37514,7.07752 0.37514,7.07752 18.4092,17.9108 13.12994,43.39281 13.12994,43.39281 1.28096,2.24171 3.25263,0.35239 3.25263,0.35239 24.46161,-40.69734 35.81691,-49.18932 35.81691,-49.18932 32.68752,-22.25211 58.92452,0.32024 58.92452,0.32024 25.6422,17.58113 -0.9607,50.59825 -0.9607,50.59825 -10.2155,16.80798 -25.5417,16.9179 -25.5417,16.9179 -26.25972,-0.64048 -21.85404,-20.12031 -21.85404,-20.12031 6.72514,-15.37164 20.49554,-20.49548 20.49554,-20.49548 -5.7645,16.33235 -4.4836,18.25379 -4.4836,18.25379 8.6145,2.68124 15.9345,-9.63005 15.9345,-9.63005 10.8882,-13.45016 -0.5306,-19.80948 -0.5306,-19.80948 -17.7914,-9.3969 -24.6681,3.09255 -24.6681,3.09255 -10.70057,8.55941 -22.41686,27.54081 -22.41686,27.54081 -7.92835,17.07331 -16.46504,31.4159 -16.46504,31.4159 8.20699,22.86987 37.4455,37.55545 37.4455,37.55545 15.3717,6.7251 35.0391,1.01567 35.0391,1.01567 13.236,-2.71346 37.5782,-29.04156 37.5782,-29.04156 28.3556,-33.91899 31.6263,-54.97727 31.6263,-54.97727 4.076,-15.22955 0.7959,-32.61365 0.7959,-32.61365 -20.7474,7.76352 -32.0242,1.46856 -32.0242,1.46856 -19.855,-5.76435 -22.6824,-19.36993 -22.6824,-19.36993 -5.4668,-17.12434 9.0446,-35.60182 9.0446,-35.60182 19.3833,-22.91535 34.6639,-14.16836 34.6639,-14.16836 13.2626,2.71735 21.3557,13.74766 21.3557,13.74766 6.7478,-23.75676 -11.8262,-59.14433 -11.8262,-59.14433 30.9764,6.40484 34.0235,53.23789 34.0235,53.23789 0.6404,19.21453 -7.1232,37.71086 -7.1232,37.71086 10.0924,43.301 -1.2809,82.62248 -1.2809,82.62248 -9.634,42.76484 -37.1481,73.01521 -37.1481,73.01521 -23.0518,32.53596 -65.0641,43.63062 -65.0641,43.63062 -28.9449,10.7328 -54.36345,2.8272 -54.36345,2.8272 -30.18049,-6.07516 -49.4727,-27.27554 -49.4727,-27.27554 -10.24775,14.09075 -41.89676,17.21537 -41.89676,17.21537 -32.34447,-0.96072 -44.43597,-17.18317 -44.43597,-17.18317 -6.40483,-6.08458 -8.77919,-10.09232 -8.77919,-10.09232 -3.8429,1.28096 -11.31835,-1.28096 -11.31835,-1.28096 8.32629,17.93354 -3.04701,34.16536 -3.04701,34.16536 -14.20055,17.32526 -38.66217,15.63696 -38.66217,15.63696 -29.64986,1.8116 -35.30434,-17.48064 -35.30434,-17.48064 -2.29663,-16.79463 14.16836,-30.55565 14.16836,-30.55565 13.45017,-8.6465 29.46228,-1.92147 29.46228,-1.92147 -29.49447,-0.21029 -26.25987,22.78279 -26.25987,22.78279 4.53834,10.47693 13.77042,6.99977 13.77042,6.99977 20.17525,-3.2024 18.49633,-10.22493 18.49633,-10.22493 10.568,-9.27376 -2.64906,-24.31574 -2.64906,-24.31574 -4.88133,-8.06098 -10.1151,-13.1527 -10.1151,-13.1527 -32.02421,6.7251 -68.17937,-11.55145 -68.17937,-11.55145 -5.27929,17.93353 -26.8454,47.17602 -26.8454,47.17602 -23.55974,28.515 -39.79716,28.5887 -39.79716,28.5887 -24.59426,8.0288 -48.03631,-4.4834 -48.03631,-4.4834 -24.38392,-13.075 -29.97011,-21.97345 -29.97011,-21.97345 -15.39437,-21.94127 -14.8316,-50.26857 -14.8316,-50.26857 2.39711,-18.23103 9.28702,-35.54689 9.28702,-35.54689 0.96073,-20.49548 20.81574,-49.31729 20.81574,-49.31729 10.88823,-12.16921 11.52871,-22.73718 11.52871,-22.73718 -4.48338,-4.80362 -9.28702,-1.92144 -9.28702,-1.92144 -9.28701,2.56193 2.24171,10.24774 2.24171,10.24774 -13.12993,4.80363 -17.61333,-8.64654 -17.61333,-8.64654 -0.64048,-9.9275 10.88824,-15.69185 10.88824,-15.69185 9.28702,-5.44413 16.97282,-1.92147 16.97282,-1.92147 19.53477,11.84897 17.93357,32.66472 17.93357,32.66472 0.96071,5.4441 -1.28097,10.56798 -1.28097,10.56798 14.41089,-2.56196 38.42905,5.76436 38.42905,5.76436 0,-10.88824 8.64653,-18.57405 8.64653,-18.57405 -17.29307,3.84292 -43.55293,-13.77041 -43.55293,-13.77041 -20.17525,-19.21453 -23.37767,-39.06954 -23.37767,-39.06954 -5.12386,-12.80968 4.80364,-36.18735 4.80364,-36.18735 5.44411,-13.77042 20.49549,-23.05744 20.49549,-23.05744 -8.96678,32.34445 -5.12388,55.72213 -5.12388,55.72213 7.68582,23.37767 32.34446,26.25985 32.34446,26.25985 -17.29307,-11.20847 -24.01816,-30.74325 -24.01816,-30.74325 -5.44411,-16.01209 3.84291,-44.51364 3.84291,-44.51364 6.0846,-17.93356 27.54082,-32.02421 27.54082,-32.02421 13.77041,-8.32631 28.50155,-7.04534 28.50155,-7.04534 24.97888,0.96074 46.11486,26.90034 46.11486,26.90034 3.52267,-7.04531 23.37767,-24.3384 23.37767,-24.3384 -30.423,-7.25818 -58.60431,-33.99914 -58.60431,-34.2659 -19.21452,-17.61332 -21.13597,-43.23268 -21.13597,-43.23268 -2.88218,-14.41091 -0.64048,-22.41696 -0.64048,-22.41696 -23.69792,-39.38977 -16.33236,-80.70101 -16.33236,-80.70101 5.76436,-36.82785 30.42301,-56.04237 30.42301,-56.04237 -16.97283,35.86712 -4.80364,59.24481 -4.80364,59.24481 7.04533,23.37766 13.12993,28.50153 13.12993,28.50153 20.81573,-30.10276 56.04237,-22.41694 56.04237,-22.41694 49.31729,15.05137 51.55898,44.19341 51.55898,44.19341 6.72508,28.18131 -21.77646,48.99704 -21.77646,48.99704 -8.96678,10.56799 -23.69792,15.05138 -23.69792,15.05138 -9.60726,0.64048 -26.25985,-6.40484 -26.25985,-6.40484 23.37767,21.45623 55.72213,12.80968 55.72213,12.80968 21.77646,-6.40484 36.5076,-13.45016 36.5076,-13.45016"
               style="fill:none;stroke:#d40000;stroke-width:3.76199985;stroke-linecap:butt;stroke-linejoin:miter;stroke-miterlimit:4;stroke-opacity:1;stroke-dasharray:none" />
          </g>
          <g
             transform="translate(-1006.1032,-663.73327)"
             style="display:inline"
             inkscape:label="square2"
             id="g3527">
            <path
               inkscape:export-ydpi="90.044502"
               inkscape:export-xdpi="90.044502"
               inkscape:export-filename="F:\Pictures\SVG\path2433.png"
               sodipodi:nodetypes="ccccscccsssssscssscccscccccccssssscccccccsscccscccsscccsssscsssssssssssssscccssssssssssssscssssssscc"
               id="path2470"
               d="m 1267.1,1237.0196 c 13.4375,-6.3344 22.9586,-17.7147 26.9826,-32.2519 l 2.2122,-7.9917 5.2382,4.2156 c 9.2559,7.4488 20.1926,12.381 34.4667,15.5437 12.6282,2.798 30.1037,-0.1822 47.5191,-8.1036 l 8.8565,-4.0285 9.0771,6.2539 c 17.0808,11.7682 31.1804,17.1777 50.4916,19.3721 19.4027,2.2047 43.0714,-1.9651 66.4873,-11.713 21.7841,-9.0687 42.7089,-27.095 57.7504,-49.7503 12.3339,-18.5771 27.6766,-50.2863 30.8295,-63.7158 3.2096,-13.6709 11.1209,-46.6421 4.9973,-73.9884 -2.4229,-10.8195 2.9265,-26.2245 3.5341,-36.54764 1.3,-22.08859 -0.7319,-29.01189 -9.1013,-46.32864 -6.4912,-13.43042 -14.8522,-20.92248 -24.4702,-25.76974 -12.0719,-6.08387 -19.6469,-5.58094 -19.6469,1.30442 0,1.8546 2.9341,11.15375 6.5202,20.66483 3.586,9.51105 6.8272,19.18543 7.2026,21.49857 l 0.6826,4.2057 -6.8825,-2.63089 c -5.4475,-2.08237 -8.9223,-2.51564 -16.6674,-2.07823 -17.5086,0.98881 -29.3551,9.29653 -37.2187,26.1006 -3.678,7.85947 -3.7907,8.65871 -3.3794,23.94662 l 0.4254,15.8157 -3.8429,-2.2673 c -5.1029,-3.0105 -17.792,-6.2403 -24.5175,-6.2403 l -5.405,0 3.1793,-5.6885 c 1.7487,-3.1286 4.0846,-10.1899 5.1909,-15.6918 1.1064,-5.50185 3.6901,-13.41676 5.7412,-17.58871 4.9349,-10.0372 6.4408,-17.06793 4.8724,-22.74857 -1.633,-5.91421 -5.3397,-9.11275 -10.7791,-9.30167 -3.2857,-0.11409 -5.6469,-1.39754 -9.2783,-5.04287 -5.7552,-5.77745 -12.7645,-9.60218 -19.8117,-10.81069 l -5.0934,-0.87344 14.0235,-17.5123 c 7.7129,-9.63178 21.2515,-26.06021 30.0859,-36.5076 l 16.0624,-18.99529 16.4273,-5.76436 c 55.133,-19.3463 95.5575,-44.56426 138.5883,-86.45561 18.6769,-18.18228 31.5459,-30.00986 31.5459,-34.60412 0,-3.91593 -10.5764,-14.33112 -22.8053,-21.29487 -9.277,-5.28274 -28.4662,-14.43328 -40.4283,-17.75005 l -12.804,-3.0253 -0.7943,-8.12557 c -1.2713,-11.5558 1.7092,-13.41373 -0.8874,-15.76356 -3.9165,-3.54451 -23.365,-0.54778 -52.9074,6.45997 l -25.6193,7.88873 -19.7773,-2.96195 c -29.6648,-5.73599 -55.944,-2.02709 -71.812,1.70745 -11.5042,2.70755 -12.5198,5.48801 -18.5845,11.70786 -6.7116,6.88342 -13.2598,18.33807 -19.1389,33.4797 l -3.4814,8.96678 -14.1872,7.6858 c -35.07,18.99874 -68.9209,44.44425 -97.0432,72.94678 -9.5112,9.63977 -19.7861,19.01085 -22.8331,20.82459 -4.4109,2.62551 -26.6899,10.62756 -29.5891,10.62756 -0.368,0 3.1104,-3.89094 7.7301,-8.64654 18.6211,-19.16932 20.6816,-23.5657 20.8618,-44.51365 0.1272,-14.77928 -0.012,-15.61843 -3.6043,-21.77646 -4.9177,-8.42912 -17.5685,-20.77797 -27.4122,-26.75762 -18.3846,-11.16807 -34.2607,-14.89474 -50.326,-11.81327 -9.9522,1.90892 -25.4362,8.14772 -29.6209,11.93483 -3.1041,2.80915 -4.0215,1.64366 -7.9481,-10.09741 -4.4629,-13.34459 -4.502,-28.91796 -0.114,-45.62198 3.3607,-12.79414 2.9939,-16.86584 -1.748,-19.40365 -6.933,-3.7104 -12.8429,-0.18184 -22.6027,13.49547 -14.0546,19.69566 -21.1468,41.2314 -21.263,64.56571 -0.1015,20.36382 2.5379,34.38412 10.3692,55.08164 2.0054,5.30014 4.8435,17.24356 6.3305,26.64038 4.3614,27.56173 8.7587,37.89087 22.2866,52.35225 9.2657,9.90508 22.3163,19.82694 36.758,27.94565 5.9885,3.3666 11.1444,6.35012 11.4575,6.63006 0.3131,0.27995 -0.6332,1.71162 -2.1031,3.18148 l -2.6724,2.67249 -6.8637,-5.1288 c -24.6632,-18.42931 -50.7654,-20.63345 -73.3395,-6.193 -3.6084,2.30831 -10.0825,8.04005 -14.3864,12.73714 -6.216,6.7836 -8.5922,8.54016 -11.5531,8.54016 -4.5953,0 -7.9636,2.19124 -17.5142,11.39364 -16.8323,16.21875 -24.019,41.10144 -18.1673,62.90249 1.0401,3.8749 1.8979,7.1436 1.9063,7.2639 0.01,0.1201 -1.6519,0.5846 -3.6895,1.0321 -5.8884,1.2932 -15.0655,7.7653 -19.3,13.6111 -7.0284,9.7023 -4.5321,21.7137 5.9855,28.8016 2.306,1.5541 3.5819,3.2251 2.9572,3.8733 -3.4469,3.577 -15.7711,29.9112 -19.1176,40.8501 -11.7167,38.3002 -13.3407,55.0494 -7.3024,75.3167 6.7189,22.5511 14.7016,33.4151 33.6423,45.7851 23.6321,15.434 47.7902,18.7701 73.1354,10.0998 13.7001,-4.6865 27.4967,-16.5603 41.9809,-36.1295 5.9085,-7.983 19.1374,-28.9751 20.1231,-31.9323 0.3155,-0.9465 5.1283,-0.5097 15.1312,1.3733 8.0678,1.5187 17.839,2.7899 21.714,2.8248 5.9976,0.054 6.6768,0.2906 4.5675,1.5895 -6.7008,4.1264 -13.9,12.2023 -17.6274,19.7735 -7.2589,14.7448 -4.9852,31.3791 5.2887,38.6948 14.2407,10.1402 40.7416,12.8674 55.8465,5.747 l 0,0 z"
               style="fill:none;stroke:#009dba;stroke-width:7.52399969;stroke-linecap:butt;stroke-linejoin:round;stroke-miterlimit:4;stroke-opacity:1;stroke-dasharray:none" />
          </g>
          <g
             style="display:inline"
             transform="translate(-202.19908,-440.64953)"
             inkscape:label="eye"
             id="layer4">
            <path
               inkscape:export-ydpi="90.044502"
               inkscape:export-xdpi="90.044502"
               inkscape:export-filename="F:\Pictures\SVG\path2433.png"
               transform="matrix(0.6608199,0,0,0.5782414,231.99363,267.54738)"
               d="m 531.42857,829.50507 c 0,33.13708 -27.50251,60 -61.42857,60 -33.92606,0 -61.42857,-26.86292 -61.42857,-60 0,-33.13709 27.50251,-60 61.42857,-60 33.92606,0 61.42857,26.86291 61.42857,60 z"
               sodipodi:ry="60"
               sodipodi:rx="61.42857"
               sodipodi:cy="829.50507"
               sodipodi:cx="470"
               id="path3531"
               style="fill:none;stroke:none"
               sodipodi:type="arc" />
            <path
               inkscape:export-ydpi="90.044502"
               inkscape:export-xdpi="90.044502"
               inkscape:export-filename="F:\Pictures\SVG\path2433.png"
               transform="matrix(0.539869,0,0,0.4698851,288.82177,357.28726)"
               d="m 531.42857,829.50507 c 0,33.13708 -27.50251,60 -61.42857,60 -33.92606,0 -61.42857,-26.86292 -61.42857,-60 0,-33.13709 27.50251,-60 61.42857,-60 33.92606,0 61.42857,26.86291 61.42857,60 z"
               sodipodi:ry="60"
               sodipodi:rx="61.42857"
               sodipodi:cy="829.50507"
               sodipodi:cx="470"
               id="path3533"
               style="fill:#ffffff;fill-opacity:1;fill-rule:nonzero;stroke:none"
               sodipodi:type="arc" />
            <path
               inkscape:export-ydpi="90.044502"
               inkscape:export-xdpi="90.044502"
               sodipodi:nodetypes="ccc"
               id="path2433"
               d="m 499.04724,773.32054 c -27.94628,-48.36857 21.49715,-69.86572 21.49715,-69.86572 51.59314,-17.1977 68.79085,27.9463 68.79085,27.9463"
               style="fill:none;stroke:none" />
          </g>
        </g>
      </g>
    </g>
  </g>
  <g
     inkscape:groupmode="layer"
     id="layer9"
     inkscape:label="Column"
     style="display:none"
     transform="translate(-272.92525,23.767133)">
    <path
       style="fill:none;stroke:#d40000;stroke-width:1.45779598;stroke-linecap:butt;stroke-linejoin:miter;stroke-miterlimit:4;stroke-opacity:1;stroke-dasharray:none;display:inline"
       d="m 176.81164,72.203337 c -1.38537,37.238413 -0.4326,90.961793 -0.4326,90.961793"
       id="path2532"
       sodipodi:nodetypes="cc"
       inkscape:export-filename="F:\Pictures\SVG\path2533.png"
       inkscape:export-xdpi="89.669998"
       inkscape:export-ydpi="89.669998" />
    <path
       style="fill:none;stroke:#d40000;stroke-width:1.41054833;stroke-linecap:butt;stroke-linejoin:miter;stroke-miterlimit:4;stroke-opacity:1;stroke-dasharray:none;display:inline"
       d="m 187.70085,53.81162 c 0,0 -13.45677,0.173271 -24.8522,-0.122746 -3.39434,14.504765 -2.66701,17.168895 -2.66701,17.168895 6.78879,0.592038 16.72947,0.888053 16.72947,0.888053 0,-9.76852 -0.24245,-12.136646 -0.24245,-12.136646 -3.39438,-0.296002 -8.97087,0.296018 -8.97087,0.296018 -0.24245,5.032265 -0.48492,7.104374 -0.48492,7.104374 4.7853,-0.454605 5.84661,-0.454605 5.84661,-0.454605"
       id="path2534"
       sodipodi:nodetypes="cccccccc"
       inkscape:export-filename="F:\Pictures\SVG\path2533.png"
       inkscape:export-xdpi="89.669998"
       inkscape:export-ydpi="89.669998" />
    <path
       style="fill:none;stroke:#d40000;stroke-width:1.41054833;stroke-linecap:butt;stroke-linejoin:miter;stroke-miterlimit:4;stroke-opacity:1;stroke-dasharray:none;display:inline"
       d="m 187.27633,181.24253 c 0,0 -13.45676,-0.17328 -24.85218,0.12275 -3.39438,-14.50475 -2.66701,-17.16891 -2.66701,-17.16891 6.78877,-0.59204 16.72945,-0.88803 16.72945,-0.88803 0,9.76849 -0.24247,12.13662 -0.24247,12.13662 -3.39434,0.29601 -8.97084,-0.29601 -8.97084,-0.29601 -0.24246,-5.03226 -0.48492,-7.10438 -0.48492,-7.10438 4.78527,0.4546 5.84661,0.4546 5.84661,0.4546"
       id="path2536"
       sodipodi:nodetypes="cccccccc"
       inkscape:export-filename="F:\Pictures\SVG\path2533.png"
       inkscape:export-xdpi="89.669998"
       inkscape:export-ydpi="89.669998" />
    <path
       style="fill:none;stroke:#d40000;stroke-width:1.45779598;stroke-linecap:butt;stroke-linejoin:miter;stroke-miterlimit:4;stroke-opacity:1;stroke-dasharray:none;display:inline"
       d="m 192.23166,72.263031 c 1.38532,37.238419 0.43257,90.961769 0.43257,90.961769"
       id="path2538"
       sodipodi:nodetypes="cc"
       inkscape:export-filename="F:\Pictures\SVG\path2533.png"
       inkscape:export-xdpi="89.669998"
       inkscape:export-ydpi="89.669998" />
    <path
       style="fill:none;stroke:#d40000;stroke-width:1.41054833;stroke-linecap:butt;stroke-linejoin:miter;stroke-miterlimit:4;stroke-opacity:1;stroke-dasharray:none;display:inline"
       d="m 181.34244,53.871316 c 0,0 13.45671,0.17327 24.85216,-0.122748 3.39436,14.504766 2.66698,17.168899 2.66698,17.168899 -6.78873,0.592034 -16.72943,0.88805 -16.72943,0.88805 0,-9.768517 0.24244,-12.136641 0.24244,-12.136641 3.39441,-0.296007 8.97088,0.296016 8.97088,0.296016 0.24247,5.032265 0.48494,7.104372 0.48494,7.104372 -4.78532,-0.454605 -5.84662,-0.454605 -5.84662,-0.454605"
       id="path2540"
       sodipodi:nodetypes="cccccccc"
       inkscape:export-filename="F:\Pictures\SVG\path2533.png"
       inkscape:export-xdpi="89.669998"
       inkscape:export-ydpi="89.669998" />
    <path
       style="fill:none;stroke:#d40000;stroke-width:1.41054833;stroke-linecap:butt;stroke-linejoin:miter;stroke-miterlimit:4;stroke-opacity:1;stroke-dasharray:none;display:inline"
       d="m 181.76696,181.3022 c 0,0 13.45671,-0.17326 24.85215,0.12277 3.39436,-14.50477 2.66701,-17.16889 2.66701,-17.16889 -6.78875,-0.59204 -16.72947,-0.88805 -16.72947,-0.88805 0,9.76853 0.2425,12.13664 0.2425,12.13664 3.39439,0.29601 8.97085,-0.29602 8.97085,-0.29602 0.24246,-5.03228 0.48491,-7.10436 0.48491,-7.10436 -4.78527,0.4546 -5.8466,0.4546 -5.8466,0.4546"
       id="path2542"
       sodipodi:nodetypes="cccccccc"
       inkscape:export-filename="F:\Pictures\SVG\path2533.png"
       inkscape:export-xdpi="89.669998"
       inkscape:export-ydpi="89.669998" />
    <path
       style="fill:none;stroke:#d40000;stroke-width:1.45779598;stroke-linecap:butt;stroke-linejoin:miter;stroke-miterlimit:4;stroke-opacity:1;stroke-dasharray:none;display:inline"
       d="m 950.77972,72.493779 c -1.38534,37.238411 -0.43259,90.961771 -0.43259,90.961771"
       id="path3319"
       sodipodi:nodetypes="cc"
       inkscape:export-filename="F:\Pictures\SVG\path2533.png"
       inkscape:export-xdpi="89.669998"
       inkscape:export-ydpi="89.669998" />
    <path
       style="fill:none;stroke:#d40000;stroke-width:1.41054833;stroke-linecap:butt;stroke-linejoin:miter;stroke-miterlimit:4;stroke-opacity:1;stroke-dasharray:none;display:inline"
       d="m 961.66897,54.102063 c 0,0 -13.45677,0.173273 -24.85214,-0.122747 -3.39436,14.504771 -2.667,17.168901 -2.667,17.168901 6.78875,0.592034 16.72946,0.888055 16.72946,0.888055 0,-9.768525 -0.24248,-12.13665 -0.24248,-12.13665 -3.39437,-0.296006 -8.97091,0.296018 -8.97091,0.296018 -0.24246,5.032262 -0.48492,7.104375 -0.48492,7.104375 4.78536,-0.454606 5.84672,-0.454606 5.84672,-0.454606"
       id="path3321"
       sodipodi:nodetypes="cccccccc"
       inkscape:export-filename="F:\Pictures\SVG\path2533.png"
       inkscape:export-xdpi="89.669998"
       inkscape:export-ydpi="89.669998" />
    <path
       style="fill:none;stroke:#d40000;stroke-width:1.41054833;stroke-linecap:butt;stroke-linejoin:miter;stroke-miterlimit:4;stroke-opacity:1;stroke-dasharray:none;display:inline"
       d="m 961.24448,181.53297 c 0,0 -13.45678,-0.17329 -24.85218,0.12275 -3.39438,-14.50476 -2.66696,-17.1689 -2.66696,-17.1689 6.78872,-0.59202 16.72936,-0.88803 16.72936,-0.88803 0,9.76851 -0.24236,12.13663 -0.24236,12.13663 -3.39448,0.29601 -8.97094,-0.29603 -8.97094,-0.29603 -0.24247,-5.03227 -0.48493,-7.10439 -0.48493,-7.10439 4.78529,0.45465 5.84662,0.45465 5.84662,0.45465"
       id="path3323"
       sodipodi:nodetypes="cccccccc"
       inkscape:export-filename="F:\Pictures\SVG\path2533.png"
       inkscape:export-xdpi="89.669998"
       inkscape:export-ydpi="89.669998" />
    <path
       style="fill:none;stroke:#d40000;stroke-width:1.45779598;stroke-linecap:butt;stroke-linejoin:miter;stroke-miterlimit:4;stroke-opacity:1;stroke-dasharray:none;display:inline"
       d="m 966.19986,72.553475 c 1.38525,37.238415 0.4325,90.961785 0.4325,90.961785"
       id="path3325"
       sodipodi:nodetypes="cc"
       inkscape:export-filename="F:\Pictures\SVG\path2533.png"
       inkscape:export-xdpi="89.669998"
       inkscape:export-ydpi="89.669998" />
    <path
       style="fill:none;stroke:#d40000;stroke-width:1.41054833;stroke-linecap:butt;stroke-linejoin:miter;stroke-miterlimit:4;stroke-opacity:1;stroke-dasharray:none;display:inline"
       d="m 955.31059,54.16176 c 0,0 13.45672,0.17327 24.85219,-0.122748 3.3943,14.504768 2.667,17.168898 2.667,17.168898 -6.78881,0.592035 -16.72948,0.888054 -16.72948,0.888054 0,-9.768519 0.24246,-12.136649 0.24246,-12.136649 3.3944,-0.296003 8.9709,0.296021 8.9709,0.296021 0.24236,5.032262 0.48486,7.104374 0.48486,7.104374 -4.78529,-0.454606 -5.8466,-0.454606 -5.8466,-0.454606"
       id="path3327"
       sodipodi:nodetypes="cccccccc"
       inkscape:export-filename="F:\Pictures\SVG\path2533.png"
       inkscape:export-xdpi="89.669998"
       inkscape:export-ydpi="89.669998" />
    <path
       style="fill:none;stroke:#d40000;stroke-width:1.41054833;stroke-linecap:butt;stroke-linejoin:miter;stroke-miterlimit:4;stroke-opacity:1;stroke-dasharray:none;display:inline"
       d="m 955.73507,181.59269 c 0,0 13.45682,-0.17329 24.85218,0.12272 3.39429,-14.50476 2.66701,-17.16888 2.66701,-17.16888 -6.78879,-0.59206 -16.72946,-0.88808 -16.72946,-0.88808 0,9.76856 0.24243,12.13668 0.24243,12.13668 3.39451,0.29598 8.97092,-0.29604 8.97092,-0.29604 0.24245,-5.03228 0.48497,-7.10439 0.48497,-7.10439 -4.78539,0.45461 -5.84664,0.45461 -5.84664,0.45461"
       id="path3329"
       sodipodi:nodetypes="cccccccc"
       inkscape:export-filename="F:\Pictures\SVG\path2533.png"
       inkscape:export-xdpi="89.669998"
       inkscape:export-ydpi="89.669998" />
  </g>
  <g
     inkscape:groupmode="layer"
     id="layer10"
     inkscape:label="Column Fill"
     style="display:none"
     transform="translate(-272.92525,23.767133)">
    <path
       style="fill:none;stroke:#009dba;stroke-width:1.20073593;stroke-linecap:butt;stroke-linejoin:bevel;stroke-miterlimit:4;stroke-opacity:1;stroke-dasharray:none"
       d="m 163.04589,180.1229 c -9.9e-4,-0.0826 -0.54128,-2.92888 -1.20071,-6.32515 -0.65935,-3.39632 -1.19892,-6.69359 -1.19892,-7.32732 0,-1.35898 1.29421,-1.63324 9.45577,-2.00419 l 5.55343,-0.25243 0,5.02774 0,5.02775 -3.90241,0 -3.90238,0 0,-2.64454 0,-2.6445 2.4015,0.32208 c 1.87806,0.25191 2.40145,0.12574 2.40145,-0.57895 0,-0.57476 -0.81513,-1.03576 -2.25139,-1.27317 -4.3822,-0.72434 -4.35265,-0.74585 -4.35265,3.16778 0,5.51473 -0.0695,5.45239 6.08396,5.45239 l 5.35513,0 -0.16617,-38.27348 c -0.0914,-21.05037 -0.0531,-47.264951 0.0851,-58.254582 0.14756,-11.735993 0.0237,-20.178784 -0.30019,-20.460095 -0.3033,-0.263416 -2.75137,-0.362702 -5.44018,-0.22062 l -4.88863,0.258319 -0.26661,4.292019 c -0.14661,2.360616 -0.18791,4.392238 -0.0918,4.514729 0.0962,0.122497 1.67307,0.0355 3.50429,-0.193298 2.43812,-0.304606 3.32947,-0.666679 3.32947,-1.352393 0,-0.745915 -0.4885,-0.870872 -2.40142,-0.614296 l -2.4015,0.322107 0,-2.64452 0,-2.644536 3.60221,0 3.6022,0 0,4.995507 0,4.995508 -5.25323,-0.215796 c -8.42664,-0.346125 -9.15561,-0.544202 -9.15561,-2.487741 0,-1.85965 0.96921,-7.604875 1.86235,-11.039779 l 0.58542,-2.251379 20.90756,0 20.90763,0 0.94387,4.953037 c 1.88719,9.902523 1.88943,9.974101 0.31981,10.294631 -0.76974,0.157194 -4.16877,0.426728 -7.55336,0.598933 l -6.15376,0.313099 0,-5.077992 0,-5.078028 3.53787,0 c 3.84803,0 4.26691,0.363649 4.26691,3.704084 0,1.76267 -0.0542,1.795617 -2.32209,1.412451 -1.74588,-0.294966 -2.40539,-0.175493 -2.65751,0.481398 -0.35702,0.930474 1.76998,1.606481 5.05465,1.606481 1.63816,0 1.72605,-0.13378 1.72605,-2.626606 0,-1.444636 -0.16886,-3.470879 -0.37522,-4.50276 l -0.37523,-1.87615 -5.42529,0 -5.4253,0 0.39619,19.361865 c 0.21795,10.649027 0.3967,37.125253 0.39723,58.836073 l 9.9e-4,39.47419 2.25138,-0.005 c 1.23826,-0.003 3.63817,-0.17187 5.33316,-0.37553 l 3.08184,-0.3703 0.41233,-4.18521 c 0.22681,-2.30188 0.28118,-4.31652 0.12075,-4.47696 -0.16048,-0.16042 -1.80038,-0.10324 -3.64432,0.12715 -2.41005,0.3011 -3.35257,0.67456 -3.35257,1.32835 0,0.71925 0.5508,0.84739 2.63366,0.61263 l 2.63355,-0.29687 -0.31468,2.47016 c -0.17317,1.35859 -0.34516,2.50418 -0.38226,2.54574 -0.0371,0.0416 -1.62096,0.19888 -3.51963,0.34959 l -3.45212,0.27391 -5.9e-4,-5.15248 -6e-4,-5.15252 7.05493,0.3965 c 3.88025,0.21812 7.12249,0.42075 7.20503,0.45029 0.46025,0.16481 0.0181,5.14145 -0.86687,9.75795 l -1.01696,5.305 -21.4968,0 c -11.82332,0 -21.49775,-0.0675 -21.49867,-0.15007 l -6e-5,0 z"
       id="path3317"
       inkscape:export-filename="F:\Pictures\SVG\path2533.png"
       inkscape:export-xdpi="89.669998"
       inkscape:export-ydpi="89.669998" />
    <path
       style="fill:none;stroke:#009dba;stroke-width:1.20073593;stroke-linecap:butt;stroke-linejoin:bevel;stroke-miterlimit:4;stroke-opacity:1;stroke-dasharray:none;display:inline"
       d="m 937.05152,180.57826 c -9.9e-4,-0.0825 -0.54129,-2.92885 -1.20071,-6.32514 -0.65937,-3.39629 -1.19892,-6.69356 -1.19892,-7.32731 0,-1.35895 1.29421,-1.63323 9.45577,-2.00422 l 5.55345,-0.25241 0,5.02774 0,5.02778 -3.90241,0 -3.90242,0 0,-2.64455 0,-2.64453 2.40152,0.32209 c 1.87806,0.25194 2.40146,0.12576 2.40146,-0.57893 0,-0.57479 -0.81512,-1.03576 -2.25132,-1.27315 -4.38227,-0.72437 -4.35271,-0.74586 -4.35271,3.16777 0,5.51472 -0.0695,5.45239 6.08388,5.45239 l 5.35525,0 -0.16627,-38.27347 c -0.0913,-21.05041 -0.053,-47.264968 0.0851,-58.2546 0.1476,-11.735995 0.0238,-20.178787 -0.30017,-20.460097 -0.30328,-0.263414 -2.75132,-0.362702 -5.44021,-0.220619 l -4.88859,0.258324 -0.26662,4.292015 c -0.1466,2.360618 -0.18792,4.392236 -0.0918,4.514724 0.0961,0.1225 1.67306,0.0355 3.50427,-0.193292 2.43813,-0.30461 3.3295,-0.666679 3.3295,-1.352398 0,-0.745913 -0.4885,-0.870867 -2.40146,-0.614293 l -2.40148,0.322109 0,-2.644525 0,-2.644534 3.60222,0 3.6022,0 0,4.995511 0,4.995502 -5.25317,-0.215795 c -8.42672,-0.346123 -9.1557,-0.5442 -9.1557,-2.487738 0,-1.859651 0.96917,-7.604875 1.86236,-11.039775 l 0.58543,-2.251381 20.90754,0 20.90757,0 0.94396,4.953033 c 1.88719,9.902525 1.88941,9.974098 0.31982,10.294634 -0.7698,0.157191 -4.16876,0.426729 -7.55337,0.598929 l -6.15382,0.3131 0,-5.077992 0,-5.078028 3.53794,0 c 3.84795,0 4.26688,0.363651 4.26688,3.704088 0,1.762668 -0.0541,1.795615 -2.32211,1.412446 -1.74591,-0.294965 -2.40541,-0.175493 -2.65743,0.481401 -0.35709,0.930476 1.76997,1.606482 5.05459,1.606482 1.63815,0 1.72606,-0.133779 1.72606,-2.626608 0,-1.444638 -0.16884,-3.470877 -0.37521,-4.502761 l -0.37529,-1.87615 -5.42524,0 -5.42533,0 0.39619,19.36187 c 0.21794,10.649026 0.39665,37.125228 0.39726,58.836048 l 9.7e-4,39.47418 2.25143,-0.005 c 1.23817,-0.003 3.63815,-0.17185 5.33315,-0.37551 l 3.08181,-0.37026 0.41232,-4.18528 c 0.22684,-2.30187 0.28113,-4.3165 0.12078,-4.47696 -0.16044,-0.16039 -1.80039,-0.10321 -3.64432,0.12722 -2.41003,0.3011 -3.35261,0.67452 -3.35261,1.3283 0,0.71922 0.55083,0.84736 2.63367,0.6126 l 2.63358,-0.29683 -0.31475,2.47011 c -0.17315,1.35859 -0.34512,2.50419 -0.38222,2.54579 -0.0371,0.0416 -1.62092,0.19887 -3.5196,0.3496 l -3.45213,0.27394 -6.1e-4,-5.15254 -5.4e-4,-5.15251 7.05497,0.39652 c 3.88012,0.21811 7.12244,0.42074 7.20494,0.4503 0.4603,0.16475 0.0181,5.14142 -0.86688,9.75793 l -1.01695,5.30501 -21.49676,0 c -11.82342,0 -21.49782,-0.0675 -21.49877,-0.15011 l 0,0 z"
       id="path3331"
       inkscape:export-filename="F:\Pictures\SVG\path2533.png"
       inkscape:export-xdpi="89.669998"
       inkscape:export-ydpi="89.669998" />
  </g>
  <g
     inkscape:groupmode="layer"
     id="layer7"
     inkscape:label="top"
     transform="translate(-146.83066,112.00597)"
     style="display:none" />
  <g
     inkscape:groupmode="layer"
     id="layer11"
     inkscape:label="top fill"
     transform="translate(-272.92525,23.767133)"
     style="display:none" />
  <g
     inkscape:groupmode="layer"
     id="layer12"
     inkscape:label="bottom"
     transform="translate(-272.92525,23.767133)"
     style="display:none" />
  <g
     inkscape:groupmode="layer"
     id="layer13"
     inkscape:label="bottom fill"
     transform="translate(-272.92525,23.767133)"
     style="display:none" />
</svg>
