<?xml version="1.0" encoding="UTF-8" standalone="no"?>
<!-- Created with Inkscape (http://www.inkscape.org/) -->

<svg
   xmlns:dc="http://purl.org/dc/elements/1.1/"
   xmlns:cc="http://creativecommons.org/ns#"
   xmlns:rdf="http://www.w3.org/1999/02/22-rdf-syntax-ns#"
   xmlns:svg="http://www.w3.org/2000/svg"
   xmlns="http://www.w3.org/2000/svg"
   xmlns:xlink="http://www.w3.org/1999/xlink"
   xmlns:sodipodi="http://sodipodi.sourceforge.net/DTD/sodipodi-0.dtd"
   xmlns:inkscape="http://www.inkscape.org/namespaces/inkscape"
   width="1774.4624"
   height="1475.0005"
   id="svg2406"
   sodipodi:version="0.32"
   inkscape:version="0.48.1 "
   version="1.0"
   sodipodi:docname="htg_icon.svg"
   inkscape:output_extension="org.inkscape.output.svg.inkscape">
  <defs
     id="defs2408">
    <inkscape:perspective
       sodipodi:type="inkscape:persp3d"
       inkscape:vp_x="0 : 526.18109 : 1"
       inkscape:vp_y="0 : 1000 : 0"
       inkscape:vp_z="744.09448 : 526.18109 : 1"
       inkscape:persp3d-origin="372.04724 : 350.78739 : 1"
       id="perspective2414" />
    <inkscape:perspective
       id="perspective3546"
       inkscape:persp3d-origin="372.04724 : 350.78739 : 1"
       inkscape:vp_z="744.09448 : 526.18109 : 1"
       inkscape:vp_y="0 : 1000 : 0"
       inkscape:vp_x="0 : 526.18109 : 1"
       sodipodi:type="inkscape:persp3d" />
  </defs>
  <sodipodi:namedview
     id="base"
     pagecolor="#ff0000"
     bordercolor="#666666"
     borderopacity="1.0"
     gridtolerance="10000"
     guidetolerance="10"
     objecttolerance="10"
     inkscape:pageopacity="1"
     inkscape:pageshadow="2"
     inkscape:zoom="0.051916496"
     inkscape:cx="-2367.0548"
     inkscape:cy="1433.5709"
     inkscape:document-units="px"
     inkscape:current-layer="layer1"
     showgrid="false"
     inkscape:window-width="1280"
     inkscape:window-height="962"
     inkscape:window-x="-8"
     inkscape:window-y="-8"
     inkscape:window-maximized="1" />
  <metadata
     id="metadata2411">
    <rdf:RDF>
      <cc:Work
         rdf:about="">
        <dc:format>image/svg+xml</dc:format>
        <dc:type
           rdf:resource="http://purl.org/dc/dcmitype/StillImage" />
      </cc:Work>
    </rdf:RDF>
  </metadata>
  <g
     inkscape:groupmode="layer"
     id="layer2"
     inkscape:label="photo"
     style="display:none"
     sodipodi:insensitive="true"
     transform="translate(338.17672,6.3312442)">
    <image
       y="-703.28571"
       x="-1542.3622"
       id="image3548"
       height="2338"
       width="1700"
       sodipodi:absref="C:\Projects\SVG\htg\scan0001.jpg"
       xlink:href="C:\Projects\SVG\htg\scan0001.jpg"
       transform="matrix(0,-1,1,0,0,0)" />
  </g>
  <g
     inkscape:groupmode="layer"
     id="layer3"
     inkscape:label="base"
     transform="translate(338.17672,6.3312442)"
     sodipodi:insensitive="true"
     style="display:none">
    <path
       style="fill:none;stroke:#ffffff;stroke-width:4;stroke-linecap:butt;stroke-linejoin:miter;stroke-miterlimit:4;stroke-opacity:1;stroke-dasharray:none;marker-start:none"
       d="m 862.85714,466.6479 c 314.28576,-11.42857 571.42856,-320 571.42856,-320 C 1282.8571,40.933611 1140,58.076468 1140,58.076468"
       id="path3555"
       inkscape:connector-curvature="0" />
    <path
       style="fill:none;stroke:#ffffff;stroke-width:4;stroke-linecap:butt;stroke-linejoin:miter;stroke-miterlimit:4;stroke-opacity:1;stroke-dasharray:none"
       d="M 345.71428,486.6479 C 582.85714,118.07647 1237.7529,-4.3312442 1237.7529,-4.3312442 c -3.4833,54.4382122 0.1444,69.1733572 0.1444,69.1733572"
       id="path4842"
       sodipodi:nodetypes="ccc"
       inkscape:connector-curvature="0" />
    <path
       style="fill:none;stroke:#ffffff;stroke-width:4;stroke-linecap:butt;stroke-linejoin:miter;stroke-miterlimit:4;stroke-opacity:1;stroke-dasharray:none"
       d="M 346.89775,485.46443 C -161.67367,1085.4644 340,1318.0765 340,1318.0765"
       id="path4848"
       sodipodi:nodetypes="cc"
       inkscape:connector-curvature="0" />
    <path
       style="fill:none;stroke:#ffffff;stroke-width:4;stroke-linecap:butt;stroke-linejoin:miter;stroke-miterlimit:4;stroke-opacity:1;stroke-dasharray:none"
       d="M 584.69538,1279.3489 C 476.30059,1364.9454 340,1318.0765 340,1318.0765"
       id="path4850"
       sodipodi:nodetypes="cc"
       inkscape:connector-curvature="0" />
    <path
       style="fill:none;stroke:#ffffff;stroke-width:4;stroke-linecap:butt;stroke-linejoin:miter;stroke-miterlimit:4;stroke-opacity:1;stroke-dasharray:none"
       d="M 354.92721,1123.322 C 246.35578,977.60773 540,912.36218 540,912.36218 646.26216,880.26798 657.14285,800.93361 657.14285,800.93361"
       id="path4852"
       sodipodi:nodetypes="ccc"
       inkscape:connector-curvature="0" />
    <path
       style="fill:none;stroke:#ffffff;stroke-width:4;stroke-linecap:butt;stroke-linejoin:miter;stroke-miterlimit:4;stroke-opacity:1;stroke-dasharray:none"
       d="m 516.65386,1150.1118 c 117.93113,-19.7813 68.84422,-85.2746 68.84422,-85.2746"
       id="path4858"
       sodipodi:nodetypes="cc"
       inkscape:connector-curvature="0" />
    <path
       style="fill:none;stroke:#ffffff;stroke-width:4;stroke-linecap:butt;stroke-linejoin:miter;stroke-miterlimit:4;stroke-opacity:1;stroke-dasharray:none"
       d="m 665.71429,829.50504 c -11.42858,80 2.41737,144.70732 2.41737,144.70732"
       id="path4872"
       sodipodi:nodetypes="cc"
       inkscape:connector-curvature="0" />
    <path
       style="fill:none;stroke:#ffffff;stroke-width:4;stroke-linecap:butt;stroke-linejoin:miter;stroke-miterlimit:4;stroke-opacity:1;stroke-dasharray:none"
       d="m 745.71429,1166.6479 c 117.14285,200 251.42857,85.7143 251.42857,85.7143 191.42854,-165.7143 141.65324,-303.30659 141.65324,-303.30659"
       id="path4874"
       sodipodi:nodetypes="ccc"
       inkscape:connector-curvature="0" />
    <path
       style="fill:none;stroke:#ffffff;stroke-width:4;stroke-linecap:butt;stroke-linejoin:miter;stroke-miterlimit:4;stroke-opacity:1;stroke-dasharray:none"
       d="m 590.96301,1276.7121 c 220,337.1428 491.89409,52.7929 491.89409,52.7929 180,-205.7142 114.2858,-434.28567 114.2858,-434.28567"
       id="path4876"
       sodipodi:nodetypes="ccc"
       inkscape:connector-curvature="0" />
    <path
       style="fill:none;stroke:#ffffff;stroke-width:4;stroke-linecap:butt;stroke-linejoin:miter;stroke-miterlimit:4;stroke-opacity:1;stroke-dasharray:none"
       d="m 1165.7143,827.56288 c -98.5073,-101.97441 -155.6341,3.90045 -155.6341,3.90045 -65.28091,119.83944 64.2055,132.32742 64.2055,132.32742 148.7159,-6.29203 140,-145.71428 140,-145.71428 -6.3243,-140.89886 -71.4286,-148.57143 -71.4286,-148.57143 77.1429,177.14286 -25.7142,228.57143 -25.7142,228.57143 -78.3467,18.97283 -35.6341,-40.60999 -35.6341,-40.60999"
       id="path4878"
       sodipodi:nodetypes="ccccccc"
       inkscape:connector-curvature="0" />
    <path
       style="fill:none;stroke:#ffffff;stroke-width:4;stroke-linecap:butt;stroke-linejoin:miter;stroke-miterlimit:4;stroke-opacity:1;stroke-dasharray:none"
       d="m 1022.1028,946.19846 c 14.8958,-100.4333 70.2085,-90.0964 70.2085,-90.0964 27.275,-2.37616 34.4982,36.14724 34.4982,36.14724"
       id="path4880"
       sodipodi:nodetypes="ccc"
       inkscape:connector-curvature="0" />
    <path
       style="fill:none;stroke:#ffffff;stroke-width:4;stroke-linecap:butt;stroke-linejoin:miter;stroke-miterlimit:4;stroke-opacity:1;stroke-dasharray:none"
       d="m 682.85714,743.79075 c -2.85714,102.85715 42.85715,120 42.85715,120 104.63948,53.91866 108.71989,-70.67817 108.71989,-70.67817 6.17178,-52.31535 -42.98948,-33.55548 -42.98948,-33.55548 -24.53461,12.14671 -6.97463,31.26309 -6.97463,31.26309 11.57989,15.95531 50.22796,7.68323 50.22796,7.68323"
       id="path4884"
       sodipodi:nodetypes="cccccc"
       inkscape:connector-curvature="0" />
    <path
       style="fill:none;stroke:#ffffff;stroke-width:4;stroke-linecap:butt;stroke-linejoin:miter;stroke-miterlimit:4;stroke-opacity:1;stroke-dasharray:none"
       d="m 663.52278,948.35041 c 183.34614,56.96619 213.62008,-104.55966 213.62008,-104.55966 14.36069,-172.0051 -84.86304,-131.18407 -84.86304,-131.18407 -96.26787,54.71475 -9.33622,103.68411 -9.33622,103.68411 15.07225,10.23253 47.23997,4.65141 47.23997,4.65141"
       id="path4886"
       sodipodi:nodetypes="ccccc"
       inkscape:connector-curvature="0" />
    <path
       style="fill:none;stroke:#ffffff;stroke-width:4;stroke-linecap:butt;stroke-linejoin:miter;stroke-miterlimit:4;stroke-opacity:1;stroke-dasharray:none"
       d="m 789.61876,761.22651 c 4.3418,38.04173 45.71832,31.06863 45.71832,31.06863"
       id="path4888"
       sodipodi:nodetypes="cc"
       inkscape:connector-curvature="0" />
    <path
       style="fill:none;stroke:#ffffff;stroke-width:4;stroke-linecap:butt;stroke-linejoin:miter;stroke-miterlimit:4;stroke-opacity:1;stroke-dasharray:none"
       d="M 255.63307,580.49633 C -78.652639,829.06776 -17.140142,1086.2106 -17.140142,1086.2106 11.181285,1334.3615 274.28931,1275.3704 274.28931,1275.3704"
       id="path4899"
       sodipodi:nodetypes="ccc"
       inkscape:connector-curvature="0" />
    <path
       style="fill:none;stroke:#ffffff;stroke-width:4;stroke-linecap:butt;stroke-linejoin:miter;stroke-miterlimit:4;stroke-opacity:1;stroke-dasharray:none"
       d="m 259.66428,1277.7408 c 102.85715,100 17.47858,134.6214 17.47858,134.6214 -94.28572,37.1428 -65.71429,-51.4286 -65.71429,-51.4286 22.85714,-37.1428 62.85714,-22.8571 62.85714,-22.8571 -77.14285,-25.7143 -102.52142,48.4036 -102.52142,48.4036 -30.75893,83.6946 99.66428,80.1678 99.66428,80.1678 140.33572,-19.6626 87.22679,-141.6804 87.22679,-141.6804"
       id="path4902"
       sodipodi:nodetypes="ccccccc"
       inkscape:connector-curvature="0" />
    <path
       style="fill:none;stroke:#ffffff;stroke-width:4;stroke-linecap:butt;stroke-linejoin:miter;stroke-miterlimit:4;stroke-opacity:1;stroke-dasharray:none"
       d="M 200,623.79075 C -114.28571,523.79075 0.17331474,287.65805 0.17331474,287.65805 114.5975,58.739991 288.57143,241.45355 288.57143,241.45355 c 78.44863,92.28668 -45.71429,182.3372 -45.71429,182.3372 -65.71428,57.14286 -128.74474,5.05076 -128.74474,5.05076"
       id="path4904"
       sodipodi:nodetypes="ccccc"
       inkscape:connector-curvature="0" />
    <path
       style="fill:none;stroke:#ffffff;stroke-width:4;stroke-linecap:butt;stroke-linejoin:miter;stroke-miterlimit:4;stroke-opacity:1;stroke-dasharray:none"
       d="M 378.98984,440.93361 C 176.1327,549.50504 111.42857,426.6479 111.42857,426.6479 c -44.387238,-129.37853 102.85714,-140 102.85714,-140 53.44889,16.62291 28.57143,62.85714 28.57143,62.85714"
       id="path4906"
       sodipodi:nodetypes="cccc"
       inkscape:connector-curvature="0" />
    <path
       style="fill:none;stroke:#ffffff;stroke-width:4;stroke-linecap:butt;stroke-linejoin:miter;stroke-miterlimit:4;stroke-opacity:1;stroke-dasharray:none"
       d="m 213.62219,287.48474 c -51.25526,67.9079 -91.42857,40.83683 -91.42857,40.83683"
       id="path4908"
       sodipodi:nodetypes="cc"
       inkscape:connector-curvature="0" />
    <path
       style="fill:none;stroke:#ffffff;stroke-width:4;stroke-linecap:butt;stroke-linejoin:miter;stroke-miterlimit:4;stroke-opacity:1;stroke-dasharray:none"
       d="M 28.888322,241.2505 C -65.397392,78.393362 3.6939806,10.341878 3.6939806,10.341878"
       id="path4910"
       sodipodi:nodetypes="cc"
       inkscape:connector-curvature="0" />
    <path
       style="fill:none;stroke:#ffffff;stroke-width:4;stroke-linecap:butt;stroke-linejoin:miter;stroke-miterlimit:4;stroke-opacity:1;stroke-dasharray:none"
       d="M -18.816533,354.52607 C -138.81652,163.0975 2.8571429,9.5050398 2.8571429,9.5050398"
       id="path4912"
       sodipodi:nodetypes="cc"
       inkscape:connector-curvature="0" />
    <path
       style="fill:none;stroke:#ffffff;stroke-width:4;stroke-linecap:butt;stroke-linejoin:miter;stroke-miterlimit:4;stroke-opacity:1;stroke-dasharray:none"
       d="m 493.69185,1323.0444 c 88.57143,51.4286 130.95336,1.2846 130.95336,1.2846"
       id="path4914"
       sodipodi:nodetypes="cc"
       inkscape:connector-curvature="0" />
    <path
       style="fill:none;stroke:#ffffff;stroke-width:4;stroke-linecap:butt;stroke-linejoin:miter;stroke-miterlimit:4;stroke-opacity:1;stroke-dasharray:none"
       d="m 395.31,1329.9273 c 114.28572,154.2858 252.507,26.6484 252.507,26.6484 -111.42857,22.8571 -154.27764,-32.4799 -154.27764,-32.4799"
       id="path4916"
       sodipodi:nodetypes="ccc"
       inkscape:connector-curvature="0" />
    <path
       style="fill:none;stroke:#ffffff;stroke-width:4;stroke-linecap:butt;stroke-linejoin:miter;stroke-miterlimit:4;stroke-opacity:1;stroke-dasharray:none"
       d="m 75.378571,1250.5131 c -109.249996,268.4017 -262.775001,201.6812 -262.775001,201.6812 -226.72142,-72.6035 -126.88928,-285.7152 -126.88928,-285.7152"
       id="path4918"
       sodipodi:nodetypes="ccc"
       inkscape:connector-curvature="0" />
    <path
       style="fill:none;stroke:#ffffff;stroke-width:4;stroke-linecap:butt;stroke-linejoin:miter;stroke-miterlimit:4;stroke-opacity:1;stroke-dasharray:none"
       d="m -14.285715,1136.6479 c 24.2857148,215.7143 -157.142855,181.4286 -157.142855,181.4286 -250.50536,-66.9733 -94.28572,-277.1429 -94.28572,-277.1429 77.14286,-99.99999 5.71429,-79.99999 5.71429,-79.99999 -23.83756,13.10225 8.5417,30.07179 8.5417,30.07179 -74.28572,-5.71429 -23.28789,-54.77592 -23.28789,-54.77592 63.73604,-42.36693 86.17476,38.98984 86.17476,38.98984 18.2966,40.99268 -6.83828,77.60338 -6.83828,77.60338 -99.14388,150.6631 37.96667,180.4309 37.96667,180.4309 86.738313,5.7237 41.25098,-66.6341 41.25098,-66.6341 -40.13464,-49.9598 -68.58323,-1.3057 -68.58323,-1.3057 -20.59882,35.3742 9.35157,61.5213 9.35157,61.5213"
       id="path4920"
       sodipodi:nodetypes="cccccccccccc"
       inkscape:connector-curvature="0" />
    <path
       style="fill:none;stroke:#ffffff;stroke-width:4;stroke-linecap:butt;stroke-linejoin:miter;stroke-miterlimit:4;stroke-opacity:1;stroke-dasharray:none"
       d="m -69.57768,1064.2961 c -7.564285,-48.2357 52.100893,-92.94464 52.100893,-92.94464"
       id="path4924"
       sodipodi:nodetypes="cc"
       inkscape:connector-curvature="0" />
    <path
       style="fill:none;stroke:#ffffff;stroke-width:4;stroke-linecap:butt;stroke-linejoin:miter;stroke-miterlimit:4;stroke-opacity:1;stroke-dasharray:none"
       d="m -46.71954,1000.4467 c -142.01975,0.013 -176.1376,-122.37023 -176.1376,-122.37023 -29.55185,-104.21393 51.42857,-162.85714 51.42857,-162.85714 -57.63307,170.59173 37.31617,200.34663 37.31617,200.34663 42.451042,18.23712 51.745466,5.54097 51.745466,5.54097"
       id="path4926"
       sodipodi:nodetypes="ccccc"
       inkscape:connector-curvature="0" />
    <path
       style="fill:none;stroke:#ffffff;stroke-width:4;stroke-linecap:butt;stroke-linejoin:miter;stroke-miterlimit:4;stroke-opacity:1;stroke-dasharray:none"
       d="m 125.71429,698.07647 c -177.142861,-177.14286 -262.85715,22.85714 -262.85715,22.85714 -48.57143,105.71429 14.28572,162.85714 14.28572,162.85714 59.796946,65.33792 111.601884,64.38724 111.601884,64.38724"
       id="path4928"
       sodipodi:nodetypes="cccc"
       inkscape:connector-curvature="0" />
    <path
       style="fill:none;stroke:#ffffff;stroke-width:4;stroke-linecap:butt;stroke-linejoin:miter;stroke-miterlimit:4;stroke-opacity:1;stroke-dasharray:none"
       d="m 58.326324,780.09678 c -28.774478,-81.67369 -86.897753,-36.30603 -86.897753,-36.30603 -43.030458,42.13415 -1.84699,86.23424 -1.84699,86.23424 42.569986,37.57359 53.275562,16.62291 53.275562,16.62291"
       id="path4930"
       sodipodi:nodetypes="cccc"
       inkscape:connector-curvature="0" />
    <path
       style="fill:none;stroke:#ffffff;stroke-width:4;stroke-linecap:butt;stroke-linejoin:miter;stroke-miterlimit:4;stroke-opacity:1;stroke-dasharray:none"
       d="M 1057.6628,40.096773 C 834.80566,-2.7603694 785.71429,46.647897 785.71429,46.647897 729.64105,132.99597 725.19434,171.87197 725.19434,171.87197"
       id="path4932"
       sodipodi:nodetypes="ccc"
       inkscape:connector-curvature="0" />
    <path
       style="fill:none;stroke:#ffffff;stroke-width:4;stroke-linecap:butt;stroke-linejoin:miter;stroke-miterlimit:4;stroke-opacity:1;stroke-dasharray:none"
       d="m 586.31622,1064.9947 c -61.19581,-35.3371 -92.03051,4.0609 -92.03051,4.0609 -41.66941,54.8634 37.14286,91.878 37.14286,91.878 156.98229,53.8523 253.25854,-158.5072 253.25854,-158.5072 53.04961,-90.20866 146.29203,-56.0835 146.29203,-56.0835 129.48656,44.0288 20.14444,162.8571 20.14444,162.8571 -56.05118,61.0596 -102.08659,5.586 -102.08659,5.586 -21.07556,-40.2727 42.23102,-75.3612 42.23102,-75.3612 -38.60333,81.6855 23.3227,40.1443 23.3227,40.1443 73.24245,-63.756 -4.65487,-93.08173 -4.65487,-93.08173 C 836.49245,962.35774 760,1143.7908 760,1143.7908 c -77.93774,130.9928 -155.44035,131.4875 -155.44035,131.4875 -192.0942,36.8484 -238.84536,-97.2018 -238.84536,-97.2018 -48.74807,-146.6334 86.1444,-215.3815 86.1444,-215.3815 131.29285,-74.28571 219.56988,18.23861 219.56988,18.23861 65.71429,82.85719 20.75443,143.16219 20.75443,143.16219"
       id="path4934"
       sodipodi:nodetypes="cccccccccccccccc"
       inkscape:connector-curvature="0" />
    <path
       style="fill:none;stroke:#ffffff;stroke-width:4;stroke-linecap:butt;stroke-linejoin:miter;stroke-miterlimit:4;stroke-opacity:1;stroke-dasharray:none"
       d="m -13.697321,1137.9086 c -20.51484,-108.153 -176.555359,-94.2857 -176.555359,-94.2857"
       id="path4936"
       sodipodi:nodetypes="cc"
       inkscape:connector-curvature="0" />
    <path
       style="fill:none;stroke:#ffffff;stroke-width:4;stroke-linecap:butt;stroke-linejoin:miter;stroke-miterlimit:4;stroke-opacity:1;stroke-dasharray:none"
       d="M 687.1723,798.01759 C 881.45802,495.16045 969.17818,450.05292 969.17818,450.05292"
       id="path4938"
       sodipodi:nodetypes="cc"
       inkscape:connector-curvature="0" />
    <path
       style="fill:none;stroke:#ffffff;stroke-width:4;stroke-linecap:butt;stroke-linejoin:miter;stroke-miterlimit:4;stroke-opacity:1;stroke-dasharray:none"
       d="m 876.34321,777.69779 c 20.76652,-11.13567 29.7438,-18.41931 29.7438,-18.41931 -5.11639,32.80509 -27.08677,43.63979 -27.08677,43.63979"
       id="path3190"
       sodipodi:nodetypes="ccc"
       inkscape:connector-curvature="0" />
    <path
       style="fill:none;stroke:#ffffff;stroke-width:4;stroke-linecap:butt;stroke-linejoin:miter;stroke-miterlimit:4;stroke-opacity:1;stroke-dasharray:none"
       d="m 539.69563,1146.0002 c -20.43012,-69.8029 -13.62008,-95.3405 -13.62008,-95.3405"
       id="path3193"
       inkscape:connector-curvature="0" />
    <path
       style="fill:none;stroke:#ffffff;stroke-width:4;stroke-linecap:butt;stroke-linejoin:miter;stroke-miterlimit:4;stroke-opacity:1;stroke-dasharray:none"
       d="m 712.68292,1107.7396 c -8.427,-12.0386 -7.22314,-18.0579 -7.22314,-18.0579"
       id="path3195"
       inkscape:connector-curvature="0" />
  </g>
  <g
     inkscape:groupmode="layer"
     id="layer1"
     inkscape:label="fill"
     style="display:inline">
    <path
       style="fill:#000000;fill-opacity:1;fill-rule:nonzero;stroke:none"
       d="m 728.3555,1331.6343 c -29.19183,-3.7922 -49.10506,-9.749 -66.21209,-19.8068 -60.80221,-35.7474 -118.65954,-92.6949 -152.44818,-150.0508 -47.45649,-80.5578 -60.53808,-179.39071 -37.43993,-282.86849 24.26421,-108.70148 87.68889,-226.66731 190.94124,-355.1376 12.77147,-15.89091 28.50033,-36.47685 34.95252,-45.74654 55.69449,-80.01287 134.45341,-153.36209 237.26972,-220.97269 48.3057,-31.76521 86.07332,-53.06377 149.00952,-84.03237 114.1701,-56.17891 232.9331,-100.718369 367.4448,-137.802006 28.4103,-7.832457 120.1832,-30.2489834 120.5296,-29.440642 0.079,0.1847919 -0.3094,13.735085 -0.8639,30.111696 l -1.0081,29.775627 -12.3783,-1.524058 c -6.808,-0.838269 -27.8179,-2.197663 -46.6884,-3.020884 -29.5364,-1.288512 -34.3099,-0.995036 -34.3099,2.109541 0,2.998397 6.595,3.839965 39.1253,4.992681 58.8806,2.086379 107.4904,13.288358 165.9124,38.233945 28.1767,12.03117 81.6366,42.18173 83.2211,46.93554 1.1615,3.48468 -39.6897,46.11564 -77.5839,80.96413 -151.4512,139.27781 -326.0542,211.2681 -476.1253,223.37095 -14.5117,1.17027 -30.6982,17.09508 -30.6982,19.19747 0,3.57702 34.7832,-0.80163 75.5183,-6.39147 14.3883,-1.97442 26.6031,-3.14724 27.1441,-2.6063 0.5408,0.54099 -6.1565,7.25191 -14.8828,14.91332 -46.8269,41.11184 -128.3474,143.78345 -206.052,259.51439 -30.4991,21.49698 -17.0611,7.64064 -42.9784,42.47602 -0.5521,36.44269 18.9152,74.40176 39.7203,86.15901 24.4084,13.79361 54.9998,18.87307 71.6477,11.89667 20.3339,-8.52094 34.5866,-30.0801 41.2668,-62.42105 8.8873,-43.02626 1.5277,-59.79766 -26.3505,-60.04819 -24.7482,-0.22232 -38.9421,16.19565 -29.1921,33.76598 5.9141,10.65779 15.7351,14.87011 34.7101,14.8873 l 17.5016,0.0159 -1.6204,6.62121 c -2.1245,8.68128 -4.7458,10.17271 -17.733,10.09022 -29.8576,-0.18963 -60.1928,-26.50391 -60.1928,-52.21421 0,-13.25048 4.1509,-21.25415 17.271,-33.30244 14.8592,-13.64516 25.593,-19.60952 38.8003,-21.55979 27.2782,-4.02806 49.6636,11.45175 59.5581,41.18517 6.2858,18.88947 9.1683,51.9196 6.9814,80.00343 -3.861,49.58253 -43.3193,100.10371 -91.0187,116.53779 -206.93225,17.75267 -94.7078,-36.6628 -120.6346,0.0432 -107.85044,-25.52794 -240.74535,-20.93614 -308.25368,189.22504 5.257,36.4385 16.56843,61.3572 38.92958,85.7603 60.85589,52.2545 97.55918,67.571 166.95273,69.9702 -23.39779,15.8826 -41.48722,18.0062 -65.92511,24.4781 -25.81285,6.6492 -75.5403,9.3849 -103.81792,5.7115 z M 898.09924,870.71325 c 22.45673,-6.19748 35.85999,-13.95694 51.98612,-30.09569 19.4223,-19.43809 26.26454,-35.17894 26.26454,-60.42557 0,-25.37281 -6.82009,-40.96195 -26.58043,-60.75764 -23.18434,-23.22575 -47.91107,-33.08599 -82.9705,-33.08599 -35.44586,0 -59.50613,9.58007 -82.88815,33.00367 -19.8487,19.88383 -26.66277,35.43265 -26.66277,60.83996 0,25.37282 6.82009,40.96196 26.58043,60.75764 23.27921,23.32072 46.28057,32.57554 81.76664,32.89928 11.25605,0.10278 25.88291,-1.30833 32.50412,-3.13564 z"
       id="path2423"
       inkscape:connector-curvature="0"
       sodipodi:nodetypes="csssssssscscsssssssssscsccsssssscsssssssccccccccccsssssssc" />
    <path
       style="fill:#000000;fill-opacity:1;fill-rule:nonzero;stroke:none"
       d="m 496.3799,1261.8095 c -52.75605,-3.6362 -101.38169,-22.8223 -133.23612,-52.5708 -35.20703,-32.8795 -52.2397,-68.7933 -62.63235,-132.0619 -4.71388,-28.6974 -5.19137,-80.7545 -0.98375,-107.26362 21.84149,-137.60694 103.29291,-262.86638 243.92902,-375.12406 14.09324,-11.2494 25.62408,-21.28178 25.62408,-22.29419 0,-4.85441 -16.51203,-3.50412 -39.49981,15.01519 -13.76549,11.08975 -37.79718,11.6726 -38.83764,11.69949 -4.9222,0.12717 -30.39208,-6.65933 -52.7625,-17.90805 -62.91029,-31.63397 -106.06372,-75.11324 -127.07217,-128.0318 -21.95241,-55.29639 -16.20689,-130.24132 14.1456,-184.51668 21.68901,-38.78348 51.03703,-69.91881 79.1695,-83.99086 20.07238,-10.04038 35.69092,-12.9606 62.04582,-11.60078 38.18131,1.97005 73.11134,17.37537 111.88331,49.34423 30.23023,24.92599 43.186,48.53573 43.23987,78.79777 0.0548,30.9164 -15.71817,61.48218 -48.60137,94.1814 -22.22192,22.09785 -40.38474,34.7836 -58.09492,40.57623 -23.53864,7.6992 -64.14959,0.8892 -82.11982,-13.77049 -5.19012,-4.23403 -7.39546,-9.19082 -10.34807,-23.25809 -4.66728,-22.238 -2.9817,-42.20848 4.92912,-58.39907 l 5.82345,-11.91817 20.9729,-0.0286 c 26.10343,-0.0356 35.17841,-4.32413 57.89588,-27.3592 l 16.00611,-16.23011 7.56757,3.66508 c 16.90736,8.18844 24.85369,26.11619 19.49862,43.99025 -3.05034,10.18071 -1.8776,14.14403 2.80053,9.46583 1.57535,-1.5754 3.25938,-10.08499 3.74207,-18.91019 0.75466,-13.80087 0.0877,-17.21302 -4.76775,-24.38852 -7.45387,-11.01562 -26.74225,-21.54533 -36.4117,-19.87753 -49.85063,8.59821 -86.46113,30.5964 -99.58972,59.84023 -7.69376,17.13747 -8.63613,50.04723 -2.05381,71.7181 4.22649,13.91488 7.29352,18.90973 18.75357,30.54142 26.02095,26.41081 60.67996,39.47906 104.27356,39.31676 36.43005,-0.13556 72.10688,-8.57129 114.03478,-26.96318 8.96819,-3.93389 16.77245,-6.68594 17.34261,-6.11563 1.39444,1.39463 -22.31726,34.30505 -41.09625,57.03859 -136.00547,164.64647 -210.19732,337.35651 -202.52439,471.4537 5.94908,103.97315 45.90857,188.32285 123.50259,260.69905 l 24.09306,22.4729 -18.86814,1.4803 c -10.37739,0.8143 -23.15845,1.8061 -28.40245,2.2041 -5.24399,0.3981 -20.26089,-0.016 -33.37089,-0.9191 z"
       id="path2425"
       inkscape:connector-curvature="0"
       sodipodi:nodetypes="cssssssssssssssssscscsscscscssssssscssscccc" />
    <path
       style="fill:#000000;fill-opacity:1;fill-rule:nonzero;stroke:#ffffff;stroke-width:9.63084984;stroke-linecap:butt;stroke-linejoin:miter;stroke-miterlimit:4;stroke-opacity:0;stroke-dasharray:none"
       d="M 310.22927,337.79655 C 272.26961,268.01437 264.70786,188.87298 289.0643,116.28423 c 6.97377,-20.783761 24.28782,-57.579893 28.24413,-60.025046 1.63513,-1.010493 1.95603,-0.01965 0.89189,2.753484 -0.91426,2.382673 -2.30587,13.665984 -3.09232,25.074039 -2.65342,38.489043 9.38319,86.413573 34.14584,135.954163 l 13.05941,26.12683 -13.13677,22.0274 c -13.61424,22.82807 -20.34081,39.3713 -27.32135,67.19376 l -4.08295,16.27381 -7.54291,-13.86612 z"
       id="path2428"
       inkscape:connector-curvature="0" />
    <path
       style="fill:#000000;fill-opacity:1;fill-rule:nonzero;stroke:#000000;stroke-width:9.63084984;stroke-linecap:butt;stroke-linejoin:miter;stroke-miterlimit:4;stroke-opacity:1;stroke-dasharray:none"
       d="m 1059.1525,148.00462 c 11.7923,-39.30928 51.69,-111.098315 65.7992,-118.394527 25.9992,-13.444763 83.2435,-20.07281 138.9905,-16.093078 36.0184,2.571292 104.2949,11.319379 106.6388,13.663287 1.6791,1.678922 1.2385,1.844838 -40.6665,15.315749 -72.7382,23.382596 -169.8581,61.979139 -239.1193,95.028729 -29.7095,14.17642 -33.0873,15.29521 -31.6427,10.47984 z"
       id="path2430"
       inkscape:connector-curvature="0" />
    <path
       style="fill:#000000;fill-opacity:1;fill-rule:nonzero;stroke:#ffffff;stroke-width:9.63084984;stroke-linecap:butt;stroke-linejoin:miter;stroke-miterlimit:4;stroke-opacity:0;stroke-dasharray:none"
       d="m 270.90059,921.68892 c -26.25481,-7.24798 -56.78848,-27.30755 -83.22143,-54.67359 -18.69408,-19.35394 -27.44588,-34.28527 -33.27006,-56.76153 -18.51801,-71.46317 32.4016,-169.85639 101.22948,-195.6082 17.51565,-6.55346 47.43189,-7.13567 67.46143,-1.31293 27.99674,8.13886 59.60471,27.46608 86.92856,53.15396 l 12.61786,11.86242 -17.01697,20.46556 c -9.35942,11.25605 -22.54979,28.32071 -29.31197,37.92147 -6.76218,9.60075 -12.92364,17.45591 -13.69218,17.45591 -0.76847,0 -3.9766,-5.43271 -7.12904,-12.0727 -11.94353,-25.15648 -33.1616,-36.83829 -57.6313,-31.72956 -36.26181,7.57074 -54.64166,42.01437 -42.08484,78.86667 7.06281,20.72807 38.94244,46.79782 57.22711,46.79782 l 5.93826,0 -6.87544,16.25206 c -5.4994,12.99936 -14.47516,40.03696 -23.17965,69.82366 -1.05022,3.594 -3.59986,3.53149 -17.98987,-0.44106 l 5e-5,4e-5 z"
       id="path2432"
       inkscape:connector-curvature="0" />
    <path
       style="fill:#000000;fill-opacity:1;fill-rule:nonzero;stroke:#000000;stroke-width:6.84323168;stroke-linecap:butt;stroke-linejoin:miter;stroke-miterlimit:4;stroke-opacity:1;stroke-dasharray:none"
       d="m 181.66107,1276.3862 c -17.74646,-1.8122 -44.69654,-12.3591 -63.46731,-24.8378 -39.875739,-26.5096 -51.90118,-67.1269 -34.916281,-117.9347 5.305148,-15.8692 15.985292,-35.8017 32.196771,-60.0887 18.88339,-28.2902 22.76041,-38.8951 17.02685,-46.5747 -2.98485,-3.9977 -4.56892,-4.539 -13.2845,-4.539 -8.8504,0 -10.27405,0.507 -13.47881,4.7994 -3.45287,4.6245 -3.47572,4.9865 -0.62874,9.9472 2.93316,5.111 2.92686,5.1397 -0.87841,4.0042 -6.656316,-1.9858 -11.442351,-5.8238 -12.495596,-10.0202 -1.189402,-4.739 3.799037,-15.4521 9.802626,-21.0522 9.14271,-8.5281 25.79127,-11.59144 35.55563,-6.5421 7.48802,3.8723 16.47289,15.4579 21.73384,28.0247 3.94776,9.4304 4.75661,13.8485 4.7434,25.9105 -0.0177,15.894 0.97454,13.1921 -18.21436,49.6134 -12.1848,23.1277 -15.70699,36.3357 -14.68027,55.0519 1.30225,23.7377 12.12043,39.067 36.00876,51.0235 11.5001,5.7563 15.3224,6.8366 24.15626,6.8284 14.14532,-0.018 21.68525,-2.3674 27.69976,-8.6498 4.40206,-4.5986 5.0225,-6.482 4.93432,-14.9804 -0.16674,-16.0682 -10.38841,-33.8772 -23.3378,-40.6614 -5.92062,-3.1017 -17.33519,-3.1049 -23.2658,-0.01 -14.47845,7.564 -22.93816,28.4904 -17.40297,43.0487 2.80824,7.3865 0.44669,7.0596 -7.86179,-1.0877 -20.7488,-20.3462 -22.66963,-47.3155 -5.85836,-82.2533 2.5539,-5.3076 7.50057,-14.3533 10.99258,-20.1016 l 6.34913,-10.4517 10.34909,0 c 15.33324,0 44.72689,4.7777 57.16117,9.2912 34.61662,12.5649 51.13955,32.7906 53.7128,65.749 2.41728,30.9611 -1.94286,56.7173 -12.97202,76.6265 -15.98409,28.854 -49.89158,43.926 -89.67997,39.8634 l 0,0 z"
       id="path2436"
       inkscape:connector-curvature="0" />
    <path
       style="fill:#000000;fill-opacity:1;fill-rule:nonzero;stroke:none"
       d="m 172.76763,1418.3756 c -9.85913,-2.2686 -39.6971,-13.8762 -51.7539,-20.1331 -18.72019,-9.715 -39.98151,-26.4743 -51.388519,-40.5067 -12.308191,-15.1413 -24.405984,-40.1503 -28.596141,-59.1151 -6.216173,-28.1346 -2.915226,-73.5482 7.490513,-103.0504 l 2.843442,-8.0617 1.135296,12.1208 c 4.167491,44.4951 40.213861,80.4031 102.003229,101.6117 30.43133,10.445 68.62325,8.5249 97.22823,-4.8885 39.57458,-18.5574 59.66808,-60.8624 57.66478,-121.4082 l -0.81491,-24.6284 6.21728,16.5103 c 11.24471,29.861 30.0307,55.5173 52.44032,71.619 5.78408,4.1558 10.86995,7.8141 11.30202,8.1293 2.15597,1.5725 -36.11274,73.1814 -47.95315,89.7303 -30.52608,42.6657 -67.08432,71.0813 -103.31315,80.3019 -11.65555,2.9663 -44.64819,4.0373 -54.50534,1.7688 l 0,0 z"
       id="path2438"
       inkscape:connector-curvature="0" />
    <path
       style="fill:#000000;fill-opacity:1;fill-rule:nonzero;stroke:#000000;stroke-width:8.88681602;stroke-linecap:butt;stroke-linejoin:miter;stroke-miterlimit:4;stroke-opacity:1;stroke-dasharray:none"
       d="m 904.61845,1272.156 c -52.6797,-5.0452 -97.11246,-30.3708 -123.70114,-70.5064 -14.93007,-22.5375 -20.1593,-42.1598 -20.24351,-75.9633 -0.0774,-31.0847 2.2126,-42.0259 13.65416,-65.241 29.24295,-59.3338 97.55545,-101.21131 165.32388,-101.34829 24.2952,-0.0491 47.87837,5.89583 70.89896,17.8725 30.1016,15.66039 46.2459,33.51379 59.2694,65.54289 5.6041,13.783 6.2528,17.9948 6.1369,39.8506 -0.1957,36.7064 -6.1983,47.4044 -36.9569,65.8603 -25.3583,15.2158 -43.28412,20.2643 -72.88788,20.5277 -24.96018,0.2223 -48.7635,-4.1628 -52.12562,-9.6024 -0.68871,-1.1147 4.50919,-3.6288 11.55086,-5.5871 26.98926,-7.5055 46.72355,-20.3844 51.83502,-33.8285 3.54341,-9.3205 2.38834,-27.5418 -2.35989,-37.2241 -3.54651,-7.2316 -6.80197,-10.0545 -16.32552,-14.1573 -34.19358,-14.73 -69.32049,-6.1551 -82.413,20.1181 -10.55377,21.1782 -6.666,38.4326 13.13227,58.2825 16.42439,16.467 29.02144,22.8077 53.81233,27.086 22.67604,3.913 45.18925,1.7206 69.63823,-6.7818 49.4386,-17.1931 98.2327,-66.2929 138.8886,-139.758 20.1046,-36.329 47.8386,-56.80876 83.4953,-61.65626 34.5339,-4.69486 71.6602,7.38627 93.4469,30.40796 20.9302,22.1168 17.2549,58.1231 -10.1345,99.2871 -20.7642,31.2061 -39.653,44.6497 -62.5841,44.542 -22.9327,-0.1079 -45.5287,-16.0134 -45.4123,-31.9666 0.069,-9.8039 8.7811,-25.254 20.3845,-36.1597 6.2087,-5.8355 11.6609,-10.2381 12.1154,-9.7834 0.4549,0.4547 -0.6861,4.4474 -2.5351,8.8724 -3.7438,8.9609 -4.3779,23.1371 -1.2553,28.0731 1.1827,1.8698 5.2116,3.1315 9.6008,3.0072 22.5218,-0.6384 54.7353,-34.5206 54.8951,-57.739 0.1559,-22.5596 -23.406,-43.7152 -48.8284,-43.8422 -17.6709,-0.088 -31.02,7.1846 -52.3788,28.5375 -21.498,21.4912 -42.1906,52.3205 -64.5054,96.104 -9.0077,17.6735 -21.3636,39.3088 -27.4582,48.078 -29.8592,42.965 -67.2046,76.0873 -99.3481,88.1137 -22.53501,8.4314 -75.88323,13.926 -106.62495,10.9818 l 0,0 z"
       id="path2446"
       inkscape:connector-curvature="0" />
    <path
       style="fill:#000000;fill-opacity:1;fill-rule:nonzero;stroke:none"
       d="m 1192.8109,1455.3144 c -53.1491,-10.1637 -99.8975,-35.9045 -143.0786,-78.7827 -18.5765,-18.4456 -41.4521,-45.7059 -54.68685,-65.1676 l -7.69866,-11.3207 9.06504,-1.5566 c 13.95457,-2.3963 30.47347,-7.4299 39.45447,-12.0226 28.0754,-14.3571 68.7046,-50.5972 90.0764,-80.3455 4.839,-6.7355 9.2453,-12.2464 9.7921,-12.2464 0.5468,0 5.7566,7.3134 11.578,16.252 31.4565,48.3012 73.4981,82.7146 113.7288,93.0938 18.4233,4.7531 53.1584,4.8866 70.6801,0.2717 26.6996,-7.0321 50.4661,-21.5178 78.3108,-47.7306 67.8306,-63.8551 112.0138,-135.8287 124.0324,-202.0459 2.9733,-16.3823 3.4712,-50.7725 1.0189,-70.39934 l -1.5289,-12.239 9.3846,-5.27451 c 13.188,-7.41223 30.6701,-23.28469 37.0941,-33.67884 l 5.4398,-8.80149 1.9254,7.06531 c 4.8668,17.85786 9.5476,80.28187 8.0221,106.98557 -6.4407,112.7493 -41.5601,205.7216 -110.4069,292.2818 -43.3523,54.5061 -122.8771,104.1847 -195.4273,122.0822 -25.4023,6.2666 -73.4343,8.0431 -96.7758,3.5794 z"
       id="path2450"
       inkscape:connector-curvature="0" />
    <path
       style="fill:#000000;fill-opacity:1;fill-rule:nonzero;stroke:#000000;stroke-width:9.63084984;stroke-linecap:butt;stroke-linejoin:miter;stroke-miterlimit:4;stroke-opacity:1;stroke-dasharray:none"
       d="m 1439.395,963.22906 c -5.4749,-0.93766 -16.3096,-4.25276 -24.0771,-7.36692 l -14.1224,-5.66213 0.7803,-9.55914 c 1.1102,-13.60211 9.2288,-36.5675 17.5385,-49.61186 6.1459,-9.64795 22.0886,-23.75165 26.8484,-23.75165 0.8632,0 -0.01,4.47011 -1.9353,9.93357 -4.8696,13.80253 -4.3972,19.68873 2.068,25.76243 4.4338,4.16546 8.4925,5.23237 19.8636,5.22168 21.9863,-0.0207 30.1715,-3.33196 44.6388,-18.05862 26.9435,-27.4263 37.0219,-54.54097 36.6872,-98.70201 -0.2455,-32.40092 -4.0485,-52.98785 -16.3452,-88.48343 -4.473,-12.91136 -7.2316,-23.4752 -6.13,-23.4752 6.0009,0 29.9572,26.34531 37.4055,41.13594 12.9597,25.73421 22.7702,71.97324 22.7702,107.31974 0,45.31139 -23.8224,92.19114 -57.9891,114.11577 -23.7706,15.25368 -64.8628,25.14449 -88.0014,21.18181 l 0,2e-5 z"
       id="path2452"
       inkscape:connector-curvature="0" />
    <path
       style="fill:#000000;fill-opacity:1;fill-rule:nonzero;stroke:#000000;stroke-width:9.63084984;stroke-linecap:butt;stroke-linejoin:miter;stroke-miterlimit:4;stroke-opacity:1;stroke-dasharray:none"
       d="m 1376.251,910.46163 c -15.9328,-16.79083 -20.154,-34.67063 -14.2016,-60.1554 8.0283,-34.37339 30.4814,-65.42638 56.5711,-78.23905 20.5096,-10.07223 39.7345,-9.26286 63.9214,2.69096 10.0806,4.98211 24.4325,14.74016 31.8933,21.68455 l 13.5648,12.62622 -6.5109,14.22158 c -6.4693,14.13121 -24.1345,39.65628 -27.4446,39.65628 -0.952,0 -3.9445,-4.59428 -6.6508,-10.20949 -6.8119,-14.13333 -17.8633,-21.10457 -33.3519,-21.0379 -31.3296,0.13483 -54.735,24.86069 -66.175,69.90779 l -4.2262,16.64218 -7.3896,-7.78772 z"
       id="path2454"
       inkscape:connector-curvature="0" />
    <path
       style="fill:#000000;fill-opacity:1;fill-rule:nonzero;stroke:#ffffff;stroke-width:2.40771246;stroke-linecap:butt;stroke-linejoin:miter;stroke-miterlimit:4;stroke-opacity:0;stroke-dasharray:none"
       d="m 1038.3485,1121.3652 c 0,-0.215 0.7878,-2.3752 1.7506,-4.8004 0.9629,-2.4252 2.0892,-5.5606 2.503,-6.9676 0.4138,-1.407 0.9126,-2.5543 1.1086,-2.5496 0.1958,0 1.0791,1.32 1.9627,2.9227 l 1.6065,2.914 -4.4658,4.4359 c -2.456,2.4397 -4.4656,4.26 -4.4656,4.045 l 0,0 z"
       id="path2456"
       inkscape:connector-curvature="0" />
    <path
       style="fill:#000000;fill-opacity:1;fill-rule:nonzero;stroke:#ffffff;stroke-width:2.40771246;stroke-linecap:butt;stroke-linejoin:miter;stroke-miterlimit:4;stroke-opacity:0;stroke-dasharray:none"
       d="m 1218.6855,804.15703 c -0.156,-0.766 -0.4328,-3.96597 -0.6152,-7.11105 -0.1824,-3.14507 -0.5032,-7.09794 -0.713,-8.78415 l -0.3815,-3.06583 4.7376,-2.5917 c 2.6057,-1.42543 14.3047,-13.07922 18.1947,-15.49309 3.89,-2.41384 46.0175,-65.24021 43.3574,-60.6011 -0.1375,0.23981 -30.0441,56.94621 -30.74,59.21574 -2.9238,9.53512 -23.3023,31.2387 -30.464,37.23483 -2.9976,2.50977 -3.101,2.5464 -3.376,1.19635 z"
       id="path2460"
       inkscape:connector-curvature="0"
       sodipodi:nodetypes="csccsssssc" />
    <path
       style="fill:#800000;fill-opacity:1;fill-rule:nonzero;stroke:#ffffff;stroke-width:2.40771246;stroke-linecap:butt;stroke-linejoin:miter;stroke-miterlimit:4;stroke-opacity:0;stroke-dasharray:none"
       d="m 326.55892,1146.1934 c -0.17953,-5.8676 -4.02957,-19.6479 -7.31546,-26.1839 -0.58251,-1.1587 -1.24552,-2.7839 -1.47334,-3.6115 -0.37689,-1.3693 -0.24432,-1.3151 1.47149,0.6019 l 1.8857,2.1067 -0.3067,-6.3202 -0.30669,-6.3203 1.39857,7.5241 c 1.55026,8.3402 4.58069,21.539 6.01178,26.1839 1.07621,3.4931 1.1776,5.6668 0.14037,3.0097 -0.66764,-1.7105 -0.72312,-1.5833 -1.05004,2.4077 l -0.34517,4.2135 -0.11051,-3.6116 z"
       id="path2464"
       inkscape:connector-curvature="0" />
    <flowRoot
       xml:space="preserve"
       id="flowRoot5101"
       style="font-size:32px;font-style:normal;font-variant:normal;font-weight:900;font-stretch:normal;text-align:start;line-height:125%;writing-mode:lr-tb;text-anchor:start;fill:#000000;fill-opacity:1;stroke:none;font-family:Blackoak Std;-inkscape-font-specification:Blackoak Std Heavy"><flowRegion
         id="flowRegion5103"><rect
           id="rect5105"
           width="1469.266"
           height="292.8317"
           x="-1632.707"
           y="218.5482" /></flowRegion><flowPara
         id="flowPara5107" /></flowRoot>    <flowRoot
       xml:space="preserve"
       id="flowRoot5109"
       style="font-size:32px;font-style:normal;font-variant:normal;font-weight:900;font-stretch:normal;text-align:start;line-height:125%;writing-mode:lr-tb;text-anchor:start;fill:#000000;fill-opacity:1;stroke:none;font-family:Blackoak Std;-inkscape-font-specification:Blackoak Std Heavy"><flowRegion
         id="flowRegion5111"><rect
           id="rect5113"
           width="1333.0652"
           height="338.79947"
           x="-1649.7321"
           y="283.24356" /></flowRegion><flowPara
         id="flowPara5115" /></flowRoot>    <path
       sodipodi:type="arc"
       style="fill:#000000;stroke:none"
       id="path3824"
       sodipodi:cx="871.59192"
       sodipodi:cy="798.43329"
       sodipodi:rx="72.231377"
       sodipodi:ry="65.00824"
       d="m 943.8233,798.43329 a 72.231377,65.00824 0 1 1 -144.46276,0 72.231377,65.00824 0 1 1 144.46276,0 z"
       transform="matrix(0.93333337,0,0,1.037037,53.290706,-46.425587)" />
  </g>
  <g
     inkscape:groupmode="layer"
     id="layer4"
     inkscape:label="eye"
     transform="translate(338.17672,6.3312442)"
     style="display:none">
    <path
       sodipodi:type="arc"
       style="fill:#ffffff;fill-opacity:1;fill-rule:nonzero;stroke:#ffffff;stroke-width:2;stroke-linecap:butt;stroke-linejoin:miter;stroke-miterlimit:4;stroke-opacity:1;stroke-dasharray:none"
       id="path2427"
       sodipodi:cx="470"
       sodipodi:cy="829.50507"
       sodipodi:rx="61.42857"
       sodipodi:ry="60"
       d="m 531.42857,829.50507 a 61.42857,60 0 1 1 -122.85714,0 61.42857,60 0 1 1 122.85714,0 z"
       transform="matrix(1.7565652,0,0,1.5370584,-297.01425,-501.20694)" />
    <path
       sodipodi:type="arc"
       style="fill:#000000;fill-opacity:1;fill-rule:nonzero;stroke:#ffffff;stroke-width:2;stroke-linecap:butt;stroke-linejoin:miter;stroke-miterlimit:4;stroke-opacity:1;stroke-dasharray:none"
       id="path2429"
       sodipodi:cx="470"
       sodipodi:cy="829.50507"
       sodipodi:rx="61.42857"
       sodipodi:ry="60"
       d="m 531.42857,829.50507 a 61.42857,60 0 1 1 -122.85714,0 61.42857,60 0 1 1 122.85714,0 z"
       transform="matrix(1.4350586,0,0,1.2490299,-145.95591,-262.66392)" />
    <path
       style="fill:none;stroke:#ffffff;stroke-width:3;stroke-linecap:butt;stroke-linejoin:miter;stroke-miterlimit:4;stroke-opacity:1;stroke-dasharray:none"
       d="m 412.85714,843.21931 c -74.2857,-128.57142 57.14287,-185.71428 57.14287,-185.71428 137.14285,-45.71428 182.85714,74.28572 182.85714,74.28572"
       id="path2433"
       sodipodi:nodetypes="ccc"
       inkscape:connector-curvature="0" />
  </g>
</svg>
