<?xml version="1.0" encoding="UTF-8" standalone="no"?>
<!-- Created with Inkscape (http://www.inkscape.org/) -->
<svg
   xmlns:dc="http://purl.org/dc/elements/1.1/"
   xmlns:cc="http://creativecommons.org/ns#"
   xmlns:rdf="http://www.w3.org/1999/02/22-rdf-syntax-ns#"
   xmlns:svg="http://www.w3.org/2000/svg"
   xmlns="http://www.w3.org/2000/svg"
   xmlns:xlink="http://www.w3.org/1999/xlink"
   xmlns:sodipodi="http://sodipodi.sourceforge.net/DTD/sodipodi-0.dtd"
   xmlns:inkscape="http://www.inkscape.org/namespaces/inkscape"
   width="139.66957"
   height="116.32233"
   id="svg2406"
   sodipodi:version="0.32"
   inkscape:version="0.46"
   version="1.0"
   sodipodi:docname="hum - small.svg"
   inkscape:output_extension="org.inkscape.output.svg.inkscape"
   inkscape:export-filename="F:\Pictures\SVG\Banner\small.png"
   inkscape:export-xdpi="5.4000001"
   inkscape:export-ydpi="5.4000001"
   style="display:inline">
  <defs
     id="defs2408">
    <inkscape:perspective
       sodipodi:type="inkscape:persp3d"
       inkscape:vp_x="0 : 526.18109 : 1"
       inkscape:vp_y="0 : 1000 : 0"
       inkscape:vp_z="744.09448 : 526.18109 : 1"
       inkscape:persp3d-origin="372.04724 : 350.78739 : 1"
       id="perspective2414" />
    <inkscape:perspective
       id="perspective3546"
       inkscape:persp3d-origin="372.04724 : 350.78739 : 1"
       inkscape:vp_z="744.09448 : 526.18109 : 1"
       inkscape:vp_y="0 : 1000 : 0"
       inkscape:vp_x="0 : 526.18109 : 1"
       sodipodi:type="inkscape:persp3d" />
  </defs>
  <sodipodi:namedview
     id="base"
     pagecolor="#000000"
     bordercolor="#666666"
     borderopacity="1.0"
     gridtolerance="10000"
     guidetolerance="10"
     objecttolerance="10"
     inkscape:pageopacity="0"
     inkscape:pageshadow="2"
     inkscape:zoom="4.6989449"
     inkscape:cx="117.15087"
     inkscape:cy="49.089015"
     inkscape:document-units="px"
     inkscape:current-layer="layer1"
     showgrid="false"
     inkscape:window-width="1280"
     inkscape:window-height="1004"
     inkscape:window-x="1395"
     inkscape:window-y="10"
     showguides="true"
     inkscape:guide-bbox="true"
     showborder="false"
     inkscape:showpageshadow="false" />
  <metadata
     id="metadata2411">
    <rdf:RDF>
      <cc:Work
         rdf:about="">
        <dc:format>image/svg+xml</dc:format>
        <dc:type
           rdf:resource="http://purl.org/dc/dcmitype/StillImage" />
      </cc:Work>
    </rdf:RDF>
  </metadata>
  <g
     inkscape:groupmode="layer"
     id="layer2"
     inkscape:label="photo"
     style="display:none"
     transform="translate(-481.1918,-673.00499)">
    <image
       y="-703.28571"
       x="-1542.3622"
       id="image3548"
       height="2338"
       width="1700"
       sodipodi:absref="C:\Users\joeb\Pictures\personal\svg\scan0001.jpg"
       xlink:href="scan0001.jpg"
       transform="matrix(0,-1,1,0,0,0)" />
  </g>
  <g
     inkscape:groupmode="layer"
     id="layer3"
     inkscape:label="base"
     transform="translate(-481.1918,-673.00499)"
     style="display:inline">
    <path
       style="fill:none;fill-rule:evenodd;stroke:none;stroke-width:8;stroke-linecap:butt;stroke-linejoin:miter;marker-start:none;stroke-miterlimit:4;stroke-dasharray:none;stroke-opacity:1"
       d="M 574.51206,711.24396 C 598.18248,710.38324 617.54914,687.14322 617.54914,687.14322 C 606.14431,679.18136 595.38504,680.47247 595.38504,680.47247"
       id="path3555"
       inkscape:export-filename="F:\Pictures\SVG\Banner\path2433.png"
       inkscape:export-xdpi="90.044502"
       inkscape:export-ydpi="90.044502" />
    <path
       style="fill:none;fill-rule:evenodd;stroke:none;stroke-width:8;stroke-linecap:butt;stroke-linejoin:miter;stroke-miterlimit:4;stroke-dasharray:none;stroke-opacity:1"
       d="M 535.5635,712.75027 C 553.42391,684.99134 602.7473,675.77225 602.7473,675.77225 C 602.48493,679.87224 602.75816,680.98202 602.75816,680.98202"
       id="path4842"
       sodipodi:nodetypes="ccc"
       inkscape:export-filename="F:\Pictures\SVG\Banner\path2433.png"
       inkscape:export-xdpi="90.044502"
       inkscape:export-ydpi="90.044502" />
    <path
       style="fill:none;fill-rule:evenodd;stroke:none;stroke-width:8;stroke-linecap:butt;stroke-linejoin:miter;stroke-miterlimit:4;stroke-dasharray:none;stroke-opacity:1"
       d="M 535.65266,712.66113 C 497.34966,757.85006 535.13314,775.36918 535.13314,775.36918"
       id="path4848"
       sodipodi:nodetypes="cc"
       inkscape:export-filename="F:\Pictures\SVG\Banner\path2433.png"
       inkscape:export-xdpi="90.044502"
       inkscape:export-ydpi="90.044502" />
    <path
       style="fill:none;fill-rule:evenodd;stroke:none;stroke-width:8;stroke-linecap:butt;stroke-linejoin:miter;stroke-miterlimit:4;stroke-dasharray:none;stroke-opacity:1"
       d="M 553.56235,772.45243 C 545.39861,778.89913 535.13314,775.36918 535.13314,775.36918"
       id="path4850"
       sodipodi:nodetypes="cc"
       inkscape:export-filename="F:\Pictures\SVG\Banner\path2433.png"
       inkscape:export-xdpi="90.044502"
       inkscape:export-ydpi="90.044502" />
    <path
       style="fill:none;fill-rule:evenodd;stroke:none;stroke-width:8;stroke-linecap:butt;stroke-linejoin:miter;stroke-miterlimit:4;stroke-dasharray:none;stroke-opacity:1"
       d="M 536.25738,760.7013 C 528.08035,749.72684 550.19611,744.81288 550.19611,744.81288 C 558.19924,742.3957 559.01872,736.42067 559.01872,736.42067"
       id="path4852"
       sodipodi:nodetypes="ccc"
       inkscape:export-filename="F:\Pictures\SVG\Banner\path2433.png"
       inkscape:export-xdpi="90.044502"
       inkscape:export-ydpi="90.044502" />
    <path
       style="fill:none;fill-rule:evenodd;stroke:none;stroke-width:8;stroke-linecap:butt;stroke-linejoin:miter;stroke-miterlimit:4;stroke-dasharray:none;stroke-opacity:1"
       d="M 548.43782,762.71895 C 557.31978,761.22915 553.62279,756.29653 553.62279,756.29653"
       id="path4858"
       sodipodi:nodetypes="cc"
       inkscape:export-filename="F:\Pictures\SVG\Banner\path2433.png"
       inkscape:export-xdpi="90.044502"
       inkscape:export-ydpi="90.044502" />
    <path
       style="fill:none;fill-rule:evenodd;stroke:none;stroke-width:8;stroke-linecap:butt;stroke-linejoin:miter;stroke-miterlimit:4;stroke-dasharray:none;stroke-opacity:1"
       d="M 559.66427,738.57253 C 558.80353,744.59769 559.84632,749.47112 559.84632,749.47112"
       id="path4872"
       sodipodi:nodetypes="cc"
       inkscape:export-filename="F:\Pictures\SVG\Banner\path2433.png"
       inkscape:export-xdpi="90.044502"
       inkscape:export-ydpi="90.044502" />
    <path
       style="fill:none;fill-rule:evenodd;stroke:none;stroke-width:8;stroke-linecap:butt;stroke-linejoin:miter;stroke-miterlimit:4;stroke-dasharray:none;stroke-opacity:1"
       d="M 565.68946,763.96437 C 574.51206,779.02736 584.62577,770.41994 584.62577,770.41994 C 599.04321,757.93918 595.29436,747.57645 595.29436,747.57645"
       id="path4874"
       sodipodi:nodetypes="ccc"
       inkscape:export-filename="F:\Pictures\SVG\Banner\path2433.png"
       inkscape:export-xdpi="90.044502"
       inkscape:export-ydpi="90.044502" />
    <path
       style="fill:none;fill-rule:evenodd;stroke:none;stroke-width:8;stroke-linecap:butt;stroke-linejoin:miter;stroke-miterlimit:4;stroke-dasharray:none;stroke-opacity:1"
       d="M 554.03439,772.25386 C 570.60368,797.6457 591.08134,776.22995 591.08134,776.22995 C 604.63801,760.7366 599.68876,743.52179 599.68876,743.52179"
       id="path4876"
       sodipodi:nodetypes="ccc"
       inkscape:export-filename="F:\Pictures\SVG\Banner\path2433.png"
       inkscape:export-xdpi="90.044502"
       inkscape:export-ydpi="90.044502" />
    <path
       style="fill:none;fill-rule:evenodd;stroke:none;stroke-width:8;stroke-linecap:butt;stroke-linejoin:miter;stroke-miterlimit:4;stroke-dasharray:none;stroke-opacity:1"
       d="M 597.3217,738.42624 C 589.90264,730.74605 585.60014,738.72001 585.60014,738.72001 C 580.68353,747.74569 590.43577,748.68622 590.43577,748.68622 C 601.63631,748.21234 600.97987,737.71174 600.97987,737.71174 C 600.50354,727.1 595.60023,726.52214 595.60023,726.52214 C 601.41023,739.86362 593.66356,743.73696 593.66356,743.73696 C 587.76288,745.16589 590.9798,740.67842 590.9798,740.67842"
       id="path4878"
       sodipodi:nodetypes="ccccccc"
       inkscape:export-filename="F:\Pictures\SVG\Banner\path2433.png"
       inkscape:export-xdpi="90.044502"
       inkscape:export-ydpi="90.044502" />
    <path
       style="fill:none;fill-rule:evenodd;stroke:none;stroke-width:8;stroke-linecap:butt;stroke-linejoin:miter;stroke-miterlimit:4;stroke-dasharray:none;stroke-opacity:1"
       d="M 586.50564,747.36125 C 587.62752,739.79714 591.79336,740.57566 591.79336,740.57566 C 593.84758,740.39672 594.39159,743.2981 594.39159,743.2981"
       id="path4880"
       sodipodi:nodetypes="ccc"
       inkscape:export-filename="F:\Pictures\SVG\Banner\path2433.png"
       inkscape:export-xdpi="90.044502"
       inkscape:export-ydpi="90.044502" />
    <path
       style="fill:none;fill-rule:evenodd;stroke:none;stroke-width:8;stroke-linecap:butt;stroke-linejoin:miter;stroke-miterlimit:4;stroke-dasharray:none;stroke-opacity:1"
       d="M 560.9554,732.11694 C 560.7402,739.86362 564.18319,741.15474 564.18319,741.15474 C 572.06406,745.21561 572.37141,735.83162 572.37141,735.83162 C 572.83622,731.89149 569.13364,733.30439 569.13364,733.30439 C 567.28584,734.21921 568.60834,735.65897 568.60834,735.65897 C 569.48049,736.86064 572.39126,736.23762 572.39126,736.23762"
       id="path4884"
       sodipodi:nodetypes="cccccc"
       inkscape:export-filename="F:\Pictures\SVG\Banner\path2433.png"
       inkscape:export-xdpi="90.044502"
       inkscape:export-ydpi="90.044502" />
    <path
       style="fill:none;fill-rule:evenodd;stroke:none;stroke-width:8;stroke-linecap:butt;stroke-linejoin:miter;stroke-miterlimit:4;stroke-dasharray:none;stroke-opacity:1"
       d="M 559.49922,747.52333 C 573.30791,751.81372 575.58799,739.64843 575.58799,739.64843 C 576.66956,726.69389 569.19657,729.76834 569.19657,729.76834 C 561.94616,733.88918 568.4934,737.57727 568.4934,737.57727 C 569.62855,738.34795 572.05127,737.92759 572.05127,737.92759"
       id="path4886"
       sodipodi:nodetypes="ccccc"
       inkscape:export-filename="F:\Pictures\SVG\Banner\path2433.png"
       inkscape:export-xdpi="90.044502"
       inkscape:export-ydpi="90.044502" />
    <path
       style="fill:none;fill-rule:evenodd;stroke:none;stroke-width:8;stroke-linecap:butt;stroke-linejoin:miter;stroke-miterlimit:4;stroke-dasharray:none;stroke-opacity:1"
       d="M 568.99612,733.43011 C 569.32313,736.29523 572.4394,735.77007 572.4394,735.77007"
       id="path4888"
       sodipodi:nodetypes="cc"
       inkscape:export-filename="F:\Pictures\SVG\Banner\path2433.png"
       inkscape:export-xdpi="90.044502"
       inkscape:export-ydpi="90.044502" />
    <path
       style="fill:none;fill-rule:evenodd;stroke:none;stroke-width:8;stroke-linecap:butt;stroke-linejoin:miter;stroke-miterlimit:4;stroke-dasharray:none;stroke-opacity:1"
       d="M 528.77906,719.81844 C 503.60238,738.53958 508.23519,757.90625 508.23519,757.90625 C 510.36821,776.59572 530.18417,772.15281 530.18417,772.15281"
       id="path4899"
       sodipodi:nodetypes="ccc"
       inkscape:export-filename="F:\Pictures\SVG\Banner\path2433.png"
       inkscape:export-xdpi="90.044502"
       inkscape:export-ydpi="90.044502" />
    <path
       style="fill:none;fill-rule:evenodd;stroke:none;stroke-width:8;stroke-linecap:butt;stroke-linejoin:miter;stroke-miterlimit:4;stroke-dasharray:none;stroke-opacity:1"
       d="M 529.08267,772.33132 C 536.82934,779.86282 530.39909,782.47033 530.39909,782.47033 C 523.29796,785.26771 525.44981,778.597 525.44981,778.597 C 527.1713,775.79957 530.18388,776.87549 530.18388,776.87549 C 524.37389,774.93885 522.4625,780.52102 522.4625,780.52102 C 520.14588,786.82445 529.96869,786.55886 529.96869,786.55886 C 540.53807,785.07797 536.53817,775.88819 536.53817,775.88819"
       id="path4902"
       sodipodi:nodetypes="ccccccc"
       inkscape:export-filename="F:\Pictures\SVG\Banner\path2433.png"
       inkscape:export-xdpi="90.044502"
       inkscape:export-ydpi="90.044502" />
    <path
       style="fill:none;fill-rule:evenodd;stroke:none;stroke-width:8;stroke-linecap:butt;stroke-linejoin:miter;stroke-miterlimit:4;stroke-dasharray:none;stroke-opacity:1"
       d="M 524.58907,723.07918 C 500.91869,715.54766 509.53914,697.76335 509.53914,697.76335 C 518.157,680.52244 531.25981,694.2835 531.25981,694.2835 C 537.16817,701.23406 527.81683,708.01621 527.81683,708.01621 C 522.86758,712.31991 518.12045,708.3966 518.12045,708.3966"
       id="path4904"
       sodipodi:nodetypes="ccccc"
       inkscape:export-filename="F:\Pictures\SVG\Banner\path2433.png"
       inkscape:export-xdpi="90.044502"
       inkscape:export-ydpi="90.044502" />
    <path
       style="fill:none;fill-rule:evenodd;stroke:none;stroke-width:8;stroke-linecap:butt;stroke-linejoin:miter;stroke-miterlimit:4;stroke-dasharray:none;stroke-opacity:1"
       d="M 538.06966,709.30731 C 522.79148,717.48435 517.91831,708.23138 517.91831,708.23138 C 514.5753,698.48726 525.66499,697.68729 525.66499,697.68729 C 529.69047,698.93925 527.81683,702.42136 527.81683,702.42136"
       id="path4906"
       sodipodi:nodetypes="cccc"
       inkscape:export-filename="F:\Pictures\SVG\Banner\path2433.png"
       inkscape:export-xdpi="90.044502"
       inkscape:export-ydpi="90.044502" />
    <path
       style="fill:none;fill-rule:evenodd;stroke:none;stroke-width:8;stroke-linecap:butt;stroke-linejoin:miter;stroke-miterlimit:4;stroke-dasharray:none;stroke-opacity:1"
       d="M 525.615,697.75032 C 521.75475,702.86479 518.72908,700.82595 518.72908,700.82595"
       id="path4908"
       sodipodi:nodetypes="cc"
       inkscape:export-filename="F:\Pictures\SVG\Banner\path2433.png"
       inkscape:export-xdpi="90.044502"
       inkscape:export-ydpi="90.044502" />
    <path
       style="fill:none;fill-rule:evenodd;stroke:none;stroke-width:8;stroke-linecap:butt;stroke-linejoin:miter;stroke-miterlimit:4;stroke-dasharray:none;stroke-opacity:1"
       d="M 511.7018,694.2682 C 504.60068,682.00262 509.80431,676.87735 509.80431,676.87735"
       id="path4910"
       sodipodi:nodetypes="cc"
       inkscape:export-filename="F:\Pictures\SVG\Banner\path2433.png"
       inkscape:export-xdpi="90.044502"
       inkscape:export-ydpi="90.044502" />
    <path
       style="fill:none;fill-rule:evenodd;stroke:none;stroke-width:8;stroke-linecap:butt;stroke-linejoin:miter;stroke-miterlimit:4;stroke-dasharray:none;stroke-opacity:1"
       d="M 508.10892,702.79955 C 499.07113,688.3821 509.74129,676.81431 509.74129,676.81431"
       id="path4912"
       sodipodi:nodetypes="cc"
       inkscape:export-filename="F:\Pictures\SVG\Banner\path2433.png"
       inkscape:export-xdpi="90.044502"
       inkscape:export-ydpi="90.044502" />
    <path
       style="fill:none;fill-rule:evenodd;stroke:none;stroke-width:8;stroke-linecap:butt;stroke-linejoin:miter;stroke-miterlimit:4;stroke-dasharray:none;stroke-opacity:1"
       d="M 546.70846,775.74337 C 553.37918,779.61671 556.57116,775.84012 556.57116,775.84012"
       id="path4914"
       sodipodi:nodetypes="cc"
       inkscape:export-filename="F:\Pictures\SVG\Banner\path2433.png"
       inkscape:export-xdpi="90.044502"
       inkscape:export-ydpi="90.044502" />
    <path
       style="fill:none;fill-rule:evenodd;stroke:none;stroke-width:8;stroke-linecap:butt;stroke-linejoin:miter;stroke-miterlimit:4;stroke-dasharray:none;stroke-opacity:1"
       d="M 539.29883,776.26175 C 547.90623,787.88177 558.31635,778.26876 558.31635,778.26876 C 549.92412,779.99026 546.69694,775.82257 546.69694,775.82257"
       id="path4916"
       sodipodi:nodetypes="ccc"
       inkscape:export-filename="F:\Pictures\SVG\Banner\path2433.png"
       inkscape:export-xdpi="90.044502"
       inkscape:export-ydpi="90.044502" />
    <path
       style="fill:none;fill-rule:evenodd;stroke:none;stroke-width:8;stroke-linecap:butt;stroke-linejoin:miter;stroke-miterlimit:4;stroke-dasharray:none;stroke-opacity:1"
       d="M 515.20321,770.28067 C 506.97507,790.49531 495.41234,785.47024 495.41234,785.47024 C 478.33685,780.00215 485.85569,763.95168 485.85569,763.95168"
       id="path4918"
       sodipodi:nodetypes="ccc"
       inkscape:export-filename="F:\Pictures\SVG\Banner\path2433.png"
       inkscape:export-xdpi="90.044502"
       inkscape:export-ydpi="90.044502" />
    <path
       style="fill:none;fill-rule:evenodd;stroke:none;stroke-width:8;stroke-linecap:butt;stroke-linejoin:miter;stroke-miterlimit:4;stroke-dasharray:none;stroke-opacity:1"
       d="M 508.45017,761.70491 C 510.27926,777.95147 496.61497,775.36918 496.61497,775.36918 C 477.74819,770.32511 489.51384,754.49623 489.51384,754.49623 C 495.32385,746.96473 489.94422,748.47102 489.94422,748.47102 C 488.1489,749.45783 490.58753,750.73591 490.58753,750.73591 C 484.99272,750.30552 488.83364,746.61045 488.83364,746.61045 C 493.63387,743.41958 495.32385,749.54697 495.32385,749.54697 C 496.70185,752.6343 494.80885,755.39165 494.80885,755.39165 C 487.34184,766.73881 497.6683,768.98075 497.6683,768.98075 C 504.20097,769.41186 500.77511,763.96223 500.77511,763.96223 C 497.75238,760.19952 495.60978,763.86389 495.60978,763.86389 C 494.05836,766.52808 496.31407,768.49738 496.31407,768.49738"
       id="path4920"
       sodipodi:nodetypes="cccccccccccc"
       inkscape:export-filename="F:\Pictures\SVG\Banner\path2433.png"
       inkscape:export-xdpi="90.044502"
       inkscape:export-ydpi="90.044502" />
    <path
       style="fill:none;fill-rule:evenodd;stroke:none;stroke-width:8;stroke-linecap:butt;stroke-linejoin:miter;stroke-miterlimit:4;stroke-dasharray:none;stroke-opacity:1"
       d="M 504.28588,756.25577 C 503.71616,752.62289 508.20983,749.25565 508.20983,749.25565"
       id="path4924"
       sodipodi:nodetypes="cc"
       inkscape:export-filename="F:\Pictures\SVG\Banner\path2433.png"
       inkscape:export-xdpi="90.044502"
       inkscape:export-ydpi="90.044502" />
    <path
       style="fill:none;fill-rule:evenodd;stroke:none;stroke-width:8;stroke-linecap:butt;stroke-linejoin:miter;stroke-miterlimit:4;stroke-dasharray:none;stroke-opacity:1"
       d="M 506.0074,751.44694 C 495.31122,751.44795 492.74164,742.23066 492.74164,742.23066 C 490.51594,734.38179 496.61497,729.9651 496.61497,729.9651 C 492.27434,742.81317 499.42541,745.05419 499.42541,745.05419 C 502.62264,746.4277 503.32263,745.47147 503.32263,745.47147"
       id="path4926"
       sodipodi:nodetypes="ccccc"
       inkscape:export-filename="F:\Pictures\SVG\Banner\path2433.png"
       inkscape:export-xdpi="90.044502"
       inkscape:export-ydpi="90.044502" />
    <path
       style="fill:none;fill-rule:evenodd;stroke:none;stroke-width:8;stroke-linecap:butt;stroke-linejoin:miter;stroke-miterlimit:4;stroke-dasharray:none;stroke-opacity:1"
       d="M 518.99424,728.67398 C 505.65275,715.33251 499.19719,730.39544 499.19719,730.39544 C 495.53905,738.35733 500.27312,742.66104 500.27312,742.66104 C 504.77672,747.58195 508.6784,747.51034 508.6784,747.51034"
       id="path4928"
       sodipodi:nodetypes="cccc"
       inkscape:export-filename="F:\Pictures\SVG\Banner\path2433.png"
       inkscape:export-xdpi="90.044502"
       inkscape:export-ydpi="90.044502" />
    <path
       style="fill:none;fill-rule:evenodd;stroke:none;stroke-width:8;stroke-linecap:butt;stroke-linejoin:miter;stroke-miterlimit:4;stroke-dasharray:none;stroke-opacity:1"
       d="M 513.91893,734.85132 C 511.75179,728.70009 507.37425,732.11694 507.37425,732.11694 C 504.1334,735.29028 507.23514,738.61168 507.23514,738.61168 C 510.44128,741.44152 511.24759,739.86362 511.24759,739.86362"
       id="path4930"
       sodipodi:nodetypes="cccc"
       inkscape:export-filename="F:\Pictures\SVG\Banner\path2433.png"
       inkscape:export-xdpi="90.044502"
       inkscape:export-ydpi="90.044502" />
    <path
       style="fill:none;fill-rule:evenodd;stroke:none;stroke-width:8;stroke-linecap:butt;stroke-linejoin:miter;stroke-miterlimit:4;stroke-dasharray:none;stroke-opacity:1"
       d="M 589.18381,679.11832 C 572.39937,675.89057 568.70206,679.61172 568.70206,679.61172 C 564.47891,686.11502 564.14401,689.04295 564.14401,689.04295"
       id="path4932"
       sodipodi:nodetypes="ccc"
       inkscape:export-filename="F:\Pictures\SVG\Banner\path2433.png"
       inkscape:export-xdpi="90.044502"
       inkscape:export-ydpi="90.044502" />
    <path
       style="fill:none;fill-rule:evenodd;stroke:none;stroke-width:8;stroke-linecap:butt;stroke-linejoin:miter;stroke-miterlimit:4;stroke-dasharray:none;stroke-opacity:1"
       d="M 553.68443,756.30839 C 549.07548,753.64697 546.75315,756.6142 546.75315,756.6142 C 543.61483,760.74624 549.55057,763.53398 549.55057,763.53398 C 561.37367,767.58987 568.6247,751.59606 568.6247,751.59606 C 572.62012,744.80199 579.64267,747.37216 579.64267,747.37216 C 589.39493,750.68818 581.15983,759.63771 581.15983,759.63771 C 576.93835,764.23636 573.47122,760.05842 573.47122,760.05842 C 571.8839,757.02528 576.65179,754.38258 576.65179,754.38258 C 573.74441,760.53471 578.40838,757.40607 578.40838,757.40607 C 583.92462,752.60428 578.0578,750.39563 578.0578,750.39563 C 572.5264,748.5783 566.7654,762.24289 566.7654,762.24289 C 560.89551,772.10862 555.05843,772.14585 555.05843,772.14585 C 540.59086,774.9211 537.06981,764.82512 537.06981,764.82512 C 533.39837,753.78144 543.55775,748.6037 543.55775,748.6037 C 553.44606,743.00886 560.09464,749.97734 560.09464,749.97734 C 565.0439,756.21771 561.65775,760.75958 561.65775,760.75958"
       id="path4934"
       sodipodi:nodetypes="cccccccccccccccc"
       inkscape:export-filename="F:\Pictures\SVG\Banner\path2433.png"
       inkscape:export-xdpi="90.044502"
       inkscape:export-ydpi="90.044502" />
    <path
       style="fill:none;fill-rule:evenodd;stroke:none;stroke-width:8;stroke-linecap:butt;stroke-linejoin:miter;stroke-miterlimit:4;stroke-dasharray:none;stroke-opacity:1"
       d="M 508.49449,761.79989 C 506.94941,753.65435 495.19725,754.69878 495.19725,754.69878"
       id="path4936"
       sodipodi:nodetypes="cc"
       inkscape:export-filename="F:\Pictures\SVG\Banner\path2433.png"
       inkscape:export-xdpi="90.044502"
       inkscape:export-ydpi="90.044502" />
    <path
       style="fill:none;fill-rule:evenodd;stroke:none;stroke-width:8;stroke-linecap:butt;stroke-linejoin:miter;stroke-miterlimit:4;stroke-dasharray:none;stroke-opacity:1"
       d="M 561.28039,736.20104 C 575.913,713.39141 582.51961,709.99413 582.51961,709.99413"
       id="path4938"
       sodipodi:nodetypes="cc"
       inkscape:export-filename="F:\Pictures\SVG\Banner\path2433.png"
       inkscape:export-xdpi="90.044502"
       inkscape:export-ydpi="90.044502" />
    <path
       style="fill:none;fill-rule:evenodd;stroke:none;stroke-width:8;stroke-linecap:butt;stroke-linejoin:miter;stroke-miterlimit:4;stroke-dasharray:none;stroke-opacity:1"
       d="M 575.52776,734.67065 C 577.09181,733.83196 577.76794,733.28338 577.76794,733.28338 C 577.38258,735.75415 575.72786,736.57013 575.72786,736.57013"
       id="path3190"
       sodipodi:nodetypes="ccc"
       inkscape:export-filename="F:\Pictures\SVG\Banner\path2433.png"
       inkscape:export-xdpi="90.044502"
       inkscape:export-ydpi="90.044502" />
    <path
       style="fill:none;fill-rule:evenodd;stroke:none;stroke-width:8;stroke-linecap:butt;stroke-linejoin:miter;stroke-miterlimit:4;stroke-dasharray:none;stroke-opacity:1"
       d="M 550.17318,762.40929 C 548.6345,757.1521 549.14739,755.22874 549.14739,755.22874"
       id="path3193"
       inkscape:export-filename="F:\Pictures\SVG\Banner\path2433.png"
       inkscape:export-xdpi="90.044502"
       inkscape:export-ydpi="90.044502" />
    <path
       style="fill:none;fill-rule:evenodd;stroke:none;stroke-width:8;stroke-linecap:butt;stroke-linejoin:miter;stroke-miterlimit:4;stroke-dasharray:none;stroke-opacity:1"
       d="M 563.20172,759.52771 C 562.56702,758.62103 562.6577,758.16768 562.6577,758.16768"
       id="path3195"
       inkscape:export-filename="F:\Pictures\SVG\Banner\path2433.png"
       inkscape:export-xdpi="90.044502"
       inkscape:export-ydpi="90.044502" />
  </g>
  <g
     inkscape:groupmode="layer"
     id="layer1"
     inkscape:label="fill"
     transform="translate(-819.36852,-679.33623)"
     style="display:inline">
    <path
       style="opacity:1;fill:#ffffff;fill-opacity:1;fill-rule:nonzero;stroke:#ffffff;stroke-width:0.72534615;stroke-linecap:butt;stroke-linejoin:miter;stroke-miterlimit:4;stroke-dasharray:none;stroke-opacity:0"
       d="M 877.08907,782.24469 C 874.89049,781.9591 873.39073,781.51045 872.10231,780.75295 C 867.52302,778.06064 863.1655,773.77165 860.6207,769.45191 C 857.04654,763.38471 856.0613,755.94113 857.80094,748.14772 C 859.62837,739.96087 864.40521,731.07628 872.18164,721.40056 C 873.1435,720.20375 874.32812,718.6533 874.81409,717.95516 C 879.00872,711.92902 884.94042,706.40471 892.68403,701.31263 C 896.32215,698.92025 899.16662,697.31613 903.90666,694.98375 C 912.50538,690.75265 921.45,687.39816 931.58072,684.6052 C 933.72045,684.0153 940.63227,682.32703 940.65838,682.38788 C 940.6643,682.4018 940.63509,683.42233 940.59332,684.65576 L 940.51741,686.89829 L 939.58512,686.78351 C 939.0724,686.72039 937.49005,686.61799 936.06879,686.55599 C 933.84424,686.45897 933.48471,686.48106 933.48471,686.71488 C 933.48471,686.9407 933.98143,687.0041 936.43146,687.09089 C 940.86606,687.24803 944.52707,688.09172 948.92712,689.97048 C 951.04926,690.87662 955.07559,693.1474 955.19489,693.50543 C 955.28238,693.76787 952.20569,696.97863 949.35169,699.60325 C 937.94517,710.09292 925.52031,716.33086 914.21774,717.24241 C 913.12476,717.33053 912.63104,717.4419 912.63104,717.60023 C 912.63104,717.86963 913.80005,717.81187 916.868,717.39088 C 917.95162,717.24216 918.8716,717.15384 918.91233,717.19458 C 918.95311,717.2353 918.44867,717.74076 917.79146,718.31776 C 914.26469,721.41411 908.12498,729.14679 902.2727,737.86308 C 899.3469,742.22062 899.4007,742.18682 899.39594,739.67021 C 899.39398,738.62361 899.33799,738.35554 899.12147,738.35554 C 898.79795,738.35554 898.78702,738.70042 899.03575,741.06214 C 899.37886,744.31971 900.46035,746.66569 902.02729,747.55118 C 903.86562,748.59006 906.1696,748.97262 907.42342,748.44721 C 908.95489,747.80545 910.02833,746.18173 910.53144,743.74595 C 911.20075,740.50543 910.6465,739.24231 908.54685,739.22343 C 906.68295,739.20669 905.61392,740.4432 906.34825,741.76652 C 906.79367,742.56921 907.53336,742.88646 908.96245,742.88776 L 910.28059,742.88893 L 910.15851,743.38761 C 909.99851,744.04145 909.80112,744.15377 908.82299,744.14757 C 906.57428,744.13329 904.28956,742.15141 904.28956,740.21505 C 904.28956,739.21708 904.60219,738.61431 905.59033,737.70688 C 906.70946,736.67921 907.51787,736.22999 908.51258,736.08313 C 910.56701,735.77972 912.25295,736.9456 912.99817,739.18496 C 913.47159,740.60762 913.68868,743.09528 913.52399,745.21041 C 913.23319,748.94471 910.26136,752.74975 906.66892,753.98744 C 905.06678,754.53944 901.66567,754.57335 899.45034,754.05946 L 897.96586,753.71509 L 897.83816,752.52273 C 897.69412,751.17781 897.84296,745.68765 898.03661,745.20098 C 898.12372,744.98216 898.07694,744.88366 897.88596,744.88366 C 897.67941,744.88366 897.57154,745.19504 897.46182,746.10768 C 897.27328,747.67535 897.31528,752.58667 897.53074,754.17714 C 897.62197,754.85036 897.67449,755.40114 897.64744,755.40114 C 897.62038,755.40114 897.2342,755.15546 896.78922,754.85514 C 894.5501,753.34393 892.16268,752.61573 889.41997,752.60731 C 886.86086,752.59945 885.21318,753.0108 882.5757,754.31599 C 880.09603,755.54306 878.30109,756.96591 876.93997,758.78343 C 875.42167,760.81078 874.82732,762.26194 874.24018,765.37468 L 874.08627,766.1907 L 873.54917,765.10267 C 873.07431,764.14066 873.01213,763.82567 873.01223,762.38261 C 873.01234,760.93886 873.07212,760.63665 873.53044,759.76298 C 875.19714,756.58592 879.58506,754.00627 887.28317,751.67779 C 891.03179,750.54394 892.57401,749.72544 894.42814,747.88569 C 895.47466,746.8473 896.08412,746.05803 896.5362,745.15567 C 897.31511,743.60099 897.54416,742.70762 897.16384,742.70762 C 897.01412,742.70762 896.8516,742.94997 896.78797,743.26819 C 896.72632,743.5765 896.4649,744.24973 896.20707,744.76423 C 894.65331,747.8645 891.95396,749.81861 887.39959,751.14008 C 877.91752,753.89135 872.81906,757.55731 872.42458,761.90762 C 872.30683,763.20613 872.6873,764.59838 873.57285,766.10935 C 873.97847,766.80144 874.27378,767.59425 874.36724,768.24217 C 874.76317,770.98652 875.6151,772.86328 877.29923,774.70118 C 879.96346,777.60873 883.20832,778.94238 888.02331,779.10888 L 890.70671,779.20163 L 890.03915,779.65526 C 888.89318,780.43399 886.72417,781.34675 884.90811,781.81453 C 882.96402,782.31534 879.21877,782.52137 877.08907,782.24469 L 877.08907,782.24469 z M 889.87329,747.53052 C 891.56464,747.06372 892.57408,746.47934 893.78865,745.26385 C 895.25143,743.79989 895.76673,742.61435 895.76673,740.71292 C 895.76673,738.80194 895.25308,737.62786 893.76484,736.13695 C 892.01871,734.3877 890.15643,733.64509 887.51593,733.64509 C 884.84632,733.64509 883.03422,734.3666 881.27323,736.13073 C 879.77832,737.6283 879.26511,738.79935 879.26511,740.71292 C 879.26511,742.62384 879.77877,743.79796 881.267,745.28887 C 883.02028,747.04525 884.75262,747.74228 887.42525,747.76665 C 888.27301,747.77439 889.37463,747.66814 889.87329,747.53052 L 889.87329,747.53052 z M 878.90243,745.78428 C 878.90243,745.68124 878.70971,745.21204 878.47418,744.74162 C 877.64055,743.07669 877.37127,741.97512 877.37861,740.25956 C 877.38701,738.2984 877.80494,737.06511 878.96918,735.56576 C 880.49801,733.59691 882.54041,732.22736 884.65034,731.75621 C 886.24245,731.40067 888.82089,731.38195 890.07851,731.71683 C 892.41523,732.339 894.68545,734.13794 896.01731,736.42266 C 896.40446,737.0868 896.79207,737.63019 896.87867,737.63019 C 897.10635,737.63019 897.07996,737.52065 896.64772,736.67095 C 895.361,734.14151 892.98468,732.15688 890.25274,731.3301 C 888.3875,730.7656 884.33924,731.09959 882.61985,731.95984 C 881.44915,732.54557 879.46218,734.20477 878.67094,735.25737 C 876.59087,738.0244 876.37897,741.16187 878.02991,744.74764 C 878.53871,745.85283 878.90243,746.28493 878.90243,745.78429 L 878.90243,745.78428 z"
       id="path2423"
       inkscape:export-filename="F:\Pictures\SVG\Banner\path2433.png"
       inkscape:export-xdpi="90.044502"
       inkscape:export-ydpi="90.044502" />
    <path
       style="opacity:1;fill:#ffffff;fill-opacity:1;fill-rule:nonzero;stroke:#ffffff;stroke-width:0.72534615;stroke-linecap:butt;stroke-linejoin:miter;stroke-miterlimit:4;stroke-dasharray:none;stroke-opacity:0"
       d="M 861.58479,778.60471 C 857.57135,778.32807 853.87211,776.8685 851.44877,774.60536 C 848.77039,772.10402 847.47461,769.37188 846.68399,764.55867 C 846.32536,762.37551 846.28906,758.41523 846.60914,756.39851 C 848.27077,745.92997 854.46721,736.40081 865.16621,727.86073 C 866.23835,727.00492 867.11558,726.24167 867.11558,726.16469 C 867.11558,725.79537 866.50701,726.15714 864.7582,727.566 C 863.71098,728.40968 862.78939,729.1016 862.71022,729.10365 C 862.33577,729.11332 858.8439,727.6904 857.14206,726.83463 C 852.35611,724.42808 849.07318,721.12035 847.47497,717.09454 C 845.80493,712.88784 846.24201,707.18636 848.5511,703.05732 C 850.2011,700.10684 852.43377,697.7382 854.57397,696.66768 C 856.10098,695.90385 857.28917,695.6817 859.29413,695.78512 C 862.19881,695.935 864.85613,697.10697 867.80573,699.53903 C 870.10551,701.43528 871.09114,703.23142 871.09523,705.53362 C 871.0994,707.8856 869.89948,710.21091 867.39787,712.69852 C 865.7073,714.37961 864.32556,715.34469 862.97826,715.7854 C 861.18753,716.37111 858.09802,715.85303 856.73094,714.73778 C 856.33607,714.41566 856.1683,714.03861 855.94371,712.96842 C 855.58863,711.27664 855.71685,709.75738 856.31869,708.52566 L 856.76168,707.61898 L 858.3572,707.6168 C 860.34307,707.61411 861.03345,707.28785 862.76169,705.53545 L 863.97938,704.30071 L 864.55507,704.57954 C 865.84132,705.20248 866.44584,706.56636 866.03843,707.92614 C 865.80639,708.70065 865.89559,709.00213 866.2515,708.64626 C 866.37136,708.52643 866.49946,707.87904 866.53618,707.20764 C 866.59359,706.15776 866.54285,705.89816 866.17346,705.35228 C 865.60643,704.51427 864.13901,703.7132 863.40343,703.84008 C 859.61101,704.4942 856.82586,706.16772 855.82707,708.39247 C 855.24179,709.69622 855.17008,712.19983 855.67085,713.84848 C 855.99235,714.90705 856.22569,715.28704 857.09753,716.17191 C 859.07709,718.18113 861.71377,719.17532 865.03019,719.16297 C 867.80165,719.15264 870.51577,718.5109 873.70545,717.11176 C 874.38771,716.81247 874.98144,716.60307 875.02482,716.64648 C 875.13091,716.75258 873.32701,719.25624 871.8984,720.98571 C 861.55169,733.51132 855.90751,746.65035 856.49121,756.85186 C 856.9438,764.76167 859.98374,771.17865 865.88675,776.6847 L 867.71966,778.39432 L 866.28425,778.50696 C 865.49479,778.56891 864.52245,778.64436 864.12353,778.67464 C 863.72459,778.70492 862.58215,778.67347 861.58479,778.60471 z"
       id="path2425"
       inkscape:export-filename="F:\Pictures\SVG\Banner\path2433.png"
       inkscape:export-xdpi="90.044502"
       inkscape:export-ydpi="90.044502" />
    <path
       style="opacity:1;fill:#ffffff;fill-opacity:1;fill-rule:nonzero;stroke:#ffffff;stroke-width:0.72534615;stroke-linecap:butt;stroke-linejoin:miter;stroke-miterlimit:4;stroke-dasharray:none;stroke-opacity:0"
       d="M 845.59798,707.39396 C 842.73903,702.1383 842.16953,696.1778 844.0039,690.7108 C 844.52915,689.14545 845.83314,686.37414 846.13111,686.19002 C 846.25427,686.1139 846.27844,686.18854 846.19829,686.39737 C 846.12942,686.57683 846.02461,687.42664 845.96538,688.28583 C 845.76558,691.18462 846.6721,694.79406 848.53707,698.52521 L 849.52064,700.49294 L 848.53126,702.15193 C 847.5059,703.87121 846.9993,705.11717 846.47356,707.21263 L 846.16605,708.43827 L 845.59798,707.39396 z"
       id="path2428"
       inkscape:export-filename="F:\Pictures\SVG\Banner\path2433.png"
       inkscape:export-xdpi="90.044502"
       inkscape:export-ydpi="90.044502" />
    <path
       style="opacity:1;fill:#ffffff;fill-opacity:1;fill-rule:nonzero;stroke:#ffffff;stroke-width:0.72534615;stroke-linecap:butt;stroke-linejoin:miter;stroke-miterlimit:4;stroke-dasharray:none;stroke-opacity:0"
       d="M 902.75615,694.60609 C 903.64429,691.64553 906.6492,686.23873 907.71182,685.68922 C 909.66996,684.67661 913.9813,684.17745 918.17986,684.47719 C 920.89262,684.67085 926.03482,685.3297 926.21136,685.50624 C 926.33781,685.63269 926.30464,685.64515 923.14858,686.65974 C 917.67028,688.42078 910.35573,691.32769 905.13931,693.81681 C 902.90176,694.8845 902.64735,694.96876 902.75615,694.60609 z"
       id="path2430"
       inkscape:export-filename="F:\Pictures\SVG\Banner\path2433.png"
       inkscape:export-xdpi="90.044502"
       inkscape:export-ydpi="90.044502" />
    <path
       style="opacity:1;fill:#ffffff;fill-opacity:1;fill-rule:nonzero;stroke:#ffffff;stroke-width:0.72534615;stroke-linecap:butt;stroke-linejoin:miter;stroke-miterlimit:4;stroke-dasharray:none;stroke-opacity:0"
       d="M 845.34725,753.32793 C 843.36985,752.78202 841.07023,751.27125 839.07943,749.2102 C 837.6715,747.75252 837.01237,746.62799 836.57371,744.9352 C 835.17903,739.55296 839.01403,732.14249 844.19781,730.20299 C 845.51699,729.7094 847.77012,729.66557 849.27863,730.1041 C 851.38721,730.71709 853.76776,732.17272 855.82566,734.10739 L 856.77598,735.00082 L 855.49435,736.54218 C 854.78944,737.38991 853.796,738.67514 853.28672,739.39823 C 852.77741,740.1213 852.31338,740.71292 852.25549,740.71292 C 852.19762,740.71292 851.956,740.30376 851.71857,739.80364 C 850.81904,737.909 849.22101,737.02917 847.37807,737.41394 C 844.64701,737.98412 843.26275,740.57826 844.20846,743.35377 C 844.74042,744.91489 847.14141,746.87835 848.51851,746.87835 L 848.96575,746.87835 L 848.44794,748.10237 C 848.03372,749.08142 847.35772,751.11775 846.70216,753.36114 C 846.62307,753.63183 846.43105,753.62711 845.34724,753.32792 L 845.34725,753.32793 z"
       id="path2432"
       inkscape:export-filename="F:\Pictures\SVG\Banner\path2433.png"
       inkscape:export-xdpi="90.044502"
       inkscape:export-ydpi="90.044502" />
    <path
       style="opacity:1;fill:#ffffff;fill-opacity:1;fill-rule:nonzero;stroke:#ffffff;stroke-width:0.72534615;stroke-linecap:butt;stroke-linejoin:miter;stroke-miterlimit:4;stroke-dasharray:none;stroke-opacity:0"
       d="M 842.00046,757.37129 C 838.44549,756.92304 835.26704,755.09914 833.21351,752.32905 C 829.80822,747.73562 829.84758,742.49029 833.32003,738.12019 C 833.77951,737.54197 834.17707,737.09315 834.20348,737.12284 C 834.22988,737.15253 834.04815,737.95205 833.79959,738.89955 C 833.41975,740.34741 833.3438,741.07062 833.32352,743.43296 C 833.30098,746.06112 833.3302,746.32296 833.77284,747.4644 C 834.65431,749.73731 836.04392,751.09357 838.30415,751.88682 C 839.37419,752.26239 839.85789,752.33768 840.71273,752.26171 C 841.60726,752.18219 841.88931,752.23274 842.43544,752.57048 C 843.39046,753.16111 844.83116,753.73906 845.69127,753.87658 C 846.37716,753.98628 846.44319,754.04414 846.44319,754.5353 C 846.44319,754.9533 846.17279,755.35387 845.23475,756.3255 C 844.44417,757.14438 843.89552,757.56928 843.64808,757.55427 C 843.44004,757.54166 842.69858,757.4593 842.00046,757.37129 L 842.00046,757.37129 z"
       id="path2434"
       inkscape:export-filename="F:\Pictures\SVG\Banner\path2433.png"
       inkscape:export-xdpi="90.044502"
       inkscape:export-ydpi="90.044502" />
    <path
       style="opacity:1;fill:#ffffff;fill-opacity:1;fill-rule:nonzero;stroke:#ffffff;stroke-width:0.72534615;stroke-linecap:butt;stroke-linejoin:miter;stroke-miterlimit:4;stroke-dasharray:none;stroke-opacity:0"
       d="M 835.563,781.50511 C 833.68198,781.31304 830.82543,780.19511 828.8358,778.87246 C 824.60919,776.06261 823.33456,771.75736 825.13488,766.37203 C 825.69719,764.68993 826.82922,762.57721 828.54756,760.00293 C 830.5491,757.00436 830.96004,755.88025 830.3523,755.06627 C 830.03593,754.64251 829.86803,754.58517 828.94424,754.58517 C 828.00613,754.58517 827.85524,754.63887 827.51554,755.09387 C 827.14957,755.58404 827.14713,755.62241 827.44891,756.1482 C 827.75979,756.68993 827.75914,756.69299 827.3558,756.57264 C 826.65025,756.36212 826.14296,755.95533 826.03133,755.51053 C 825.90527,755.00824 826.43401,753.87268 827.07036,753.27911 C 828.03944,752.37517 829.80408,752.05047 830.83905,752.58569 C 831.63273,752.99616 832.5851,754.22416 833.14273,755.55618 C 833.56118,756.55574 833.64692,757.02402 833.64549,758.30254 C 833.64366,759.98722 833.74879,759.70086 831.7149,763.5613 C 830.42335,766.01268 830.05003,767.41269 830.15885,769.39649 C 830.29687,771.9126 831.44355,773.53744 833.9756,774.80475 C 835.19453,775.41484 835.59968,775.52937 836.53602,775.52853 C 838.03536,775.52713 838.83455,775.27758 839.47204,774.61165 C 839.93866,774.12427 840.00441,773.92461 839.99506,773.0238 C 839.97739,771.32067 838.89393,769.43301 837.52135,768.71392 C 836.89383,768.38516 835.68394,768.38481 835.05533,768.71321 C 833.52069,769.51493 832.62399,771.73302 833.2107,773.27616 C 833.50838,774.05903 833.25804,774.02443 832.37741,773.16085 C 830.17813,771.00426 829.97454,768.14567 831.75641,764.44248 C 832.02716,763.87989 832.55146,762.92105 832.92157,762.31176 L 833.59456,761.20395 L 834.69151,761.20395 C 836.31674,761.20395 839.43233,761.71034 840.75031,762.18873 C 844.4195,763.52058 846.1708,765.66438 846.44359,769.15782 C 846.69978,772.43954 846.23762,775.16951 845.06862,777.2798 C 843.37438,780.33815 839.78034,781.93573 835.563,781.5051 L 835.563,781.50511 z"
       id="path2436"
       inkscape:export-filename="F:\Pictures\SVG\Banner\path2433.png"
       inkscape:export-xdpi="90.044502"
       inkscape:export-ydpi="90.044502" />
    <path
       style="opacity:1;fill:#ffffff;fill-opacity:1;fill-rule:nonzero;stroke:#ffffff;stroke-width:0.72534615;stroke-linecap:butt;stroke-linejoin:miter;stroke-miterlimit:4;stroke-dasharray:none;stroke-opacity:0"
       d="M 834.747,791.90562 C 833.8661,791.70292 831.20015,790.66582 830.12292,790.10676 C 828.45031,789.23877 826.55066,787.74138 825.53149,786.48758 C 824.43178,785.13476 823.35087,782.90026 822.97648,781.20584 C 822.42108,778.69206 822.71602,774.63449 823.64574,771.99852 L 823.89977,771.27821 L 824.00124,772.36118 C 824.37359,776.33671 827.59423,779.54503 833.11497,781.43991 C 835.83391,782.37318 839.24628,782.2016 841.80206,781.00316 C 845.33795,779.34513 847.13325,775.56527 846.95426,770.15566 L 846.88146,767.95517 L 847.43694,769.43031 C 848.44162,772.09831 850.12012,774.39065 852.12238,775.8293 C 852.63916,776.20061 853.09356,776.52744 853.13216,776.55562 C 853.3248,776.69609 849.90562,783.0942 848.84766,784.57282 C 846.12022,788.38487 842.85385,790.92376 839.61689,791.74758 C 838.57552,792.01261 835.62772,792.10829 834.747,791.90562 L 834.747,791.90562 z"
       id="path2438"
       inkscape:export-filename="F:\Pictures\SVG\Banner\path2433.png"
       inkscape:export-xdpi="90.044502"
       inkscape:export-ydpi="90.044502" />
    <path
       style="opacity:1;fill:#ffffff;fill-opacity:1;fill-rule:nonzero;stroke:#ffffff;stroke-width:0.72534615;stroke-linecap:butt;stroke-linejoin:miter;stroke-miterlimit:4;stroke-dasharray:none;stroke-opacity:0"
       d="M 864.81573,792.30259 C 861.69573,791.6244 860.41161,790.3417 860.63977,788.13122 C 860.85777,786.01891 862.82512,783.62639 864.66751,783.23289 L 865.21152,783.11667 L 864.66155,783.48675 C 863.60156,784.19993 863.27306,784.86149 863.17686,786.47668 C 863.09739,787.8117 863.12992,788.01081 863.52107,788.58312 C 864.14668,789.49842 864.64938,789.70505 866.02754,789.61349 C 867.70756,789.50179 869.22152,788.88352 870.14443,787.93214 C 871.97419,786.04598 871.58368,783.4202 868.99682,780.21609 C 867.77616,778.70411 867.82428,778.40751 869.12952,779.39858 C 870.39029,780.3559 872.93807,781.82194 873.76239,782.06443 C 874.47988,782.27546 874.53121,782.33894 874.83983,783.39585 C 875.29494,784.95443 875.25811,787.11365 874.75409,788.4229 C 873.54875,791.55407 869.19357,793.25426 864.81571,792.30259 L 864.81573,792.30259 z"
       id="path2440"
       inkscape:export-filename="F:\Pictures\SVG\Banner\path2433.png"
       inkscape:export-xdpi="90.044502"
       inkscape:export-ydpi="90.044502" />
    <path
       style="opacity:1;fill:#ffffff;fill-opacity:1;fill-rule:nonzero;stroke:#ffffff;stroke-width:0.72534615;stroke-linecap:butt;stroke-linejoin:miter;stroke-miterlimit:4;stroke-dasharray:none;stroke-opacity:0"
       d="M 884.81549,787.76576 C 882.73209,787.1937 880.17758,785.48442 878.69792,783.67235 L 878.04006,782.8667 L 880.05795,782.85788 C 881.16778,782.85307 882.6655,782.74557 883.38623,782.61907 L 884.69661,782.38899 L 885.47159,783.01749 C 887.35095,784.54155 889.55847,785.17891 892.94751,785.17597 C 895.28974,785.1739 895.29513,785.17487 894.85157,785.5182 C 894.03332,786.15151 891.15602,787.46529 889.95235,787.75511 C 888.52872,788.09793 886.04407,788.10309 884.81548,787.76576 L 884.81549,787.76576 z"
       id="path2442"
       inkscape:export-filename="F:\Pictures\SVG\Banner\path2433.png"
       inkscape:export-xdpi="90.044502"
       inkscape:export-ydpi="90.044502" />
    <path
       style="opacity:1;fill:#ffffff;fill-opacity:1;fill-rule:nonzero;stroke:#ffffff;stroke-width:0.72534615;stroke-linecap:butt;stroke-linejoin:miter;stroke-miterlimit:4;stroke-dasharray:none;stroke-opacity:0"
       d="M 890.05464,784.52384 C 888.93895,784.2999 887.18244,783.69072 887.30351,783.56963 C 887.34073,783.53245 887.89334,783.63593 888.53157,783.79961 C 890.49975,784.30443 892.78533,783.94184 894.22538,782.89636 L 894.7694,782.50142 L 895.63634,783.43535 L 896.50334,784.36925 L 895.1303,784.57348 C 893.41976,784.82788 891.475,784.80884 890.05464,784.52384 z"
       id="path2444"
       inkscape:export-filename="F:\Pictures\SVG\Banner\path2433.png"
       inkscape:export-xdpi="90.044502"
       inkscape:export-ydpi="90.044502" />
    <path
       style="opacity:1;fill:#ffffff;fill-opacity:1;fill-rule:nonzero;stroke:#ffffff;stroke-width:0.72534615;stroke-linecap:butt;stroke-linejoin:miter;stroke-miterlimit:4;stroke-dasharray:none;stroke-opacity:0"
       d="M 886.57684,778.59897 C 882.2771,778.18718 878.65049,776.1201 876.48029,772.8442 C 875.26169,771.00468 874.83488,769.4031 874.828,766.64404 C 874.82173,764.1069 875.00859,763.21385 875.94246,761.31904 C 878.32929,756.47619 883.90502,753.0581 889.43629,753.04693 C 891.41928,753.04294 893.34413,753.52817 895.22309,754.5057 C 897.67999,755.78392 898.99772,757.24111 900.06069,759.85533 C 900.5181,760.9803 900.57103,761.32409 900.56157,763.10799 C 900.54562,766.10395 900.05565,766.97714 897.54514,768.48353 C 895.47539,769.72546 894.01228,770.13749 891.596,770.15901 C 889.55875,770.17713 887.61588,769.81923 887.34152,769.37524 C 887.28527,769.28426 887.70953,769.07906 888.28425,768.91922 C 890.48714,768.30663 892.09789,767.25543 892.51507,766.15815 C 892.80428,765.3974 892.71001,763.91017 892.32245,763.11986 C 892.03297,762.52965 891.76727,762.29923 890.98996,761.96434 C 888.19906,760.76208 885.332,761.46198 884.26337,763.60638 C 883.40196,765.33498 883.71928,766.74328 885.33523,768.36346 C 886.6758,769.7075 887.70398,770.22503 889.72743,770.57421 C 891.57825,770.89361 893.4158,770.71466 895.4113,770.02068 C 899.44652,768.61736 903.42913,764.60983 906.74748,758.61356 C 908.38844,755.64838 910.65209,753.97679 913.56242,753.58116 C 916.38108,753.19796 919.41135,754.18403 921.18959,756.06307 C 922.89793,757.86827 922.59794,760.80711 920.36239,764.16694 C 918.66764,766.71397 917.12588,767.81128 915.25423,767.80245 C 913.3825,767.79366 911.5382,766.49545 911.54768,765.19334 C 911.55351,764.39315 912.26444,763.13208 913.2115,762.24197 C 913.71823,761.76567 914.16323,761.40633 914.20036,761.44347 C 914.23749,761.48055 914.14436,761.80644 913.99342,762.16762 C 913.68786,762.89901 913.63607,764.05608 913.89097,764.45895 C 913.98751,764.61156 914.31635,764.71455 914.67459,764.70441 C 916.51281,764.6523 919.14211,761.88682 919.15517,759.99169 C 919.16788,758.1504 917.24474,756.42363 915.16976,756.41327 C 913.72746,756.40608 912.6379,756.99972 910.89456,758.74252 C 909.13992,760.49664 907.45097,763.01296 905.6296,766.58661 C 904.89439,768.02912 903.88587,769.795 903.38848,770.51073 C 900.95133,774.01759 897.90318,776.72101 895.27962,777.70265 C 893.44031,778.39079 889.08599,778.83927 886.57684,778.59897 L 886.57684,778.59897 z"
       id="path2446"
       inkscape:export-filename="F:\Pictures\SVG\Banner\path2433.png"
       inkscape:export-xdpi="90.044502"
       inkscape:export-ydpi="90.044502" />
    <path
       style="opacity:1;fill:#ffffff;fill-opacity:1;fill-rule:nonzero;stroke:#ffffff;stroke-width:0.72534615;stroke-linecap:butt;stroke-linejoin:miter;stroke-miterlimit:4;stroke-dasharray:none;stroke-opacity:0"
       d="M 888.42462,768.04941 C 887.91424,766.55253 887.29648,762.52639 887.49702,762.00385 C 887.7834,761.25751 891.39268,762.30686 891.91821,763.2893 C 892.07972,763.5912 892.21399,764.28322 892.21999,764.84423 C 892.23397,766.16531 891.66398,766.94451 890.11888,767.71662 C 888.89869,768.32636 888.5429,768.39626 888.42462,768.04941 z"
       id="path2448"
       inkscape:export-filename="F:\Pictures\SVG\Banner\path2433.png"
       inkscape:export-xdpi="90.044502"
       inkscape:export-ydpi="90.044502" />
    <path
       style="opacity:1;fill:#ffffff;fill-opacity:1;fill-rule:nonzero;stroke:#ffffff;stroke-width:0.72534615;stroke-linecap:butt;stroke-linejoin:miter;stroke-miterlimit:4;stroke-dasharray:none;stroke-opacity:0"
       d="M 908.15308,790.50529 C 904.15019,789.73978 900.62932,787.80111 897.37714,784.57176 C 895.97807,783.1825 894.25519,781.1294 893.25842,779.66366 L 892.6786,778.81103 L 893.36134,778.69381 C 894.4123,778.51333 895.65645,778.13421 896.33284,777.78833 C 898.44733,776.70702 901.50731,773.9776 903.11693,771.73711 C 903.48137,771.22983 903.81325,770.81477 903.8544,770.81477 C 903.8956,770.81477 904.28798,771.36558 904.72641,772.03882 C 907.09557,775.67658 910.26192,778.26842 913.29189,779.05013 C 914.67943,779.40811 917.29551,779.41819 918.61515,779.0706 C 920.62602,778.54098 922.41601,777.44997 924.51309,775.47578 C 929.62177,770.66653 932.9494,765.24586 933.85458,760.25874 C 934.07852,759.02487 934.116,756.43479 933.93133,754.9566 L 933.81618,754.03482 L 934.52298,753.63758 C 935.51623,753.07935 936.83294,751.88389 937.31674,751.10106 L 937.72642,750.43816 L 937.87143,750.97033 C 938.23799,752.31524 938.59053,757.01672 938.47559,759.02789 C 937.99052,767.51962 935.34555,774.5218 930.16034,781.04106 C 926.89526,785.14618 920.90588,788.88773 915.44176,790.23567 C 913.52862,790.70764 909.91108,790.84142 908.15308,790.50529 z"
       id="path2450"
       inkscape:export-filename="F:\Pictures\SVG\Banner\path2433.png"
       inkscape:export-xdpi="90.044502"
       inkscape:export-ydpi="90.044502" />
    <path
       style="opacity:1;fill:#ffffff;fill-opacity:1;fill-rule:nonzero;stroke:#ffffff;stroke-width:0.72534615;stroke-linecap:butt;stroke-linejoin:miter;stroke-miterlimit:4;stroke-dasharray:none;stroke-opacity:0"
       d="M 927.92961,754.64894 C 927.51724,754.57832 926.70125,754.32866 926.11623,754.09412 L 925.05261,753.66767 L 925.1114,752.94772 C 925.19496,751.92328 925.80644,750.19365 926.43227,749.21122 C 926.89516,748.48457 928.09586,747.42237 928.45436,747.42237 C 928.51937,747.42237 928.45377,747.75902 928.30863,748.17047 C 927.94186,749.21006 927.97746,749.65334 928.46438,750.11078 C 928.7983,750.42453 929.10394,750.50484 929.96036,750.50406 C 931.61629,750.50252 932.23275,750.25313 933.32231,749.144 C 935.35159,747.07837 936.11064,745.03624 936.08545,741.71026 C 936.06694,739.26998 935.78052,737.71947 934.8544,735.04614 C 934.51753,734.07372 934.30975,733.27811 934.3927,733.27811 C 934.84467,733.27811 936.64889,735.2623 937.2099,736.37626 C 938.18597,738.31442 938.92484,741.7969 938.92484,744.45904 C 938.92484,747.87166 937.13065,751.40241 934.55741,753.05365 C 932.76712,754.20248 929.67225,754.94741 927.92961,754.64894 L 927.92961,754.64894 z"
       id="path2452"
       inkscape:export-filename="F:\Pictures\SVG\Banner\path2433.png"
       inkscape:export-xdpi="90.044502"
       inkscape:export-ydpi="90.044502" />
    <path
       style="opacity:1;fill:#ffffff;fill-opacity:1;fill-rule:nonzero;stroke:#ffffff;stroke-width:0.72534615;stroke-linecap:butt;stroke-linejoin:miter;stroke-miterlimit:4;stroke-dasharray:none;stroke-opacity:0"
       d="M 923.92704,752.63297 C 922.72711,751.36835 922.40916,750.02174 922.85747,748.10237 C 923.46213,745.51355 925.15319,743.17479 927.11812,742.20981 C 928.6628,741.45119 930.11071,741.51219 931.93231,742.41245 C 932.69157,742.7877 933.7725,743.52261 934.33436,744.04563 L 935.35603,744.9966 L 934.86563,746.06769 C 934.37843,747.13198 933.04797,749.05439 932.79866,749.05439 C 932.72696,749.05439 932.50159,748.70836 932.29777,748.28547 C 931.78471,747.22102 930.95241,746.69599 929.78586,746.70101 C 927.42627,746.71114 925.66348,748.57338 924.80191,751.9661 L 924.48361,753.21952 L 923.92704,752.63297 z"
       id="path2454"
       inkscape:export-filename="F:\Pictures\SVG\Banner\path2433.png"
       inkscape:export-xdpi="90.044502"
       inkscape:export-ydpi="90.044502" />
    <path
       style="opacity:1;fill:#ffffff;fill-opacity:1;fill-rule:nonzero;stroke:#ffffff;stroke-width:0.18133654;stroke-linecap:butt;stroke-linejoin:miter;stroke-miterlimit:4;stroke-dasharray:none;stroke-opacity:0"
       d="M 900.43614,766.4083 C 900.43614,766.39213 900.4955,766.22943 900.56801,766.04677 C 900.64054,765.86412 900.72534,765.62796 900.75649,765.52199 C 900.7877,765.41606 900.82525,765.32964 900.84001,765.32999 C 900.85476,765.33033 900.92128,765.42941 900.98784,765.55015 L 901.10883,765.76958 L 900.77249,766.10368 C 900.58752,766.28741 900.43614,766.4245 900.43614,766.4083 L 900.43614,766.4083 z"
       id="path2456"
       inkscape:export-filename="F:\Pictures\SVG\Banner\path2433.png"
       inkscape:export-xdpi="90.044502"
       inkscape:export-ydpi="90.044502" />
    <path
       style="opacity:1;fill:#ffffff;fill-opacity:1;fill-rule:nonzero;stroke:#ffffff;stroke-width:0.18133654;stroke-linecap:butt;stroke-linejoin:miter;stroke-miterlimit:4;stroke-dasharray:none;stroke-opacity:0"
       d="M 908.41495,742.52333 C 907.69887,742.45709 907.22194,742.24713 906.91894,741.86477 C 906.40351,741.21437 906.37857,740.63247 906.8464,740.17338 L 907.04537,739.97807 L 907.07728,740.16692 C 907.12447,740.44629 907.29527,740.85383 907.4849,741.13949 C 907.9593,741.85426 908.73853,742.23523 909.83165,742.28689 C 910.2145,742.30496 910.36433,742.32801 910.36433,742.3688 C 910.36433,742.43936 910.1802,742.47471 909.53373,742.5282 C 908.97564,742.57437 908.9665,742.57432 908.41495,742.52333 L 908.41495,742.52333 z"
       id="path2458"
       inkscape:export-filename="F:\Pictures\SVG\Banner\path2433.png"
       inkscape:export-xdpi="90.044502"
       inkscape:export-ydpi="90.044502" />
    <path
       style="opacity:1;fill:#ffffff;fill-opacity:1;fill-rule:nonzero;stroke:#ffffff;stroke-width:0.18133654;stroke-linecap:butt;stroke-linejoin:miter;stroke-miterlimit:4;stroke-dasharray:none;stroke-opacity:0"
       d="M 914.01822,742.51784 C 914.0065,742.46014 913.9856,742.21913 913.97187,741.98226 C 913.95814,741.74538 913.93399,741.44769 913.91817,741.3207 L 913.88946,741.08979 L 914.24627,740.89459 C 914.44251,740.78723 914.8428,740.55065 915.13578,740.36887 C 915.42873,740.18706 915.66842,740.05535 915.66842,740.07616 C 915.66842,740.097 915.62552,740.25387 915.57311,740.42479 C 915.35293,741.14293 914.81186,741.97613 914.27246,742.42774 C 914.0467,742.61676 914.03893,742.61951 914.01822,742.51784 L 914.01822,742.51784 z"
       id="path2460"
       inkscape:export-filename="F:\Pictures\SVG\Banner\path2433.png"
       inkscape:export-xdpi="90.044502"
       inkscape:export-ydpi="90.044502" />
    <path
       style="opacity:1;fill:#ffffff;fill-opacity:1;fill-rule:nonzero;stroke:#ffffff;stroke-width:0.72534615;stroke-linecap:butt;stroke-linejoin:miter;stroke-miterlimit:4;stroke-dasharray:none;stroke-opacity:0"
       d="M 845.64072,765.14014 C 845.17711,764.43042 844.52355,763.7596 843.76653,763.21649 L 842.60416,762.38261 L 842.70583,761.48691 C 842.76176,760.9943 843.01031,760.17828 843.25817,759.67356 C 843.71717,758.7388 845.62233,756.30787 845.89585,756.30787 C 845.97865,756.30787 846.00284,757.59306 845.94957,759.1639 C 845.87655,761.31739 845.92765,762.52693 846.15729,764.08089 C 846.32479,765.2144 846.43724,766.16165 846.40719,766.18588 C 846.37716,766.2101 846.03225,765.73951 845.64072,765.14014 L 845.64072,765.14014 z"
       id="path2462"
       inkscape:export-filename="F:\Pictures\SVG\Banner\path2433.png"
       inkscape:export-xdpi="90.044502"
       inkscape:export-ydpi="90.044502" />
    <path
       style="opacity:1;fill:#ffffff;fill-opacity:1;fill-rule:nonzero;stroke:#ffffff;stroke-width:0.18133654;stroke-linecap:butt;stroke-linejoin:miter;stroke-miterlimit:4;stroke-dasharray:none;stroke-opacity:0"
       d="M 846.82781,768.27827 C 846.81431,767.83635 846.52432,766.79848 846.27686,766.3062 C 846.23299,766.21894 846.18304,766.09653 846.16589,766.03423 C 846.1375,765.93109 846.1475,765.93519 846.27671,766.07955 L 846.41874,766.2382 L 846.39566,765.76221 L 846.37255,765.2862 L 846.47787,765.85287 C 846.59463,766.48101 846.82289,767.47508 846.93065,767.8249 C 847.01171,768.08799 847.01934,768.2517 846.9412,768.05157 C 846.89092,767.92276 846.88676,767.93234 846.86214,768.23293 L 846.83614,768.55026 L 846.82781,768.27827 z"
       id="path2464"
       inkscape:export-filename="F:\Pictures\SVG\Banner\path2433.png"
       inkscape:export-xdpi="90.044502"
       inkscape:export-ydpi="90.044502" />
    <flowRoot
       xml:space="preserve"
       id="flowRoot5101"
       style="font-size:32px;font-style:normal;font-variant:normal;font-weight:900;font-stretch:normal;text-align:start;line-height:125%;writing-mode:lr-tb;text-anchor:start;fill:#000000;fill-opacity:1;stroke:none;stroke-width:1px;stroke-linecap:butt;stroke-linejoin:miter;stroke-opacity:1;font-family:Blackoak Std;-inkscape-font-specification:Blackoak Std Heavy"><flowRegion
         id="flowRegion5103"><rect
           id="rect5105"
           width="1469.266"
           height="292.8317"
           x="-1632.707"
           y="218.5482" /></flowRegion><flowPara
         id="flowPara5107" /></flowRoot>    <flowRoot
       xml:space="preserve"
       id="flowRoot5109"
       style="font-size:32px;font-style:normal;font-variant:normal;font-weight:900;font-stretch:normal;text-align:start;line-height:125%;writing-mode:lr-tb;text-anchor:start;fill:#000000;fill-opacity:1;stroke:none;stroke-width:1px;stroke-linecap:butt;stroke-linejoin:miter;stroke-opacity:1;font-family:Blackoak Std;-inkscape-font-specification:Blackoak Std Heavy"><flowRegion
         id="flowRegion5111"><rect
           id="rect5113"
           width="1333.0652"
           height="338.79947"
           x="-1649.7321"
           y="283.24356" /></flowRegion><flowPara
         id="flowPara5115" /></flowRoot>  </g>
  <g
     inkscape:groupmode="layer"
     id="layer5"
     inkscape:label="trace black"
     transform="translate(-819.36852,-679.33623)"
     style="display:inline">
    <path
       style="fill:none;fill-rule:evenodd;stroke:#d40000;stroke-width:0.75314862;stroke-linecap:butt;stroke-linejoin:miter;stroke-miterlimit:4;stroke-dasharray:none;stroke-opacity:1"
       d="M 875.83084,715.4666 C 885.83233,702.1954 902.11681,695.20719 902.11681,695.20719 C 903.91195,688.15483 906.98935,685.26523 906.98935,685.26523 C 915.68661,681.8096 926.86409,684.7899 926.86409,684.7899 C 938.53251,681.32784 941.24083,681.7125 941.24083,681.7125 C 941.60988,685.16811 941.34699,686.60059 941.34699,686.60059 C 953.01542,689.2933 956.38681,693.57781 956.38681,693.57781 C 940.74233,712.74654 919.99309,717.14908 919.99309,717.14908 C 906.81711,731.83532 900.45905,742.18128 900.45905,742.18128 C 900.3308,746.66913 904.33417,747.77456 904.33417,747.77456 C 909.20673,748.28748 908.95673,745.11752 908.95673,745.11752 C 903.02995,744.0011 903.52729,739.44454 903.52729,739.44454 C 906.25756,733.78715 910.37628,735.58227 910.37628,735.58227 C 914.09478,736.86451 914.06824,740.05456 914.06824,740.05456 C 915.68808,740.07161 915.97108,738.43124 915.8524,738.31254 C 917.51928,740.87702 914.29812,743.29129 914.29812,743.29129 C 914.51057,748.54205 912.39033,750.2905 912.39033,750.2905 C 911.1081,752.34209 908.70939,753.94946 908.70939,753.94946 C 905.50376,755.74459 903.14262,755.08792 903.14262,755.08792 C 900.3217,755.08792 898.45144,754.44035 898.45144,754.44035 C 898.19497,756.23549 898.52652,755.85728 898.52652,755.85728 C 902.21206,759.44299 901.15512,764.54447 901.15512,764.54447 C 901.41158,764.99324 901.8063,764.615 901.8063,764.615 C 906.70348,756.46742 908.9768,754.76736 908.9768,754.76736 C 915.52081,750.31251 920.77346,754.83148 920.77346,754.83148 C 925.90701,758.35119 920.58112,764.96121 920.58112,764.96121 C 918.53599,768.32612 915.4677,768.34813 915.4677,768.34813 C 910.21053,768.21991 911.09254,764.32008 911.09254,764.32008 C 912.4389,761.24269 915.19572,760.2169 915.19572,760.2169 C 914.04167,763.48661 914.29812,763.8713 914.29812,763.8713 C 916.02274,764.40807 917.48818,761.94335 917.48818,761.94335 C 919.668,759.25065 917.38195,757.97752 917.38195,757.97752 C 913.82015,756.09627 912.44343,758.59665 912.44343,758.59665 C 910.3012,760.31021 907.95559,764.11029 907.95559,764.11029 C 906.36835,767.52836 904.65931,770.39973 904.65931,770.39973 C 906.30233,774.97825 912.15588,777.91828 912.15588,777.91828 C 915.23325,779.26464 919.17065,778.12165 919.17065,778.12165 C 921.82049,777.57839 926.69376,772.30753 926.69376,772.30753 C 932.37055,765.51698 933.02532,761.30116 933.02532,761.30116 C 933.84134,758.25219 933.18467,754.77192 933.18467,754.77192 C 929.03106,756.32618 926.77347,755.06594 926.77347,755.06594 C 922.7985,753.91191 922.23248,751.18806 922.23248,751.18806 C 921.13801,747.75981 924.0432,744.06063 924.0432,744.06063 C 927.92368,739.473 930.98285,741.22415 930.98285,741.22415 C 933.63799,741.76815 935.25825,743.97643 935.25825,743.97643 C 936.60917,739.22032 932.89065,732.13578 932.89065,732.13578 C 939.0921,733.41803 939.7021,742.79393 939.7021,742.79393 C 939.8303,746.64068 938.27605,750.34364 938.27605,750.34364 C 940.29654,759.01243 938.01962,766.88455 938.01962,766.88455 C 936.09092,775.44606 930.58261,781.50212 930.58261,781.50212 C 925.96767,788.01579 917.55685,790.23693 917.55685,790.23693 C 911.76213,792.38563 906.67334,790.80295 906.67334,790.80295 C 900.63122,789.58669 896.76896,785.34239 896.76896,785.34239 C 894.71735,788.16334 888.38127,788.7889 888.38127,788.7889 C 881.90593,788.59657 879.48524,785.34886 879.48524,785.34886 C 878.20297,784.13072 877.72765,783.32837 877.72765,783.32837 C 876.95831,783.58482 875.46173,783.07194 875.46173,783.07194 C 877.12863,786.6622 874.85171,789.9118 874.85171,789.9118 C 872.00878,793.38031 867.11159,793.04231 867.11159,793.04231 C 861.17571,793.405 860.04368,789.54271 860.04368,789.54271 C 859.58392,786.18043 862.88017,783.4255 862.88017,783.4255 C 865.57289,781.69447 868.77849,783.04081 868.77849,783.04081 C 862.87374,782.99871 863.52128,787.60189 863.52128,787.60189 C 864.42986,789.69938 866.27815,789.00326 866.27815,789.00326 C 870.31719,788.36213 869.98107,786.95624 869.98107,786.95624 C 872.09675,785.09964 869.45075,782.08825 869.45075,782.08825 C 868.47347,780.47443 867.42569,779.45507 867.42569,779.45507 C 861.01449,780.80145 853.77626,777.1425 853.77626,777.1425 C 852.71936,780.73277 848.40183,786.58709 848.40183,786.58709 C 843.68518,792.29577 840.43447,792.31051 840.43447,792.31051 C 835.51075,793.91788 830.81767,791.41297 830.81767,791.41297 C 825.93603,788.79534 824.81767,787.01388 824.81767,787.01388 C 821.73573,782.62126 821.84838,776.95017 821.84838,776.95017 C 822.3283,773.30034 823.70764,769.83371 823.70764,769.83371 C 823.9,765.73055 827.87494,759.96044 827.87494,759.96044 C 830.05475,757.52418 830.18299,755.40848 830.18299,755.40848 C 829.2854,754.44681 828.32375,755.02382 828.32375,755.02382 C 826.46449,755.53668 828.77251,757.07539 828.77251,757.07539 C 826.14393,758.03709 825.24635,755.34437 825.24635,755.34437 C 825.11815,753.35691 827.42616,752.20288 827.42616,752.20288 C 829.2854,751.11297 830.82411,751.8182 830.82411,751.8182 C 834.73496,754.19034 834.41437,758.35764 834.41437,758.35764 C 834.60671,759.44753 834.15791,760.47336 834.15791,760.47336 C 837.04298,759.96044 841.85138,761.62734 841.85138,761.62734 C 841.85138,759.44753 843.58242,757.90886 843.58242,757.90886 C 840.12035,758.6782 834.86316,755.15204 834.86316,755.15204 C 830.82411,751.3053 830.18299,747.33036 830.18299,747.33036 C 829.15719,744.76586 831.14467,740.08568 831.14467,740.08568 C 832.23457,737.32884 835.24783,735.46963 835.24783,735.46963 C 833.45272,741.94492 834.22205,746.62511 834.22205,746.62511 C 835.76074,751.3053 840.69739,751.88232 840.69739,751.88232 C 837.23533,749.63838 835.88895,745.72756 835.88895,745.72756 C 834.79907,742.52194 836.65831,736.81594 836.65831,736.81594 C 837.87644,733.22567 842.17195,730.40476 842.17195,730.40476 C 844.9288,728.73784 847.87794,728.99428 847.87794,728.99428 C 852.8787,729.18663 857.11008,734.3797 857.11008,734.3797 C 857.81533,732.96924 861.79028,729.50716 861.79028,729.50716 C 855.69962,728.0541 850.05774,722.70057 850.05774,722.64718 C 846.21104,719.121 845.82635,713.99205 845.82635,713.99205 C 845.24933,711.10698 845.69812,709.50419 845.69812,709.50419 C 840.95381,701.61838 842.4284,693.34791 842.4284,693.34791 C 843.58242,685.97504 848.51907,682.1283 848.51907,682.1283 C 845.12111,689.30885 847.55736,693.98906 847.55736,693.98906 C 848.96785,698.66924 850.18597,699.69502 850.18597,699.69502 C 854.35326,693.66847 861.40561,695.20719 861.40561,695.20719 C 871.27888,698.22043 871.72765,704.05464 871.72765,704.05464 C 873.07402,709.69652 867.36805,713.8638 867.36805,713.8638 C 865.57289,715.97951 862.62373,716.87707 862.62373,716.87707 C 860.70037,717.00531 857.36653,715.59484 857.36653,715.59484 C 862.04673,719.89035 868.52205,718.15935 868.52205,718.15935 C 872.88168,716.87707 875.83084,715.4666 875.83084,715.4666"
       id="path3313"
       sodipodi:nodetypes="ccccccccccccccccccccccccccccccccccccccccccccccccccccccccccccccccccccccccccccccccccccccccccccccccccccccccccccccc"
       inkscape:export-filename="F:\Pictures\SVG\Banner\path2433.png"
       inkscape:export-xdpi="90.044502"
       inkscape:export-ydpi="90.044502" />
  </g>
  <g
     inkscape:groupmode="layer"
     id="layer8"
     inkscape:label="square2"
     style="display:inline"
     transform="translate(-1285.0959,-896.08873)">
    <path
       style="opacity:1;fill:none;fill-opacity:1;fill-rule:nonzero;stroke:#009dba;stroke-width:1.50629723;stroke-linecap:butt;stroke-linejoin:round;stroke-miterlimit:4;stroke-dasharray:none;stroke-opacity:1"
       d="M 1337.3471,1010.86 C 1340.0371,1009.5919 1341.9432,1007.3135 1342.7488,1004.4033 L 1343.1918,1002.8033 L 1344.2406,1003.6474 C 1346.0936,1005.1384 1348.283,1006.1259 1351.141,1006.759 C 1353.6689,1007.3193 1357.1674,1006.7225 1360.6539,1005.1367 L 1362.4271,1004.3304 L 1364.2443,1005.5825 C 1367.6639,1007.9385 1370.4866,1009.0213 1374.3525,1009.4607 C 1378.237,1009.902 1382.9754,1009.0671 1387.6633,1007.1157 C 1392.0241,1005.3002 1396.2136,1001.6914 1399.2249,997.15566 C 1401.6942,993.43662 1404.7659,987.08845 1405.397,984.39988 C 1406.0395,981.66296 1407.6234,975.06216 1406.3972,969.58747 C 1405.9122,967.42143 1406.983,964.33739 1407.105,962.27069 C 1407.3651,957.84858 1406.9586,956.46253 1405.2828,952.99576 C 1403.9834,950.30699 1402.3095,948.80705 1400.3838,947.83665 C 1397.9673,946.61867 1396.4507,946.71936 1396.4507,948.09778 C 1396.4507,948.46909 1397.0383,950.33076 1397.7561,952.23488 C 1398.4738,954.13897 1399.1228,956.07578 1399.1978,956.53888 L 1399.3346,957.38086 L 1397.9568,956.85413 C 1396.8659,956.43726 1396.1705,956.35051 1394.6198,956.43808 C 1391.1148,956.63606 1388.7431,958.29926 1387.1688,961.6634 C 1386.4324,963.23685 1386.41,963.39686 1386.4922,966.45751 L 1386.5773,969.62379 L 1385.8081,969.16988 C 1384.7866,968.56716 1382.2462,967.92057 1380.8999,967.92057 L 1379.8175,967.92057 L 1380.4541,966.78174 C 1380.8043,966.15538 1381.2716,964.74172 1381.4932,963.64024 C 1381.7148,962.53878 1382.232,960.95423 1382.6427,960.119 C 1383.6306,958.10955 1383.9321,956.70202 1383.6181,955.56475 C 1383.291,954.38074 1382.5492,953.74039 1381.4602,953.70256 C 1380.8023,953.67976 1380.3296,953.42279 1379.6025,952.693 C 1378.4506,951.53635 1377.0473,950.77065 1375.6365,950.5287 L 1374.6167,950.35384 L 1377.4244,946.8479 C 1378.9682,944.91963 1381.6786,941.63069 1383.4472,939.53909 L 1386.663,935.73629 L 1389.9519,934.58227 C 1400.9894,930.70916 1409.0823,925.66054 1417.697,917.27392 C 1421.436,913.63386 1424.0123,911.266 1424.0123,910.34622 C 1424.0123,909.56227 1421.8951,907.47713 1419.4467,906.08302 C 1417.5897,905.02543 1413.7479,903.1935 1411.353,902.52948 L 1408.7899,901.92382 L 1408.6308,900.29707 C 1408.3761,897.98362 1408.9727,897.61164 1408.4533,897.14124 C 1407.6691,896.43161 1403.7755,897.03155 1397.8613,898.43452 L 1392.7321,900.01381 L 1388.7725,899.42084 C 1382.8339,898.27252 1377.5728,899.01503 1374.3961,899.76268 C 1372.0927,900.30471 1371.8897,900.86137 1370.6755,902.10658 C 1369.332,903.48463 1368.0209,905.77782 1366.844,908.80919 L 1366.147,910.60433 L 1363.3065,912.14301 C 1356.2857,915.94654 1349.5089,921.04071 1343.8787,926.74689 C 1341.9745,928.67675 1339.9176,930.5528 1339.3074,930.91596 C 1338.4244,931.44157 1333.9641,933.04356 1333.3839,933.04356 C 1333.3102,933.04356 1334.0066,932.26462 1334.9313,931.31254 C 1338.6592,927.47487 1339.0717,926.59472 1339.1078,922.40095 C 1339.1333,919.44216 1339.1055,919.27415 1338.3863,918.04132 C 1337.402,916.35384 1334.869,913.88161 1332.8986,912.68447 C 1329.218,910.44866 1326.0395,909.70257 1322.8231,910.31944 C 1320.8308,910.70163 1317.731,911.95063 1316.893,912.70882 C 1316.2716,913.27121 1316.0879,913.03788 1315.3019,910.68733 C 1314.4084,908.01574 1314.4006,904.89797 1315.2792,901.55385 C 1315.952,898.99247 1315.8785,898.17732 1314.9292,897.66928 C 1313.5412,896.92644 1312.3579,897.63285 1310.4037,900.37105 C 1307.5902,904.31407 1306.1706,908.62552 1306.1472,913.29702 C 1306.1271,917.37385 1306.6554,920.18071 1308.2232,924.32433 C 1308.6244,925.3854 1309.1928,927.77646 1309.4903,929.65771 C 1310.3638,935.17552 1311.244,937.2434 1313.9524,940.13856 C 1315.8073,942.12157 1318.42,944.10788 1321.311,945.73324 C 1322.5102,946.40725 1323.5426,947.00453 1323.6049,947.06058 C 1323.6679,947.11663 1323.4781,947.40325 1323.1839,947.69751 L 1322.649,948.23254 L 1321.2749,947.20577 C 1316.3371,943.51623 1311.1117,943.07497 1306.5922,945.96595 C 1305.87,946.42807 1304.5739,947.57555 1303.7123,948.51588 C 1302.468,949.87395 1301.9921,950.22562 1301.3992,950.22562 C 1300.4794,950.22562 1299.8048,950.6643 1297.893,952.50663 C 1294.5232,955.75361 1293.0843,960.7351 1294.2559,965.09964 C 1294.4641,965.87538 1294.6356,966.52979 1294.6375,966.55386 C 1294.6393,966.57791 1294.3067,966.67091 1293.8989,966.76049 C 1292.7199,967.0194 1290.8828,968.31511 1290.035,969.48542 C 1288.6279,971.4278 1289.1276,973.83246 1291.2333,975.25146 C 1291.6948,975.56259 1291.9504,975.89709 1291.8252,976.0269 C 1291.1352,976.74301 1288.668,982.01508 1287.9979,984.20507 C 1285.6525,991.87273 1285.3274,995.22585 1286.5362,999.28344 C 1287.8813,1003.7982 1289.4792,1005.9731 1293.2714,1008.4494 C 1298.0023,1011.5394 1302.8389,1012.2074 1307.9128,1010.4713 C 1310.6555,1009.5331 1313.4177,1007.1561 1316.3176,1003.2383 C 1317.5004,1001.6403 1320.1486,997.43767 1320.3461,996.84554 C 1320.4092,996.6561 1321.3727,996.74349 1323.3752,997.12043 C 1324.9904,997.42458 1326.9467,997.67896 1327.7224,997.68612 C 1328.9231,997.69685 1329.0591,997.74421 1328.6367,998.00429 C 1327.2953,998.83048 1325.8542,1000.4471 1325.1083,1001.9629 C 1323.6546,1004.9147 1324.1099,1008.2449 1326.1666,1009.7096 C 1329.0175,1011.7397 1334.3232,1012.2857 1337.3471,1010.86 L 1337.3471,1010.86 z"
       id="path2470"
       sodipodi:nodetypes="ccccscccsssssscssscccscccccccssssscccccccsscccscccsscccsssscsssssssssssssscccssssssssssssscssssssscc"
       inkscape:export-filename="F:\Pictures\SVG\Banner\path2433.png"
       inkscape:export-xdpi="90.044502"
       inkscape:export-ydpi="90.044502" />
  </g>
  <g
     inkscape:groupmode="layer"
     id="layer4"
     inkscape:label="eye"
     transform="translate(-481.1918,-673.00499)"
     style="display:inline">
    <path
       sodipodi:type="arc"
       style="opacity:1;fill:none;fill-opacity:1;fill-rule:nonzero;stroke:none;stroke-width:2;stroke-linecap:butt;stroke-linejoin:miter;stroke-miterlimit:4;stroke-dasharray:none;stroke-opacity:1"
       id="path2427"
       sodipodi:cx="470"
       sodipodi:cy="829.50507"
       sodipodi:rx="61.42857"
       sodipodi:ry="60"
       d="M 531.42857,829.50507 A 61.42857,60 0 1 1 408.57143,829.50507 A 61.42857,60 0 1 1 531.42857,829.50507 z"
       transform="matrix(0.1322956,0,0,0.1157635,487.15651,638.3501)"
       inkscape:export-filename="F:\Pictures\SVG\Banner\path2433.png"
       inkscape:export-xdpi="90.044502"
       inkscape:export-ydpi="90.044502" />
    <path
       sodipodi:type="arc"
       style="opacity:1;fill:#ffffff;fill-opacity:1;fill-rule:nonzero;stroke:none;stroke-width:2;stroke-linecap:butt;stroke-linejoin:miter;stroke-miterlimit:4;stroke-dasharray:none;stroke-opacity:1"
       id="path2429"
       sodipodi:cx="470"
       sodipodi:cy="829.50507"
       sodipodi:rx="61.42857"
       sodipodi:ry="60"
       d="M 531.42857,829.50507 A 61.42857,60 0 1 1 408.57143,829.50507 A 61.42857,60 0 1 1 531.42857,829.50507 z"
       transform="matrix(0.1080812,0,0,9.4070372e-2,498.53344,656.31595)"
       inkscape:export-filename="F:\Pictures\SVG\Banner\path2433.png"
       inkscape:export-xdpi="90.044502"
       inkscape:export-ydpi="90.044502" />
    <path
       style="fill:none;fill-rule:evenodd;stroke:none;stroke-width:7;stroke-linecap:butt;stroke-linejoin:miter;stroke-miterlimit:4;stroke-dasharray:none;stroke-opacity:1"
       d="M 540.62037,739.6054 C 535.02557,729.92207 544.92408,725.61834 544.92408,725.61834 C 555.25298,722.17539 558.69595,731.21317 558.69595,731.21317"
       id="path2433"
       sodipodi:nodetypes="ccc"
       inkscape:export-xdpi="90.044502"
       inkscape:export-ydpi="90.044502"
       inkscape:export-filename="F:\Pictures\SVG\Banner\path2433.png" />
  </g>
</svg>
