<?xml version="1.0" encoding="UTF-8" standalone="no"?>
<!-- Created with Inkscape (http://www.inkscape.org/) -->
<svg
   xmlns:dc="http://purl.org/dc/elements/1.1/"
   xmlns:cc="http://creativecommons.org/ns#"
   xmlns:rdf="http://www.w3.org/1999/02/22-rdf-syntax-ns#"
   xmlns:svg="http://www.w3.org/2000/svg"
   xmlns="http://www.w3.org/2000/svg"
   xmlns:sodipodi="http://sodipodi.sourceforge.net/DTD/sodipodi-0.dtd"
   xmlns:inkscape="http://www.inkscape.org/namespaces/inkscape"
   width="697.15875"
   height="123.45409"
   id="svg2406"
   sodipodi:version="0.32"
   inkscape:version="0.46"
   version="1.0"
   sodipodi:docname="hum_logo.svg"
   inkscape:output_extension="org.inkscape.output.svg.inkscape"
   inkscape:export-filename="C:\Users\joeb\Pictures\personal\svg\hum - white.png"
   inkscape:export-xdpi="89.668961"
   inkscape:export-ydpi="89.668961"
   style="display:inline">
  <defs
     id="defs2408">
    <inkscape:perspective
       sodipodi:type="inkscape:persp3d"
       inkscape:vp_x="0 : 526.18109 : 1"
       inkscape:vp_y="0 : 1000 : 0"
       inkscape:vp_z="744.09448 : 526.18109 : 1"
       inkscape:persp3d-origin="372.04724 : 350.78739 : 1"
       id="perspective2414" />
    <inkscape:perspective
       id="perspective3546"
       inkscape:persp3d-origin="372.04724 : 350.78739 : 1"
       inkscape:vp_z="744.09448 : 526.18109 : 1"
       inkscape:vp_y="0 : 1000 : 0"
       inkscape:vp_x="0 : 526.18109 : 1"
       sodipodi:type="inkscape:persp3d" />
  </defs>
  <sodipodi:namedview
     id="base"
     pagecolor="#000000"
     bordercolor="#666666"
     borderopacity="1.0"
     gridtolerance="10000"
     guidetolerance="10"
     objecttolerance="10"
     inkscape:pageopacity="0"
     inkscape:pageshadow="2"
     inkscape:zoom="1.6613279"
     inkscape:cx="358.30052"
     inkscape:cy="-3.8648047"
     inkscape:document-units="px"
     inkscape:current-layer="layer8"
     showgrid="false"
     inkscape:window-width="1680"
     inkscape:window-height="1000"
     inkscape:window-x="1280"
     inkscape:window-y="14"
     showguides="true"
     inkscape:guide-bbox="true"
     showborder="false" />
  <metadata
     id="metadata2411">
    <rdf:RDF>
      <cc:Work
         rdf:about="">
        <dc:format>image/svg+xml</dc:format>
        <dc:type
           rdf:resource="http://purl.org/dc/dcmitype/StillImage" />
      </cc:Work>
    </rdf:RDF>
  </metadata>
  <g
     inkscape:groupmode="layer"
     id="layer6"
     inkscape:label="Name"
     transform="translate(1194.7267,-508.17913)">
    <flowRoot
       xml:space="preserve"
       id="flowRoot3228"
       style="font-size:32px;font-style:normal;font-variant:normal;font-weight:900;font-stretch:normal;text-align:start;line-height:125%;writing-mode:lr-tb;text-anchor:start;fill:#ffffff;fill-opacity:1;stroke:#d40000;stroke-width:4.09575605;stroke-linecap:butt;stroke-linejoin:miter;stroke-miterlimit:4;stroke-dasharray:none;stroke-opacity:1;display:inline;font-family:Blackoak Std;-inkscape-font-specification:Blackoak Std Heavy"
       transform="matrix(0.6723965,0,0,0.7515912,-653.22455,-440.98461)"><flowRegion
         id="flowRegion3230"><rect
           id="rect3232"
           width="746.349"
           height="49.758869"
           x="-803.58466"
           y="1266.9891"
           style="fill:#ffffff;stroke:#d40000;stroke-width:4.09575605;stroke-linecap:butt;stroke-linejoin:miter;stroke-miterlimit:4;stroke-dasharray:none" /></flowRegion><flowPara
         id="flowPara3234"
         style="font-size:62.50372314px;font-style:normal;font-variant:normal;font-weight:normal;font-stretch:normal;text-align:start;line-height:100%;writing-mode:lr-tb;text-anchor:start;stroke:#d40000;stroke-width:4.09575605;stroke-linecap:butt;stroke-linejoin:miter;stroke-miterlimit:4;stroke-dasharray:none;font-family:Wide Latin;-inkscape-font-specification:Wide Latin">HUMBOLDT</flowPara></flowRoot>    <flowRoot
       xml:space="preserve"
       id="flowRoot2465"
       style="font-size:32px;font-style:normal;font-variant:normal;font-weight:900;font-stretch:normal;text-align:start;line-height:125%;writing-mode:lr-tb;text-anchor:start;fill:#ffffff;fill-opacity:1;stroke:#d40000;stroke-width:4.09575605;stroke-linecap:butt;stroke-linejoin:miter;stroke-miterlimit:4;stroke-dasharray:none;stroke-opacity:1;display:inline;font-family:Blackoak Std;-inkscape-font-specification:Blackoak Std Heavy"
       transform="matrix(0.6723965,0,0,0.7515912,-533.46663,-397.00184)"><flowRegion
         id="flowRegion2467"><rect
           id="rect2469"
           width="877.99231"
           height="58.069447"
           x="-803.58466"
           y="1266.9891"
           style="fill:#ffffff;stroke:#d40000;stroke-width:4.09575605;stroke-linecap:butt;stroke-linejoin:miter;stroke-miterlimit:4;stroke-dasharray:none" /></flowRegion><flowPara
         id="flowPara2471"
         style="font-size:62.50372314px;font-style:normal;font-variant:normal;font-weight:normal;font-stretch:normal;text-align:start;line-height:100%;writing-mode:lr-tb;text-anchor:start;stroke:#d40000;stroke-width:4.09575605;stroke-linecap:butt;stroke-linejoin:miter;stroke-miterlimit:4;stroke-dasharray:none;font-family:Wide Latin;-inkscape-font-specification:Wide Latin">TECHNOLOGY</flowPara></flowRoot>    <flowRoot
       xml:space="preserve"
       id="flowRoot2473"
       style="font-size:32px;font-style:normal;font-variant:normal;font-weight:900;font-stretch:normal;text-align:start;line-height:125%;writing-mode:lr-tb;text-anchor:start;fill:#ffffff;fill-opacity:1;stroke:#d40000;stroke-width:4.09575605;stroke-linecap:butt;stroke-linejoin:miter;stroke-miterlimit:4;stroke-dasharray:none;stroke-opacity:1;display:inline;font-family:Blackoak Std;-inkscape-font-specification:Blackoak Std Heavy"
       transform="matrix(0.6723965,0,0,0.7515912,-622.07479,-356.07439)"><flowRegion
         id="flowRegion2475"><rect
           id="rect2477"
           width="877.99231"
           height="58.069447"
           x="-803.58466"
           y="1266.9891"
           style="fill:#ffffff;stroke:#d40000;stroke-width:4.09575605;stroke-linecap:butt;stroke-linejoin:miter;stroke-miterlimit:4;stroke-dasharray:none" /></flowRegion><flowPara
         id="flowPara2479"
         style="font-size:62.50372314px;font-style:normal;font-variant:normal;font-weight:normal;font-stretch:normal;text-align:start;line-height:100%;writing-mode:lr-tb;text-anchor:start;stroke:#d40000;stroke-width:4.09575605;stroke-linecap:butt;stroke-linejoin:miter;stroke-miterlimit:4;stroke-dasharray:none;font-family:Wide Latin;-inkscape-font-specification:Wide Latin">GROUP</flowPara></flowRoot>    <flowRoot
       xml:space="preserve"
       id="flowRoot3855"
       style="font-size:32px;font-style:normal;font-variant:normal;font-weight:900;font-stretch:normal;text-align:start;line-height:125%;writing-mode:lr-tb;text-anchor:start;fill:#000000;fill-opacity:1;stroke:none;stroke-width:1px;stroke-linecap:butt;stroke-linejoin:miter;stroke-opacity:1;font-family:Blackoak Std;-inkscape-font-specification:Blackoak Std Heavy"><flowRegion
         id="flowRegion3857"><rect
           id="rect3859"
           width="384.76721"
           height="71.505409"
           x="1065.7711"
           y="297.92178" /></flowRegion><flowPara
         id="flowPara3861" /></flowRoot>    <text
       xml:space="preserve"
       style="font-size:13.95800018px;font-style:normal;font-variant:normal;font-weight:900;font-stretch:normal;text-align:start;line-height:100%;writing-mode:lr-tb;text-anchor:start;fill:#ffffff;fill-opacity:1;stroke:#d40000;stroke-width:0.95369637;stroke-linecap:butt;stroke-linejoin:bevel;stroke-miterlimit:4;stroke-dasharray:none;stroke-opacity:1;font-family:Blackoak Std;-inkscape-font-specification:Blackoak Std Heavy"
       x="-1102.5803"
       y="491.35962"
       id="text3863"
       sodipodi:linespacing="100%"
       transform="scale(0.7821892,1.2784631)"><tspan
         sodipodi:role="line"
         id="tspan3865"
         x="-1102.5803"
         y="491.35962"
         style="font-size:13.95800018px;font-style:normal;font-variant:normal;font-weight:normal;font-stretch:normal;text-align:start;line-height:100%;writing-mode:lr-tb;text-anchor:start;fill:#ffffff;stroke:#d40000;stroke-width:0.95369637;stroke-linejoin:bevel;stroke-miterlimit:4;stroke-dasharray:none;font-family:Wide Latin;-inkscape-font-specification:Wide Latin">, LLC</tspan></text>
  </g>
  <g
     inkscape:groupmode="layer"
     id="layer8"
     inkscape:label="NAME FILL"
     style="display:inline"
     transform="translate(-761.55148,-508.17913)">
    <path
       style="opacity:1;fill:none;fill-opacity:1;fill-rule:nonzero;stroke:#009dba;stroke-width:2.29622626;stroke-linecap:butt;stroke-linejoin:round;stroke-miterlimit:4;stroke-dasharray:none;stroke-opacity:1"
       d="M 772.21306,537.59915 L 775.38954,535.29817 L 775.38954,526.21973 L 775.38954,517.14134 L 772.3279,515.11526 C 770.64399,514.00091 769.26627,512.92184 769.26627,512.71731 C 769.26627,512.51281 774.1559,512.3455 780.13212,512.3455 L 790.998,512.3455 L 788.55164,514.8695 C 786.58301,516.9006 786.10526,518.02614 786.10526,520.63293 L 786.10526,523.87234 L 795.86422,523.65814 L 805.62318,523.4439 L 805.85425,520.27935 C 806.06253,517.42605 805.80072,516.88026 803.19226,514.73015 L 800.29921,512.3455 L 811.72286,512.3455 L 823.14644,512.3455 L 819.93405,514.7079 L 816.72159,517.07037 L 816.72159,526.50931 L 816.72159,535.94827 L 819.40054,537.60397 C 820.87394,538.51458 822.07947,539.40377 822.07947,539.57992 C 822.07947,539.75608 817.36205,539.90019 811.59629,539.90019 L 801.11313,539.90019 L 803.55951,537.37619 C 805.6064,535.26433 806.0059,534.26444 806.0059,531.25291 L 806.0059,527.65364 L 796.05556,527.65364 L 786.10526,527.65364 L 786.10526,531.63014 C 786.10526,534.90274 786.46935,535.98672 788.16197,537.75343 L 790.21873,539.90019 L 779.62765,539.90019 L 769.03656,539.90019 L 772.21306,537.59915 z"
       id="path3812" />
    <path
       style="opacity:1;fill:none;fill-opacity:1;fill-rule:nonzero;stroke:#009dba;stroke-width:2.29622626;stroke-linecap:butt;stroke-linejoin:round;stroke-miterlimit:4;stroke-dasharray:none;stroke-opacity:1"
       d="M 848.97088,539.9626 C 846.71173,539.1825 843.78636,537.46726 842.47009,536.15101 C 840.11495,533.79591 840.07252,533.62034 839.80277,525.12225 L 839.52863,516.48672 L 836.35324,514.42823 L 833.17789,512.36974 L 845.02476,512.35761 L 856.87164,512.3455 L 854.01833,514.69744 L 851.16499,517.04941 L 851.16499,525.47201 C 851.16499,533.70273 851.21451,533.94417 853.33679,536.06647 C 857.37882,540.10849 867.5527,540.11757 872.07094,536.08321 C 874.48601,533.92677 874.51256,533.82461 874.77472,525.67454 L 875.03946,517.44368 L 872.09577,514.92331 L 869.15211,512.40294 L 876.99753,512.3742 C 881.31254,512.35841 884.84299,512.51281 884.84299,512.71731 C 884.84299,512.92184 883.46527,514.00091 881.78136,515.11525 L 878.71972,517.14134 L 878.71972,526.28344 C 878.71972,535.29779 878.68945,535.45572 876.55453,537.59067 C 873.63478,540.51042 869.83213,541.42638 860.7326,541.40174 C 855.31365,541.38707 851.87901,540.96683 848.9709,539.96261 L 848.97088,539.9626 z"
       id="path3814" />
    <path
       style="opacity:1;fill:none;fill-opacity:1;fill-rule:nonzero;stroke:#009dba;stroke-width:2.29622626;stroke-linecap:butt;stroke-linejoin:round;stroke-miterlimit:4;stroke-dasharray:none;stroke-opacity:1"
       d="M 899.00306,538.01041 C 900.26599,536.9752 901.5576,536.1158 901.87335,536.10065 C 902.18906,536.08555 902.44738,531.7726 902.44738,526.5164 L 902.44738,516.95964 L 899.247,514.84389 L 896.04666,512.72817 L 906.28845,512.51355 C 911.92144,512.39551 916.89204,512.44049 917.33424,512.61349 C 917.77649,512.78653 919.51601,516.58105 921.1999,521.04576 C 922.88379,525.5105 924.43377,529.16807 924.64425,529.17372 C 924.85472,529.17936 926.40467,525.39543 928.0886,520.76498 L 931.15023,512.34593 L 943.20542,512.34571 C 949.83576,512.34559 955.26059,512.47192 955.26059,512.62646 C 955.26059,512.78102 953.88285,513.81919 952.19894,514.93355 L 949.13734,516.95964 L 949.13734,526.51638 C 949.13734,531.7726 949.39565,536.08555 949.71138,536.10065 C 950.02711,536.11582 951.31875,536.9752 952.58168,538.0104 L 954.87789,539.89258 L 944.16217,539.88499 L 933.44645,539.87745 L 936.34977,537.40121 L 939.2531,534.92503 L 939.02868,524.59201 C 938.80439,514.26271 938.80365,514.25899 936.97055,514.25899 C 935.30171,514.25899 934.70985,515.39479 930.38962,526.88825 L 925.64246,539.51748 L 922.94206,539.74939 L 920.24174,539.98129 L 915.25421,527.50285 C 911.20448,517.37063 909.96331,514.97841 908.65328,514.77982 C 907.07861,514.54114 907.03968,514.78943 907.03294,525.11284 L 907.02605,535.69045 L 909.52052,537.77471 L 912.015,539.85902 L 904.36089,539.8758 L 896.70682,539.89258 L 899.00306,538.01041 z"
       id="path3816" />
    <path
       style="opacity:1;fill:none;fill-opacity:1;fill-rule:nonzero;stroke:#009dba;stroke-width:2.29622626;stroke-linecap:butt;stroke-linejoin:round;stroke-miterlimit:4;stroke-dasharray:none;stroke-opacity:1"
       d="M 970.76014,537.98877 L 973.63039,536.01795 L 973.62099,526.28656 L 973.61143,516.55523 L 970.7506,514.6417 L 967.88984,512.72817 L 985.11149,512.49731 C 994.58349,512.37031 1004.1241,512.47903 1006.3131,512.73891 C 1011.213,513.32061 1015.2589,515.87096 1015.5773,518.57836 C 1015.7669,520.19212 1015.3058,520.79077 1013.0505,521.86108 C 1011.5331,522.58106 1009.1039,523.36289 1007.6521,523.59851 C 1005.5325,523.94246 1005.012,524.37364 1005.012,525.786 C 1005.012,527.30245 1005.594,527.66591 1009.2298,528.42065 C 1014.1239,529.43668 1018.22,532.44036 1017.8728,534.75854 C 1017.7455,535.60758 1016.6699,537.02567 1015.4823,537.90988 C 1013.4193,539.44557 1012.3061,539.52738 990.60629,539.73853 L 967.88984,539.95957 L 970.76014,537.98877 z M 1004.3159,536.17969 C 1006.2031,533.84691 1006.1757,531.11355 1004.2466,529.18447 C 1002.8936,527.83113 1001.6954,527.65364 993.91369,527.65364 L 985.11149,527.65364 L 985.11149,533.07738 L 985.11149,538.50112 L 993.98307,538.24388 C 1002.2264,538.00488 1002.958,537.85879 1004.3159,536.17969 L 1004.3159,536.17969 z M 1003.4814,523.06119 C 1005.2252,521.31744 1005.3945,519.85992 1004.1322,517.46167 C 1002.7527,514.84119 1002.079,514.66588 993.33976,514.65344 L 985.11149,514.6417 L 985.11149,519.61686 L 985.11149,524.59201 L 993.53096,524.59201 C 1000.93,524.59201 1002.136,524.40645 1003.4814,523.06119 z"
       id="path3818" />
    <path
       style="opacity:1;fill:none;fill-opacity:1;fill-rule:nonzero;stroke:#009dba;stroke-width:2.29622626;stroke-linecap:butt;stroke-linejoin:round;stroke-miterlimit:4;stroke-dasharray:none;stroke-opacity:1"
       d="M 1038.1435,540.32061 C 1034.0678,539.04677 1028.879,536.01245 1026.5955,533.56707 C 1019.667,526.1479 1026.9898,515.4176 1041.0946,512.32152 C 1058.973,508.39708 1077.8563,519.7402 1072.3523,531.09799 C 1070.5599,534.79745 1065.2589,538.53669 1059.4083,540.22866 C 1054.3527,541.69093 1042.6897,541.74133 1038.1436,540.3206 L 1038.1435,540.32061 z M 1054.842,537.39734 C 1058.7449,534.78986 1060.2574,531.27481 1059.9359,525.55701 C 1059.5147,518.06291 1055.236,513.49359 1048.6404,513.49359 C 1042.0447,513.49359 1037.7663,518.0629 1037.3451,525.55701 C 1036.8804,533.82364 1041.2987,539.13477 1048.6404,539.13477 C 1051.1099,539.13477 1053.0583,538.58888 1054.842,537.39737 L 1054.842,537.39734 z"
       id="path3820" />
    <path
       style="opacity:1;fill:none;fill-opacity:1;fill-rule:nonzero;stroke:#009dba;stroke-width:2.29622626;stroke-linecap:butt;stroke-linejoin:round;stroke-miterlimit:4;stroke-dasharray:none;stroke-opacity:1"
       d="M 1083.8494,539.57991 C 1083.8494,539.40377 1085.0549,538.51458 1086.5281,537.60397 L 1089.2072,535.94827 L 1089.2072,526.45398 L 1089.2072,516.95964 L 1086.003,514.84389 L 1082.7991,512.72817 L 1088.682,512.50464 C 1091.9179,512.38168 1097.2124,512.38168 1100.448,512.50463 L 1106.331,512.72817 L 1103.127,514.84389 L 1099.9228,516.95964 L 1099.9228,527.28177 L 1099.9228,537.60397 L 1109.9469,537.60397 L 1119.9708,537.60397 L 1124.8724,533.30074 L 1129.7738,528.99751 L 1129.7738,534.44884 L 1129.7738,539.90019 L 1106.8116,539.90019 C 1094.1823,539.90019 1083.8494,539.75607 1083.8494,539.57992 L 1083.8494,539.57991 z"
       id="path3822" />
    <path
       style="opacity:1;fill:none;fill-opacity:1;fill-rule:nonzero;stroke:#009dba;stroke-width:2.29622626;stroke-linecap:butt;stroke-linejoin:round;stroke-miterlimit:4;stroke-dasharray:none;stroke-opacity:1"
       d="M 1141.6376,538.01041 C 1142.9004,536.9752 1144.1921,536.1158 1144.508,536.10065 C 1144.8237,536.08555 1145.0821,531.81456 1145.0821,526.60964 L 1145.0821,517.1461 L 1141.893,514.93715 L 1138.7038,512.72817 L 1154.3306,512.49441 C 1174.3137,512.19548 1178.1779,512.59331 1183.2112,515.46794 C 1192.8416,520.96815 1193.947,530.23938 1185.6458,535.88888 C 1180.5553,539.3532 1176.6957,539.90046 1157.3809,539.89639 L 1139.3414,539.89258 L 1141.6376,538.01041 z M 1171.948,536.82999 C 1176.2426,535.63698 1177.5257,533.67028 1177.8476,527.78877 C 1178.0867,523.41204 1177.868,522.29394 1176.3234,519.99956 C 1173.5612,515.89705 1170.3272,514.64429 1162.4952,514.64288 L 1155.7976,514.6417 L 1155.7976,526.12284 L 1155.7976,537.60397 L 1162.4952,537.5997 C 1166.1786,537.59735 1170.4323,537.25098 1171.948,536.82997 L 1171.948,536.82999 z"
       id="path3824" />
    <path
       style="opacity:1;fill:none;fill-opacity:1;fill-rule:nonzero;stroke:#009dba;stroke-width:2.29622626;stroke-linecap:butt;stroke-linejoin:round;stroke-miterlimit:4;stroke-dasharray:none;stroke-opacity:1"
       d="M 1211.1076,537.86441 L 1213.9689,535.82868 L 1213.9689,525.23517 L 1213.9689,514.6417 L 1209.4591,514.6417 C 1205.1787,514.6417 1204.7507,514.82037 1201.0397,518.15698 C 1196.7355,522.0268 1196.5252,521.84589 1197.621,515.21576 L 1198.0955,512.3455 L 1219.8095,512.3455 L 1241.5236,512.3455 L 1241.5236,514.54603 C 1241.5236,515.75634 1241.7543,517.90096 1242.0365,519.31186 L 1242.5494,521.87716 L 1238.4141,518.25942 C 1234.5079,514.84232 1234.0337,514.6417 1229.8642,514.6417 L 1225.4499,514.6417 L 1225.4499,525.32982 L 1225.4499,536.01795 L 1228.3065,537.95905 L 1231.1632,539.90019 L 1219.7047,539.90019 L 1208.2463,539.90019 L 1211.1076,537.86441 z"
       id="path3826" />
    <path
       style="opacity:1;fill:none;fill-opacity:1;fill-rule:nonzero;stroke:#009dba;stroke-width:2.29622626;stroke-linecap:butt;stroke-linejoin:round;stroke-miterlimit:4;stroke-dasharray:none;stroke-opacity:1"
       d="M 896.32411,584.01529 C 896.32411,583.86205 897.71122,582.77543 899.40659,581.60053 L 902.48904,579.4644 L 902.27687,569.05853 L 902.06468,558.6527 L 897.59463,558.42109 C 893.21028,558.19394 893.05164,558.25774 889.31644,561.75159 C 887.22192,563.71075 885.42374,565.19271 885.32046,565.04483 C 885.2172,564.89696 885.27297,562.96772 885.44442,560.75759 L 885.75617,556.73919 L 907.46173,556.73919 L 929.16731,556.73919 L 929.65107,559.31787 C 929.91717,560.73612 930.01887,562.63992 929.87712,563.54849 C 929.64022,565.06694 929.30017,564.9204 925.66887,561.7352 C 921.99174,558.50981 921.42228,558.27003 917.44072,558.27003 L 913.16312,558.27003 L 913.16312,568.98093 L 913.16312,579.69187 L 916.33958,581.99284 L 919.51609,584.29391 L 907.92008,584.29391 C 901.5423,584.29391 896.32411,584.16854 896.32411,584.0153 L 896.32411,584.01529 z"
       id="path3828" />
    <path
       style="opacity:1;fill:none;fill-opacity:1;fill-rule:nonzero;stroke:#009dba;stroke-width:2.29622626;stroke-linecap:butt;stroke-linejoin:round;stroke-miterlimit:4;stroke-dasharray:none;stroke-opacity:1"
       d="M 939.18701,584.01289 C 939.18701,583.85836 940.56474,582.82017 942.24864,581.70581 L 945.31028,579.67973 L 945.31028,570.51047 L 945.31028,561.34121 L 942.13382,559.04023 L 938.9573,556.73919 L 962.41715,556.73919 L 985.877,556.73919 L 985.877,560.18353 C 985.877,562.0779 985.67655,563.62786 985.43171,563.62786 C 985.18687,563.62786 983.51531,562.42236 981.71723,560.94894 L 978.44796,558.27003 L 967.23698,558.27003 L 956.02599,558.27003 L 956.02599,563.24515 L 956.02599,568.22032 L 962.95271,568.22032 C 967.66453,568.22032 970.60146,567.84693 972.13766,567.05254 L 974.39576,565.8848 L 974.39576,569.73145 C 974.39576,573.9013 974.20387,574.07052 971.33415,572.43007 C 970.08698,571.71709 967.07636,571.32676 962.68835,571.30908 L 955.95605,571.28194 L 956.18237,576.44846 L 956.40873,581.61497 L 966.84688,581.82735 L 977.28508,582.03977 L 981.00692,579.23548 C 983.05406,577.69317 985.15948,576.09158 985.68558,575.67642 C 986.42898,575.08987 986.64238,575.96649 986.64238,579.60772 L 986.64238,584.29391 L 962.91468,584.29391 C 949.86447,584.29391 939.18701,584.16747 939.18701,584.0129 L 939.18701,584.01289 z"
       id="path3830" />
    <path
       style="opacity:1;fill:none;fill-opacity:1;fill-rule:nonzero;stroke:#009dba;stroke-width:2.29622626;stroke-linecap:butt;stroke-linejoin:round;stroke-miterlimit:4;stroke-dasharray:none;stroke-opacity:1"
       d="M 1012.8468,585.0644 C 1003.097,582.99011 995.05932,576.84587 995.0647,571.47109 C 995.07173,564.43028 1003.4802,557.9838 1015.3538,555.91609 C 1021.0186,554.92961 1029.3821,555.93603 1034.5624,558.22749 C 1037.4321,559.49685 1037.969,559.53125 1039.3887,558.53674 C 1040.932,557.45578 1040.9863,557.5262 1040.9863,560.61086 L 1040.9863,563.80393 L 1038.8814,562.41882 C 1030.4483,556.86942 1019.0106,556.04871 1012.7025,560.54037 C 1009.5919,562.75531 1007.7445,567.94934 1008.4334,572.54315 C 1009.4298,579.18711 1015.287,582.76307 1025.1723,582.76307 C 1029.561,582.76307 1036.8555,580.78742 1039.5495,578.86918 C 1042.1653,577.00666 1042.486,577.97943 1040.0201,580.29604 C 1036.5575,583.54899 1031.3048,585.19726 1023.4795,585.48648 C 1019.4265,585.63622 1014.6419,585.44633 1012.8468,585.06441 L 1012.8468,585.0644 z"
       id="path3832" />
    <path
       style="opacity:1;fill:none;fill-opacity:1;fill-rule:nonzero;stroke:#009dba;stroke-width:2.29622626;stroke-linecap:butt;stroke-linejoin:round;stroke-miterlimit:4;stroke-dasharray:none;stroke-opacity:1"
       d="M 1054.6489,581.99284 L 1057.8254,579.69187 L 1057.8254,570.1915 L 1057.8254,560.69109 L 1055.1464,559.03541 C 1053.6733,558.12478 1052.4676,557.23562 1052.4676,557.05946 C 1052.4676,556.8833 1057.1851,556.73919 1062.9507,556.73919 L 1073.4338,556.73919 L 1070.9318,559.32071 C 1068.929,561.38699 1068.4789,562.41827 1068.6766,564.48725 L 1068.9239,567.0722 L 1078.683,567.28644 L 1088.4418,567.50065 L 1088.4418,564.26667 C 1088.4418,561.79992 1087.9539,560.52341 1086.385,558.88596 L 1084.3281,556.73919 L 1094.9866,556.73919 L 1105.6452,556.73919 L 1102.7842,558.77498 L 1099.9228,560.81071 L 1099.9228,570.63878 C 1099.9228,576.04422 1100.1812,580.46856 1100.4969,580.47066 C 1100.8124,580.47277 1102.1044,581.32144 1103.3671,582.35664 L 1105.6634,584.23883 L 1094.5651,584.24391 L 1083.4666,584.249 L 1085.9541,581.98604 C 1088.1288,580.00749 1088.4418,579.24057 1088.4418,575.8852 L 1088.4418,572.04735 L 1078.4914,572.04735 L 1068.5411,572.04735 L 1068.5411,575.5798 C 1068.5411,578.67485 1068.8916,579.43312 1071.3698,581.7031 L 1074.1981,584.29391 L 1062.8354,584.29391 L 1051.4723,584.29391 L 1054.6489,581.99284 z"
       id="path3834" />
    <path
       style="opacity:1;fill:none;fill-opacity:1;fill-rule:nonzero;stroke:#009dba;stroke-width:2.29622626;stroke-linecap:butt;stroke-linejoin:round;stroke-miterlimit:4;stroke-dasharray:none;stroke-opacity:1"
       d="M 1121.2036,581.93148 L 1124.4161,579.56902 L 1124.4108,570.259 L 1124.4054,560.94894 L 1121.5929,559.03541 L 1118.78,557.12188 L 1127.8759,556.90489 L 1136.9718,556.68792 L 1146.2046,565.89845 C 1151.2824,570.96425 1155.6905,575.10899 1156,575.10899 C 1156.3097,575.10899 1156.5606,571.92297 1156.558,568.02897 L 1156.5526,560.94894 L 1153.7337,559.03541 L 1150.9144,557.12188 L 1154.8869,556.89054 C 1157.0717,556.76331 1160.6677,556.76331 1162.8777,556.89053 L 1166.8962,557.12188 L 1164.0259,558.90647 L 1161.1554,560.69109 L 1161.1554,572.4925 L 1161.1554,584.29391 L 1155.234,584.29391 L 1149.3123,584.29391 L 1139.1602,574.16288 L 1129.0082,564.03181 L 1129.0082,571.86185 L 1129.0082,579.69187 L 1132.1849,581.99284 L 1135.3612,584.29391 L 1126.6762,584.29391 L 1117.991,584.29391 L 1121.2036,581.93148 z"
       id="path3836" />
    <path
       style="opacity:1;fill:none;fill-opacity:1;fill-rule:nonzero;stroke:#009dba;stroke-width:2.29622626;stroke-linecap:butt;stroke-linejoin:round;stroke-miterlimit:4;stroke-dasharray:none;stroke-opacity:1"
       d="M 1191.8066,585.0395 C 1182.7872,583.13684 1174.9328,576.78475 1174.9328,571.39293 C 1174.9328,565.94456 1180.3772,560.26418 1188.3533,557.39086 C 1194.8734,555.04191 1205.719,555.08648 1211.9614,557.48781 C 1217.0895,559.4605 1223.508,565.13337 1224.3269,568.4167 C 1225.791,574.28812 1221.1373,580.35057 1212.7587,583.48666 C 1207.601,585.41712 1197.2377,586.18521 1191.8066,585.0395 z M 1205.6811,581.91364 C 1206.3852,581.54419 1207.6759,580.33373 1208.549,579.22364 C 1212.7697,573.85782 1212.2346,565.19137 1207.3931,560.49867 C 1204.9166,558.09814 1204.3158,557.88729 1199.9578,557.88729 C 1196.4065,557.88729 1194.7038,558.27164 1193.176,559.41811 C 1185.2342,565.37682 1187.0473,579.98217 1196.0731,582.75361 C 1198.4216,583.47483 1203.5624,583.0254 1205.6811,581.91363 L 1205.6811,581.91364 z"
       id="path3838" />
    <path
       style="opacity:1;fill:none;fill-opacity:1;fill-rule:nonzero;stroke:#009dba;stroke-width:2.29622626;stroke-linecap:butt;stroke-linejoin:round;stroke-miterlimit:4;stroke-dasharray:none;stroke-opacity:1"
       d="M 1236.5483,582.35664 C 1237.8114,581.32144 1239.1028,580.47276 1239.4188,580.47066 C 1239.7344,580.4686 1239.9928,576.01729 1239.9928,570.57897 L 1239.9928,560.69109 L 1237.3137,559.03541 C 1235.8404,558.12478 1234.6348,557.23562 1234.6348,557.05946 C 1234.6348,556.8833 1239.7111,556.73919 1245.9154,556.73919 L 1257.1961,556.73919 L 1254.3352,558.77498 L 1251.4738,560.81071 L 1251.4738,571.40422 L 1251.4738,581.99768 L 1261.0217,581.99768 L 1270.5696,581.99768 L 1275.9471,577.3694 L 1281.3248,572.74109 L 1281.3248,578.51751 L 1281.3248,584.29391 L 1257.7884,584.26639 L 1234.2521,584.23883 L 1236.5483,582.35664 z"
       id="path3840" />
    <path
       style="opacity:1;fill:none;fill-opacity:1;fill-rule:nonzero;stroke:#009dba;stroke-width:2.29622626;stroke-linecap:butt;stroke-linejoin:round;stroke-miterlimit:4;stroke-dasharray:none;stroke-opacity:1"
       d="M 1303.139,584.74472 C 1295.3264,582.8058 1288.4772,578.02671 1287.0456,573.51577 C 1284.7841,566.39069 1294.3899,557.82109 1306.8045,555.88835 C 1324.9618,553.06153 1342.0869,565.80199 1334.712,576.65059 C 1329.914,583.70865 1314.6899,587.61152 1303.139,584.74471 L 1303.139,584.74472 z M 1318.0171,581.33654 C 1323.3455,577.49061 1324.9424,570.31299 1321.878,563.98252 C 1319.7419,559.57029 1316.5572,557.51129 1311.8629,557.50746 C 1307.6975,557.5041 1303.9484,559.71007 1301.7643,563.44954 C 1299.0311,568.12947 1300.1641,577.36269 1303.8468,580.41897 C 1307.6219,583.55217 1314.3441,583.98748 1318.0171,581.33655 L 1318.0171,581.33654 z"
       id="path3842" />
    <path
       style="opacity:1;fill:none;fill-opacity:1;fill-rule:nonzero;stroke:#009dba;stroke-width:2.29622626;stroke-linecap:butt;stroke-linejoin:round;stroke-miterlimit:4;stroke-dasharray:none;stroke-opacity:1"
       d="M 1358.0576,584.69058 C 1352.2832,583.06598 1348.4994,580.95163 1345.738,577.80639 C 1343.722,575.51043 1343.323,574.42786 1343.323,571.25753 C 1343.323,567.95519 1343.6912,567.05155 1346.1446,564.33602 C 1353.7604,555.90625 1369.7196,553.0402 1381.9079,557.91352 C 1385.2312,559.24223 1386.8062,559.52256 1387.8401,558.96935 C 1389.0929,558.29874 1389.2472,558.53952 1389.2472,561.16486 L 1389.2472,564.11357 L 1384.0809,561.56988 C 1371.1485,555.20266 1359.9523,556.89959 1357.0594,565.66542 C 1355.8124,569.44341 1356.4973,576.22843 1358.3829,578.77641 C 1361.7441,583.31889 1370.2552,584.89112 1376.5089,582.12482 C 1381.2632,580.02174 1381.4246,577.56305 1377.0007,574.63545 C 1375.317,573.5211 1373.9392,572.48291 1373.9392,572.32834 C 1373.9392,572.17378 1379.0015,572.04735 1385.1882,572.04735 L 1396.4376,572.04735 L 1393.2252,574.4098 C 1390.2088,576.62819 1390.0127,577.00155 1390.0127,580.53306 C 1390.0127,584.633 1389.9314,584.73402 1387.7332,583.36121 C 1386.5275,582.60834 1385.2386,582.7001 1381.0462,583.83731 C 1374.0352,585.7391 1363.2119,586.14076 1358.0576,584.69054 L 1358.0576,584.69058 z"
       id="path3844" />
    <path
       style="opacity:1;fill:none;fill-opacity:1;fill-rule:nonzero;stroke:#009dba;stroke-width:2.29622626;stroke-linecap:butt;stroke-linejoin:round;stroke-miterlimit:4;stroke-dasharray:none;stroke-opacity:1"
       d="M 1416.802,584.01289 C 1416.802,583.85836 1418.1799,582.82017 1419.8637,581.70581 C 1422.5292,579.94201 1422.9252,579.30954 1422.9228,576.82031 C 1422.9204,574.22792 1422.1487,573.15663 1414.6609,565.35003 L 1406.4015,556.73919 L 1415.945,556.73919 L 1425.4885,556.73919 L 1423.6661,558.67893 L 1421.8438,560.61866 L 1426.8487,565.62351 L 1431.8536,570.62833 L 1436.7215,565.13751 L 1441.5894,559.64671 L 1439.7202,558.20996 L 1437.8507,556.77325 L 1444.3569,556.76124 C 1450.7992,556.74938 1450.8433,556.76234 1448.8559,558.08368 C 1447.752,558.81764 1443.8773,562.5991 1440.245,566.487 C 1433.9691,573.20474 1433.6411,573.72748 1433.6411,577.01137 C 1433.6411,578.91188 1433.8996,580.46856 1434.2152,580.47066 C 1434.5309,580.47277 1435.8224,581.32144 1437.0855,582.35664 L 1439.3816,584.23883 L 1428.0918,584.26639 C 1421.8825,584.28151 1416.802,584.16747 1416.802,584.0129 L 1416.802,584.01289 z"
       id="path3846" />
    <path
       style="opacity:1;fill:none;fill-opacity:1;fill-rule:nonzero;stroke:#009dba;stroke-width:2.29622626;stroke-linecap:butt;stroke-linejoin:round;stroke-miterlimit:4;stroke-dasharray:none;stroke-opacity:1"
       d="M 810.98104,625.3629 C 796.63811,620.60526 792.85557,611.45883 801.92832,603.4727 C 806.8193,599.16744 812.49831,597.19497 821.31405,596.7394 C 827.73421,596.40762 829.28419,596.59881 834.55451,598.37261 C 839.11474,599.90742 840.87609,600.19293 842.01725,599.5822 C 843.39678,598.84387 843.5109,599.04884 843.5109,602.26492 L 843.5109,605.74707 L 840.59037,603.81434 C 833.43541,599.07939 822.30112,597.38173 816.73687,600.17731 C 812.44877,602.33175 810.59784,605.82904 810.60118,611.77045 C 810.60625,620.70135 814.31832,624.23025 823.70788,624.23025 C 829.92723,624.23026 833.81536,622.45744 834.15841,619.46527 C 834.33162,617.95457 833.66073,617.14192 830.71407,615.29295 L 827.05461,612.99673 L 832.98655,612.7732 C 836.2491,612.65021 841.56578,612.65021 844.80144,612.7732 L 850.68444,612.99673 L 847.48035,615.11244 C 844.36207,617.17159 844.27632,617.3411 844.27632,621.44674 L 844.27632,625.66528 L 841.91913,624.44632 C 839.7516,623.32546 839.27435,623.3315 835.98722,624.52145 C 831.21104,626.25044 815.27345,626.78674 810.98104,625.36293 L 810.98104,625.3629 z"
       id="path3848" />
    <path
       style="opacity:1;fill:none;fill-opacity:1;fill-rule:nonzero;stroke:#009dba;stroke-width:2.29622626;stroke-linecap:butt;stroke-linejoin:round;stroke-miterlimit:4;stroke-dasharray:none;stroke-opacity:1"
       d="M 862.64614,624.54029 C 862.64614,624.36412 863.85165,623.47496 865.32508,622.56435 L 868.00401,620.90866 L 868.00401,611.41434 L 868.00401,601.92001 L 864.79292,599.80427 L 861.58183,597.68855 L 864.21884,597.42736 C 865.66923,597.28371 874.95008,597.30191 884.84299,597.46779 C 904.45389,597.79661 907.19544,598.32248 909.76782,602.24842 C 911.90131,605.50459 910.36651,607.69834 904.80904,609.33621 C 898.93493,611.06737 898.33862,612.6871 902.69136,615.08821 C 904.58549,616.1331 906.51963,618.05027 907.53315,619.88759 C 908.46136,621.57027 909.60477,623.37758 910.07404,623.9038 C 910.74878,624.66046 909.68023,624.85782 904.96514,624.84751 L 899.00306,624.83445 L 897.17357,620.60888 C 894.46426,614.35125 892.84428,613.37945 885.12246,613.37945 L 878.71972,613.37945 L 878.71972,617.20648 C 878.71972,619.31135 878.97804,621.04591 879.29378,621.06104 C 879.6095,621.07618 880.90114,621.93555 882.16406,622.97075 L 884.46028,624.85294 L 873.55322,624.85678 C 867.55431,624.85884 862.64614,624.71645 862.64614,624.5403 L 862.64614,624.54029 z M 897.12478,608.91238 C 898.33699,607.93075 898.83867,606.74157 898.78828,604.96918 C 898.66535,600.64619 897.33669,600.02784 887.49932,599.71555 L 878.71972,599.43689 L 878.71972,604.87735 L 878.71972,610.31781 L 887.05442,610.31781 C 894.00085,610.31781 895.67822,610.08372 897.12479,608.91235 L 897.12478,608.91238 z"
       id="path3850" />
    <path
       style="opacity:1;fill:none;fill-opacity:1;fill-rule:nonzero;stroke:#009dba;stroke-width:2.29622626;stroke-linecap:butt;stroke-linejoin:round;stroke-miterlimit:4;stroke-dasharray:none;stroke-opacity:1"
       d="M 935.74268,625.36053 C 928.3887,622.93912 922.04792,618.00578 921.17367,614.02534 C 920.03082,608.82208 924.64906,602.8193 932.68103,599.06802 C 936.87862,597.10759 938.03034,596.92361 946.07568,596.92842 C 953.60306,596.93293 955.42606,597.18568 958.66281,598.67355 C 966.69701,602.36676 970.56102,606.82927 970.56596,612.42048 C 970.56967,616.74665 966.95629,620.79416 960.43613,623.76713 C 956.23885,625.68094 954.5971,625.97834 947.22382,626.16055 C 941.78028,626.29506 937.72212,626.01229 935.74268,625.36053 z M 951.43356,622.75451 C 955.49425,620.72596 957.77152,615.77138 957.29161,610.00927 C 956.67912,602.6546 952.46802,598.42581 945.82618,598.49555 C 938.63265,598.57108 934.59205,603.29628 934.59742,611.62679 C 934.60373,621.37515 943.03699,626.94907 951.43356,622.7545 L 951.43356,622.75451 z"
       id="path3852" />
    <path
       style="opacity:1;fill:none;fill-opacity:1;fill-rule:nonzero;stroke:#009dba;stroke-width:2.29622626;stroke-linecap:butt;stroke-linejoin:round;stroke-miterlimit:4;stroke-dasharray:none;stroke-opacity:1"
       d="M 994.00874,625.05376 C 991.95614,624.37007 989.1146,622.7146 987.6941,621.37496 L 985.11149,618.93926 L 985.11149,610.42964 L 985.11149,601.92001 L 982.04986,599.89392 C 980.36603,598.77957 978.98826,597.74139 978.98826,597.58683 C 978.98826,597.43229 984.06867,597.31878 990.27809,597.33459 L 1001.5679,597.36331 L 998.69734,599.82217 L 995.82719,602.28101 L 995.82719,609.78179 C 995.82719,614.84378 996.18888,617.98165 996.93913,619.43291 C 998.71703,622.87068 1004.215,624.56241 1010.8969,623.72757 C 1014.1887,623.31633 1015.7407,622.66913 1017.389,621.02107 C 1019.5041,618.90576 1019.555,618.65784 1019.555,610.43239 L 1019.555,602.00978 L 1016.7016,599.65782 L 1013.8484,597.30586 L 1022.2103,597.30586 L 1030.5721,597.30586 L 1027.4233,599.62146 L 1024.2748,601.93711 L 1024.0197,611.16719 L 1023.7648,620.39731 L 1021.3179,622.58172 C 1019.9722,623.78311 1017.5611,625.12984 1015.96,625.57447 C 1011.4862,626.8168 998.36737,626.50562 994.00874,625.05378 L 994.00874,625.05376 z"
       id="path3854" />
    <path
       style="opacity:1;fill:none;fill-opacity:1;fill-rule:nonzero;stroke:#009dba;stroke-width:2.29622626;stroke-linecap:butt;stroke-linejoin:round;stroke-miterlimit:4;stroke-dasharray:none;stroke-opacity:1"
       d="M 1044.2485,622.82478 L 1047.1096,620.78904 L 1047.1003,611.1523 L 1047.0907,601.5156 L 1044.2297,599.60209 L 1041.3691,597.68855 L 1058.5138,597.48225 C 1072.0178,597.31975 1076.6409,597.52763 1080.2847,598.46112 C 1091.2215,601.26296 1094.1148,608.50382 1085.9847,612.72622 C 1083.1017,614.22358 1081.2307,614.47192 1070.6458,614.76237 L 1058.5908,615.09315 L 1058.5908,618.03574 C 1058.5908,620.57657 1058.9808,621.24337 1061.4473,622.91945 L 1064.304,624.86057 L 1052.8456,624.86057 L 1041.3872,624.86057 L 1044.2485,622.82478 z M 1076.4745,611.02765 C 1077.9658,609.85478 1078.4914,608.74438 1078.4914,606.76758 C 1078.4914,601.05398 1075.8319,599.60209 1065.3653,599.60209 L 1058.5908,599.60209 L 1058.5908,606.10805 L 1058.5908,612.61402 L 1066.5244,612.61402 C 1073.3916,612.61402 1074.729,612.40081 1076.4745,611.02765 L 1076.4745,611.02765 z"
       id="path3856" />
    <path
       style="opacity:1;fill:none;fill-opacity:1;fill-rule:nonzero;stroke:#009dba;stroke-width:0.95369625;stroke-linecap:butt;stroke-linejoin:bevel;stroke-miterlimit:4;stroke-dasharray:none;stroke-opacity:1"
       d="M 1096.6124,629.43432 C 1096.6117,629.41827 1096.6833,629.24608 1096.7714,629.0516 C 1096.8599,628.85715 1096.9603,628.59317 1096.9946,628.46499 C 1097.0655,628.20145 1097.0929,628.23973 1096.5765,627.88107 L 1096.3266,627.70755 L 1096.119,627.80812 C 1095.8672,627.93002 1095.7602,627.934 1095.6052,627.82719 C 1095.4382,627.71205 1095.379,627.63367 1095.2339,627.33466 C 1095.1262,627.11273 1095.1062,627.00789 1095.1062,626.66491 C 1095.1062,626.32905 1095.1275,626.21247 1095.2288,625.99491 C 1095.4533,625.51204 1095.7905,625.26487 1096.2327,625.25861 C 1096.549,625.25415 1096.7674,625.37803 1096.9917,625.68918 C 1097.4322,626.29998 1097.5369,627.43216 1097.2344,628.31175 C 1097.0975,628.70906 1096.6173,629.57564 1096.6124,629.43432 L 1096.6124,629.43432 z"
       id="path4653" />
    <path
       style="opacity:1;fill:none;fill-opacity:1;fill-rule:nonzero;stroke:#009dba;stroke-width:0.95369625;stroke-linecap:butt;stroke-linejoin:bevel;stroke-miterlimit:4;stroke-dasharray:none;stroke-opacity:1"
       d="M 1103.2127,627.68832 C 1103.2127,627.67237 1103.6229,627.23853 1104.1241,626.72427 C 1104.639,626.19596 1105.0655,625.71701 1105.1047,625.62325 C 1105.2078,625.37657 1105.2083,619.15024 1105.1051,618.90905 C 1105.0673,618.82032 1104.6258,618.3172 1104.1241,617.79096 L 1103.212,616.83422 L 1104.8868,616.82163 C 1105.8078,616.81473 1107.3134,616.81473 1108.2324,616.82163 L 1109.9031,616.83422 L 1108.993,617.78449 C 1108.4923,618.30714 1108.0525,618.80692 1108.0159,618.89518 C 1107.9602,619.02765 1107.9486,619.64986 1107.9486,622.4674 L 1107.9486,625.87919 L 1108.1775,626.10462 L 1108.4065,626.33007 L 1110.6875,626.33007 C 1112.7298,626.33007 1112.9862,626.3216 1113.138,626.24924 C 1113.2606,626.19076 1113.6331,625.7675 1114.4857,624.71842 C 1115.1336,623.9209 1115.6714,623.26842 1115.6811,623.26842 C 1115.6906,623.26842 1115.6984,624.26943 1115.6984,625.49289 L 1115.6984,627.71736 L 1109.4555,627.71736 C 1106.022,627.71736 1103.2127,627.70428 1103.2127,627.68832 z"
       id="path4655" />
    <path
       style="opacity:1;fill:none;fill-opacity:1;fill-rule:nonzero;stroke:#009dba;stroke-width:0.95369625;stroke-linecap:butt;stroke-linejoin:bevel;stroke-miterlimit:4;stroke-dasharray:none;stroke-opacity:1"
       d="M 1118.5761,626.75712 C 1119.0853,626.22897 1119.5376,625.71769 1119.5816,625.62095 C 1119.6541,625.46203 1119.6618,625.13806 1119.6618,622.26382 C 1119.6618,619.39 1119.6541,619.06549 1119.5816,618.90563 C 1119.5376,618.8083 1119.0979,618.30972 1118.6046,617.79763 C 1118.1112,617.28556 1117.7076,616.85392 1117.7076,616.83844 C 1117.7076,616.82296 1119.2168,616.81028 1121.061,616.81028 L 1124.4141,616.81028 L 1123.4889,617.77194 C 1122.8596,618.42553 1122.5373,618.79714 1122.482,618.93201 C 1122.4088,619.11173 1122.4009,619.4459 1122.3985,622.48073 L 1122.3958,625.83102 L 1122.6484,626.08054 L 1122.9012,626.33007 L 1125.1719,626.3288 C 1127.2199,626.32766 1127.46,626.31946 1127.6186,626.2451 C 1127.7504,626.18314 1128.0882,625.79986 1128.9764,624.70355 C 1129.6268,623.90108 1130.1667,623.23553 1130.1762,623.22457 C 1130.1855,623.21361 1130.1932,624.21999 1130.1932,625.461 L 1130.1932,627.71736 L 1123.9219,627.71736 L 1117.6507,627.71736 L 1118.5761,626.75712 z"
       id="path4657" />
    <path
       style="opacity:1;fill:none;fill-opacity:1;fill-rule:nonzero;stroke:#009dba;stroke-width:0.95369625;stroke-linecap:butt;stroke-linejoin:bevel;stroke-miterlimit:4;stroke-dasharray:none;stroke-opacity:1"
       d="M 1137.4857,628.221 C 1135.9768,627.98967 1134.7343,627.41735 1133.607,626.43422 C 1132.8155,625.74425 1132.1407,624.70501 1131.9085,623.81855 C 1131.7569,623.23943 1131.7324,622.14854 1131.8574,621.54625 C 1132.1095,620.33238 1132.8381,619.15761 1133.9344,618.1977 C 1135.3465,616.9609 1136.7597,616.41206 1138.5172,616.41788 C 1139.8825,616.4224 1141.0684,616.79536 1142.1227,617.55182 L 1142.478,617.80669 L 1142.7818,617.77992 C 1143.0606,617.75532 1143.1083,617.73359 1143.3608,617.51617 L 1143.636,617.27919 L 1143.636,618.57678 L 1143.636,619.87437 L 1143.3544,619.55023 C 1142.8313,618.9477 1142.3265,618.54895 1141.6688,618.21865 C 1140.8336,617.79917 1140.0639,617.62406 1139.0534,617.62371 C 1136.8362,617.62301 1135.5619,618.78861 1135.2158,621.13375 C 1135.1352,621.67903 1135.1483,623.0117 1135.2393,623.53154 C 1135.5177,625.12311 1136.2415,626.02038 1137.6099,626.47055 C 1138.6058,626.7981 1140.3013,626.79911 1141.3953,626.47281 C 1142.3537,626.18685 1143.4101,625.46509 1143.8641,624.7863 C 1143.9304,624.6871 1143.9924,624.61358 1144.0017,624.62292 C 1144.0512,624.67228 1143.7998,625.45499 1143.6121,625.836 C 1143.4509,626.16361 1143.3034,626.37355 1143.0295,626.66463 C 1142.2973,627.44303 1141.4563,627.8905 1140.2288,628.15468 C 1139.6407,628.28124 1138.1187,628.31804 1137.4857,628.221 L 1137.4857,628.221 z"
       id="path4659" />
  </g>
</svg>
