<?xml version="1.0" encoding="UTF-8" standalone="no"?>
<!-- Created with Inkscape (http://www.inkscape.org/) -->

<svg
   xmlns:dc="http://purl.org/dc/elements/1.1/"
   xmlns:cc="http://creativecommons.org/ns#"
   xmlns:rdf="http://www.w3.org/1999/02/22-rdf-syntax-ns#"
   xmlns:svg="http://www.w3.org/2000/svg"
   xmlns="http://www.w3.org/2000/svg"
   xmlns:sodipodi="http://sodipodi.sourceforge.net/DTD/sodipodi-0.dtd"
   xmlns:inkscape="http://www.inkscape.org/namespaces/inkscape"
   id="svg2985"
   version="1.1"
   inkscape:version="0.48.1 "
   width="375"
   height="375"
   xml:space="preserve"
   sodipodi:docname="youtube_icon.ai"
   inkscape:export-filename="C:\Users\HTG\Desktop\youtube.png"
   inkscape:export-xdpi="7.6799998"
   inkscape:export-ydpi="7.6799998"><metadata
     id="metadata2991"><rdf:RDF><cc:Work
         rdf:about=""><dc:format>image/svg+xml</dc:format><dc:type
           rdf:resource="http://purl.org/dc/dcmitype/StillImage" /><dc:title></dc:title></cc:Work></rdf:RDF></metadata><defs
     id="defs2989"><linearGradient
       x1="0"
       y1="0"
       x2="1"
       y2="0"
       gradientUnits="userSpaceOnUse"
       gradientTransform="matrix(-1.53e-5,-283.63965,-283.63965,1.53e-5,149.21436,293.87451)"
       spreadMethod="pad"
       id="linearGradient3007"><stop
         style="stop-opacity:1;stop-color:#ffffff"
         offset="0"
         id="stop3009" /><stop
         style="stop-opacity:1;stop-color:#d6d8d9"
         offset="1"
         id="stop3011" /></linearGradient><linearGradient
       x1="0"
       y1="0"
       x2="1"
       y2="0"
       gradientUnits="userSpaceOnUse"
       gradientTransform="matrix(-1.53e-5,261.26541,261.26541,1.53e-5,149.21533,20.407227)"
       spreadMethod="pad"
       id="linearGradient3027"><stop
         style="stop-opacity:1;stop-color:#ffffff"
         offset="0"
         id="stop3029" /><stop
         style="stop-opacity:1;stop-color:#dedfe1"
         offset="1"
         id="stop3031" /></linearGradient><linearGradient
       x1="0"
       y1="0"
       x2="1"
       y2="0"
       gradientUnits="userSpaceOnUse"
       gradientTransform="matrix(0,-95.989121,-95.989121,0,99.89502,273.66553)"
       spreadMethod="pad"
       id="linearGradient3047"><stop
         style="stop-opacity:1;stop-color:#59595b"
         offset="0"
         id="stop3049" /><stop
         style="stop-opacity:1;stop-color:#373535"
         offset="1"
         id="stop3051" /></linearGradient><linearGradient
       x1="0"
       y1="0"
       x2="1"
       y2="0"
       gradientUnits="userSpaceOnUse"
       gradientTransform="matrix(0,-95.989395,-95.989395,0,141.84619,273.66553)"
       spreadMethod="pad"
       id="linearGradient3067"><stop
         style="stop-opacity:1;stop-color:#59595b"
         offset="0"
         id="stop3069" /><stop
         style="stop-opacity:1;stop-color:#373535"
         offset="1"
         id="stop3071" /></linearGradient><linearGradient
       x1="0"
       y1="0"
       x2="1"
       y2="0"
       gradientUnits="userSpaceOnUse"
       gradientTransform="matrix(-1.53e-5,261.26523,261.26523,1.53e-5,141.84521,20.339844)"
       spreadMethod="pad"
       id="linearGradient3087"><stop
         style="stop-opacity:1;stop-color:#ffffff"
         offset="0"
         id="stop3089" /><stop
         style="stop-opacity:1;stop-color:#adc5e7"
         offset="1"
         id="stop3091" /></linearGradient><linearGradient
       x1="0"
       y1="0"
       x2="1"
       y2="0"
       gradientUnits="userSpaceOnUse"
       gradientTransform="matrix(0,-95.99025,-95.99025,0,188.48828,273.66602)"
       spreadMethod="pad"
       id="linearGradient3107"><stop
         style="stop-opacity:1;stop-color:#59595b"
         offset="0"
         id="stop3109" /><stop
         style="stop-opacity:1;stop-color:#373535"
         offset="1"
         id="stop3111" /></linearGradient><clipPath
       clipPathUnits="userSpaceOnUse"
       id="clipPath3119"><path
         d="M 0,300 300,300 300,0 0,0 0,300 z"
         id="path3121" /></clipPath><linearGradient
       x1="0"
       y1="0"
       x2="1"
       y2="0"
       gradientUnits="userSpaceOnUse"
       gradientTransform="matrix(-111.1459,-121.2507,-121.2507,111.1459,219.20312,182.89893)"
       spreadMethod="pad"
       id="linearGradient3139"><stop
         style="stop-opacity:1;stop-color:#fabca5"
         offset="0"
         id="stop3141" /><stop
         style="stop-opacity:1;stop-color:#d43135"
         offset="1"
         id="stop3143" /></linearGradient><clipPath
       clipPathUnits="userSpaceOnUse"
       id="clipPath3151"><path
         d="M 0,300 300,300 300,0 0,0 0,300 z"
         id="path3153" /></clipPath></defs><sodipodi:namedview
     pagecolor="#ffffff"
     bordercolor="#666666"
     borderopacity="1"
     objecttolerance="10"
     gridtolerance="10"
     guidetolerance="10"
     inkscape:pageopacity="0"
     inkscape:pageshadow="2"
     inkscape:window-width="1220"
     inkscape:window-height="894"
     id="namedview2987"
     showgrid="false"
     inkscape:zoom="0.776"
     inkscape:cx="-1.3306894"
     inkscape:cy="187.5"
     inkscape:window-x="0"
     inkscape:window-y="0"
     inkscape:window-maximized="0"
     inkscape:current-layer="g2993" /><g
     id="g2993"
     inkscape:groupmode="layer"
     inkscape:label="youtube_icon"
     transform="matrix(1.25,0,0,-1.25,0,375)"><g
       id="g3035"
       transform="matrix(1.2571631,0,0,1.2571631,-33.164613,-42.35048)"
       style="fill:#ffffff"><g
         id="g3037"
         style="fill:#ffffff"><g
           id="g3043"
           style="fill:#ffffff"><g
             id="g3045"
             style="fill:#ffffff"><path
               d="m 109.818,270.779 -10.103,-34.282 -9.383,34.282 -13.712,0 16.238,-50.16 0,-40.417 13.713,0 0,40.417 16.6,50.16 -13.353,0 z"
               style="fill:#ffffff;stroke:none"
               id="path3053"
               inkscape:connector-curvature="0" /></g></g></g></g><g
       id="g3055"
       transform="matrix(1.2571631,0,0,1.2571631,-33.164613,-42.35048)"
       style="fill:#ffffff"><g
         id="g3057"
         style="fill:#ffffff"><g
           id="g3063"
           style="fill:#ffffff"><g
             id="g3065"
             style="fill:#ffffff"><path
               d="m 124.434,233.249 0,-39.334 c 0,0 0.902,-15.518 17.141,-15.518 l 0,0 c 16.238,0 17.684,14.435 17.684,14.435 l 0,0 0,40.417 c 0,0 -1.445,15.698 -17.414,15.698 l 0,0 c -15.967,0 -17.411,-15.698 -17.411,-15.698"
               style="fill:#ffffff;stroke:none"
               id="path3073"
               inkscape:connector-curvature="0" /></g></g></g></g><g
       id="g3075"
       transform="matrix(1.2571631,0,0,1.2571631,-33.164613,-42.35048)"
       style="fill:#000000"><g
         id="g3077"
         style="fill:#000000"><g
           id="g3083"
           style="fill:#000000"><g
             id="g3085"
             style="fill:#000000"><path
               d="m 135.621,232.167 0,-36.267 c 0,0 0.723,-6.857 6.224,-6.857 l 0,0 c 5.504,0 6.226,7.037 6.226,7.037 l 0,0 0,35.726 c 0,0 -0.54,6.675 -6.226,6.675 l 0,0 c 0,0 -0.116,0.01 -0.317,0.01 l 0,0 c -1.267,0 -5.907,-0.404 -5.907,-6.324"
               style="fill:#000000;stroke:none"
               id="path3093"
               inkscape:connector-curvature="0" /></g></g></g></g><g
       id="g3095"
       transform="matrix(1.2571631,0,0,1.2571631,-33.164613,-42.35048)"
       style="fill:#ffffff"><g
         id="g3097"
         style="fill:#ffffff"><g
           id="g3103"
           style="fill:#ffffff"><g
             id="g3105"
             style="fill:#ffffff"><path
               d="m 193.54,247.504 0.361,-50.161 c 0,0 -2.526,-8.48 -7.578,-8.3 l 0,0 c -5.052,0.18 -3.97,3.428 -3.97,3.428 l 0,0 -0.36,55.033 -11.368,0 0,-60.626 c 0,0 0.18,-8.481 9.383,-8.481 l 0,0 c 9.201,0 13.712,9.023 13.712,9.023 l 0,0 0,-7.218 12.63,0 0,67.302 -12.81,0 z"
               style="fill:#ffffff;stroke:none"
               id="path3113"
               inkscape:connector-curvature="0" /></g></g></g></g><g
       id="g3115"
       transform="matrix(1.2571631,0,0,1.2571631,-33.164613,-42.35048)"><g
         id="g3117"
         clip-path="url(#clipPath3119)"><g
           id="g3123"
           transform="translate(41.9766,106.9473)"><path
             d="m 0,0 c 0,0 -3.248,-67.122 25.26,-69.647 28.509,-2.526 82.278,-4.693 160.586,0 0,0 28.147,-4.692 28.147,69.647 0,0 3.968,63.873 -25.262,66.759 -29.23,2.887 -90.214,3.609 -161.305,0 C 27.426,66.759 0,69.647 0,0"
             style="fill:#d13135;fill-opacity:1;fill-rule:nonzero;stroke:none"
             id="path3125"
             inkscape:connector-curvature="0" /></g></g></g><g
       id="g3147"
       transform="matrix(1.2571631,0,0,1.2571631,-33.164613,-42.35048)"><g
         id="g3149"
         clip-path="url(#clipPath3151)"><g
           id="g3155"
           transform="translate(61.4629,154.4004)"><path
             d="m 0,0 42.763,0 0,-12.812 -14.255,0 0,-79.209 -13.893,0 0,79.209 L 0,-12.812 0,0 z"
             style="fill:#ffffff;fill-opacity:1;fill-rule:nonzero;stroke:none"
             id="path3157"
             inkscape:connector-curvature="0" /></g><g
           id="g3159"
           transform="translate(107.6548,130.584)"><path
             d="m 0,0 0,-60.625 c 0,0 0.18,-8.481 9.381,-8.481 9.202,0 13.714,9.021 13.714,9.021 l 0,-7.217 12.63,0 0,67.302 -12.811,0 0.361,-50.161 c 0,0 -2.525,-8.479 -7.577,-8.3 -5.053,0.18 -3.97,3.428 -3.97,3.428 L 11.367,0 0,0 z"
             style="fill:#ffffff;fill-opacity:1;fill-rule:nonzero;stroke:none"
             id="path3161"
             inkscape:connector-curvature="0" /></g><g
           id="g3163"
           transform="translate(152.9424,154.4004)"><path
             d="m 0,0 12.991,0 0,-30.042 c 0,0 6.225,7.85 12.45,7.85 6.224,0 11.909,-5.144 11.909,-13.804 l 0,-44.116 c 0,0 0,-12.902 -10.827,-12.811 -10.826,0.091 -13.803,6.858 -13.803,6.858 l 0,-5.956 -12.72,0 L 0,0 z"
             style="fill:#ffffff;fill-opacity:1;fill-rule:nonzero;stroke:none"
             id="path3165"
             inkscape:connector-curvature="0" /></g><g
           id="g3167"
           transform="translate(165.9336,113.8027)"><path
             d="m 0,0 c 0,0 1.353,6.226 5.684,6.226 4.33,0 5.413,-3.519 5.413,-6.226 l 0,-34.913 c 0,0 0,-6.495 -5.413,-6.495 -5.413,0 -5.684,5.683 -5.684,5.683 L 0,0 z"
             style="fill:#ee3338;fill-opacity:1;fill-rule:nonzero;stroke:none"
             id="path3169"
             inkscape:connector-curvature="0" /></g><g
           id="g3171"
           transform="translate(199.7646,113.5322)"><path
             d="M 0,0 C 0,0 0.541,18.945 18.134,18.945 35.726,18.945 37.619,3.248 37.619,0 l 0,-19.215 -24.898,0 0,-15.698 c 0,0 0.269,-6.496 6.089,-6.225 5.819,0.271 6.089,6.225 5.819,12.991 l 12.99,0 c 0,0 2.166,-23.999 -18.809,-23.908 0,0 -18.81,-1.262 -18.81,16.601 L 0,0 z"
             style="fill:#ffffff;fill-opacity:1;fill-rule:nonzero;stroke:none"
             id="path3173"
             inkscape:connector-curvature="0" /></g><g
           id="g3175"
           transform="translate(212.7549,105.3428)"><path
             d="M 0,0 C 0,0 -2.372,14.686 5.852,14.686 14.074,14.686 12.18,0 12.18,0 L 0,0 z"
             style="fill:#ee3338;fill-opacity:1;fill-rule:nonzero;stroke:none"
             id="path3177"
             inkscape:connector-curvature="0" /></g></g></g></g></svg>